M48
; DRILL file {KiCad (5.1.5)-3} date 2/21/2020 12:25:53 PM
; FORMAT={-:-/ absolute / metric / decimal}
; #@! TF.CreationDate,2020-02-21T12:25:53-05:00
; #@! TF.GenerationSoftware,Kicad,Pcbnew,(5.1.5)-3
FMAT,2
METRIC
T1C0.254
T2C0.300
T3C0.500
T4C0.600
T5C0.700
T6C0.840
T7C0.890
T8C1.570
T9C2.410
T10C2.700
T11C3.250
%
G90
G05
T1
X48.75Y-113.0
X54.1Y-74.6
X66.0Y-76.7
X180.2Y-91.4
X180.273Y-63.021
X180.273Y-94.021
X180.3Y-60.3
X180.3Y-63.7
X180.3Y-94.7
X180.3Y-129.7
X180.5Y-64.41
X180.5Y-65.75
X180.5Y-95.41
X180.5Y-96.75
X180.5Y-130.41
X180.5Y-131.75
X180.6Y-57.8
X180.6Y-59.2
X180.6Y-90.2
X181.1Y-91.8
X181.7Y-60.8
X181.7Y-126.8
X182.6Y-62.9
X182.6Y-93.9
X183.188Y-56.812
X183.188Y-87.812
X183.2Y-58.7
X183.2Y-60.5
X183.2Y-89.7
X183.2Y-91.5
X184.2Y-57.7
X184.2Y-59.6
X184.2Y-88.7
X184.2Y-90.6
X189.0Y-129.75
X190.75Y-131.5
X190.791Y-62.709
X195.25Y-137.0
X196.25Y-137.5
X197.5Y-71.4
X197.5Y-102.1
X198.25Y-72.0
X198.25Y-102.75
X199.25Y-97.5
X200.0Y-52.25
X200.5Y-129.204
X202.2Y-84.1
X204.4Y-79.9
X205.25Y-85.5
X206.5Y-85.8
X207.3Y-79.9
X207.75Y-77.5
X207.9Y-85.4
X209.0Y-77.75
X209.0Y-79.0
X209.75Y-67.75
X210.0Y-79.5
X210.75Y-72.75
X211.1Y-78.0
X212.0Y-76.75
X212.8Y-75.7
X213.25Y-72.25
X214.2Y-72.6
X214.25Y-67.2
X214.25Y-73.75
X215.4Y-73.8
X216.0Y-74.75
X267.3Y-75.8
X267.3Y-77.3
X278.0Y-78.4
X278.0Y-79.25
X278.0Y-80.5
X278.0Y-81.927
X278.0Y-84.6
X278.3Y-69.4
X280.3Y-82.8
X282.1Y-68.7
X291.967Y-70.033
X292.533Y-69.467
X295.0Y-67.9
X295.0Y-68.7
X295.1Y-82.075
X295.1Y-82.7
X295.8Y-82.075
X295.8Y-82.7
X295.85Y-67.9
X295.85Y-68.7
X296.85Y-76.675
X296.85Y-77.325
X297.2Y-74.1
X297.2Y-74.9
X298.0Y-74.1
X298.0Y-74.9
X176.662Y-125.675
X176.662Y-126.955
X176.662Y-128.235
X176.662Y-129.515
X176.662Y-130.795
X177.322Y-126.315
X177.322Y-127.595
X177.322Y-128.875
X177.322Y-130.155
X177.982Y-125.675
X177.982Y-126.955
X177.982Y-128.235
X177.982Y-129.515
X177.982Y-130.795
X176.662Y-59.675
X176.662Y-60.955
X176.662Y-62.235
X176.662Y-63.515
X176.662Y-64.795
X177.322Y-60.315
X177.322Y-61.595
X177.322Y-62.875
X177.322Y-64.155
X177.982Y-59.675
X177.982Y-60.955
X177.982Y-62.235
X177.982Y-63.515
X177.982Y-64.795
X176.662Y-90.675
X176.662Y-91.955
X176.662Y-93.235
X176.662Y-94.515
X176.662Y-95.795
X177.322Y-91.315
X177.322Y-92.595
X177.322Y-93.875
X177.322Y-95.155
X177.982Y-90.675
X177.982Y-91.955
X177.982Y-93.235
X177.982Y-94.515
X177.982Y-95.795
T2
X-1.5Y-23.0
X30.0Y-60.0
X30.0Y-72.5
X30.0Y-80.0
X30.0Y-87.5
X30.0Y-95.0
X30.0Y-102.5
X30.0Y-127.5
X30.0Y-135.0
X32.0Y-67.0
X32.0Y-98.0
X32.0Y-133.0
X34.0Y-65.5
X34.0Y-68.5
X34.0Y-131.5
X34.0Y-134.5
X34.5Y-96.5
X34.5Y-99.5
X34.5Y-103.5
X35.0Y-73.25
X35.0Y-123.25
X35.0Y-139.25
X35.5Y-92.25
X36.5Y-61.5
X37.5Y-52.5
X37.5Y-57.5
X37.5Y-142.5
X37.5Y-147.5
X38.5Y-65.5
X38.5Y-68.5
X38.5Y-96.5
X38.5Y-99.5
X38.5Y-131.5
X38.5Y-134.5
X40.75Y-67.0
X40.75Y-98.0
X40.75Y-133.0
X41.25Y-66.0
X41.25Y-68.0
X41.25Y-97.0
X41.25Y-99.0
X41.25Y-132.0
X41.25Y-134.0
X42.4Y-115.2
X42.4Y-121.8
X42.5Y-90.0
X42.5Y-105.0
X42.5Y-110.0
X42.5Y-119.0
X42.75Y-77.5
X42.75Y-81.5
X43.8Y-123.2
X44.6Y-117.0
X44.75Y-83.25
X45.0Y-55.0
X45.0Y-60.0
X45.0Y-147.5
X47.0Y-78.2
X48.5Y-78.5
X48.5Y-148.0
X49.0Y-79.5
X49.5Y-84.75
X49.8Y-74.8
X50.0Y-94.25
X50.0Y-101.75
X50.0Y-142.5
X50.0Y-148.0
X51.22Y-79.7
X51.25Y-74.75
X52.25Y-73.075
X52.5Y-55.0
X52.5Y-60.0
X53.0Y-63.25
X53.0Y-70.75
X53.0Y-85.384
X53.0Y-118.0
X53.0Y-129.25
X53.0Y-136.75
X53.4Y-76.7
X54.0Y-85.75
X54.5Y-118.25
X54.75Y-85.0
X55.5Y-84.25
X55.75Y-60.8
X55.75Y-72.25
X55.75Y-116.75
X56.0Y-80.0
X56.25Y-116.0
X57.25Y-56.3
X57.25Y-60.55
X57.25Y-71.6
X57.75Y-79.7
X57.75Y-110.7
X57.75Y-145.7
X58.75Y-71.6
X59.5Y-72.25
X60.25Y-90.25
X60.25Y-125.25
X60.5Y-60.55
X60.75Y-80.5
X61.0Y-142.0
X61.25Y-107.25
X62.0Y-86.5
X62.0Y-110.0
X62.0Y-115.25
X62.0Y-121.75
X63.75Y-81.5
X63.75Y-106.0
X63.75Y-139.75
X67.6Y-59.8
X67.6Y-74.2
X67.6Y-90.8
X67.6Y-105.2
X67.6Y-125.8
X67.6Y-140.2
X73.75Y-79.4
X73.75Y-110.4
X73.75Y-145.4
X75.0Y-59.8
X75.0Y-74.2
X75.0Y-81.0
X75.0Y-90.8
X75.0Y-105.2
X75.0Y-112.0
X75.0Y-125.8
X75.0Y-140.2
X76.2Y-74.2
X76.2Y-105.2
X76.2Y-140.2
X77.0Y-54.6
X77.0Y-85.6
X77.0Y-120.6
X77.2Y-57.0
X77.2Y-68.2
X77.2Y-79.4
X77.2Y-88.0
X77.2Y-99.2
X77.2Y-110.4
X77.2Y-123.0
X77.2Y-134.2
X77.2Y-145.4
X77.6Y-72.4
X77.6Y-103.4
X77.6Y-138.4
X78.2Y-65.8
X78.2Y-96.8
X78.2Y-131.8
X82.6Y-79.4
X82.6Y-110.4
X82.6Y-145.4
X82.8Y-54.6
X82.8Y-56.6
X82.8Y-77.4
X82.8Y-85.6
X82.8Y-87.6
X82.8Y-108.4
X82.8Y-120.6
X82.8Y-122.6
X82.8Y-143.4
X85.2Y-61.0
X85.2Y-73.0
X85.2Y-92.0
X85.2Y-104.0
X85.2Y-127.0
X85.2Y-139.0
X86.462Y-62.062
X86.462Y-93.062
X86.462Y-128.062
X86.6Y-72.0
X86.6Y-103.0
X86.6Y-138.0
X89.0Y-59.4
X89.0Y-90.4
X89.0Y-125.4
X90.5Y-86.0
X90.6Y-58.0
X90.6Y-89.0
X90.6Y-124.0
X91.6Y-69.2
X91.6Y-100.2
X91.6Y-135.2
X91.8Y-61.8
X91.8Y-92.8
X91.8Y-127.8
X92.662Y-72.237
X92.662Y-103.237
X92.662Y-138.237
X92.8Y-65.0
X92.8Y-96.0
X92.8Y-131.0
X95.6Y-76.1
X95.6Y-107.1
X95.6Y-142.1
X96.2Y-61.8
X96.2Y-92.8
X96.2Y-127.8
X96.8Y-75.1
X96.8Y-106.1
X96.8Y-141.1
X96.979Y-69.779
X96.979Y-100.779
X96.979Y-135.779
X97.0Y-68.4
X97.0Y-99.4
X97.0Y-134.4
X97.1Y-72.3
X97.1Y-103.3
X97.1Y-138.3
X99.6Y-64.2
X99.6Y-65.8
X99.6Y-95.2
X99.6Y-96.8
X99.6Y-130.2
X99.6Y-131.8
X105.0Y-103.5
X109.0Y-64.8
X109.0Y-69.2
X109.0Y-95.8
X109.0Y-100.2
X109.0Y-130.8
X109.0Y-135.2
X112.0Y-121.0
X112.2Y-59.0
X112.2Y-125.0
X112.5Y-55.0
X113.0Y-67.0
X113.0Y-98.0
X113.0Y-133.0
X113.5Y-86.0
X113.5Y-94.0
X115.2Y-57.0
X115.2Y-60.8
X115.2Y-73.25
X115.2Y-76.85
X115.2Y-88.0
X115.2Y-91.8
X115.2Y-104.25
X115.2Y-107.85
X115.2Y-123.0
X115.2Y-126.8
X115.2Y-139.25
X115.2Y-142.85
X116.0Y-87.0
X116.0Y-94.0
X116.0Y-122.5
X116.0Y-127.5
X118.0Y-56.0
X118.0Y-62.0
X118.0Y-72.0
X118.0Y-78.0
X119.5Y-104.0
X119.5Y-121.0
X120.0Y-55.0
X120.0Y-67.0
X120.0Y-98.0
X120.0Y-133.0
X120.5Y-86.0
X120.6Y-61.0
X120.6Y-92.0
X120.6Y-127.0
X120.75Y-104.0
X120.75Y-108.25
X121.0Y-138.5
X121.0Y-143.5
X121.25Y-73.25
X121.25Y-77.0
X121.4Y-57.2
X121.4Y-88.2
X121.4Y-123.2
X121.5Y-109.5
X122.0Y-103.0
X123.2Y-143.05
X123.4Y-138.85
X123.5Y-71.5
X123.5Y-78.0
X124.0Y-141.05
X127.5Y-55.0
X128.0Y-67.0
X128.0Y-86.0
X128.0Y-98.0
X128.0Y-133.0
X133.0Y-57.0
X133.0Y-76.0
X133.0Y-107.0
X133.0Y-142.0
X134.5Y-121.0
X135.0Y-55.0
X135.5Y-86.0
X136.4Y-78.2
X136.4Y-109.2
X136.4Y-144.2
X138.0Y-133.0
X138.8Y-76.0
X138.8Y-107.0
X138.8Y-142.0
X140.0Y-135.0
X142.0Y-76.0
X142.0Y-107.0
X142.0Y-121.0
X142.0Y-142.0
X142.5Y-55.0
X143.0Y-86.0
X143.6Y-75.0
X143.6Y-106.0
X143.6Y-141.0
X144.2Y-59.062
X144.2Y-61.0
X144.2Y-73.2
X144.2Y-90.062
X144.2Y-92.0
X144.2Y-104.2
X144.2Y-125.062
X144.2Y-127.0
X144.2Y-139.2
X144.6Y-78.2
X144.6Y-109.2
X144.6Y-144.2
X144.8Y-65.0
X144.8Y-96.0
X144.8Y-131.0
X145.2Y-69.0
X145.2Y-100.0
X145.2Y-135.0
X145.51Y-57.91
X145.51Y-88.91
X145.51Y-123.91
X145.6Y-76.0
X145.6Y-107.0
X145.6Y-142.0
X146.8Y-61.0
X146.8Y-68.8
X146.8Y-75.0
X146.8Y-92.0
X146.8Y-99.8
X146.8Y-106.0
X146.8Y-127.0
X146.8Y-134.8
X146.8Y-141.0
X146.938Y-59.062
X146.938Y-90.062
X146.938Y-125.062
X147.0Y-73.2
X147.0Y-104.2
X147.0Y-139.2
X148.8Y-66.0
X148.8Y-68.0
X148.8Y-97.0
X148.8Y-99.0
X148.8Y-132.0
X148.8Y-134.0
X149.6Y-76.8
X149.6Y-107.8
X149.6Y-142.8
X149.8Y-57.2
X149.8Y-88.2
X149.8Y-123.2
X150.0Y-65.2
X150.0Y-69.0
X150.0Y-96.2
X150.0Y-100.0
X150.0Y-131.2
X150.0Y-135.0
X151.0Y-78.2
X151.0Y-109.2
X151.0Y-144.2
X151.2Y-66.0
X151.2Y-68.0
X151.2Y-97.0
X151.2Y-99.0
X151.2Y-132.0
X151.2Y-134.0
X153.0Y-55.8
X153.0Y-58.6
X153.0Y-78.4
X153.0Y-86.8
X153.0Y-89.6
X153.0Y-109.4
X153.0Y-121.8
X153.0Y-124.6
X153.0Y-144.4
X154.0Y-76.8
X154.0Y-107.8
X154.0Y-142.8
X154.2Y-57.2
X154.2Y-88.2
X154.2Y-123.2
X154.6Y-64.4
X154.6Y-95.4
X154.6Y-130.4
X154.8Y-74.4
X154.8Y-105.4
X154.8Y-140.4
X155.0Y-110.5
X155.5Y-79.0
X155.5Y-145.5
X156.0Y-76.8
X156.0Y-107.8
X156.0Y-142.8
X156.2Y-72.0
X156.2Y-103.0
X156.2Y-138.0
X156.4Y-64.4
X156.4Y-95.4
X156.4Y-130.4
X157.0Y-75.0
X157.0Y-106.0
X157.0Y-141.0
X158.0Y-76.8
X158.0Y-107.8
X158.0Y-142.8
X159.0Y-75.0
X159.0Y-79.0
X159.0Y-106.0
X159.0Y-110.5
X159.0Y-141.0
X159.0Y-145.5
X160.0Y-76.8
X160.0Y-107.8
X160.0Y-142.8
X161.0Y-75.0
X161.0Y-106.0
X161.0Y-141.0
X162.0Y-76.8
X162.0Y-79.0
X162.0Y-107.8
X162.0Y-142.8
X162.0Y-145.5
X162.5Y-110.5
X163.0Y-75.0
X163.0Y-106.0
X163.0Y-141.0
X164.5Y-70.5
X164.5Y-102.0
X164.5Y-137.0
X165.106Y-64.287
X165.106Y-95.287
X165.106Y-130.287
X165.2Y-58.9
X165.2Y-89.9
X165.2Y-124.9
X166.4Y-57.4
X166.4Y-65.7
X166.4Y-88.4
X166.4Y-96.7
X166.4Y-123.4
X166.4Y-131.7
X167.0Y-68.0
X167.0Y-99.5
X167.0Y-134.5
X167.6Y-64.8
X167.6Y-95.8
X167.6Y-130.8
X167.7Y-58.4
X167.7Y-89.4
X167.7Y-124.4
X169.0Y-87.0
X169.2Y-79.0
X169.2Y-110.0
X169.2Y-145.0
X169.4Y-65.1
X169.4Y-66.4
X169.4Y-96.1
X169.4Y-97.4
X169.4Y-131.1
X169.4Y-132.4
X169.5Y-56.5
X169.5Y-73.75
X169.5Y-76.0
X169.5Y-104.75
X169.5Y-107.0
X169.5Y-122.5
X169.5Y-139.75
X169.5Y-142.0
X170.6Y-67.7
X170.6Y-98.7
X170.6Y-133.7
X171.0Y-53.0
X171.2Y-58.4
X171.2Y-60.4
X171.2Y-63.4
X171.2Y-89.4
X171.2Y-91.4
X171.2Y-94.4
X171.2Y-124.4
X171.2Y-126.4
X171.2Y-129.4
X171.75Y-73.75
X171.75Y-76.0
X171.75Y-104.75
X171.75Y-107.0
X171.75Y-139.75
X171.75Y-142.0
X172.0Y-70.0
X172.0Y-71.0
X172.0Y-101.0
X172.0Y-102.0
X172.0Y-136.0
X172.0Y-137.0
X172.2Y-57.2
X172.2Y-59.4
X172.2Y-88.2
X172.2Y-90.4
X172.2Y-123.2
X172.2Y-125.4
X172.6Y-79.0
X172.6Y-110.0
X172.6Y-145.0
X172.75Y-68.0
X172.75Y-99.0
X172.75Y-134.0
X173.0Y-81.8
X173.25Y-69.25
X173.25Y-100.25
X173.25Y-135.25
X173.75Y-68.0
X173.75Y-99.0
X173.75Y-134.0
X173.8Y-56.8
X174.0Y-87.0
X174.0Y-88.0
X174.25Y-123.0
X174.5Y-70.0
X174.5Y-101.0
X174.5Y-136.0
X174.75Y-87.5
X174.75Y-88.5
X175.75Y-87.0
X175.75Y-88.75
X176.0Y-53.0
X176.0Y-56.0
X177.2Y-79.0
X177.2Y-110.0
X177.2Y-145.0
X177.5Y-87.5
X177.5Y-122.5
X178.0Y-67.0
X178.0Y-133.0
X178.5Y-98.0
X179.75Y-145.0
X180.2Y-126.3
X180.5Y-104.5
X180.5Y-139.5
X180.6Y-123.8
X180.6Y-125.2
X181.25Y-111.5
X181.5Y-116.75
X183.188Y-122.812
X183.2Y-124.7
X183.2Y-126.5
X184.2Y-123.7
X184.2Y-125.6
X185.75Y-117.5
X186.25Y-81.25
X186.25Y-100.5
X187.25Y-117.5
X188.5Y-117.25
X189.25Y-101.0
X189.25Y-104.0
X193.75Y-82.75
X194.25Y-120.75
X194.75Y-80.75
X196.25Y-80.75
X206.75Y-96.25
X208.5Y-117.0
X208.5Y-144.0
X208.75Y-98.5
X209.0Y-111.5
X209.0Y-124.5
X211.75Y-73.5
X213.0Y-98.5
X213.75Y-111.5
X214.0Y-117.0
X215.5Y-124.5
X215.5Y-144.0
X216.25Y-97.5
X217.5Y-96.25
X220.5Y-106.0
X221.0Y-96.25
X221.0Y-98.75
X221.0Y-102.75
X221.5Y-144.0
X221.7Y-93.0
X221.75Y-85.5
X225.0Y-98.75
X225.0Y-102.75
X226.5Y-106.0
X227.0Y-124.25
X227.0Y-134.5
X227.0Y-139.0
X227.0Y-144.0
X227.25Y-121.5
X228.25Y-108.5
X229.5Y-129.0
X229.75Y-98.75
X230.75Y-112.5
X232.4Y-122.2
X233.5Y-100.2
X242.0Y-120.75
X242.817Y-110.682
X243.5Y-117.75
X244.9Y-57.1
X246.0Y-117.75
X246.5Y-99.5
X247.25Y-123.5
X247.5Y-129.2
X248.0Y-110.75
X248.25Y-111.5
X248.6Y-108.0
X249.25Y-112.5
X249.8Y-109.4
X250.0Y-116.0
X250.0Y-129.2
X250.8Y-106.0
X251.2Y-123.0
X251.2Y-130.3
X251.25Y-110.0
X251.25Y-112.5
X251.4Y-140.0
X251.4Y-144.2
X251.8Y-134.0
X252.25Y-116.0
X252.6Y-129.2
X255.9Y-105.0
X256.0Y-137.4
X257.2Y-57.4
X257.2Y-59.3
X257.2Y-61.2
X257.2Y-63.1
X257.5Y-130.5
X258.3Y-144.1
X259.5Y-140.435
X260.4Y-115.8
X260.8Y-144.0
X261.0Y-106.0
X261.5Y-120.5
X263.0Y-130.5
X263.7Y-144.0
X264.5Y-115.0
X264.8Y-138.8
X266.4Y-112.2
X266.5Y-110.5
X267.0Y-106.0
X267.0Y-120.5
X268.6Y-134.8
X269.9Y-84.9
X271.05Y-82.4
X271.2Y-103.45
X271.312Y-134.812
X271.325Y-83.175
X271.4Y-75.4
X272.0Y-115.5
X272.5Y-74.3
X273.2Y-83.2
X273.6Y-84.9
X274.2Y-74.3
X274.75Y-77.25
X275.0Y-83.15
X275.05Y-77.95
X275.1Y-75.4
X277.0Y-106.0
X277.0Y-111.0
X277.0Y-120.0
X278.4Y-70.2
X278.5Y-116.0
X279.2Y-100.8
X279.8Y-80.0
X280.75Y-126.0
X280.9Y-79.0
X281.0Y-97.5
X281.9Y-80.8
X282.0Y-81.8
X283.0Y-78.3
X283.0Y-96.0
X283.4Y-73.3
X283.4Y-84.7
X284.5Y-115.0
X284.75Y-93.6
X284.75Y-123.25
X284.95Y-97.4
X285.0Y-59.7
X285.0Y-127.2
X285.027Y-60.6
X285.05Y-101.8
X285.05Y-110.7
X285.1Y-68.1
X285.1Y-69.9
X285.1Y-70.9
X285.15Y-99.8
X285.2Y-139.6
X285.25Y-119.25
X286.05Y-98.6
X286.075Y-96.175
X286.35Y-111.8
X286.45Y-100.6
X287.7Y-110.66
X287.75Y-101.8
X289.0Y-134.5
X289.0Y-139.5
X289.5Y-119.15
X289.5Y-123.15
X289.5Y-127.15
X289.5Y-129.25
X289.5Y-131.25
X289.6Y-121.15
X293.25Y-97.5
X294.4Y-58.4
X296.2Y-72.0
X297.25Y-80.0
X297.4Y-78.1
X297.8Y-82.1
X297.8Y-91.6
X297.8Y-93.6
X297.8Y-95.4
X297.9Y-89.5
X298.0Y-104.75
X298.0Y-107.75
X298.2Y-63.5
X298.2Y-84.4
X298.2Y-109.4
X298.35Y-98.0
X298.4Y-62.4
X298.4Y-67.6
X298.4Y-75.8
X298.4Y-86.6
X298.4Y-88.4
X298.4Y-90.6
X298.4Y-92.5
X298.4Y-94.4
X298.4Y-102.2
X298.55Y-108.6
X298.8Y-100.4
T3
X26.675Y-55.55
X27.268Y-54.118
X27.268Y-56.982
X28.7Y-53.525
X28.7Y-57.575
X30.132Y-54.118
X30.132Y-56.982
X30.725Y-55.55
X26.675Y-144.45
X27.268Y-143.018
X27.268Y-145.882
X28.7Y-142.425
X28.7Y-146.475
X30.132Y-143.018
X30.132Y-145.882
X30.725Y-144.45
T4
X111.4Y-83.5
X111.4Y-110.2
X111.5Y-90.0
X118.0Y-109.0
X118.0Y-144.75
X123.5Y-83.5
X123.5Y-94.75
X123.5Y-114.25
X125.25Y-63.75
X125.25Y-129.5
X126.0Y-114.25
X126.0Y-121.0
X128.5Y-83.5
X130.75Y-114.25
X167.5Y-83.5
X173.0Y-114.25
X174.25Y-83.5
X177.25Y-83.5
X178.5Y-114.25
X184.5Y-83.5
X192.0Y-82.25
X192.25Y-106.75
X193.75Y-110.25
X194.75Y-114.25
X200.8Y-142.85
X200.8Y-147.8
X208.25Y-119.5
X208.8Y-99.9
X208.9Y-102.65
X210.0Y-89.45
X210.0Y-95.6
X210.25Y-114.0
X210.75Y-108.0
X212.5Y-56.2
X212.7Y-62.3
X213.1Y-101.4
X213.1Y-102.9
X213.9Y-95.6
X214.0Y-89.4
X214.5Y-53.5
X214.5Y-64.8
X214.5Y-108.0
X214.5Y-114.0
X215.2Y-98.4
X216.25Y-62.25
X216.5Y-56.2
X217.0Y-119.25
X217.25Y-104.0
X217.3Y-102.6
X217.4Y-99.85
X217.5Y-106.25
X217.75Y-101.0
X217.75Y-121.0
X218.25Y-105.5
X219.0Y-101.0
X220.8Y-107.95
X221.25Y-114.0
X221.25Y-117.25
X221.25Y-121.25
X224.5Y-117.0
X225.0Y-108.0
X225.0Y-114.0
X225.25Y-121.25
X226.75Y-87.25
X228.5Y-117.5
X228.5Y-120.5
X230.0Y-87.25
X230.75Y-130.0
X233.75Y-135.9
X233.75Y-137.25
X241.2Y-135.8
X241.2Y-137.2
X244.5Y-107.0
X261.9Y-107.8
X262.0Y-118.1
X264.1Y-110.8
X266.25Y-118.1
X266.3Y-107.8
X271.8Y-140.4
X272.3Y-107.8
X272.5Y-118.1
X273.2Y-57.5
X274.5Y-110.7
X274.5Y-115.25
X275.1Y-60.5
X275.2Y-54.5
X276.5Y-118.1
X276.7Y-107.8
X279.5Y-55.2
X279.6Y-139.0
X280.55Y-99.9
X281.4Y-53.5
X282.85Y-97.7
X282.885Y-115.1
X284.7Y-113.108
X285.0Y-56.2
X285.0Y-57.4
T5
X179.45Y-134.85
X159.25Y-62.25
X86.0Y-143.2
X168.3Y-137.0
X179.45Y-68.85
X129.5Y-55.8
X205.5Y-91.5
X86.0Y-108.2
X179.45Y-55.4
X193.0Y-133.75
X86.0Y-87.8
X179.45Y-99.85
X261.5Y-74.0
X205.5Y-101.0
X205.5Y-114.5
X206.5Y-58.5
X179.45Y-86.4
X205.5Y-108.0
X159.25Y-128.25
X190.75Y-59.75
X40.0Y-60.25
X86.4Y-77.2
X179.45Y-121.4
X168.3Y-71.0
X159.25Y-93.25
X40.0Y-74.0
X129.5Y-78.0
X86.4Y-56.8
X168.3Y-102.0
X86.0Y-122.8
X189.5Y-90.0
X129.5Y-144.0
X129.5Y-109.0
X129.5Y-121.8
X129.5Y-86.8
T6
X157.23Y-55.23
X157.23Y-57.77
X158.5Y-56.5
X159.77Y-55.23
X159.77Y-57.77
X157.23Y-66.73
X157.23Y-69.27
X158.5Y-68.0
X159.77Y-66.73
X159.77Y-69.27
X243.73Y-87.23
X243.73Y-89.77
X245.0Y-88.5
X246.27Y-87.23
X246.27Y-89.77
X157.23Y-121.23
X157.23Y-123.77
X158.5Y-122.5
X159.77Y-121.23
X159.77Y-123.77
X157.23Y-132.73
X157.23Y-135.27
X158.5Y-134.0
X159.77Y-132.73
X159.77Y-135.27
X250.23Y-87.23
X250.23Y-89.77
X251.5Y-88.5
X252.77Y-87.23
X252.77Y-89.77
X157.23Y-86.23
X157.23Y-88.77
X158.5Y-87.5
X159.77Y-86.23
X159.77Y-88.77
X157.23Y-97.73
X157.23Y-100.27
X158.5Y-99.0
X159.77Y-97.73
X159.77Y-100.27
X256.73Y-87.23
X256.73Y-89.77
X258.0Y-88.5
X259.27Y-87.23
X259.27Y-89.77
X285.23Y-74.63
X285.23Y-77.17
X286.5Y-75.9
X287.77Y-74.63
X287.77Y-77.17
T7
X31.0Y-113.38
X31.0Y-115.42
X31.0Y-117.46
X31.0Y-119.5
X32.78Y-112.36
X32.78Y-114.4
X32.78Y-116.44
X32.78Y-118.48
X37.6Y-109.08
X37.6Y-111.37
X37.6Y-120.51
X37.6Y-122.8
T8
X31.89Y-107.81
X31.89Y-124.07
T9
X210.25Y-132.75
T10
X28.7Y-55.55
X28.7Y-144.45
T11
X28.46Y-109.59
X28.46Y-122.29
T0
M30
