G04 #@! TF.GenerationSoftware,KiCad,Pcbnew,(5.1.5)-3*
G04 #@! TF.CreationDate,2020-02-21T09:48:35-05:00*
G04 #@! TF.ProjectId,input_board,696e7075-745f-4626-9f61-72642e6b6963,rev?*
G04 #@! TF.SameCoordinates,Original*
G04 #@! TF.FileFunction,Soldermask,Bot*
G04 #@! TF.FilePolarity,Negative*
%FSLAX46Y46*%
G04 Gerber Fmt 4.6, Leading zero omitted, Abs format (unit mm)*
G04 Created by KiCad (PCBNEW (5.1.5)-3) date 2020-02-21 09:48:35*
%MOMM*%
%LPD*%
G04 APERTURE LIST*
%ADD10C,0.100000*%
G04 APERTURE END LIST*
D10*
G36*
X129729881Y-143242186D02*
G01*
X129873303Y-143301593D01*
X130002388Y-143387846D01*
X130112154Y-143497612D01*
X130198407Y-143626697D01*
X130257814Y-143770119D01*
X130288100Y-143922379D01*
X130288100Y-144077621D01*
X130257814Y-144229881D01*
X130198407Y-144373303D01*
X130112154Y-144502388D01*
X130002388Y-144612154D01*
X129873303Y-144698407D01*
X129729881Y-144757814D01*
X129577621Y-144788100D01*
X129422379Y-144788100D01*
X129270119Y-144757814D01*
X129126697Y-144698407D01*
X128997612Y-144612154D01*
X128887846Y-144502388D01*
X128801593Y-144373303D01*
X128742186Y-144229881D01*
X128711900Y-144077621D01*
X128711900Y-143922379D01*
X128742186Y-143770119D01*
X128801593Y-143626697D01*
X128887846Y-143497612D01*
X128997612Y-143387846D01*
X129126697Y-143301593D01*
X129270119Y-143242186D01*
X129422379Y-143211900D01*
X129577621Y-143211900D01*
X129729881Y-143242186D01*
G37*
G36*
X86229881Y-142442186D02*
G01*
X86373303Y-142501593D01*
X86502388Y-142587846D01*
X86612154Y-142697612D01*
X86698407Y-142826697D01*
X86757814Y-142970119D01*
X86788100Y-143122379D01*
X86788100Y-143277621D01*
X86757814Y-143429881D01*
X86698407Y-143573303D01*
X86612154Y-143702388D01*
X86502388Y-143812154D01*
X86373303Y-143898407D01*
X86229881Y-143957814D01*
X86077621Y-143988100D01*
X85922379Y-143988100D01*
X85770119Y-143957814D01*
X85626697Y-143898407D01*
X85497612Y-143812154D01*
X85387846Y-143702388D01*
X85301593Y-143573303D01*
X85242186Y-143429881D01*
X85211900Y-143277621D01*
X85211900Y-143122379D01*
X85242186Y-142970119D01*
X85301593Y-142826697D01*
X85387846Y-142697612D01*
X85497612Y-142587846D01*
X85626697Y-142501593D01*
X85770119Y-142442186D01*
X85922379Y-142411900D01*
X86077621Y-142411900D01*
X86229881Y-142442186D01*
G37*
G36*
X168529881Y-136242186D02*
G01*
X168673303Y-136301593D01*
X168802388Y-136387846D01*
X168912154Y-136497612D01*
X168998407Y-136626697D01*
X169057814Y-136770119D01*
X169088100Y-136922379D01*
X169088100Y-137077621D01*
X169057814Y-137229881D01*
X168998407Y-137373303D01*
X168912154Y-137502388D01*
X168802388Y-137612154D01*
X168673303Y-137698407D01*
X168529881Y-137757814D01*
X168377621Y-137788100D01*
X168222379Y-137788100D01*
X168070119Y-137757814D01*
X167926697Y-137698407D01*
X167797612Y-137612154D01*
X167687846Y-137502388D01*
X167601593Y-137373303D01*
X167542186Y-137229881D01*
X167511900Y-137077621D01*
X167511900Y-136922379D01*
X167542186Y-136770119D01*
X167601593Y-136626697D01*
X167687846Y-136497612D01*
X167797612Y-136387846D01*
X167926697Y-136301593D01*
X168070119Y-136242186D01*
X168222379Y-136211900D01*
X168377621Y-136211900D01*
X168529881Y-136242186D01*
G37*
G36*
X157336136Y-134620119D02*
G01*
X157421962Y-134637191D01*
X157541728Y-134686799D01*
X157649516Y-134758821D01*
X157741179Y-134850484D01*
X157813201Y-134958272D01*
X157862809Y-135078038D01*
X157875454Y-135141611D01*
X157888100Y-135205183D01*
X157888100Y-135334817D01*
X157884605Y-135352388D01*
X157862809Y-135461962D01*
X157813201Y-135581728D01*
X157741179Y-135689516D01*
X157649516Y-135781179D01*
X157541728Y-135853201D01*
X157421962Y-135902809D01*
X157358389Y-135915455D01*
X157294817Y-135928100D01*
X157165183Y-135928100D01*
X157101611Y-135915455D01*
X157038038Y-135902809D01*
X156918272Y-135853201D01*
X156810484Y-135781179D01*
X156718821Y-135689516D01*
X156646799Y-135581728D01*
X156597191Y-135461962D01*
X156575395Y-135352388D01*
X156571900Y-135334817D01*
X156571900Y-135205183D01*
X156584545Y-135141611D01*
X156597191Y-135078038D01*
X156646799Y-134958272D01*
X156718821Y-134850484D01*
X156810484Y-134758821D01*
X156918272Y-134686799D01*
X157038038Y-134637191D01*
X157123864Y-134620119D01*
X157165183Y-134611900D01*
X157294817Y-134611900D01*
X157336136Y-134620119D01*
G37*
G36*
X159876136Y-134620119D02*
G01*
X159961962Y-134637191D01*
X160081728Y-134686799D01*
X160189516Y-134758821D01*
X160281179Y-134850484D01*
X160353201Y-134958272D01*
X160402809Y-135078038D01*
X160415454Y-135141611D01*
X160428100Y-135205183D01*
X160428100Y-135334817D01*
X160424605Y-135352388D01*
X160402809Y-135461962D01*
X160353201Y-135581728D01*
X160281179Y-135689516D01*
X160189516Y-135781179D01*
X160081728Y-135853201D01*
X159961962Y-135902809D01*
X159898389Y-135915455D01*
X159834817Y-135928100D01*
X159705183Y-135928100D01*
X159641611Y-135915455D01*
X159578038Y-135902809D01*
X159458272Y-135853201D01*
X159350484Y-135781179D01*
X159258821Y-135689516D01*
X159186799Y-135581728D01*
X159137191Y-135461962D01*
X159115395Y-135352388D01*
X159111900Y-135334817D01*
X159111900Y-135205183D01*
X159124545Y-135141611D01*
X159137191Y-135078038D01*
X159186799Y-134958272D01*
X159258821Y-134850484D01*
X159350484Y-134758821D01*
X159458272Y-134686799D01*
X159578038Y-134637191D01*
X159663864Y-134620119D01*
X159705183Y-134611900D01*
X159834817Y-134611900D01*
X159876136Y-134620119D01*
G37*
G36*
X179679881Y-134092186D02*
G01*
X179823303Y-134151593D01*
X179952388Y-134237846D01*
X180062154Y-134347612D01*
X180148407Y-134476697D01*
X180207814Y-134620119D01*
X180238100Y-134772379D01*
X180238100Y-134927621D01*
X180207814Y-135079881D01*
X180148407Y-135223303D01*
X180105110Y-135288100D01*
X180073896Y-135334816D01*
X180062154Y-135352388D01*
X179952388Y-135462154D01*
X179823303Y-135548407D01*
X179679881Y-135607814D01*
X179527621Y-135638100D01*
X179372379Y-135638100D01*
X179220119Y-135607814D01*
X179076697Y-135548407D01*
X178947612Y-135462154D01*
X178837846Y-135352388D01*
X178826105Y-135334816D01*
X178794890Y-135288100D01*
X178751593Y-135223303D01*
X178692186Y-135079881D01*
X178661900Y-134927621D01*
X178661900Y-134772379D01*
X178692186Y-134620119D01*
X178751593Y-134476697D01*
X178837846Y-134347612D01*
X178947612Y-134237846D01*
X179076697Y-134151593D01*
X179220119Y-134092186D01*
X179372379Y-134061900D01*
X179527621Y-134061900D01*
X179679881Y-134092186D01*
G37*
G36*
X210990337Y-130309438D02*
G01*
X211452242Y-130500764D01*
X211703537Y-130668675D01*
X211853286Y-130768734D01*
X211867946Y-130778530D01*
X212221470Y-131132054D01*
X212499236Y-131547758D01*
X212690562Y-132009663D01*
X212788100Y-132500019D01*
X212788100Y-132999981D01*
X212690562Y-133490337D01*
X212499236Y-133952242D01*
X212221470Y-134367946D01*
X211867946Y-134721470D01*
X211452242Y-134999236D01*
X210990337Y-135190562D01*
X210499981Y-135288100D01*
X210000019Y-135288100D01*
X209509663Y-135190562D01*
X209047758Y-134999236D01*
X208632054Y-134721470D01*
X208278530Y-134367946D01*
X208000764Y-133952242D01*
X207809438Y-133490337D01*
X207711900Y-132999981D01*
X207711900Y-132500019D01*
X207809438Y-132009663D01*
X208000764Y-131547758D01*
X208278530Y-131132054D01*
X208632054Y-130778530D01*
X208646715Y-130768734D01*
X208796463Y-130668675D01*
X209047758Y-130500764D01*
X209509663Y-130309438D01*
X210000019Y-130211900D01*
X210499981Y-130211900D01*
X210990337Y-130309438D01*
G37*
G36*
X158628389Y-133354546D02*
G01*
X158691962Y-133367191D01*
X158811728Y-133416799D01*
X158919516Y-133488821D01*
X159011179Y-133580484D01*
X159083201Y-133688272D01*
X159132809Y-133808038D01*
X159158100Y-133935184D01*
X159158100Y-134064816D01*
X159132809Y-134191962D01*
X159083201Y-134311728D01*
X159011179Y-134419516D01*
X158919516Y-134511179D01*
X158811728Y-134583201D01*
X158691962Y-134632809D01*
X158669932Y-134637191D01*
X158564817Y-134658100D01*
X158435183Y-134658100D01*
X158330068Y-134637191D01*
X158308038Y-134632809D01*
X158188272Y-134583201D01*
X158080484Y-134511179D01*
X157988821Y-134419516D01*
X157916799Y-134311728D01*
X157867191Y-134191962D01*
X157841900Y-134064816D01*
X157841900Y-133935184D01*
X157867191Y-133808038D01*
X157916799Y-133688272D01*
X157988821Y-133580484D01*
X158080484Y-133488821D01*
X158188272Y-133416799D01*
X158308038Y-133367191D01*
X158371611Y-133354546D01*
X158435183Y-133341900D01*
X158564817Y-133341900D01*
X158628389Y-133354546D01*
G37*
G36*
X193229881Y-132992186D02*
G01*
X193373303Y-133051593D01*
X193502388Y-133137846D01*
X193612154Y-133247612D01*
X193698407Y-133376697D01*
X193757814Y-133520119D01*
X193788100Y-133672379D01*
X193788100Y-133827621D01*
X193757814Y-133979881D01*
X193698407Y-134123303D01*
X193612154Y-134252388D01*
X193502388Y-134362154D01*
X193502385Y-134362156D01*
X193502384Y-134362157D01*
X193493720Y-134367946D01*
X193373303Y-134448407D01*
X193229881Y-134507814D01*
X193077621Y-134538100D01*
X192922379Y-134538100D01*
X192770119Y-134507814D01*
X192626697Y-134448407D01*
X192506280Y-134367946D01*
X192497616Y-134362157D01*
X192497615Y-134362156D01*
X192497612Y-134362154D01*
X192387846Y-134252388D01*
X192301593Y-134123303D01*
X192242186Y-133979881D01*
X192211900Y-133827621D01*
X192211900Y-133672379D01*
X192242186Y-133520119D01*
X192301593Y-133376697D01*
X192387846Y-133247612D01*
X192497612Y-133137846D01*
X192626697Y-133051593D01*
X192770119Y-132992186D01*
X192922379Y-132961900D01*
X193077621Y-132961900D01*
X193229881Y-132992186D01*
G37*
G36*
X157358389Y-132084545D02*
G01*
X157421962Y-132097191D01*
X157541728Y-132146799D01*
X157649516Y-132218821D01*
X157741179Y-132310484D01*
X157813201Y-132418272D01*
X157862809Y-132538038D01*
X157888100Y-132665184D01*
X157888100Y-132794816D01*
X157862809Y-132921962D01*
X157813201Y-133041728D01*
X157741179Y-133149516D01*
X157649516Y-133241179D01*
X157541728Y-133313201D01*
X157421962Y-133362809D01*
X157399932Y-133367191D01*
X157294817Y-133388100D01*
X157165183Y-133388100D01*
X157060068Y-133367191D01*
X157038038Y-133362809D01*
X156918272Y-133313201D01*
X156810484Y-133241179D01*
X156718821Y-133149516D01*
X156646799Y-133041728D01*
X156597191Y-132921962D01*
X156571900Y-132794816D01*
X156571900Y-132665184D01*
X156597191Y-132538038D01*
X156646799Y-132418272D01*
X156718821Y-132310484D01*
X156810484Y-132218821D01*
X156918272Y-132146799D01*
X157038038Y-132097191D01*
X157101611Y-132084545D01*
X157165183Y-132071900D01*
X157294817Y-132071900D01*
X157358389Y-132084545D01*
G37*
G36*
X159898389Y-132084545D02*
G01*
X159961962Y-132097191D01*
X160081728Y-132146799D01*
X160189516Y-132218821D01*
X160281179Y-132310484D01*
X160353201Y-132418272D01*
X160402809Y-132538038D01*
X160428100Y-132665184D01*
X160428100Y-132794816D01*
X160402809Y-132921962D01*
X160353201Y-133041728D01*
X160281179Y-133149516D01*
X160189516Y-133241179D01*
X160081728Y-133313201D01*
X159961962Y-133362809D01*
X159939932Y-133367191D01*
X159834817Y-133388100D01*
X159705183Y-133388100D01*
X159600068Y-133367191D01*
X159578038Y-133362809D01*
X159458272Y-133313201D01*
X159350484Y-133241179D01*
X159258821Y-133149516D01*
X159186799Y-133041728D01*
X159137191Y-132921962D01*
X159111900Y-132794816D01*
X159111900Y-132665184D01*
X159137191Y-132538038D01*
X159186799Y-132418272D01*
X159258821Y-132310484D01*
X159350484Y-132218821D01*
X159458272Y-132146799D01*
X159578038Y-132097191D01*
X159641611Y-132084545D01*
X159705183Y-132071900D01*
X159834817Y-132071900D01*
X159898389Y-132084545D01*
G37*
G36*
X176740293Y-130538550D02*
G01*
X176740294Y-130538550D01*
X176740297Y-130538551D01*
X176788825Y-130558651D01*
X176788829Y-130558653D01*
X176788830Y-130558654D01*
X176832511Y-130587841D01*
X176832515Y-130587844D01*
X176869656Y-130624985D01*
X176898849Y-130668675D01*
X176918949Y-130717203D01*
X176929200Y-130768734D01*
X176929200Y-130821266D01*
X176918949Y-130872797D01*
X176898849Y-130921325D01*
X176869656Y-130965015D01*
X176832515Y-131002156D01*
X176832512Y-131002158D01*
X176832511Y-131002159D01*
X176788830Y-131031346D01*
X176788829Y-131031347D01*
X176788825Y-131031349D01*
X176740297Y-131051449D01*
X176740294Y-131051450D01*
X176740293Y-131051450D01*
X176688768Y-131061700D01*
X176636232Y-131061700D01*
X176584707Y-131051450D01*
X176584706Y-131051450D01*
X176584703Y-131051449D01*
X176536175Y-131031349D01*
X176536171Y-131031347D01*
X176536170Y-131031346D01*
X176492489Y-131002159D01*
X176492488Y-131002158D01*
X176492485Y-131002156D01*
X176455344Y-130965015D01*
X176426151Y-130921325D01*
X176406051Y-130872797D01*
X176395800Y-130821266D01*
X176395800Y-130768734D01*
X176406051Y-130717203D01*
X176426151Y-130668675D01*
X176455344Y-130624985D01*
X176492485Y-130587844D01*
X176492489Y-130587841D01*
X176536170Y-130558654D01*
X176536171Y-130558653D01*
X176536175Y-130558651D01*
X176584703Y-130538551D01*
X176584706Y-130538550D01*
X176584707Y-130538550D01*
X176636232Y-130528300D01*
X176688768Y-130528300D01*
X176740293Y-130538550D01*
G37*
G36*
X178060293Y-130538550D02*
G01*
X178060294Y-130538550D01*
X178060297Y-130538551D01*
X178108825Y-130558651D01*
X178108829Y-130558653D01*
X178108830Y-130558654D01*
X178152511Y-130587841D01*
X178152515Y-130587844D01*
X178189656Y-130624985D01*
X178218849Y-130668675D01*
X178238949Y-130717203D01*
X178249200Y-130768734D01*
X178249200Y-130821266D01*
X178238949Y-130872797D01*
X178218849Y-130921325D01*
X178189656Y-130965015D01*
X178152515Y-131002156D01*
X178152512Y-131002158D01*
X178152511Y-131002159D01*
X178108830Y-131031346D01*
X178108829Y-131031347D01*
X178108825Y-131031349D01*
X178060297Y-131051449D01*
X178060294Y-131051450D01*
X178060293Y-131051450D01*
X178008768Y-131061700D01*
X177956232Y-131061700D01*
X177904707Y-131051450D01*
X177904706Y-131051450D01*
X177904703Y-131051449D01*
X177856175Y-131031349D01*
X177856171Y-131031347D01*
X177856170Y-131031346D01*
X177812489Y-131002159D01*
X177812488Y-131002158D01*
X177812485Y-131002156D01*
X177775344Y-130965015D01*
X177746151Y-130921325D01*
X177726051Y-130872797D01*
X177715800Y-130821266D01*
X177715800Y-130768734D01*
X177726051Y-130717203D01*
X177746151Y-130668675D01*
X177775344Y-130624985D01*
X177812485Y-130587844D01*
X177812489Y-130587841D01*
X177856170Y-130558654D01*
X177856171Y-130558653D01*
X177856175Y-130558651D01*
X177904703Y-130538551D01*
X177904706Y-130538550D01*
X177904707Y-130538550D01*
X177956232Y-130528300D01*
X178008768Y-130528300D01*
X178060293Y-130538550D01*
G37*
G36*
X177400293Y-129898550D02*
G01*
X177400294Y-129898550D01*
X177400297Y-129898551D01*
X177448825Y-129918651D01*
X177448829Y-129918653D01*
X177448830Y-129918654D01*
X177492511Y-129947841D01*
X177492515Y-129947844D01*
X177529656Y-129984985D01*
X177558849Y-130028675D01*
X177578949Y-130077203D01*
X177589200Y-130128734D01*
X177589200Y-130181266D01*
X177578949Y-130232797D01*
X177558849Y-130281325D01*
X177558847Y-130281329D01*
X177558846Y-130281330D01*
X177529659Y-130325011D01*
X177529656Y-130325015D01*
X177492515Y-130362156D01*
X177492512Y-130362158D01*
X177492511Y-130362159D01*
X177448830Y-130391346D01*
X177448829Y-130391347D01*
X177448825Y-130391349D01*
X177400297Y-130411449D01*
X177400294Y-130411450D01*
X177400293Y-130411450D01*
X177348768Y-130421700D01*
X177296232Y-130421700D01*
X177244707Y-130411450D01*
X177244706Y-130411450D01*
X177244703Y-130411449D01*
X177196175Y-130391349D01*
X177196171Y-130391347D01*
X177196170Y-130391346D01*
X177152489Y-130362159D01*
X177152488Y-130362158D01*
X177152485Y-130362156D01*
X177115344Y-130325015D01*
X177115341Y-130325011D01*
X177086154Y-130281330D01*
X177086153Y-130281329D01*
X177086151Y-130281325D01*
X177066051Y-130232797D01*
X177055800Y-130181266D01*
X177055800Y-130128734D01*
X177066051Y-130077203D01*
X177086151Y-130028675D01*
X177115344Y-129984985D01*
X177152485Y-129947844D01*
X177152489Y-129947841D01*
X177196170Y-129918654D01*
X177196171Y-129918653D01*
X177196175Y-129918651D01*
X177244703Y-129898551D01*
X177244706Y-129898550D01*
X177244707Y-129898550D01*
X177296232Y-129888300D01*
X177348768Y-129888300D01*
X177400293Y-129898550D01*
G37*
G36*
X178060293Y-129258550D02*
G01*
X178060294Y-129258550D01*
X178060297Y-129258551D01*
X178108825Y-129278651D01*
X178108829Y-129278653D01*
X178108830Y-129278654D01*
X178152511Y-129307841D01*
X178152515Y-129307844D01*
X178189656Y-129344985D01*
X178218849Y-129388675D01*
X178238949Y-129437203D01*
X178249200Y-129488734D01*
X178249200Y-129541266D01*
X178238949Y-129592797D01*
X178218849Y-129641325D01*
X178189656Y-129685015D01*
X178152515Y-129722156D01*
X178152512Y-129722158D01*
X178152511Y-129722159D01*
X178108830Y-129751346D01*
X178108829Y-129751347D01*
X178108825Y-129751349D01*
X178060297Y-129771449D01*
X178060294Y-129771450D01*
X178060293Y-129771450D01*
X178008768Y-129781700D01*
X177956232Y-129781700D01*
X177904707Y-129771450D01*
X177904706Y-129771450D01*
X177904703Y-129771449D01*
X177856175Y-129751349D01*
X177856171Y-129751347D01*
X177856170Y-129751346D01*
X177812489Y-129722159D01*
X177812488Y-129722158D01*
X177812485Y-129722156D01*
X177775344Y-129685015D01*
X177746151Y-129641325D01*
X177726051Y-129592797D01*
X177715800Y-129541266D01*
X177715800Y-129488734D01*
X177726051Y-129437203D01*
X177746151Y-129388675D01*
X177775344Y-129344985D01*
X177812485Y-129307844D01*
X177812489Y-129307841D01*
X177856170Y-129278654D01*
X177856171Y-129278653D01*
X177856175Y-129278651D01*
X177904703Y-129258551D01*
X177904706Y-129258550D01*
X177904707Y-129258550D01*
X177956232Y-129248300D01*
X178008768Y-129248300D01*
X178060293Y-129258550D01*
G37*
G36*
X176740293Y-129258550D02*
G01*
X176740294Y-129258550D01*
X176740297Y-129258551D01*
X176788825Y-129278651D01*
X176788829Y-129278653D01*
X176788830Y-129278654D01*
X176832511Y-129307841D01*
X176832515Y-129307844D01*
X176869656Y-129344985D01*
X176898849Y-129388675D01*
X176918949Y-129437203D01*
X176929200Y-129488734D01*
X176929200Y-129541266D01*
X176918949Y-129592797D01*
X176898849Y-129641325D01*
X176869656Y-129685015D01*
X176832515Y-129722156D01*
X176832512Y-129722158D01*
X176832511Y-129722159D01*
X176788830Y-129751346D01*
X176788829Y-129751347D01*
X176788825Y-129751349D01*
X176740297Y-129771449D01*
X176740294Y-129771450D01*
X176740293Y-129771450D01*
X176688768Y-129781700D01*
X176636232Y-129781700D01*
X176584707Y-129771450D01*
X176584706Y-129771450D01*
X176584703Y-129771449D01*
X176536175Y-129751349D01*
X176536171Y-129751347D01*
X176536170Y-129751346D01*
X176492489Y-129722159D01*
X176492488Y-129722158D01*
X176492485Y-129722156D01*
X176455344Y-129685015D01*
X176426151Y-129641325D01*
X176406051Y-129592797D01*
X176395800Y-129541266D01*
X176395800Y-129488734D01*
X176406051Y-129437203D01*
X176426151Y-129388675D01*
X176455344Y-129344985D01*
X176492485Y-129307844D01*
X176492489Y-129307841D01*
X176536170Y-129278654D01*
X176536171Y-129278653D01*
X176536175Y-129278651D01*
X176584703Y-129258551D01*
X176584706Y-129258550D01*
X176584707Y-129258550D01*
X176636232Y-129248300D01*
X176688768Y-129248300D01*
X176740293Y-129258550D01*
G37*
G36*
X177400293Y-128618550D02*
G01*
X177400294Y-128618550D01*
X177400297Y-128618551D01*
X177448825Y-128638651D01*
X177448829Y-128638653D01*
X177448830Y-128638654D01*
X177492511Y-128667841D01*
X177492515Y-128667844D01*
X177529656Y-128704985D01*
X177558849Y-128748675D01*
X177578949Y-128797203D01*
X177578950Y-128797206D01*
X177578950Y-128797207D01*
X177589200Y-128848732D01*
X177589200Y-128901268D01*
X177578950Y-128952793D01*
X177578949Y-128952797D01*
X177558849Y-129001325D01*
X177558847Y-129001329D01*
X177558846Y-129001330D01*
X177529659Y-129045011D01*
X177529656Y-129045015D01*
X177492515Y-129082156D01*
X177492512Y-129082158D01*
X177492511Y-129082159D01*
X177448830Y-129111346D01*
X177448829Y-129111347D01*
X177448825Y-129111349D01*
X177400297Y-129131449D01*
X177400294Y-129131450D01*
X177400293Y-129131450D01*
X177348768Y-129141700D01*
X177296232Y-129141700D01*
X177244707Y-129131450D01*
X177244706Y-129131450D01*
X177244703Y-129131449D01*
X177196175Y-129111349D01*
X177196171Y-129111347D01*
X177196170Y-129111346D01*
X177152489Y-129082159D01*
X177152488Y-129082158D01*
X177152485Y-129082156D01*
X177115344Y-129045015D01*
X177115341Y-129045011D01*
X177086154Y-129001330D01*
X177086153Y-129001329D01*
X177086151Y-129001325D01*
X177066051Y-128952797D01*
X177066050Y-128952793D01*
X177055800Y-128901268D01*
X177055800Y-128848732D01*
X177066050Y-128797207D01*
X177066050Y-128797206D01*
X177066051Y-128797203D01*
X177086151Y-128748675D01*
X177115344Y-128704985D01*
X177152485Y-128667844D01*
X177152489Y-128667841D01*
X177196170Y-128638654D01*
X177196171Y-128638653D01*
X177196175Y-128638651D01*
X177244703Y-128618551D01*
X177244706Y-128618550D01*
X177244707Y-128618550D01*
X177296232Y-128608300D01*
X177348768Y-128608300D01*
X177400293Y-128618550D01*
G37*
G36*
X159479881Y-127492186D02*
G01*
X159623303Y-127551593D01*
X159752388Y-127637846D01*
X159862154Y-127747612D01*
X159862156Y-127747615D01*
X159862157Y-127747616D01*
X159890642Y-127790246D01*
X159948407Y-127876697D01*
X160007814Y-128020119D01*
X160038100Y-128172379D01*
X160038100Y-128327621D01*
X160007814Y-128479881D01*
X159948407Y-128623303D01*
X159918647Y-128667841D01*
X159864639Y-128748670D01*
X159862154Y-128752388D01*
X159752388Y-128862154D01*
X159623303Y-128948407D01*
X159479881Y-129007814D01*
X159327621Y-129038100D01*
X159172379Y-129038100D01*
X159020119Y-129007814D01*
X158876697Y-128948407D01*
X158747612Y-128862154D01*
X158637846Y-128752388D01*
X158635362Y-128748670D01*
X158581353Y-128667841D01*
X158551593Y-128623303D01*
X158492186Y-128479881D01*
X158461900Y-128327621D01*
X158461900Y-128172379D01*
X158492186Y-128020119D01*
X158551593Y-127876697D01*
X158609358Y-127790246D01*
X158637843Y-127747616D01*
X158637844Y-127747615D01*
X158637846Y-127747612D01*
X158747612Y-127637846D01*
X158876697Y-127551593D01*
X159020119Y-127492186D01*
X159172379Y-127461900D01*
X159327621Y-127461900D01*
X159479881Y-127492186D01*
G37*
G36*
X178060293Y-127978550D02*
G01*
X178060294Y-127978550D01*
X178060297Y-127978551D01*
X178108825Y-127998651D01*
X178108829Y-127998653D01*
X178108830Y-127998654D01*
X178152511Y-128027841D01*
X178152515Y-128027844D01*
X178189656Y-128064985D01*
X178218849Y-128108675D01*
X178238949Y-128157203D01*
X178249200Y-128208734D01*
X178249200Y-128261266D01*
X178238949Y-128312797D01*
X178218849Y-128361325D01*
X178189656Y-128405015D01*
X178152515Y-128442156D01*
X178152512Y-128442158D01*
X178152511Y-128442159D01*
X178108830Y-128471346D01*
X178108829Y-128471347D01*
X178108825Y-128471349D01*
X178060297Y-128491449D01*
X178060294Y-128491450D01*
X178060293Y-128491450D01*
X178008768Y-128501700D01*
X177956232Y-128501700D01*
X177904707Y-128491450D01*
X177904706Y-128491450D01*
X177904703Y-128491449D01*
X177856175Y-128471349D01*
X177856171Y-128471347D01*
X177856170Y-128471346D01*
X177812489Y-128442159D01*
X177812488Y-128442158D01*
X177812485Y-128442156D01*
X177775344Y-128405015D01*
X177746151Y-128361325D01*
X177726051Y-128312797D01*
X177715800Y-128261266D01*
X177715800Y-128208734D01*
X177726051Y-128157203D01*
X177746151Y-128108675D01*
X177775344Y-128064985D01*
X177812485Y-128027844D01*
X177812489Y-128027841D01*
X177856170Y-127998654D01*
X177856171Y-127998653D01*
X177856175Y-127998651D01*
X177904703Y-127978551D01*
X177904706Y-127978550D01*
X177904707Y-127978550D01*
X177956232Y-127968300D01*
X178008768Y-127968300D01*
X178060293Y-127978550D01*
G37*
G36*
X176740293Y-127978550D02*
G01*
X176740294Y-127978550D01*
X176740297Y-127978551D01*
X176788825Y-127998651D01*
X176788829Y-127998653D01*
X176788830Y-127998654D01*
X176832511Y-128027841D01*
X176832515Y-128027844D01*
X176869656Y-128064985D01*
X176898849Y-128108675D01*
X176918949Y-128157203D01*
X176929200Y-128208734D01*
X176929200Y-128261266D01*
X176918949Y-128312797D01*
X176898849Y-128361325D01*
X176869656Y-128405015D01*
X176832515Y-128442156D01*
X176832512Y-128442158D01*
X176832511Y-128442159D01*
X176788830Y-128471346D01*
X176788829Y-128471347D01*
X176788825Y-128471349D01*
X176740297Y-128491449D01*
X176740294Y-128491450D01*
X176740293Y-128491450D01*
X176688768Y-128501700D01*
X176636232Y-128501700D01*
X176584707Y-128491450D01*
X176584706Y-128491450D01*
X176584703Y-128491449D01*
X176536175Y-128471349D01*
X176536171Y-128471347D01*
X176536170Y-128471346D01*
X176492489Y-128442159D01*
X176492488Y-128442158D01*
X176492485Y-128442156D01*
X176455344Y-128405015D01*
X176426151Y-128361325D01*
X176406051Y-128312797D01*
X176395800Y-128261266D01*
X176395800Y-128208734D01*
X176406051Y-128157203D01*
X176426151Y-128108675D01*
X176455344Y-128064985D01*
X176492485Y-128027844D01*
X176492489Y-128027841D01*
X176536170Y-127998654D01*
X176536171Y-127998653D01*
X176536175Y-127998651D01*
X176584703Y-127978551D01*
X176584706Y-127978550D01*
X176584707Y-127978550D01*
X176636232Y-127968300D01*
X176688768Y-127968300D01*
X176740293Y-127978550D01*
G37*
G36*
X177400293Y-127338550D02*
G01*
X177400294Y-127338550D01*
X177400297Y-127338551D01*
X177448825Y-127358651D01*
X177448829Y-127358653D01*
X177448830Y-127358654D01*
X177492511Y-127387841D01*
X177492515Y-127387844D01*
X177529656Y-127424985D01*
X177558849Y-127468675D01*
X177578949Y-127517203D01*
X177578950Y-127517206D01*
X177578950Y-127517207D01*
X177589200Y-127568732D01*
X177589200Y-127621268D01*
X177585902Y-127637846D01*
X177578949Y-127672797D01*
X177558849Y-127721325D01*
X177558847Y-127721329D01*
X177558846Y-127721330D01*
X177541282Y-127747616D01*
X177529656Y-127765015D01*
X177492515Y-127802156D01*
X177492512Y-127802158D01*
X177492511Y-127802159D01*
X177448830Y-127831346D01*
X177448829Y-127831347D01*
X177448825Y-127831349D01*
X177400297Y-127851449D01*
X177400294Y-127851450D01*
X177400293Y-127851450D01*
X177348768Y-127861700D01*
X177296232Y-127861700D01*
X177244707Y-127851450D01*
X177244706Y-127851450D01*
X177244703Y-127851449D01*
X177196175Y-127831349D01*
X177196171Y-127831347D01*
X177196170Y-127831346D01*
X177152489Y-127802159D01*
X177152488Y-127802158D01*
X177152485Y-127802156D01*
X177115344Y-127765015D01*
X177103718Y-127747616D01*
X177086154Y-127721330D01*
X177086153Y-127721329D01*
X177086151Y-127721325D01*
X177066051Y-127672797D01*
X177059098Y-127637846D01*
X177055800Y-127621268D01*
X177055800Y-127568732D01*
X177066050Y-127517207D01*
X177066050Y-127517206D01*
X177066051Y-127517203D01*
X177086151Y-127468675D01*
X177115344Y-127424985D01*
X177152485Y-127387844D01*
X177152489Y-127387841D01*
X177196170Y-127358654D01*
X177196171Y-127358653D01*
X177196175Y-127358651D01*
X177244703Y-127338551D01*
X177244706Y-127338550D01*
X177244707Y-127338550D01*
X177296232Y-127328300D01*
X177348768Y-127328300D01*
X177400293Y-127338550D01*
G37*
G36*
X178060293Y-126698550D02*
G01*
X178060294Y-126698550D01*
X178060297Y-126698551D01*
X178108825Y-126718651D01*
X178108829Y-126718653D01*
X178108830Y-126718654D01*
X178152511Y-126747841D01*
X178152515Y-126747844D01*
X178189656Y-126784985D01*
X178218849Y-126828675D01*
X178238949Y-126877203D01*
X178249200Y-126928734D01*
X178249200Y-126981266D01*
X178238949Y-127032797D01*
X178218849Y-127081325D01*
X178189656Y-127125015D01*
X178152515Y-127162156D01*
X178152512Y-127162158D01*
X178152511Y-127162159D01*
X178108830Y-127191346D01*
X178108829Y-127191347D01*
X178108825Y-127191349D01*
X178060297Y-127211449D01*
X178060294Y-127211450D01*
X178060293Y-127211450D01*
X178008768Y-127221700D01*
X177956232Y-127221700D01*
X177904707Y-127211450D01*
X177904706Y-127211450D01*
X177904703Y-127211449D01*
X177856175Y-127191349D01*
X177856171Y-127191347D01*
X177856170Y-127191346D01*
X177812489Y-127162159D01*
X177812488Y-127162158D01*
X177812485Y-127162156D01*
X177775344Y-127125015D01*
X177746151Y-127081325D01*
X177726051Y-127032797D01*
X177715800Y-126981266D01*
X177715800Y-126928734D01*
X177726051Y-126877203D01*
X177746151Y-126828675D01*
X177775344Y-126784985D01*
X177812485Y-126747844D01*
X177812489Y-126747841D01*
X177856170Y-126718654D01*
X177856171Y-126718653D01*
X177856175Y-126718651D01*
X177904703Y-126698551D01*
X177904706Y-126698550D01*
X177904707Y-126698550D01*
X177956232Y-126688300D01*
X178008768Y-126688300D01*
X178060293Y-126698550D01*
G37*
G36*
X176740293Y-126698550D02*
G01*
X176740294Y-126698550D01*
X176740297Y-126698551D01*
X176788825Y-126718651D01*
X176788829Y-126718653D01*
X176788830Y-126718654D01*
X176832511Y-126747841D01*
X176832515Y-126747844D01*
X176869656Y-126784985D01*
X176898849Y-126828675D01*
X176918949Y-126877203D01*
X176929200Y-126928734D01*
X176929200Y-126981266D01*
X176918949Y-127032797D01*
X176898849Y-127081325D01*
X176869656Y-127125015D01*
X176832515Y-127162156D01*
X176832512Y-127162158D01*
X176832511Y-127162159D01*
X176788830Y-127191346D01*
X176788829Y-127191347D01*
X176788825Y-127191349D01*
X176740297Y-127211449D01*
X176740294Y-127211450D01*
X176740293Y-127211450D01*
X176688768Y-127221700D01*
X176636232Y-127221700D01*
X176584707Y-127211450D01*
X176584706Y-127211450D01*
X176584703Y-127211449D01*
X176536175Y-127191349D01*
X176536171Y-127191347D01*
X176536170Y-127191346D01*
X176492489Y-127162159D01*
X176492488Y-127162158D01*
X176492485Y-127162156D01*
X176455344Y-127125015D01*
X176426151Y-127081325D01*
X176406051Y-127032797D01*
X176395800Y-126981266D01*
X176395800Y-126928734D01*
X176406051Y-126877203D01*
X176426151Y-126828675D01*
X176455344Y-126784985D01*
X176492485Y-126747844D01*
X176492489Y-126747841D01*
X176536170Y-126718654D01*
X176536171Y-126718653D01*
X176536175Y-126718651D01*
X176584703Y-126698551D01*
X176584706Y-126698550D01*
X176584707Y-126698550D01*
X176636232Y-126688300D01*
X176688768Y-126688300D01*
X176740293Y-126698550D01*
G37*
G36*
X177400293Y-126058550D02*
G01*
X177400294Y-126058550D01*
X177400297Y-126058551D01*
X177448825Y-126078651D01*
X177448829Y-126078653D01*
X177448830Y-126078654D01*
X177492511Y-126107841D01*
X177492515Y-126107844D01*
X177529656Y-126144985D01*
X177558849Y-126188675D01*
X177578949Y-126237203D01*
X177589200Y-126288734D01*
X177589200Y-126341266D01*
X177578949Y-126392797D01*
X177558849Y-126441325D01*
X177529656Y-126485015D01*
X177492515Y-126522156D01*
X177492512Y-126522158D01*
X177492511Y-126522159D01*
X177448830Y-126551346D01*
X177448829Y-126551347D01*
X177448825Y-126551349D01*
X177400297Y-126571449D01*
X177400294Y-126571450D01*
X177400293Y-126571450D01*
X177348768Y-126581700D01*
X177296232Y-126581700D01*
X177244707Y-126571450D01*
X177244706Y-126571450D01*
X177244703Y-126571449D01*
X177196175Y-126551349D01*
X177196171Y-126551347D01*
X177196170Y-126551346D01*
X177152489Y-126522159D01*
X177152488Y-126522158D01*
X177152485Y-126522156D01*
X177115344Y-126485015D01*
X177086151Y-126441325D01*
X177066051Y-126392797D01*
X177055800Y-126341266D01*
X177055800Y-126288734D01*
X177066051Y-126237203D01*
X177086151Y-126188675D01*
X177115344Y-126144985D01*
X177152485Y-126107844D01*
X177152489Y-126107841D01*
X177196170Y-126078654D01*
X177196171Y-126078653D01*
X177196175Y-126078651D01*
X177244703Y-126058551D01*
X177244706Y-126058550D01*
X177244707Y-126058550D01*
X177296232Y-126048300D01*
X177348768Y-126048300D01*
X177400293Y-126058550D01*
G37*
G36*
X176740293Y-125418550D02*
G01*
X176740294Y-125418550D01*
X176740297Y-125418551D01*
X176788825Y-125438651D01*
X176788829Y-125438653D01*
X176788830Y-125438654D01*
X176832511Y-125467841D01*
X176832515Y-125467844D01*
X176869656Y-125504985D01*
X176898849Y-125548675D01*
X176918949Y-125597203D01*
X176929200Y-125648734D01*
X176929200Y-125701266D01*
X176918949Y-125752797D01*
X176898849Y-125801325D01*
X176869656Y-125845015D01*
X176832515Y-125882156D01*
X176832512Y-125882158D01*
X176832511Y-125882159D01*
X176788830Y-125911346D01*
X176788829Y-125911347D01*
X176788825Y-125911349D01*
X176740297Y-125931449D01*
X176740294Y-125931450D01*
X176740293Y-125931450D01*
X176688768Y-125941700D01*
X176636232Y-125941700D01*
X176584707Y-125931450D01*
X176584706Y-125931450D01*
X176584703Y-125931449D01*
X176536175Y-125911349D01*
X176536171Y-125911347D01*
X176536170Y-125911346D01*
X176492489Y-125882159D01*
X176492488Y-125882158D01*
X176492485Y-125882156D01*
X176455344Y-125845015D01*
X176426151Y-125801325D01*
X176406051Y-125752797D01*
X176395800Y-125701266D01*
X176395800Y-125648734D01*
X176406051Y-125597203D01*
X176426151Y-125548675D01*
X176455344Y-125504985D01*
X176492485Y-125467844D01*
X176492489Y-125467841D01*
X176536170Y-125438654D01*
X176536171Y-125438653D01*
X176536175Y-125438651D01*
X176584703Y-125418551D01*
X176584706Y-125418550D01*
X176584707Y-125418550D01*
X176636232Y-125408300D01*
X176688768Y-125408300D01*
X176740293Y-125418550D01*
G37*
G36*
X178060293Y-125418550D02*
G01*
X178060294Y-125418550D01*
X178060297Y-125418551D01*
X178108825Y-125438651D01*
X178108829Y-125438653D01*
X178108830Y-125438654D01*
X178152511Y-125467841D01*
X178152515Y-125467844D01*
X178189656Y-125504985D01*
X178218849Y-125548675D01*
X178238949Y-125597203D01*
X178249200Y-125648734D01*
X178249200Y-125701266D01*
X178238949Y-125752797D01*
X178218849Y-125801325D01*
X178189656Y-125845015D01*
X178152515Y-125882156D01*
X178152512Y-125882158D01*
X178152511Y-125882159D01*
X178108830Y-125911346D01*
X178108829Y-125911347D01*
X178108825Y-125911349D01*
X178060297Y-125931449D01*
X178060294Y-125931450D01*
X178060293Y-125931450D01*
X178008768Y-125941700D01*
X177956232Y-125941700D01*
X177904707Y-125931450D01*
X177904706Y-125931450D01*
X177904703Y-125931449D01*
X177856175Y-125911349D01*
X177856171Y-125911347D01*
X177856170Y-125911346D01*
X177812489Y-125882159D01*
X177812488Y-125882158D01*
X177812485Y-125882156D01*
X177775344Y-125845015D01*
X177746151Y-125801325D01*
X177726051Y-125752797D01*
X177715800Y-125701266D01*
X177715800Y-125648734D01*
X177726051Y-125597203D01*
X177746151Y-125548675D01*
X177775344Y-125504985D01*
X177812485Y-125467844D01*
X177812489Y-125467841D01*
X177856170Y-125438654D01*
X177856171Y-125438653D01*
X177856175Y-125438651D01*
X177904703Y-125418551D01*
X177904706Y-125418550D01*
X177904707Y-125418550D01*
X177956232Y-125408300D01*
X178008768Y-125408300D01*
X178060293Y-125418550D01*
G37*
G36*
X32192803Y-123071794D02*
G01*
X32381725Y-123150047D01*
X32551752Y-123263656D01*
X32696344Y-123408248D01*
X32809953Y-123578275D01*
X32888206Y-123767197D01*
X32928100Y-123967756D01*
X32928100Y-124172244D01*
X32888206Y-124372803D01*
X32809953Y-124561725D01*
X32696344Y-124731752D01*
X32551752Y-124876344D01*
X32381725Y-124989953D01*
X32192803Y-125068206D01*
X31992244Y-125108100D01*
X31787756Y-125108100D01*
X31587197Y-125068206D01*
X31398275Y-124989953D01*
X31228248Y-124876344D01*
X31083656Y-124731752D01*
X30970047Y-124561725D01*
X30891794Y-124372803D01*
X30851900Y-124172244D01*
X30851900Y-123967756D01*
X30891794Y-123767197D01*
X30970047Y-123578275D01*
X31083656Y-123408248D01*
X31228248Y-123263656D01*
X31398275Y-123150047D01*
X31587197Y-123071794D01*
X31787756Y-123031900D01*
X31992244Y-123031900D01*
X32192803Y-123071794D01*
G37*
G36*
X157358389Y-123124546D02*
G01*
X157421962Y-123137191D01*
X157541728Y-123186799D01*
X157649516Y-123258821D01*
X157741179Y-123350484D01*
X157813201Y-123458272D01*
X157862809Y-123578038D01*
X157888100Y-123705184D01*
X157888100Y-123834816D01*
X157862809Y-123961962D01*
X157813201Y-124081728D01*
X157741179Y-124189516D01*
X157649516Y-124281179D01*
X157541728Y-124353201D01*
X157421962Y-124402809D01*
X157358389Y-124415455D01*
X157294817Y-124428100D01*
X157165183Y-124428100D01*
X157101611Y-124415455D01*
X157038038Y-124402809D01*
X156918272Y-124353201D01*
X156810484Y-124281179D01*
X156718821Y-124189516D01*
X156646799Y-124081728D01*
X156597191Y-123961962D01*
X156571900Y-123834816D01*
X156571900Y-123705184D01*
X156597191Y-123578038D01*
X156646799Y-123458272D01*
X156718821Y-123350484D01*
X156810484Y-123258821D01*
X156918272Y-123186799D01*
X157038038Y-123137191D01*
X157101611Y-123124546D01*
X157165183Y-123111900D01*
X157294817Y-123111900D01*
X157358389Y-123124546D01*
G37*
G36*
X159898389Y-123124546D02*
G01*
X159961962Y-123137191D01*
X160081728Y-123186799D01*
X160189516Y-123258821D01*
X160281179Y-123350484D01*
X160353201Y-123458272D01*
X160402809Y-123578038D01*
X160428100Y-123705184D01*
X160428100Y-123834816D01*
X160402809Y-123961962D01*
X160353201Y-124081728D01*
X160281179Y-124189516D01*
X160189516Y-124281179D01*
X160081728Y-124353201D01*
X159961962Y-124402809D01*
X159898389Y-124415455D01*
X159834817Y-124428100D01*
X159705183Y-124428100D01*
X159641611Y-124415455D01*
X159578038Y-124402809D01*
X159458272Y-124353201D01*
X159350484Y-124281179D01*
X159258821Y-124189516D01*
X159186799Y-124081728D01*
X159137191Y-123961962D01*
X159111900Y-123834816D01*
X159111900Y-123705184D01*
X159137191Y-123578038D01*
X159186799Y-123458272D01*
X159258821Y-123350484D01*
X159350484Y-123258821D01*
X159458272Y-123186799D01*
X159578038Y-123137191D01*
X159641611Y-123124546D01*
X159705183Y-123111900D01*
X159834817Y-123111900D01*
X159898389Y-123124546D01*
G37*
G36*
X28945109Y-120690812D02*
G01*
X29247771Y-120816178D01*
X29520168Y-120998189D01*
X29751811Y-121229832D01*
X29751813Y-121229835D01*
X29751814Y-121229836D01*
X29797103Y-121297616D01*
X29933822Y-121502229D01*
X30059188Y-121804891D01*
X30123100Y-122126199D01*
X30123100Y-122453801D01*
X30059188Y-122775109D01*
X29933822Y-123077771D01*
X29812847Y-123258821D01*
X29783740Y-123302384D01*
X29751811Y-123350168D01*
X29520168Y-123581811D01*
X29247771Y-123763822D01*
X28945109Y-123889188D01*
X28623801Y-123953100D01*
X28296199Y-123953100D01*
X27974891Y-123889188D01*
X27672229Y-123763822D01*
X27399832Y-123581811D01*
X27168189Y-123350168D01*
X27136261Y-123302384D01*
X27107153Y-123258821D01*
X26986178Y-123077771D01*
X26860812Y-122775109D01*
X26796900Y-122453801D01*
X26796900Y-122126199D01*
X26860812Y-121804891D01*
X26986178Y-121502229D01*
X27122897Y-121297616D01*
X27168186Y-121229836D01*
X27168187Y-121229835D01*
X27168189Y-121229832D01*
X27399832Y-120998189D01*
X27672229Y-120816178D01*
X27974891Y-120690812D01*
X28296199Y-120626900D01*
X28623801Y-120626900D01*
X28945109Y-120690812D01*
G37*
G36*
X86229881Y-122042186D02*
G01*
X86373303Y-122101593D01*
X86502388Y-122187846D01*
X86612154Y-122297612D01*
X86612156Y-122297615D01*
X86612157Y-122297616D01*
X86619121Y-122308038D01*
X86698407Y-122426697D01*
X86757814Y-122570119D01*
X86788100Y-122722379D01*
X86788100Y-122877621D01*
X86757814Y-123029881D01*
X86698407Y-123173303D01*
X86612154Y-123302388D01*
X86502388Y-123412154D01*
X86373303Y-123498407D01*
X86229881Y-123557814D01*
X86077621Y-123588100D01*
X85922379Y-123588100D01*
X85770119Y-123557814D01*
X85626697Y-123498407D01*
X85497612Y-123412154D01*
X85387846Y-123302388D01*
X85301593Y-123173303D01*
X85242186Y-123029881D01*
X85211900Y-122877621D01*
X85211900Y-122722379D01*
X85242186Y-122570119D01*
X85301593Y-122426697D01*
X85380879Y-122308038D01*
X85387843Y-122297616D01*
X85387844Y-122297615D01*
X85387846Y-122297612D01*
X85497612Y-122187846D01*
X85626697Y-122101593D01*
X85770119Y-122042186D01*
X85922379Y-122011900D01*
X86077621Y-122011900D01*
X86229881Y-122042186D01*
G37*
G36*
X37829881Y-122042186D02*
G01*
X37973303Y-122101593D01*
X38102388Y-122187846D01*
X38212154Y-122297612D01*
X38212156Y-122297615D01*
X38212157Y-122297616D01*
X38219121Y-122308038D01*
X38298407Y-122426697D01*
X38357814Y-122570119D01*
X38388100Y-122722379D01*
X38388100Y-122877621D01*
X38357814Y-123029881D01*
X38298407Y-123173303D01*
X38212154Y-123302388D01*
X38102388Y-123412154D01*
X37973303Y-123498407D01*
X37829881Y-123557814D01*
X37677621Y-123588100D01*
X37522379Y-123588100D01*
X37370119Y-123557814D01*
X37226697Y-123498407D01*
X37097612Y-123412154D01*
X36987846Y-123302388D01*
X36901593Y-123173303D01*
X36842186Y-123029881D01*
X36811900Y-122877621D01*
X36811900Y-122722379D01*
X36842186Y-122570119D01*
X36901593Y-122426697D01*
X36980879Y-122308038D01*
X36987843Y-122297616D01*
X36987844Y-122297615D01*
X36987846Y-122297612D01*
X37097612Y-122187846D01*
X37226697Y-122101593D01*
X37370119Y-122042186D01*
X37522379Y-122011900D01*
X37677621Y-122011900D01*
X37829881Y-122042186D01*
G37*
G36*
X158628389Y-121854546D02*
G01*
X158691962Y-121867191D01*
X158811728Y-121916799D01*
X158919516Y-121988821D01*
X159011179Y-122080484D01*
X159083201Y-122188272D01*
X159132809Y-122308038D01*
X159132809Y-122308039D01*
X159156412Y-122426695D01*
X159158100Y-122435184D01*
X159158100Y-122564816D01*
X159132809Y-122691962D01*
X159083201Y-122811728D01*
X159011179Y-122919516D01*
X158919516Y-123011179D01*
X158811728Y-123083201D01*
X158691962Y-123132809D01*
X158669932Y-123137191D01*
X158564817Y-123158100D01*
X158435183Y-123158100D01*
X158330068Y-123137191D01*
X158308038Y-123132809D01*
X158188272Y-123083201D01*
X158080484Y-123011179D01*
X157988821Y-122919516D01*
X157916799Y-122811728D01*
X157867191Y-122691962D01*
X157841900Y-122564816D01*
X157841900Y-122435184D01*
X157843589Y-122426695D01*
X157867191Y-122308039D01*
X157867191Y-122308038D01*
X157916799Y-122188272D01*
X157988821Y-122080484D01*
X158080484Y-121988821D01*
X158188272Y-121916799D01*
X158308038Y-121867191D01*
X158371611Y-121854546D01*
X158435183Y-121841900D01*
X158564817Y-121841900D01*
X158628389Y-121854546D01*
G37*
G36*
X129729881Y-121042186D02*
G01*
X129873303Y-121101593D01*
X130002388Y-121187846D01*
X130112154Y-121297612D01*
X130198407Y-121426697D01*
X130257814Y-121570119D01*
X130288100Y-121722379D01*
X130288100Y-121877621D01*
X130257814Y-122029881D01*
X130198407Y-122173303D01*
X130188404Y-122188273D01*
X130115346Y-122297612D01*
X130112154Y-122302388D01*
X130002388Y-122412154D01*
X129873303Y-122498407D01*
X129729881Y-122557814D01*
X129577621Y-122588100D01*
X129422379Y-122588100D01*
X129270119Y-122557814D01*
X129126697Y-122498407D01*
X128997612Y-122412154D01*
X128887846Y-122302388D01*
X128884655Y-122297612D01*
X128811596Y-122188273D01*
X128801593Y-122173303D01*
X128742186Y-122029881D01*
X128711900Y-121877621D01*
X128711900Y-121722379D01*
X128742186Y-121570119D01*
X128801593Y-121426697D01*
X128887846Y-121297612D01*
X128997612Y-121187846D01*
X129126697Y-121101593D01*
X129270119Y-121042186D01*
X129422379Y-121011900D01*
X129577621Y-121011900D01*
X129729881Y-121042186D01*
G37*
G36*
X179679881Y-120642186D02*
G01*
X179823303Y-120701593D01*
X179952388Y-120787846D01*
X180062154Y-120897612D01*
X180062156Y-120897615D01*
X180062157Y-120897616D01*
X180090642Y-120940246D01*
X180148407Y-121026697D01*
X180207814Y-121170119D01*
X180238100Y-121322379D01*
X180238100Y-121477621D01*
X180207814Y-121629881D01*
X180148407Y-121773303D01*
X180062154Y-121902388D01*
X179952388Y-122012154D01*
X179823303Y-122098407D01*
X179679881Y-122157814D01*
X179527621Y-122188100D01*
X179372379Y-122188100D01*
X179220119Y-122157814D01*
X179076697Y-122098407D01*
X178947612Y-122012154D01*
X178837846Y-121902388D01*
X178751593Y-121773303D01*
X178692186Y-121629881D01*
X178661900Y-121477621D01*
X178661900Y-121322379D01*
X178692186Y-121170119D01*
X178751593Y-121026697D01*
X178809358Y-120940246D01*
X178837843Y-120897616D01*
X178837844Y-120897615D01*
X178837846Y-120897612D01*
X178947612Y-120787846D01*
X179076697Y-120701593D01*
X179220119Y-120642186D01*
X179372379Y-120611900D01*
X179527621Y-120611900D01*
X179679881Y-120642186D01*
G37*
G36*
X157358389Y-120584546D02*
G01*
X157421962Y-120597191D01*
X157541728Y-120646799D01*
X157649516Y-120718821D01*
X157741179Y-120810484D01*
X157813201Y-120918272D01*
X157862809Y-121038038D01*
X157888100Y-121165184D01*
X157888100Y-121294816D01*
X157862809Y-121421962D01*
X157813201Y-121541728D01*
X157741179Y-121649516D01*
X157649516Y-121741179D01*
X157541728Y-121813201D01*
X157421962Y-121862809D01*
X157399932Y-121867191D01*
X157294817Y-121888100D01*
X157165183Y-121888100D01*
X157060068Y-121867191D01*
X157038038Y-121862809D01*
X156918272Y-121813201D01*
X156810484Y-121741179D01*
X156718821Y-121649516D01*
X156646799Y-121541728D01*
X156597191Y-121421962D01*
X156571900Y-121294816D01*
X156571900Y-121165184D01*
X156597191Y-121038038D01*
X156646799Y-120918272D01*
X156718821Y-120810484D01*
X156810484Y-120718821D01*
X156918272Y-120646799D01*
X157038038Y-120597191D01*
X157101611Y-120584546D01*
X157165183Y-120571900D01*
X157294817Y-120571900D01*
X157358389Y-120584546D01*
G37*
G36*
X159898389Y-120584546D02*
G01*
X159961962Y-120597191D01*
X160081728Y-120646799D01*
X160189516Y-120718821D01*
X160281179Y-120810484D01*
X160353201Y-120918272D01*
X160402809Y-121038038D01*
X160428100Y-121165184D01*
X160428100Y-121294816D01*
X160402809Y-121421962D01*
X160353201Y-121541728D01*
X160281179Y-121649516D01*
X160189516Y-121741179D01*
X160081728Y-121813201D01*
X159961962Y-121862809D01*
X159939932Y-121867191D01*
X159834817Y-121888100D01*
X159705183Y-121888100D01*
X159600068Y-121867191D01*
X159578038Y-121862809D01*
X159458272Y-121813201D01*
X159350484Y-121741179D01*
X159258821Y-121649516D01*
X159186799Y-121541728D01*
X159137191Y-121421962D01*
X159111900Y-121294816D01*
X159111900Y-121165184D01*
X159137191Y-121038038D01*
X159186799Y-120918272D01*
X159258821Y-120810484D01*
X159350484Y-120718821D01*
X159458272Y-120646799D01*
X159578038Y-120597191D01*
X159641611Y-120584546D01*
X159705183Y-120571900D01*
X159834817Y-120571900D01*
X159898389Y-120584546D01*
G37*
G36*
X37829881Y-119752186D02*
G01*
X37973303Y-119811593D01*
X38102388Y-119897846D01*
X38212154Y-120007612D01*
X38298407Y-120136697D01*
X38357814Y-120280119D01*
X38388100Y-120432379D01*
X38388100Y-120587621D01*
X38357814Y-120739881D01*
X38298407Y-120883303D01*
X38212154Y-121012388D01*
X38102388Y-121122154D01*
X37973303Y-121208407D01*
X37829881Y-121267814D01*
X37677621Y-121298100D01*
X37522379Y-121298100D01*
X37370119Y-121267814D01*
X37226697Y-121208407D01*
X37097612Y-121122154D01*
X36987846Y-121012388D01*
X36901593Y-120883303D01*
X36842186Y-120739881D01*
X36811900Y-120587621D01*
X36811900Y-120432379D01*
X36842186Y-120280119D01*
X36901593Y-120136697D01*
X36987846Y-120007612D01*
X37097612Y-119897846D01*
X37226697Y-119811593D01*
X37370119Y-119752186D01*
X37522379Y-119721900D01*
X37677621Y-119721900D01*
X37829881Y-119752186D01*
G37*
G36*
X31788100Y-120288100D02*
G01*
X30211900Y-120288100D01*
X30211900Y-118711900D01*
X31788100Y-118711900D01*
X31788100Y-120288100D01*
G37*
G36*
X33009881Y-117722186D02*
G01*
X33153303Y-117781593D01*
X33282388Y-117867846D01*
X33392154Y-117977612D01*
X33478407Y-118106697D01*
X33537814Y-118250119D01*
X33568100Y-118402379D01*
X33568100Y-118557621D01*
X33537814Y-118709881D01*
X33478407Y-118853303D01*
X33392154Y-118982388D01*
X33282388Y-119092154D01*
X33153303Y-119178407D01*
X33009881Y-119237814D01*
X32857621Y-119268100D01*
X32702379Y-119268100D01*
X32550119Y-119237814D01*
X32406697Y-119178407D01*
X32277612Y-119092154D01*
X32167846Y-118982388D01*
X32081593Y-118853303D01*
X32022186Y-118709881D01*
X31991900Y-118557621D01*
X31991900Y-118402379D01*
X32022186Y-118250119D01*
X32081593Y-118106697D01*
X32167846Y-117977612D01*
X32277612Y-117867846D01*
X32406697Y-117781593D01*
X32550119Y-117722186D01*
X32702379Y-117691900D01*
X32857621Y-117691900D01*
X33009881Y-117722186D01*
G37*
G36*
X31229881Y-116702186D02*
G01*
X31373303Y-116761593D01*
X31502388Y-116847846D01*
X31612154Y-116957612D01*
X31698407Y-117086697D01*
X31757814Y-117230119D01*
X31788100Y-117382379D01*
X31788100Y-117537621D01*
X31757814Y-117689881D01*
X31698407Y-117833303D01*
X31612154Y-117962388D01*
X31502388Y-118072154D01*
X31373303Y-118158407D01*
X31229881Y-118217814D01*
X31077621Y-118248100D01*
X30922379Y-118248100D01*
X30770119Y-118217814D01*
X30626697Y-118158407D01*
X30497612Y-118072154D01*
X30387846Y-117962388D01*
X30301593Y-117833303D01*
X30242186Y-117689881D01*
X30211900Y-117537621D01*
X30211900Y-117382379D01*
X30242186Y-117230119D01*
X30301593Y-117086697D01*
X30387846Y-116957612D01*
X30497612Y-116847846D01*
X30626697Y-116761593D01*
X30770119Y-116702186D01*
X30922379Y-116671900D01*
X31077621Y-116671900D01*
X31229881Y-116702186D01*
G37*
G36*
X33009881Y-115682186D02*
G01*
X33153303Y-115741593D01*
X33282388Y-115827846D01*
X33392154Y-115937612D01*
X33478407Y-116066697D01*
X33537814Y-116210119D01*
X33568100Y-116362379D01*
X33568100Y-116517621D01*
X33537814Y-116669881D01*
X33478407Y-116813303D01*
X33392154Y-116942388D01*
X33282388Y-117052154D01*
X33153303Y-117138407D01*
X33009881Y-117197814D01*
X32857621Y-117228100D01*
X32702379Y-117228100D01*
X32550119Y-117197814D01*
X32406697Y-117138407D01*
X32277612Y-117052154D01*
X32167846Y-116942388D01*
X32081593Y-116813303D01*
X32022186Y-116669881D01*
X31991900Y-116517621D01*
X31991900Y-116362379D01*
X32022186Y-116210119D01*
X32081593Y-116066697D01*
X32167846Y-115937612D01*
X32277612Y-115827846D01*
X32406697Y-115741593D01*
X32550119Y-115682186D01*
X32702379Y-115651900D01*
X32857621Y-115651900D01*
X33009881Y-115682186D01*
G37*
G36*
X31229881Y-114662186D02*
G01*
X31373303Y-114721593D01*
X31502388Y-114807846D01*
X31612154Y-114917612D01*
X31698407Y-115046697D01*
X31757814Y-115190119D01*
X31788100Y-115342379D01*
X31788100Y-115497621D01*
X31757814Y-115649881D01*
X31698407Y-115793303D01*
X31612154Y-115922388D01*
X31502388Y-116032154D01*
X31373303Y-116118407D01*
X31229881Y-116177814D01*
X31077621Y-116208100D01*
X30922379Y-116208100D01*
X30770119Y-116177814D01*
X30626697Y-116118407D01*
X30497612Y-116032154D01*
X30387846Y-115922388D01*
X30301593Y-115793303D01*
X30242186Y-115649881D01*
X30211900Y-115497621D01*
X30211900Y-115342379D01*
X30242186Y-115190119D01*
X30301593Y-115046697D01*
X30387846Y-114917612D01*
X30497612Y-114807846D01*
X30626697Y-114721593D01*
X30770119Y-114662186D01*
X30922379Y-114631900D01*
X31077621Y-114631900D01*
X31229881Y-114662186D01*
G37*
G36*
X205729881Y-113742186D02*
G01*
X205873303Y-113801593D01*
X206002388Y-113887846D01*
X206112154Y-113997612D01*
X206198407Y-114126697D01*
X206257814Y-114270119D01*
X206288100Y-114422379D01*
X206288100Y-114577621D01*
X206257814Y-114729881D01*
X206198407Y-114873303D01*
X206112154Y-115002388D01*
X206002388Y-115112154D01*
X205873303Y-115198407D01*
X205729881Y-115257814D01*
X205577621Y-115288100D01*
X205422379Y-115288100D01*
X205270119Y-115257814D01*
X205126697Y-115198407D01*
X204997612Y-115112154D01*
X204887846Y-115002388D01*
X204801593Y-114873303D01*
X204742186Y-114729881D01*
X204711900Y-114577621D01*
X204711900Y-114422379D01*
X204742186Y-114270119D01*
X204801593Y-114126697D01*
X204887846Y-113997612D01*
X204997612Y-113887846D01*
X205126697Y-113801593D01*
X205270119Y-113742186D01*
X205422379Y-113711900D01*
X205577621Y-113711900D01*
X205729881Y-113742186D01*
G37*
G36*
X33009881Y-113642186D02*
G01*
X33153303Y-113701593D01*
X33282388Y-113787846D01*
X33392154Y-113897612D01*
X33478407Y-114026697D01*
X33537814Y-114170119D01*
X33568100Y-114322379D01*
X33568100Y-114477621D01*
X33537814Y-114629881D01*
X33478407Y-114773303D01*
X33392154Y-114902388D01*
X33282388Y-115012154D01*
X33153303Y-115098407D01*
X33009881Y-115157814D01*
X32857621Y-115188100D01*
X32702379Y-115188100D01*
X32550119Y-115157814D01*
X32406697Y-115098407D01*
X32277612Y-115012154D01*
X32167846Y-114902388D01*
X32081593Y-114773303D01*
X32022186Y-114629881D01*
X31991900Y-114477621D01*
X31991900Y-114322379D01*
X32022186Y-114170119D01*
X32081593Y-114026697D01*
X32167846Y-113897612D01*
X32277612Y-113787846D01*
X32406697Y-113701593D01*
X32550119Y-113642186D01*
X32702379Y-113611900D01*
X32857621Y-113611900D01*
X33009881Y-113642186D01*
G37*
G36*
X31229881Y-112622186D02*
G01*
X31373303Y-112681593D01*
X31502388Y-112767846D01*
X31612154Y-112877612D01*
X31698407Y-113006697D01*
X31757814Y-113150119D01*
X31788100Y-113302379D01*
X31788100Y-113457621D01*
X31757814Y-113609881D01*
X31698407Y-113753303D01*
X31612154Y-113882388D01*
X31502388Y-113992154D01*
X31373303Y-114078407D01*
X31229881Y-114137814D01*
X31077621Y-114168100D01*
X30922379Y-114168100D01*
X30770119Y-114137814D01*
X30626697Y-114078407D01*
X30497612Y-113992154D01*
X30387846Y-113882388D01*
X30301593Y-113753303D01*
X30242186Y-113609881D01*
X30211900Y-113457621D01*
X30211900Y-113302379D01*
X30242186Y-113150119D01*
X30301593Y-113006697D01*
X30387846Y-112877612D01*
X30497612Y-112767846D01*
X30626697Y-112681593D01*
X30770119Y-112622186D01*
X30922379Y-112591900D01*
X31077621Y-112591900D01*
X31229881Y-112622186D01*
G37*
G36*
X33009881Y-111602186D02*
G01*
X33153303Y-111661593D01*
X33282388Y-111747846D01*
X33392154Y-111857612D01*
X33392156Y-111857615D01*
X33392157Y-111857616D01*
X33402027Y-111872388D01*
X33478407Y-111986697D01*
X33537814Y-112130119D01*
X33568100Y-112282379D01*
X33568100Y-112437621D01*
X33537814Y-112589881D01*
X33478407Y-112733303D01*
X33392154Y-112862388D01*
X33282388Y-112972154D01*
X33153303Y-113058407D01*
X33009881Y-113117814D01*
X32857621Y-113148100D01*
X32702379Y-113148100D01*
X32550119Y-113117814D01*
X32406697Y-113058407D01*
X32277612Y-112972154D01*
X32167846Y-112862388D01*
X32081593Y-112733303D01*
X32022186Y-112589881D01*
X31991900Y-112437621D01*
X31991900Y-112282379D01*
X32022186Y-112130119D01*
X32081593Y-111986697D01*
X32157973Y-111872388D01*
X32167843Y-111857616D01*
X32167844Y-111857615D01*
X32167846Y-111857612D01*
X32277612Y-111747846D01*
X32406697Y-111661593D01*
X32550119Y-111602186D01*
X32702379Y-111571900D01*
X32857621Y-111571900D01*
X33009881Y-111602186D01*
G37*
G36*
X37829881Y-110612186D02*
G01*
X37973303Y-110671593D01*
X38102388Y-110757846D01*
X38212154Y-110867612D01*
X38298407Y-110996697D01*
X38357814Y-111140119D01*
X38388100Y-111292379D01*
X38388100Y-111447621D01*
X38357814Y-111599881D01*
X38298407Y-111743303D01*
X38295373Y-111747843D01*
X38222025Y-111857616D01*
X38212154Y-111872388D01*
X38102388Y-111982154D01*
X37973303Y-112068407D01*
X37829881Y-112127814D01*
X37677621Y-112158100D01*
X37522379Y-112158100D01*
X37370119Y-112127814D01*
X37226697Y-112068407D01*
X37097612Y-111982154D01*
X36987846Y-111872388D01*
X36977976Y-111857616D01*
X36904627Y-111747843D01*
X36901593Y-111743303D01*
X36842186Y-111599881D01*
X36811900Y-111447621D01*
X36811900Y-111292379D01*
X36842186Y-111140119D01*
X36901593Y-110996697D01*
X36987846Y-110867612D01*
X37097612Y-110757846D01*
X37226697Y-110671593D01*
X37370119Y-110612186D01*
X37522379Y-110581900D01*
X37677621Y-110581900D01*
X37829881Y-110612186D01*
G37*
G36*
X28945109Y-107990812D02*
G01*
X29247771Y-108116178D01*
X29520168Y-108298189D01*
X29751811Y-108529832D01*
X29751813Y-108529835D01*
X29751814Y-108529836D01*
X29806817Y-108612154D01*
X29933822Y-108802229D01*
X30059188Y-109104891D01*
X30123100Y-109426199D01*
X30123100Y-109753801D01*
X30059188Y-110075109D01*
X29933822Y-110377771D01*
X29751811Y-110650168D01*
X29520168Y-110881811D01*
X29247771Y-111063822D01*
X28945109Y-111189188D01*
X28623801Y-111253100D01*
X28296199Y-111253100D01*
X27974891Y-111189188D01*
X27672229Y-111063822D01*
X27399832Y-110881811D01*
X27168189Y-110650168D01*
X26986178Y-110377771D01*
X26860812Y-110075109D01*
X26796900Y-109753801D01*
X26796900Y-109426199D01*
X26860812Y-109104891D01*
X26986178Y-108802229D01*
X27113183Y-108612154D01*
X27168186Y-108529836D01*
X27168187Y-108529835D01*
X27168189Y-108529832D01*
X27399832Y-108298189D01*
X27672229Y-108116178D01*
X27974891Y-107990812D01*
X28296199Y-107926900D01*
X28623801Y-107926900D01*
X28945109Y-107990812D01*
G37*
G36*
X303688100Y-109888100D02*
G01*
X299311900Y-109888100D01*
X299311900Y-109111900D01*
X303688100Y-109111900D01*
X303688100Y-109888100D01*
G37*
G36*
X37829881Y-108322186D02*
G01*
X37973303Y-108381593D01*
X38102388Y-108467846D01*
X38212154Y-108577612D01*
X38298407Y-108706697D01*
X38357814Y-108850119D01*
X38388100Y-109002379D01*
X38388100Y-109157621D01*
X38357814Y-109309881D01*
X38298407Y-109453303D01*
X38212154Y-109582388D01*
X38102388Y-109692154D01*
X37973303Y-109778407D01*
X37829881Y-109837814D01*
X37677621Y-109868100D01*
X37522379Y-109868100D01*
X37370119Y-109837814D01*
X37226697Y-109778407D01*
X37097612Y-109692154D01*
X36987846Y-109582388D01*
X36901593Y-109453303D01*
X36842186Y-109309881D01*
X36811900Y-109157621D01*
X36811900Y-109002379D01*
X36842186Y-108850119D01*
X36901593Y-108706697D01*
X36987846Y-108577612D01*
X37097612Y-108467846D01*
X37226697Y-108381593D01*
X37370119Y-108322186D01*
X37522379Y-108291900D01*
X37677621Y-108291900D01*
X37829881Y-108322186D01*
G37*
G36*
X129729881Y-108242186D02*
G01*
X129873303Y-108301593D01*
X130002388Y-108387846D01*
X130112154Y-108497612D01*
X130112156Y-108497615D01*
X130112157Y-108497616D01*
X130133683Y-108529832D01*
X130198407Y-108626697D01*
X130257814Y-108770119D01*
X130288100Y-108922379D01*
X130288100Y-109077621D01*
X130257814Y-109229881D01*
X130198407Y-109373303D01*
X130112154Y-109502388D01*
X130002388Y-109612154D01*
X129873303Y-109698407D01*
X129729881Y-109757814D01*
X129577621Y-109788100D01*
X129422379Y-109788100D01*
X129270119Y-109757814D01*
X129126697Y-109698407D01*
X128997612Y-109612154D01*
X128887846Y-109502388D01*
X128801593Y-109373303D01*
X128742186Y-109229881D01*
X128711900Y-109077621D01*
X128711900Y-108922379D01*
X128742186Y-108770119D01*
X128801593Y-108626697D01*
X128866317Y-108529832D01*
X128887843Y-108497616D01*
X128887844Y-108497615D01*
X128887846Y-108497612D01*
X128997612Y-108387846D01*
X129126697Y-108301593D01*
X129270119Y-108242186D01*
X129422379Y-108211900D01*
X129577621Y-108211900D01*
X129729881Y-108242186D01*
G37*
G36*
X86229881Y-107442186D02*
G01*
X86373303Y-107501593D01*
X86502388Y-107587846D01*
X86612154Y-107697612D01*
X86698407Y-107826697D01*
X86757814Y-107970119D01*
X86788100Y-108122379D01*
X86788100Y-108277621D01*
X86757814Y-108429881D01*
X86698407Y-108573303D01*
X86669647Y-108616345D01*
X86614816Y-108698405D01*
X86612154Y-108702388D01*
X86502388Y-108812154D01*
X86373303Y-108898407D01*
X86229881Y-108957814D01*
X86077621Y-108988100D01*
X85922379Y-108988100D01*
X85770119Y-108957814D01*
X85626697Y-108898407D01*
X85497612Y-108812154D01*
X85387846Y-108702388D01*
X85385185Y-108698405D01*
X85330353Y-108616345D01*
X85301593Y-108573303D01*
X85242186Y-108429881D01*
X85211900Y-108277621D01*
X85211900Y-108122379D01*
X85242186Y-107970119D01*
X85301593Y-107826697D01*
X85387846Y-107697612D01*
X85497612Y-107587846D01*
X85626697Y-107501593D01*
X85770119Y-107442186D01*
X85922379Y-107411900D01*
X86077621Y-107411900D01*
X86229881Y-107442186D01*
G37*
G36*
X302588100Y-108888100D02*
G01*
X299311900Y-108888100D01*
X299311900Y-108111900D01*
X302588100Y-108111900D01*
X302588100Y-108888100D01*
G37*
G36*
X32192803Y-106811794D02*
G01*
X32381725Y-106890047D01*
X32551752Y-107003656D01*
X32696344Y-107148248D01*
X32809953Y-107318275D01*
X32888206Y-107507197D01*
X32928100Y-107707756D01*
X32928100Y-107912244D01*
X32888206Y-108112803D01*
X32809953Y-108301725D01*
X32696344Y-108471752D01*
X32551752Y-108616344D01*
X32381725Y-108729953D01*
X32192803Y-108808206D01*
X31992244Y-108848100D01*
X31787756Y-108848100D01*
X31587197Y-108808206D01*
X31398275Y-108729953D01*
X31228248Y-108616344D01*
X31083656Y-108471752D01*
X30970047Y-108301725D01*
X30891794Y-108112803D01*
X30851900Y-107912244D01*
X30851900Y-107707756D01*
X30891794Y-107507197D01*
X30970047Y-107318275D01*
X31083656Y-107148248D01*
X31228248Y-107003656D01*
X31398275Y-106890047D01*
X31587197Y-106811794D01*
X31787756Y-106771900D01*
X31992244Y-106771900D01*
X32192803Y-106811794D01*
G37*
G36*
X205729881Y-107242186D02*
G01*
X205873303Y-107301593D01*
X206002388Y-107387846D01*
X206112154Y-107497612D01*
X206112156Y-107497615D01*
X206112157Y-107497616D01*
X206118559Y-107507197D01*
X206198407Y-107626697D01*
X206257814Y-107770119D01*
X206288100Y-107922379D01*
X206288100Y-108077621D01*
X206257814Y-108229881D01*
X206198407Y-108373303D01*
X206160603Y-108429880D01*
X206115346Y-108497612D01*
X206112154Y-108502388D01*
X206002388Y-108612154D01*
X206002385Y-108612156D01*
X206002384Y-108612157D01*
X205996116Y-108616345D01*
X205873303Y-108698407D01*
X205729881Y-108757814D01*
X205577621Y-108788100D01*
X205422379Y-108788100D01*
X205270119Y-108757814D01*
X205126697Y-108698407D01*
X205003884Y-108616345D01*
X204997616Y-108612157D01*
X204997615Y-108612156D01*
X204997612Y-108612154D01*
X204887846Y-108502388D01*
X204884655Y-108497612D01*
X204839397Y-108429880D01*
X204801593Y-108373303D01*
X204742186Y-108229881D01*
X204711900Y-108077621D01*
X204711900Y-107922379D01*
X204742186Y-107770119D01*
X204801593Y-107626697D01*
X204881441Y-107507197D01*
X204887843Y-107497616D01*
X204887844Y-107497615D01*
X204887846Y-107497612D01*
X204997612Y-107387846D01*
X205126697Y-107301593D01*
X205270119Y-107242186D01*
X205422379Y-107211900D01*
X205577621Y-107211900D01*
X205729881Y-107242186D01*
G37*
G36*
X303688100Y-107888100D02*
G01*
X299311900Y-107888100D01*
X299311900Y-107111900D01*
X303688100Y-107111900D01*
X303688100Y-107888100D01*
G37*
G36*
X303688100Y-106888100D02*
G01*
X299311900Y-106888100D01*
X299311900Y-106111900D01*
X303688100Y-106111900D01*
X303688100Y-106888100D01*
G37*
G36*
X303688100Y-105888100D02*
G01*
X299311900Y-105888100D01*
X299311900Y-105111900D01*
X303688100Y-105111900D01*
X303688100Y-105888100D01*
G37*
G36*
X303688100Y-104888100D02*
G01*
X299311900Y-104888100D01*
X299311900Y-104111900D01*
X303688100Y-104111900D01*
X303688100Y-104888100D01*
G37*
G36*
X303688100Y-103888100D02*
G01*
X299311900Y-103888100D01*
X299311900Y-103111900D01*
X303688100Y-103111900D01*
X303688100Y-103888100D01*
G37*
G36*
X303688100Y-102888100D02*
G01*
X299311900Y-102888100D01*
X299311900Y-102111900D01*
X303688100Y-102111900D01*
X303688100Y-102888100D01*
G37*
G36*
X168529881Y-101242186D02*
G01*
X168673303Y-101301593D01*
X168802388Y-101387846D01*
X168912154Y-101497612D01*
X168912156Y-101497615D01*
X168912157Y-101497616D01*
X168940642Y-101540246D01*
X168998407Y-101626697D01*
X169057814Y-101770119D01*
X169088100Y-101922379D01*
X169088100Y-102077621D01*
X169057814Y-102229881D01*
X168998407Y-102373303D01*
X168912154Y-102502388D01*
X168802388Y-102612154D01*
X168673303Y-102698407D01*
X168529881Y-102757814D01*
X168377621Y-102788100D01*
X168222379Y-102788100D01*
X168070119Y-102757814D01*
X167926697Y-102698407D01*
X167797612Y-102612154D01*
X167687846Y-102502388D01*
X167601593Y-102373303D01*
X167542186Y-102229881D01*
X167511900Y-102077621D01*
X167511900Y-101922379D01*
X167542186Y-101770119D01*
X167601593Y-101626697D01*
X167659358Y-101540246D01*
X167687843Y-101497616D01*
X167687844Y-101497615D01*
X167687846Y-101497612D01*
X167797612Y-101387846D01*
X167926697Y-101301593D01*
X168070119Y-101242186D01*
X168222379Y-101211900D01*
X168377621Y-101211900D01*
X168529881Y-101242186D01*
G37*
G36*
X303688100Y-101888100D02*
G01*
X299311900Y-101888100D01*
X299311900Y-101111900D01*
X303688100Y-101111900D01*
X303688100Y-101888100D01*
G37*
G36*
X205729881Y-100242186D02*
G01*
X205873303Y-100301593D01*
X206002388Y-100387846D01*
X206112154Y-100497612D01*
X206198407Y-100626697D01*
X206257814Y-100770119D01*
X206288100Y-100922379D01*
X206288100Y-101077621D01*
X206257814Y-101229881D01*
X206198407Y-101373303D01*
X206140642Y-101459754D01*
X206115346Y-101497612D01*
X206112154Y-101502388D01*
X206002388Y-101612154D01*
X205873303Y-101698407D01*
X205729881Y-101757814D01*
X205577621Y-101788100D01*
X205422379Y-101788100D01*
X205270119Y-101757814D01*
X205126697Y-101698407D01*
X204997612Y-101612154D01*
X204887846Y-101502388D01*
X204884655Y-101497612D01*
X204859358Y-101459754D01*
X204801593Y-101373303D01*
X204742186Y-101229881D01*
X204711900Y-101077621D01*
X204711900Y-100922379D01*
X204742186Y-100770119D01*
X204801593Y-100626697D01*
X204887846Y-100497612D01*
X204997612Y-100387846D01*
X205126697Y-100301593D01*
X205270119Y-100242186D01*
X205422379Y-100211900D01*
X205577621Y-100211900D01*
X205729881Y-100242186D01*
G37*
G36*
X157336136Y-99620119D02*
G01*
X157421962Y-99637191D01*
X157541728Y-99686799D01*
X157649516Y-99758821D01*
X157741179Y-99850484D01*
X157813201Y-99958272D01*
X157862809Y-100078038D01*
X157869545Y-100111900D01*
X157888100Y-100205183D01*
X157888100Y-100334817D01*
X157884605Y-100352388D01*
X157862809Y-100461962D01*
X157813201Y-100581728D01*
X157741179Y-100689516D01*
X157649516Y-100781179D01*
X157541728Y-100853201D01*
X157421962Y-100902809D01*
X157358389Y-100915454D01*
X157294817Y-100928100D01*
X157165183Y-100928100D01*
X157101611Y-100915455D01*
X157038038Y-100902809D01*
X156918272Y-100853201D01*
X156810484Y-100781179D01*
X156718821Y-100689516D01*
X156646799Y-100581728D01*
X156597191Y-100461962D01*
X156575395Y-100352388D01*
X156571900Y-100334817D01*
X156571900Y-100205183D01*
X156590455Y-100111900D01*
X156597191Y-100078038D01*
X156646799Y-99958272D01*
X156718821Y-99850484D01*
X156810484Y-99758821D01*
X156918272Y-99686799D01*
X157038038Y-99637191D01*
X157123864Y-99620119D01*
X157165183Y-99611900D01*
X157294817Y-99611900D01*
X157336136Y-99620119D01*
G37*
G36*
X159876136Y-99620119D02*
G01*
X159961962Y-99637191D01*
X160081728Y-99686799D01*
X160189516Y-99758821D01*
X160281179Y-99850484D01*
X160353201Y-99958272D01*
X160402809Y-100078038D01*
X160409545Y-100111900D01*
X160428100Y-100205183D01*
X160428100Y-100334817D01*
X160424605Y-100352388D01*
X160402809Y-100461962D01*
X160353201Y-100581728D01*
X160281179Y-100689516D01*
X160189516Y-100781179D01*
X160081728Y-100853201D01*
X159961962Y-100902809D01*
X159898389Y-100915454D01*
X159834817Y-100928100D01*
X159705183Y-100928100D01*
X159641611Y-100915455D01*
X159578038Y-100902809D01*
X159458272Y-100853201D01*
X159350484Y-100781179D01*
X159258821Y-100689516D01*
X159186799Y-100581728D01*
X159137191Y-100461962D01*
X159115395Y-100352388D01*
X159111900Y-100334817D01*
X159111900Y-100205183D01*
X159130455Y-100111900D01*
X159137191Y-100078038D01*
X159186799Y-99958272D01*
X159258821Y-99850484D01*
X159350484Y-99758821D01*
X159458272Y-99686799D01*
X159578038Y-99637191D01*
X159663864Y-99620119D01*
X159705183Y-99611900D01*
X159834817Y-99611900D01*
X159876136Y-99620119D01*
G37*
G36*
X303688100Y-100888100D02*
G01*
X299311900Y-100888100D01*
X299311900Y-100111900D01*
X303688100Y-100111900D01*
X303688100Y-100888100D01*
G37*
G36*
X179679881Y-99092186D02*
G01*
X179823303Y-99151593D01*
X179952388Y-99237846D01*
X180062154Y-99347612D01*
X180148407Y-99476697D01*
X180207814Y-99620119D01*
X180238100Y-99772379D01*
X180238100Y-99927621D01*
X180207814Y-100079881D01*
X180148407Y-100223303D01*
X180096095Y-100301593D01*
X180073896Y-100334816D01*
X180062154Y-100352388D01*
X179952388Y-100462154D01*
X179823303Y-100548407D01*
X179679881Y-100607814D01*
X179527621Y-100638100D01*
X179372379Y-100638100D01*
X179220119Y-100607814D01*
X179076697Y-100548407D01*
X178947612Y-100462154D01*
X178837846Y-100352388D01*
X178826105Y-100334816D01*
X178803905Y-100301593D01*
X178751593Y-100223303D01*
X178692186Y-100079881D01*
X178661900Y-99927621D01*
X178661900Y-99772379D01*
X178692186Y-99620119D01*
X178751593Y-99476697D01*
X178837846Y-99347612D01*
X178947612Y-99237846D01*
X179076697Y-99151593D01*
X179220119Y-99092186D01*
X179372379Y-99061900D01*
X179527621Y-99061900D01*
X179679881Y-99092186D01*
G37*
G36*
X303688100Y-99888100D02*
G01*
X299311900Y-99888100D01*
X299311900Y-99111900D01*
X303688100Y-99111900D01*
X303688100Y-99888100D01*
G37*
G36*
X158628389Y-98354545D02*
G01*
X158691962Y-98367191D01*
X158811728Y-98416799D01*
X158919516Y-98488821D01*
X159011179Y-98580484D01*
X159083201Y-98688272D01*
X159132809Y-98808038D01*
X159158100Y-98935184D01*
X159158100Y-99064816D01*
X159132809Y-99191962D01*
X159083201Y-99311728D01*
X159011179Y-99419516D01*
X158919516Y-99511179D01*
X158811728Y-99583201D01*
X158691962Y-99632809D01*
X158669932Y-99637191D01*
X158564817Y-99658100D01*
X158435183Y-99658100D01*
X158330068Y-99637191D01*
X158308038Y-99632809D01*
X158188272Y-99583201D01*
X158080484Y-99511179D01*
X157988821Y-99419516D01*
X157916799Y-99311728D01*
X157867191Y-99191962D01*
X157841900Y-99064816D01*
X157841900Y-98935184D01*
X157867191Y-98808038D01*
X157916799Y-98688272D01*
X157988821Y-98580484D01*
X158080484Y-98488821D01*
X158188272Y-98416799D01*
X158308038Y-98367191D01*
X158371611Y-98354545D01*
X158435183Y-98341900D01*
X158564817Y-98341900D01*
X158628389Y-98354545D01*
G37*
G36*
X303688100Y-98888100D02*
G01*
X299311900Y-98888100D01*
X299311900Y-98111900D01*
X303688100Y-98111900D01*
X303688100Y-98888100D01*
G37*
G36*
X159898389Y-97084545D02*
G01*
X159961962Y-97097191D01*
X160081728Y-97146799D01*
X160189516Y-97218821D01*
X160281179Y-97310484D01*
X160353201Y-97418272D01*
X160402809Y-97538038D01*
X160428100Y-97665184D01*
X160428100Y-97794816D01*
X160402809Y-97921962D01*
X160353201Y-98041728D01*
X160281179Y-98149516D01*
X160189516Y-98241179D01*
X160081728Y-98313201D01*
X159961962Y-98362809D01*
X159939932Y-98367191D01*
X159834817Y-98388100D01*
X159705183Y-98388100D01*
X159600068Y-98367191D01*
X159578038Y-98362809D01*
X159458272Y-98313201D01*
X159350484Y-98241179D01*
X159258821Y-98149516D01*
X159186799Y-98041728D01*
X159137191Y-97921962D01*
X159111900Y-97794816D01*
X159111900Y-97665184D01*
X159137191Y-97538038D01*
X159186799Y-97418272D01*
X159258821Y-97310484D01*
X159350484Y-97218821D01*
X159458272Y-97146799D01*
X159578038Y-97097191D01*
X159641611Y-97084545D01*
X159705183Y-97071900D01*
X159834817Y-97071900D01*
X159898389Y-97084545D01*
G37*
G36*
X157358389Y-97084545D02*
G01*
X157421962Y-97097191D01*
X157541728Y-97146799D01*
X157649516Y-97218821D01*
X157741179Y-97310484D01*
X157813201Y-97418272D01*
X157862809Y-97538038D01*
X157888100Y-97665184D01*
X157888100Y-97794816D01*
X157862809Y-97921962D01*
X157813201Y-98041728D01*
X157741179Y-98149516D01*
X157649516Y-98241179D01*
X157541728Y-98313201D01*
X157421962Y-98362809D01*
X157399932Y-98367191D01*
X157294817Y-98388100D01*
X157165183Y-98388100D01*
X157060068Y-98367191D01*
X157038038Y-98362809D01*
X156918272Y-98313201D01*
X156810484Y-98241179D01*
X156718821Y-98149516D01*
X156646799Y-98041728D01*
X156597191Y-97921962D01*
X156571900Y-97794816D01*
X156571900Y-97665184D01*
X156597191Y-97538038D01*
X156646799Y-97418272D01*
X156718821Y-97310484D01*
X156810484Y-97218821D01*
X156918272Y-97146799D01*
X157038038Y-97097191D01*
X157101611Y-97084545D01*
X157165183Y-97071900D01*
X157294817Y-97071900D01*
X157358389Y-97084545D01*
G37*
G36*
X303688100Y-97888100D02*
G01*
X299311900Y-97888100D01*
X299311900Y-97111900D01*
X303688100Y-97111900D01*
X303688100Y-97888100D01*
G37*
G36*
X303688100Y-96888100D02*
G01*
X299311900Y-96888100D01*
X299311900Y-96111900D01*
X303688100Y-96111900D01*
X303688100Y-96888100D01*
G37*
G36*
X178060293Y-95538550D02*
G01*
X178060294Y-95538550D01*
X178060297Y-95538551D01*
X178108825Y-95558651D01*
X178108829Y-95558653D01*
X178108830Y-95558654D01*
X178152511Y-95587841D01*
X178152515Y-95587844D01*
X178189656Y-95624985D01*
X178218849Y-95668675D01*
X178238949Y-95717203D01*
X178249200Y-95768734D01*
X178249200Y-95821266D01*
X178238949Y-95872797D01*
X178218849Y-95921325D01*
X178189656Y-95965015D01*
X178152515Y-96002156D01*
X178152512Y-96002158D01*
X178152511Y-96002159D01*
X178108830Y-96031346D01*
X178108829Y-96031347D01*
X178108825Y-96031349D01*
X178060297Y-96051449D01*
X178060294Y-96051450D01*
X178060293Y-96051450D01*
X178008768Y-96061700D01*
X177956232Y-96061700D01*
X177904707Y-96051450D01*
X177904706Y-96051450D01*
X177904703Y-96051449D01*
X177856175Y-96031349D01*
X177856171Y-96031347D01*
X177856170Y-96031346D01*
X177812489Y-96002159D01*
X177812488Y-96002158D01*
X177812485Y-96002156D01*
X177775344Y-95965015D01*
X177746151Y-95921325D01*
X177726051Y-95872797D01*
X177715800Y-95821266D01*
X177715800Y-95768734D01*
X177726051Y-95717203D01*
X177746151Y-95668675D01*
X177775344Y-95624985D01*
X177812485Y-95587844D01*
X177812489Y-95587841D01*
X177856170Y-95558654D01*
X177856171Y-95558653D01*
X177856175Y-95558651D01*
X177904703Y-95538551D01*
X177904706Y-95538550D01*
X177904707Y-95538550D01*
X177956232Y-95528300D01*
X178008768Y-95528300D01*
X178060293Y-95538550D01*
G37*
G36*
X176740293Y-95538550D02*
G01*
X176740294Y-95538550D01*
X176740297Y-95538551D01*
X176788825Y-95558651D01*
X176788829Y-95558653D01*
X176788830Y-95558654D01*
X176832511Y-95587841D01*
X176832515Y-95587844D01*
X176869656Y-95624985D01*
X176898849Y-95668675D01*
X176918949Y-95717203D01*
X176929200Y-95768734D01*
X176929200Y-95821266D01*
X176918949Y-95872797D01*
X176898849Y-95921325D01*
X176869656Y-95965015D01*
X176832515Y-96002156D01*
X176832512Y-96002158D01*
X176832511Y-96002159D01*
X176788830Y-96031346D01*
X176788829Y-96031347D01*
X176788825Y-96031349D01*
X176740297Y-96051449D01*
X176740294Y-96051450D01*
X176740293Y-96051450D01*
X176688768Y-96061700D01*
X176636232Y-96061700D01*
X176584707Y-96051450D01*
X176584706Y-96051450D01*
X176584703Y-96051449D01*
X176536175Y-96031349D01*
X176536171Y-96031347D01*
X176536170Y-96031346D01*
X176492489Y-96002159D01*
X176492488Y-96002158D01*
X176492485Y-96002156D01*
X176455344Y-95965015D01*
X176426151Y-95921325D01*
X176406051Y-95872797D01*
X176395800Y-95821266D01*
X176395800Y-95768734D01*
X176406051Y-95717203D01*
X176426151Y-95668675D01*
X176455344Y-95624985D01*
X176492485Y-95587844D01*
X176492489Y-95587841D01*
X176536170Y-95558654D01*
X176536171Y-95558653D01*
X176536175Y-95558651D01*
X176584703Y-95538551D01*
X176584706Y-95538550D01*
X176584707Y-95538550D01*
X176636232Y-95528300D01*
X176688768Y-95528300D01*
X176740293Y-95538550D01*
G37*
G36*
X303688100Y-95888100D02*
G01*
X299311900Y-95888100D01*
X299311900Y-95111900D01*
X303688100Y-95111900D01*
X303688100Y-95888100D01*
G37*
G36*
X177400293Y-94898550D02*
G01*
X177400294Y-94898550D01*
X177400297Y-94898551D01*
X177448825Y-94918651D01*
X177448829Y-94918653D01*
X177448830Y-94918654D01*
X177492511Y-94947841D01*
X177492515Y-94947844D01*
X177529656Y-94984985D01*
X177558849Y-95028675D01*
X177578949Y-95077203D01*
X177578950Y-95077206D01*
X177578950Y-95077207D01*
X177585852Y-95111900D01*
X177589200Y-95128734D01*
X177589200Y-95181266D01*
X177578949Y-95232797D01*
X177558849Y-95281325D01*
X177529656Y-95325015D01*
X177492515Y-95362156D01*
X177492512Y-95362158D01*
X177492511Y-95362159D01*
X177448830Y-95391346D01*
X177448829Y-95391347D01*
X177448825Y-95391349D01*
X177400297Y-95411449D01*
X177400294Y-95411450D01*
X177400293Y-95411450D01*
X177348768Y-95421700D01*
X177296232Y-95421700D01*
X177244707Y-95411450D01*
X177244706Y-95411450D01*
X177244703Y-95411449D01*
X177196175Y-95391349D01*
X177196171Y-95391347D01*
X177196170Y-95391346D01*
X177152489Y-95362159D01*
X177152488Y-95362158D01*
X177152485Y-95362156D01*
X177115344Y-95325015D01*
X177086151Y-95281325D01*
X177066051Y-95232797D01*
X177055800Y-95181266D01*
X177055800Y-95128734D01*
X177059149Y-95111900D01*
X177066050Y-95077207D01*
X177066050Y-95077206D01*
X177066051Y-95077203D01*
X177086151Y-95028675D01*
X177115344Y-94984985D01*
X177152485Y-94947844D01*
X177152489Y-94947841D01*
X177196170Y-94918654D01*
X177196171Y-94918653D01*
X177196175Y-94918651D01*
X177244703Y-94898551D01*
X177244706Y-94898550D01*
X177244707Y-94898550D01*
X177296232Y-94888300D01*
X177348768Y-94888300D01*
X177400293Y-94898550D01*
G37*
G36*
X303688100Y-94888100D02*
G01*
X299311900Y-94888100D01*
X299311900Y-94111900D01*
X303688100Y-94111900D01*
X303688100Y-94888100D01*
G37*
G36*
X178060293Y-94258550D02*
G01*
X178060294Y-94258550D01*
X178060297Y-94258551D01*
X178108825Y-94278651D01*
X178108829Y-94278653D01*
X178108830Y-94278654D01*
X178152511Y-94307841D01*
X178152515Y-94307844D01*
X178189656Y-94344985D01*
X178218849Y-94388675D01*
X178238949Y-94437203D01*
X178249200Y-94488734D01*
X178249200Y-94541266D01*
X178238949Y-94592797D01*
X178218849Y-94641325D01*
X178189656Y-94685015D01*
X178152515Y-94722156D01*
X178152512Y-94722158D01*
X178152511Y-94722159D01*
X178108830Y-94751346D01*
X178108829Y-94751347D01*
X178108825Y-94751349D01*
X178060297Y-94771449D01*
X178060294Y-94771450D01*
X178060293Y-94771450D01*
X178008768Y-94781700D01*
X177956232Y-94781700D01*
X177904707Y-94771450D01*
X177904706Y-94771450D01*
X177904703Y-94771449D01*
X177856175Y-94751349D01*
X177856171Y-94751347D01*
X177856170Y-94751346D01*
X177812489Y-94722159D01*
X177812488Y-94722158D01*
X177812485Y-94722156D01*
X177775344Y-94685015D01*
X177746151Y-94641325D01*
X177726051Y-94592797D01*
X177715800Y-94541266D01*
X177715800Y-94488734D01*
X177726051Y-94437203D01*
X177746151Y-94388675D01*
X177775344Y-94344985D01*
X177812485Y-94307844D01*
X177812489Y-94307841D01*
X177856170Y-94278654D01*
X177856171Y-94278653D01*
X177856175Y-94278651D01*
X177904703Y-94258551D01*
X177904706Y-94258550D01*
X177904707Y-94258550D01*
X177956232Y-94248300D01*
X178008768Y-94248300D01*
X178060293Y-94258550D01*
G37*
G36*
X176740293Y-94258550D02*
G01*
X176740294Y-94258550D01*
X176740297Y-94258551D01*
X176788825Y-94278651D01*
X176788829Y-94278653D01*
X176788830Y-94278654D01*
X176832511Y-94307841D01*
X176832515Y-94307844D01*
X176869656Y-94344985D01*
X176898849Y-94388675D01*
X176918949Y-94437203D01*
X176929200Y-94488734D01*
X176929200Y-94541266D01*
X176918949Y-94592797D01*
X176898849Y-94641325D01*
X176869656Y-94685015D01*
X176832515Y-94722156D01*
X176832512Y-94722158D01*
X176832511Y-94722159D01*
X176788830Y-94751346D01*
X176788829Y-94751347D01*
X176788825Y-94751349D01*
X176740297Y-94771449D01*
X176740294Y-94771450D01*
X176740293Y-94771450D01*
X176688768Y-94781700D01*
X176636232Y-94781700D01*
X176584707Y-94771450D01*
X176584706Y-94771450D01*
X176584703Y-94771449D01*
X176536175Y-94751349D01*
X176536171Y-94751347D01*
X176536170Y-94751346D01*
X176492489Y-94722159D01*
X176492488Y-94722158D01*
X176492485Y-94722156D01*
X176455344Y-94685015D01*
X176426151Y-94641325D01*
X176406051Y-94592797D01*
X176395800Y-94541266D01*
X176395800Y-94488734D01*
X176406051Y-94437203D01*
X176426151Y-94388675D01*
X176455344Y-94344985D01*
X176492485Y-94307844D01*
X176492489Y-94307841D01*
X176536170Y-94278654D01*
X176536171Y-94278653D01*
X176536175Y-94278651D01*
X176584703Y-94258551D01*
X176584706Y-94258550D01*
X176584707Y-94258550D01*
X176636232Y-94248300D01*
X176688768Y-94248300D01*
X176740293Y-94258550D01*
G37*
G36*
X177400293Y-93618550D02*
G01*
X177400294Y-93618550D01*
X177400297Y-93618551D01*
X177448825Y-93638651D01*
X177448829Y-93638653D01*
X177448830Y-93638654D01*
X177492511Y-93667841D01*
X177492515Y-93667844D01*
X177529656Y-93704985D01*
X177558849Y-93748675D01*
X177578949Y-93797203D01*
X177578950Y-93797206D01*
X177578950Y-93797207D01*
X177589200Y-93848732D01*
X177589200Y-93901268D01*
X177578950Y-93952793D01*
X177578949Y-93952797D01*
X177558849Y-94001325D01*
X177558847Y-94001329D01*
X177558846Y-94001330D01*
X177529659Y-94045011D01*
X177529656Y-94045015D01*
X177492515Y-94082156D01*
X177492512Y-94082158D01*
X177492511Y-94082159D01*
X177448830Y-94111346D01*
X177448829Y-94111347D01*
X177448825Y-94111349D01*
X177400297Y-94131449D01*
X177400294Y-94131450D01*
X177400293Y-94131450D01*
X177348768Y-94141700D01*
X177296232Y-94141700D01*
X177244707Y-94131450D01*
X177244706Y-94131450D01*
X177244703Y-94131449D01*
X177196175Y-94111349D01*
X177196171Y-94111347D01*
X177196170Y-94111346D01*
X177152489Y-94082159D01*
X177152488Y-94082158D01*
X177152485Y-94082156D01*
X177115344Y-94045015D01*
X177115341Y-94045011D01*
X177086154Y-94001330D01*
X177086153Y-94001329D01*
X177086151Y-94001325D01*
X177066051Y-93952797D01*
X177066050Y-93952793D01*
X177055800Y-93901268D01*
X177055800Y-93848732D01*
X177066050Y-93797207D01*
X177066050Y-93797206D01*
X177066051Y-93797203D01*
X177086151Y-93748675D01*
X177115344Y-93704985D01*
X177152485Y-93667844D01*
X177152489Y-93667841D01*
X177196170Y-93638654D01*
X177196171Y-93638653D01*
X177196175Y-93638651D01*
X177244703Y-93618551D01*
X177244706Y-93618550D01*
X177244707Y-93618550D01*
X177296232Y-93608300D01*
X177348768Y-93608300D01*
X177400293Y-93618550D01*
G37*
G36*
X159479881Y-92492186D02*
G01*
X159623303Y-92551593D01*
X159752388Y-92637846D01*
X159862154Y-92747612D01*
X159862156Y-92747615D01*
X159862157Y-92747616D01*
X159890642Y-92790246D01*
X159948407Y-92876697D01*
X160007814Y-93020119D01*
X160038100Y-93172379D01*
X160038100Y-93327621D01*
X160007814Y-93479881D01*
X159948407Y-93623303D01*
X159918647Y-93667841D01*
X159864639Y-93748670D01*
X159862154Y-93752388D01*
X159752388Y-93862154D01*
X159623303Y-93948407D01*
X159479881Y-94007814D01*
X159327621Y-94038100D01*
X159172379Y-94038100D01*
X159020119Y-94007814D01*
X158876697Y-93948407D01*
X158747612Y-93862154D01*
X158637846Y-93752388D01*
X158635362Y-93748670D01*
X158581353Y-93667841D01*
X158551593Y-93623303D01*
X158492186Y-93479881D01*
X158461900Y-93327621D01*
X158461900Y-93172379D01*
X158492186Y-93020119D01*
X158551593Y-92876697D01*
X158609358Y-92790246D01*
X158637843Y-92747616D01*
X158637844Y-92747615D01*
X158637846Y-92747612D01*
X158747612Y-92637846D01*
X158876697Y-92551593D01*
X159020119Y-92492186D01*
X159172379Y-92461900D01*
X159327621Y-92461900D01*
X159479881Y-92492186D01*
G37*
G36*
X303688100Y-93888100D02*
G01*
X299311900Y-93888100D01*
X299311900Y-93111900D01*
X303688100Y-93111900D01*
X303688100Y-93888100D01*
G37*
G36*
X178060293Y-92978550D02*
G01*
X178060294Y-92978550D01*
X178060297Y-92978551D01*
X178108825Y-92998651D01*
X178108829Y-92998653D01*
X178108830Y-92998654D01*
X178152511Y-93027841D01*
X178152515Y-93027844D01*
X178189656Y-93064985D01*
X178218849Y-93108675D01*
X178238949Y-93157203D01*
X178249200Y-93208734D01*
X178249200Y-93261266D01*
X178238949Y-93312797D01*
X178218849Y-93361325D01*
X178189656Y-93405015D01*
X178152515Y-93442156D01*
X178152512Y-93442158D01*
X178152511Y-93442159D01*
X178108830Y-93471346D01*
X178108829Y-93471347D01*
X178108825Y-93471349D01*
X178060297Y-93491449D01*
X178060294Y-93491450D01*
X178060293Y-93491450D01*
X178008768Y-93501700D01*
X177956232Y-93501700D01*
X177904707Y-93491450D01*
X177904706Y-93491450D01*
X177904703Y-93491449D01*
X177856175Y-93471349D01*
X177856171Y-93471347D01*
X177856170Y-93471346D01*
X177812489Y-93442159D01*
X177812488Y-93442158D01*
X177812485Y-93442156D01*
X177775344Y-93405015D01*
X177746151Y-93361325D01*
X177726051Y-93312797D01*
X177715800Y-93261266D01*
X177715800Y-93208734D01*
X177726051Y-93157203D01*
X177746151Y-93108675D01*
X177775344Y-93064985D01*
X177812485Y-93027844D01*
X177812489Y-93027841D01*
X177856170Y-92998654D01*
X177856171Y-92998653D01*
X177856175Y-92998651D01*
X177904703Y-92978551D01*
X177904706Y-92978550D01*
X177904707Y-92978550D01*
X177956232Y-92968300D01*
X178008768Y-92968300D01*
X178060293Y-92978550D01*
G37*
G36*
X176740293Y-92978550D02*
G01*
X176740294Y-92978550D01*
X176740297Y-92978551D01*
X176788825Y-92998651D01*
X176788829Y-92998653D01*
X176788830Y-92998654D01*
X176832511Y-93027841D01*
X176832515Y-93027844D01*
X176869656Y-93064985D01*
X176898849Y-93108675D01*
X176918949Y-93157203D01*
X176929200Y-93208734D01*
X176929200Y-93261266D01*
X176918949Y-93312797D01*
X176898849Y-93361325D01*
X176869656Y-93405015D01*
X176832515Y-93442156D01*
X176832512Y-93442158D01*
X176832511Y-93442159D01*
X176788830Y-93471346D01*
X176788829Y-93471347D01*
X176788825Y-93471349D01*
X176740297Y-93491449D01*
X176740294Y-93491450D01*
X176740293Y-93491450D01*
X176688768Y-93501700D01*
X176636232Y-93501700D01*
X176584707Y-93491450D01*
X176584706Y-93491450D01*
X176584703Y-93491449D01*
X176536175Y-93471349D01*
X176536171Y-93471347D01*
X176536170Y-93471346D01*
X176492489Y-93442159D01*
X176492488Y-93442158D01*
X176492485Y-93442156D01*
X176455344Y-93405015D01*
X176426151Y-93361325D01*
X176406051Y-93312797D01*
X176395800Y-93261266D01*
X176395800Y-93208734D01*
X176406051Y-93157203D01*
X176426151Y-93108675D01*
X176455344Y-93064985D01*
X176492485Y-93027844D01*
X176492489Y-93027841D01*
X176536170Y-92998654D01*
X176536171Y-92998653D01*
X176536175Y-92998651D01*
X176584703Y-92978551D01*
X176584706Y-92978550D01*
X176584707Y-92978550D01*
X176636232Y-92968300D01*
X176688768Y-92968300D01*
X176740293Y-92978550D01*
G37*
G36*
X303688100Y-92888100D02*
G01*
X299311900Y-92888100D01*
X299311900Y-92111900D01*
X303688100Y-92111900D01*
X303688100Y-92888100D01*
G37*
G36*
X177400293Y-92338550D02*
G01*
X177400294Y-92338550D01*
X177400297Y-92338551D01*
X177448825Y-92358651D01*
X177448829Y-92358653D01*
X177448830Y-92358654D01*
X177492511Y-92387841D01*
X177492515Y-92387844D01*
X177529656Y-92424985D01*
X177558849Y-92468675D01*
X177578949Y-92517203D01*
X177578950Y-92517206D01*
X177578950Y-92517207D01*
X177589200Y-92568732D01*
X177589200Y-92621268D01*
X177585902Y-92637846D01*
X177578949Y-92672797D01*
X177558849Y-92721325D01*
X177558847Y-92721329D01*
X177558846Y-92721330D01*
X177541282Y-92747616D01*
X177529656Y-92765015D01*
X177492515Y-92802156D01*
X177492512Y-92802158D01*
X177492511Y-92802159D01*
X177448830Y-92831346D01*
X177448829Y-92831347D01*
X177448825Y-92831349D01*
X177400297Y-92851449D01*
X177400294Y-92851450D01*
X177400293Y-92851450D01*
X177348768Y-92861700D01*
X177296232Y-92861700D01*
X177244707Y-92851450D01*
X177244706Y-92851450D01*
X177244703Y-92851449D01*
X177196175Y-92831349D01*
X177196171Y-92831347D01*
X177196170Y-92831346D01*
X177152489Y-92802159D01*
X177152488Y-92802158D01*
X177152485Y-92802156D01*
X177115344Y-92765015D01*
X177103718Y-92747616D01*
X177086154Y-92721330D01*
X177086153Y-92721329D01*
X177086151Y-92721325D01*
X177066051Y-92672797D01*
X177059098Y-92637846D01*
X177055800Y-92621268D01*
X177055800Y-92568732D01*
X177066050Y-92517207D01*
X177066050Y-92517206D01*
X177066051Y-92517203D01*
X177086151Y-92468675D01*
X177115344Y-92424985D01*
X177152485Y-92387844D01*
X177152489Y-92387841D01*
X177196170Y-92358654D01*
X177196171Y-92358653D01*
X177196175Y-92358651D01*
X177244703Y-92338551D01*
X177244706Y-92338550D01*
X177244707Y-92338550D01*
X177296232Y-92328300D01*
X177348768Y-92328300D01*
X177400293Y-92338550D01*
G37*
G36*
X205729881Y-90742186D02*
G01*
X205873303Y-90801593D01*
X205959754Y-90859358D01*
X205993873Y-90882156D01*
X206002388Y-90887846D01*
X206112154Y-90997612D01*
X206198407Y-91126697D01*
X206257814Y-91270119D01*
X206288100Y-91422379D01*
X206288100Y-91577621D01*
X206257814Y-91729881D01*
X206198407Y-91873303D01*
X206140642Y-91959754D01*
X206126268Y-91981266D01*
X206112154Y-92002388D01*
X206002388Y-92112154D01*
X206002385Y-92112156D01*
X206002384Y-92112157D01*
X205959754Y-92140642D01*
X205873303Y-92198407D01*
X205729881Y-92257814D01*
X205577621Y-92288100D01*
X205422379Y-92288100D01*
X205270119Y-92257814D01*
X205126697Y-92198407D01*
X205040246Y-92140642D01*
X204997616Y-92112157D01*
X204997615Y-92112156D01*
X204997612Y-92112154D01*
X204887846Y-92002388D01*
X204873733Y-91981266D01*
X204859358Y-91959754D01*
X204801593Y-91873303D01*
X204742186Y-91729881D01*
X204711900Y-91577621D01*
X204711900Y-91422379D01*
X204742186Y-91270119D01*
X204801593Y-91126697D01*
X204887846Y-90997612D01*
X204997612Y-90887846D01*
X205006128Y-90882156D01*
X205040246Y-90859358D01*
X205126697Y-90801593D01*
X205270119Y-90742186D01*
X205422379Y-90711900D01*
X205577621Y-90711900D01*
X205729881Y-90742186D01*
G37*
G36*
X176740293Y-91698550D02*
G01*
X176740294Y-91698550D01*
X176740297Y-91698551D01*
X176788825Y-91718651D01*
X176788829Y-91718653D01*
X176788830Y-91718654D01*
X176805632Y-91729881D01*
X176832515Y-91747844D01*
X176869656Y-91784985D01*
X176898849Y-91828675D01*
X176918949Y-91877203D01*
X176918950Y-91877206D01*
X176918950Y-91877207D01*
X176929200Y-91928732D01*
X176929200Y-91981268D01*
X176918950Y-92032793D01*
X176918949Y-92032797D01*
X176898849Y-92081325D01*
X176898847Y-92081329D01*
X176898846Y-92081330D01*
X176878250Y-92112154D01*
X176869656Y-92125015D01*
X176832515Y-92162156D01*
X176832512Y-92162158D01*
X176832511Y-92162159D01*
X176788830Y-92191346D01*
X176788829Y-92191347D01*
X176788825Y-92191349D01*
X176740297Y-92211449D01*
X176740294Y-92211450D01*
X176740293Y-92211450D01*
X176688768Y-92221700D01*
X176636232Y-92221700D01*
X176584707Y-92211450D01*
X176584706Y-92211450D01*
X176584703Y-92211449D01*
X176536175Y-92191349D01*
X176536171Y-92191347D01*
X176536170Y-92191346D01*
X176492489Y-92162159D01*
X176492488Y-92162158D01*
X176492485Y-92162156D01*
X176455344Y-92125015D01*
X176446750Y-92112154D01*
X176426154Y-92081330D01*
X176426153Y-92081329D01*
X176426151Y-92081325D01*
X176406051Y-92032797D01*
X176406050Y-92032793D01*
X176395800Y-91981268D01*
X176395800Y-91928732D01*
X176406050Y-91877207D01*
X176406050Y-91877206D01*
X176406051Y-91877203D01*
X176426151Y-91828675D01*
X176455344Y-91784985D01*
X176492485Y-91747844D01*
X176519368Y-91729881D01*
X176536170Y-91718654D01*
X176536171Y-91718653D01*
X176536175Y-91718651D01*
X176584703Y-91698551D01*
X176584706Y-91698550D01*
X176584707Y-91698550D01*
X176636232Y-91688300D01*
X176688768Y-91688300D01*
X176740293Y-91698550D01*
G37*
G36*
X178060293Y-91698550D02*
G01*
X178060294Y-91698550D01*
X178060297Y-91698551D01*
X178108825Y-91718651D01*
X178108829Y-91718653D01*
X178108830Y-91718654D01*
X178125632Y-91729881D01*
X178152515Y-91747844D01*
X178189656Y-91784985D01*
X178218849Y-91828675D01*
X178238949Y-91877203D01*
X178238950Y-91877206D01*
X178238950Y-91877207D01*
X178249200Y-91928732D01*
X178249200Y-91981268D01*
X178238950Y-92032793D01*
X178238949Y-92032797D01*
X178218849Y-92081325D01*
X178218847Y-92081329D01*
X178218846Y-92081330D01*
X178198250Y-92112154D01*
X178189656Y-92125015D01*
X178152515Y-92162156D01*
X178152512Y-92162158D01*
X178152511Y-92162159D01*
X178108830Y-92191346D01*
X178108829Y-92191347D01*
X178108825Y-92191349D01*
X178060297Y-92211449D01*
X178060294Y-92211450D01*
X178060293Y-92211450D01*
X178008768Y-92221700D01*
X177956232Y-92221700D01*
X177904707Y-92211450D01*
X177904706Y-92211450D01*
X177904703Y-92211449D01*
X177856175Y-92191349D01*
X177856171Y-92191347D01*
X177856170Y-92191346D01*
X177812489Y-92162159D01*
X177812488Y-92162158D01*
X177812485Y-92162156D01*
X177775344Y-92125015D01*
X177766750Y-92112154D01*
X177746154Y-92081330D01*
X177746153Y-92081329D01*
X177746151Y-92081325D01*
X177726051Y-92032797D01*
X177726050Y-92032793D01*
X177715800Y-91981268D01*
X177715800Y-91928732D01*
X177726050Y-91877207D01*
X177726050Y-91877206D01*
X177726051Y-91877203D01*
X177746151Y-91828675D01*
X177775344Y-91784985D01*
X177812485Y-91747844D01*
X177839368Y-91729881D01*
X177856170Y-91718654D01*
X177856171Y-91718653D01*
X177856175Y-91718651D01*
X177904703Y-91698551D01*
X177904706Y-91698550D01*
X177904707Y-91698550D01*
X177956232Y-91688300D01*
X178008768Y-91688300D01*
X178060293Y-91698550D01*
G37*
G36*
X303688100Y-91888100D02*
G01*
X299311900Y-91888100D01*
X299311900Y-91111900D01*
X303688100Y-91111900D01*
X303688100Y-91888100D01*
G37*
G36*
X177400293Y-91058550D02*
G01*
X177400294Y-91058550D01*
X177400297Y-91058551D01*
X177448825Y-91078651D01*
X177448829Y-91078653D01*
X177448830Y-91078654D01*
X177492511Y-91107841D01*
X177492515Y-91107844D01*
X177529656Y-91144985D01*
X177558849Y-91188675D01*
X177578949Y-91237203D01*
X177589200Y-91288734D01*
X177589200Y-91341266D01*
X177578949Y-91392797D01*
X177558849Y-91441325D01*
X177529656Y-91485015D01*
X177492515Y-91522156D01*
X177492512Y-91522158D01*
X177492511Y-91522159D01*
X177448830Y-91551346D01*
X177448829Y-91551347D01*
X177448825Y-91551349D01*
X177400297Y-91571449D01*
X177400294Y-91571450D01*
X177400293Y-91571450D01*
X177348768Y-91581700D01*
X177296232Y-91581700D01*
X177244707Y-91571450D01*
X177244706Y-91571450D01*
X177244703Y-91571449D01*
X177196175Y-91551349D01*
X177196171Y-91551347D01*
X177196170Y-91551346D01*
X177152489Y-91522159D01*
X177152488Y-91522158D01*
X177152485Y-91522156D01*
X177115344Y-91485015D01*
X177086151Y-91441325D01*
X177066051Y-91392797D01*
X177055800Y-91341266D01*
X177055800Y-91288734D01*
X177066051Y-91237203D01*
X177086151Y-91188675D01*
X177115344Y-91144985D01*
X177152485Y-91107844D01*
X177152489Y-91107841D01*
X177196170Y-91078654D01*
X177196171Y-91078653D01*
X177196175Y-91078651D01*
X177244703Y-91058551D01*
X177244706Y-91058550D01*
X177244707Y-91058550D01*
X177296232Y-91048300D01*
X177348768Y-91048300D01*
X177400293Y-91058550D01*
G37*
G36*
X178060293Y-90418550D02*
G01*
X178060294Y-90418550D01*
X178060297Y-90418551D01*
X178108825Y-90438651D01*
X178108829Y-90438653D01*
X178108830Y-90438654D01*
X178152511Y-90467841D01*
X178152515Y-90467844D01*
X178189656Y-90504985D01*
X178218849Y-90548675D01*
X178238949Y-90597203D01*
X178249200Y-90648734D01*
X178249200Y-90701266D01*
X178238949Y-90752797D01*
X178218849Y-90801325D01*
X178189656Y-90845015D01*
X178152515Y-90882156D01*
X178152512Y-90882158D01*
X178152511Y-90882159D01*
X178108830Y-90911346D01*
X178108829Y-90911347D01*
X178108825Y-90911349D01*
X178060297Y-90931449D01*
X178060294Y-90931450D01*
X178060293Y-90931450D01*
X178008768Y-90941700D01*
X177956232Y-90941700D01*
X177904707Y-90931450D01*
X177904706Y-90931450D01*
X177904703Y-90931449D01*
X177856175Y-90911349D01*
X177856171Y-90911347D01*
X177856170Y-90911346D01*
X177812489Y-90882159D01*
X177812488Y-90882158D01*
X177812485Y-90882156D01*
X177775344Y-90845015D01*
X177746151Y-90801325D01*
X177726051Y-90752797D01*
X177715800Y-90701266D01*
X177715800Y-90648734D01*
X177726051Y-90597203D01*
X177746151Y-90548675D01*
X177775344Y-90504985D01*
X177812485Y-90467844D01*
X177812489Y-90467841D01*
X177856170Y-90438654D01*
X177856171Y-90438653D01*
X177856175Y-90438651D01*
X177904703Y-90418551D01*
X177904706Y-90418550D01*
X177904707Y-90418550D01*
X177956232Y-90408300D01*
X178008768Y-90408300D01*
X178060293Y-90418550D01*
G37*
G36*
X176740293Y-90418550D02*
G01*
X176740294Y-90418550D01*
X176740297Y-90418551D01*
X176788825Y-90438651D01*
X176788829Y-90438653D01*
X176788830Y-90438654D01*
X176832511Y-90467841D01*
X176832515Y-90467844D01*
X176869656Y-90504985D01*
X176898849Y-90548675D01*
X176918949Y-90597203D01*
X176929200Y-90648734D01*
X176929200Y-90701266D01*
X176918949Y-90752797D01*
X176898849Y-90801325D01*
X176869656Y-90845015D01*
X176832515Y-90882156D01*
X176832512Y-90882158D01*
X176832511Y-90882159D01*
X176788830Y-90911346D01*
X176788829Y-90911347D01*
X176788825Y-90911349D01*
X176740297Y-90931449D01*
X176740294Y-90931450D01*
X176740293Y-90931450D01*
X176688768Y-90941700D01*
X176636232Y-90941700D01*
X176584707Y-90931450D01*
X176584706Y-90931450D01*
X176584703Y-90931449D01*
X176536175Y-90911349D01*
X176536171Y-90911347D01*
X176536170Y-90911346D01*
X176492489Y-90882159D01*
X176492488Y-90882158D01*
X176492485Y-90882156D01*
X176455344Y-90845015D01*
X176426151Y-90801325D01*
X176406051Y-90752797D01*
X176395800Y-90701266D01*
X176395800Y-90648734D01*
X176406051Y-90597203D01*
X176426151Y-90548675D01*
X176455344Y-90504985D01*
X176492485Y-90467844D01*
X176492489Y-90467841D01*
X176536170Y-90438654D01*
X176536171Y-90438653D01*
X176536175Y-90438651D01*
X176584703Y-90418551D01*
X176584706Y-90418550D01*
X176584707Y-90418550D01*
X176636232Y-90408300D01*
X176688768Y-90408300D01*
X176740293Y-90418550D01*
G37*
G36*
X303688100Y-90888100D02*
G01*
X299311900Y-90888100D01*
X299311900Y-90111900D01*
X303688100Y-90111900D01*
X303688100Y-90888100D01*
G37*
G36*
X189729881Y-89242186D02*
G01*
X189873303Y-89301593D01*
X190002388Y-89387846D01*
X190112154Y-89497612D01*
X190198407Y-89626697D01*
X190257814Y-89770119D01*
X190288100Y-89922379D01*
X190288100Y-90077621D01*
X190257814Y-90229881D01*
X190198407Y-90373303D01*
X190112154Y-90502388D01*
X190002388Y-90612154D01*
X189873303Y-90698407D01*
X189729881Y-90757814D01*
X189577621Y-90788100D01*
X189422379Y-90788100D01*
X189270119Y-90757814D01*
X189126697Y-90698407D01*
X188997612Y-90612154D01*
X188887846Y-90502388D01*
X188801593Y-90373303D01*
X188742186Y-90229881D01*
X188711900Y-90077621D01*
X188711900Y-89922379D01*
X188742186Y-89770119D01*
X188801593Y-89626697D01*
X188887846Y-89497612D01*
X188997612Y-89387846D01*
X189126697Y-89301593D01*
X189270119Y-89242186D01*
X189422379Y-89211900D01*
X189577621Y-89211900D01*
X189729881Y-89242186D01*
G37*
G36*
X246398389Y-89124546D02*
G01*
X246461962Y-89137191D01*
X246581728Y-89186799D01*
X246689516Y-89258821D01*
X246781179Y-89350484D01*
X246853201Y-89458272D01*
X246902809Y-89578038D01*
X246928100Y-89705184D01*
X246928100Y-89834816D01*
X246902809Y-89961962D01*
X246853201Y-90081728D01*
X246781179Y-90189516D01*
X246689516Y-90281179D01*
X246581728Y-90353201D01*
X246461962Y-90402809D01*
X246398389Y-90415455D01*
X246334817Y-90428100D01*
X246205183Y-90428100D01*
X246141611Y-90415454D01*
X246078038Y-90402809D01*
X245958272Y-90353201D01*
X245850484Y-90281179D01*
X245758821Y-90189516D01*
X245686799Y-90081728D01*
X245637191Y-89961962D01*
X245611900Y-89834816D01*
X245611900Y-89705184D01*
X245637191Y-89578038D01*
X245686799Y-89458272D01*
X245758821Y-89350484D01*
X245850484Y-89258821D01*
X245958272Y-89186799D01*
X246078038Y-89137191D01*
X246141611Y-89124546D01*
X246205183Y-89111900D01*
X246334817Y-89111900D01*
X246398389Y-89124546D01*
G37*
G36*
X243858389Y-89124546D02*
G01*
X243921962Y-89137191D01*
X244041728Y-89186799D01*
X244149516Y-89258821D01*
X244241179Y-89350484D01*
X244313201Y-89458272D01*
X244362809Y-89578038D01*
X244388100Y-89705184D01*
X244388100Y-89834816D01*
X244362809Y-89961962D01*
X244313201Y-90081728D01*
X244241179Y-90189516D01*
X244149516Y-90281179D01*
X244041728Y-90353201D01*
X243921962Y-90402809D01*
X243858389Y-90415455D01*
X243794817Y-90428100D01*
X243665183Y-90428100D01*
X243601611Y-90415454D01*
X243538038Y-90402809D01*
X243418272Y-90353201D01*
X243310484Y-90281179D01*
X243218821Y-90189516D01*
X243146799Y-90081728D01*
X243097191Y-89961962D01*
X243071900Y-89834816D01*
X243071900Y-89705184D01*
X243097191Y-89578038D01*
X243146799Y-89458272D01*
X243218821Y-89350484D01*
X243310484Y-89258821D01*
X243418272Y-89186799D01*
X243538038Y-89137191D01*
X243601611Y-89124546D01*
X243665183Y-89111900D01*
X243794817Y-89111900D01*
X243858389Y-89124546D01*
G37*
G36*
X259398389Y-89124546D02*
G01*
X259461962Y-89137191D01*
X259581728Y-89186799D01*
X259689516Y-89258821D01*
X259781179Y-89350484D01*
X259853201Y-89458272D01*
X259902809Y-89578038D01*
X259928100Y-89705184D01*
X259928100Y-89834816D01*
X259902809Y-89961962D01*
X259853201Y-90081728D01*
X259781179Y-90189516D01*
X259689516Y-90281179D01*
X259581728Y-90353201D01*
X259461962Y-90402809D01*
X259398389Y-90415455D01*
X259334817Y-90428100D01*
X259205183Y-90428100D01*
X259141611Y-90415454D01*
X259078038Y-90402809D01*
X258958272Y-90353201D01*
X258850484Y-90281179D01*
X258758821Y-90189516D01*
X258686799Y-90081728D01*
X258637191Y-89961962D01*
X258611900Y-89834816D01*
X258611900Y-89705184D01*
X258637191Y-89578038D01*
X258686799Y-89458272D01*
X258758821Y-89350484D01*
X258850484Y-89258821D01*
X258958272Y-89186799D01*
X259078038Y-89137191D01*
X259141611Y-89124546D01*
X259205183Y-89111900D01*
X259334817Y-89111900D01*
X259398389Y-89124546D01*
G37*
G36*
X252898389Y-89124546D02*
G01*
X252961962Y-89137191D01*
X253081728Y-89186799D01*
X253189516Y-89258821D01*
X253281179Y-89350484D01*
X253353201Y-89458272D01*
X253402809Y-89578038D01*
X253428100Y-89705184D01*
X253428100Y-89834816D01*
X253402809Y-89961962D01*
X253353201Y-90081728D01*
X253281179Y-90189516D01*
X253189516Y-90281179D01*
X253081728Y-90353201D01*
X252961962Y-90402809D01*
X252898389Y-90415455D01*
X252834817Y-90428100D01*
X252705183Y-90428100D01*
X252641611Y-90415454D01*
X252578038Y-90402809D01*
X252458272Y-90353201D01*
X252350484Y-90281179D01*
X252258821Y-90189516D01*
X252186799Y-90081728D01*
X252137191Y-89961962D01*
X252111900Y-89834816D01*
X252111900Y-89705184D01*
X252137191Y-89578038D01*
X252186799Y-89458272D01*
X252258821Y-89350484D01*
X252350484Y-89258821D01*
X252458272Y-89186799D01*
X252578038Y-89137191D01*
X252641611Y-89124546D01*
X252705183Y-89111900D01*
X252834817Y-89111900D01*
X252898389Y-89124546D01*
G37*
G36*
X250358389Y-89124546D02*
G01*
X250421962Y-89137191D01*
X250541728Y-89186799D01*
X250649516Y-89258821D01*
X250741179Y-89350484D01*
X250813201Y-89458272D01*
X250862809Y-89578038D01*
X250888100Y-89705184D01*
X250888100Y-89834816D01*
X250862809Y-89961962D01*
X250813201Y-90081728D01*
X250741179Y-90189516D01*
X250649516Y-90281179D01*
X250541728Y-90353201D01*
X250421962Y-90402809D01*
X250358389Y-90415455D01*
X250294817Y-90428100D01*
X250165183Y-90428100D01*
X250101611Y-90415454D01*
X250038038Y-90402809D01*
X249918272Y-90353201D01*
X249810484Y-90281179D01*
X249718821Y-90189516D01*
X249646799Y-90081728D01*
X249597191Y-89961962D01*
X249571900Y-89834816D01*
X249571900Y-89705184D01*
X249597191Y-89578038D01*
X249646799Y-89458272D01*
X249718821Y-89350484D01*
X249810484Y-89258821D01*
X249918272Y-89186799D01*
X250038038Y-89137191D01*
X250101611Y-89124546D01*
X250165183Y-89111900D01*
X250294817Y-89111900D01*
X250358389Y-89124546D01*
G37*
G36*
X256858389Y-89124546D02*
G01*
X256921962Y-89137191D01*
X257041728Y-89186799D01*
X257149516Y-89258821D01*
X257241179Y-89350484D01*
X257313201Y-89458272D01*
X257362809Y-89578038D01*
X257388100Y-89705184D01*
X257388100Y-89834816D01*
X257362809Y-89961962D01*
X257313201Y-90081728D01*
X257241179Y-90189516D01*
X257149516Y-90281179D01*
X257041728Y-90353201D01*
X256921962Y-90402809D01*
X256858389Y-90415455D01*
X256794817Y-90428100D01*
X256665183Y-90428100D01*
X256601611Y-90415454D01*
X256538038Y-90402809D01*
X256418272Y-90353201D01*
X256310484Y-90281179D01*
X256218821Y-90189516D01*
X256146799Y-90081728D01*
X256097191Y-89961962D01*
X256071900Y-89834816D01*
X256071900Y-89705184D01*
X256097191Y-89578038D01*
X256146799Y-89458272D01*
X256218821Y-89350484D01*
X256310484Y-89258821D01*
X256418272Y-89186799D01*
X256538038Y-89137191D01*
X256601611Y-89124546D01*
X256665183Y-89111900D01*
X256794817Y-89111900D01*
X256858389Y-89124546D01*
G37*
G36*
X303688100Y-89888100D02*
G01*
X299311900Y-89888100D01*
X299311900Y-89111900D01*
X303688100Y-89111900D01*
X303688100Y-89888100D01*
G37*
G36*
X157358389Y-88124545D02*
G01*
X157421962Y-88137191D01*
X157541728Y-88186799D01*
X157649516Y-88258821D01*
X157741179Y-88350484D01*
X157813201Y-88458272D01*
X157862809Y-88578038D01*
X157888100Y-88705184D01*
X157888100Y-88834816D01*
X157862809Y-88961962D01*
X157813201Y-89081728D01*
X157741179Y-89189516D01*
X157649516Y-89281179D01*
X157541728Y-89353201D01*
X157421962Y-89402809D01*
X157358389Y-89415454D01*
X157294817Y-89428100D01*
X157165183Y-89428100D01*
X157101611Y-89415454D01*
X157038038Y-89402809D01*
X156918272Y-89353201D01*
X156810484Y-89281179D01*
X156718821Y-89189516D01*
X156646799Y-89081728D01*
X156597191Y-88961962D01*
X156571900Y-88834816D01*
X156571900Y-88705184D01*
X156597191Y-88578038D01*
X156646799Y-88458272D01*
X156718821Y-88350484D01*
X156810484Y-88258821D01*
X156918272Y-88186799D01*
X157038038Y-88137191D01*
X157101611Y-88124545D01*
X157165183Y-88111900D01*
X157294817Y-88111900D01*
X157358389Y-88124545D01*
G37*
G36*
X159898389Y-88124545D02*
G01*
X159961962Y-88137191D01*
X160081728Y-88186799D01*
X160189516Y-88258821D01*
X160281179Y-88350484D01*
X160353201Y-88458272D01*
X160402809Y-88578038D01*
X160428100Y-88705184D01*
X160428100Y-88834816D01*
X160402809Y-88961962D01*
X160353201Y-89081728D01*
X160281179Y-89189516D01*
X160189516Y-89281179D01*
X160081728Y-89353201D01*
X159961962Y-89402809D01*
X159898389Y-89415454D01*
X159834817Y-89428100D01*
X159705183Y-89428100D01*
X159641611Y-89415454D01*
X159578038Y-89402809D01*
X159458272Y-89353201D01*
X159350484Y-89281179D01*
X159258821Y-89189516D01*
X159186799Y-89081728D01*
X159137191Y-88961962D01*
X159111900Y-88834816D01*
X159111900Y-88705184D01*
X159137191Y-88578038D01*
X159186799Y-88458272D01*
X159258821Y-88350484D01*
X159350484Y-88258821D01*
X159458272Y-88186799D01*
X159578038Y-88137191D01*
X159641611Y-88124545D01*
X159705183Y-88111900D01*
X159834817Y-88111900D01*
X159898389Y-88124545D01*
G37*
G36*
X245128389Y-87854546D02*
G01*
X245191962Y-87867191D01*
X245311728Y-87916799D01*
X245419516Y-87988821D01*
X245511179Y-88080484D01*
X245583201Y-88188272D01*
X245632809Y-88308038D01*
X245658100Y-88435184D01*
X245658100Y-88564816D01*
X245632809Y-88691962D01*
X245583201Y-88811728D01*
X245511179Y-88919516D01*
X245419516Y-89011179D01*
X245311728Y-89083201D01*
X245191962Y-89132809D01*
X245169932Y-89137191D01*
X245064817Y-89158100D01*
X244935183Y-89158100D01*
X244830068Y-89137191D01*
X244808038Y-89132809D01*
X244688272Y-89083201D01*
X244580484Y-89011179D01*
X244488821Y-88919516D01*
X244416799Y-88811728D01*
X244367191Y-88691962D01*
X244341900Y-88564816D01*
X244341900Y-88435184D01*
X244367191Y-88308038D01*
X244416799Y-88188272D01*
X244488821Y-88080484D01*
X244580484Y-87988821D01*
X244688272Y-87916799D01*
X244808038Y-87867191D01*
X244871611Y-87854546D01*
X244935183Y-87841900D01*
X245064817Y-87841900D01*
X245128389Y-87854546D01*
G37*
G36*
X258128389Y-87854546D02*
G01*
X258191962Y-87867191D01*
X258311728Y-87916799D01*
X258419516Y-87988821D01*
X258511179Y-88080484D01*
X258583201Y-88188272D01*
X258632809Y-88308038D01*
X258658100Y-88435184D01*
X258658100Y-88564816D01*
X258632809Y-88691962D01*
X258583201Y-88811728D01*
X258511179Y-88919516D01*
X258419516Y-89011179D01*
X258311728Y-89083201D01*
X258191962Y-89132809D01*
X258169932Y-89137191D01*
X258064817Y-89158100D01*
X257935183Y-89158100D01*
X257830068Y-89137191D01*
X257808038Y-89132809D01*
X257688272Y-89083201D01*
X257580484Y-89011179D01*
X257488821Y-88919516D01*
X257416799Y-88811728D01*
X257367191Y-88691962D01*
X257341900Y-88564816D01*
X257341900Y-88435184D01*
X257367191Y-88308038D01*
X257416799Y-88188272D01*
X257488821Y-88080484D01*
X257580484Y-87988821D01*
X257688272Y-87916799D01*
X257808038Y-87867191D01*
X257871611Y-87854546D01*
X257935183Y-87841900D01*
X258064817Y-87841900D01*
X258128389Y-87854546D01*
G37*
G36*
X251628389Y-87854546D02*
G01*
X251691962Y-87867191D01*
X251811728Y-87916799D01*
X251919516Y-87988821D01*
X252011179Y-88080484D01*
X252083201Y-88188272D01*
X252132809Y-88308038D01*
X252158100Y-88435184D01*
X252158100Y-88564816D01*
X252132809Y-88691962D01*
X252083201Y-88811728D01*
X252011179Y-88919516D01*
X251919516Y-89011179D01*
X251811728Y-89083201D01*
X251691962Y-89132809D01*
X251669932Y-89137191D01*
X251564817Y-89158100D01*
X251435183Y-89158100D01*
X251330068Y-89137191D01*
X251308038Y-89132809D01*
X251188272Y-89083201D01*
X251080484Y-89011179D01*
X250988821Y-88919516D01*
X250916799Y-88811728D01*
X250867191Y-88691962D01*
X250841900Y-88564816D01*
X250841900Y-88435184D01*
X250867191Y-88308038D01*
X250916799Y-88188272D01*
X250988821Y-88080484D01*
X251080484Y-87988821D01*
X251188272Y-87916799D01*
X251308038Y-87867191D01*
X251371611Y-87854546D01*
X251435183Y-87841900D01*
X251564817Y-87841900D01*
X251628389Y-87854546D01*
G37*
G36*
X303688100Y-88888100D02*
G01*
X299311900Y-88888100D01*
X299311900Y-88111900D01*
X303688100Y-88111900D01*
X303688100Y-88888100D01*
G37*
G36*
X86229881Y-87042186D02*
G01*
X86373303Y-87101593D01*
X86502388Y-87187846D01*
X86612154Y-87297612D01*
X86612156Y-87297615D01*
X86612157Y-87297616D01*
X86619121Y-87308038D01*
X86698407Y-87426697D01*
X86757814Y-87570119D01*
X86788100Y-87722379D01*
X86788100Y-87877621D01*
X86757814Y-88029881D01*
X86698407Y-88173303D01*
X86612154Y-88302388D01*
X86502388Y-88412154D01*
X86373303Y-88498407D01*
X86229881Y-88557814D01*
X86077621Y-88588100D01*
X85922379Y-88588100D01*
X85770119Y-88557814D01*
X85626697Y-88498407D01*
X85497612Y-88412154D01*
X85387846Y-88302388D01*
X85301593Y-88173303D01*
X85242186Y-88029881D01*
X85211900Y-87877621D01*
X85211900Y-87722379D01*
X85242186Y-87570119D01*
X85301593Y-87426697D01*
X85380879Y-87308038D01*
X85387843Y-87297616D01*
X85387844Y-87297615D01*
X85387846Y-87297612D01*
X85497612Y-87187846D01*
X85626697Y-87101593D01*
X85770119Y-87042186D01*
X85922379Y-87011900D01*
X86077621Y-87011900D01*
X86229881Y-87042186D01*
G37*
G36*
X158628389Y-86854545D02*
G01*
X158691962Y-86867191D01*
X158811728Y-86916799D01*
X158919516Y-86988821D01*
X159011179Y-87080484D01*
X159083201Y-87188272D01*
X159132809Y-87308038D01*
X159132809Y-87308039D01*
X159156412Y-87426695D01*
X159158100Y-87435184D01*
X159158100Y-87564816D01*
X159132809Y-87691962D01*
X159083201Y-87811728D01*
X159011179Y-87919516D01*
X158919516Y-88011179D01*
X158811728Y-88083201D01*
X158691962Y-88132809D01*
X158669932Y-88137191D01*
X158564817Y-88158100D01*
X158435183Y-88158100D01*
X158330068Y-88137191D01*
X158308038Y-88132809D01*
X158188272Y-88083201D01*
X158080484Y-88011179D01*
X157988821Y-87919516D01*
X157916799Y-87811728D01*
X157867191Y-87691962D01*
X157841900Y-87564816D01*
X157841900Y-87435184D01*
X157843589Y-87426695D01*
X157867191Y-87308039D01*
X157867191Y-87308038D01*
X157916799Y-87188272D01*
X157988821Y-87080484D01*
X158080484Y-86988821D01*
X158188272Y-86916799D01*
X158308038Y-86867191D01*
X158371611Y-86854545D01*
X158435183Y-86841900D01*
X158564817Y-86841900D01*
X158628389Y-86854545D01*
G37*
G36*
X243858389Y-86584546D02*
G01*
X243921962Y-86597191D01*
X244041728Y-86646799D01*
X244149516Y-86718821D01*
X244241179Y-86810484D01*
X244313201Y-86918272D01*
X244362809Y-87038038D01*
X244388100Y-87165184D01*
X244388100Y-87294816D01*
X244362809Y-87421962D01*
X244313201Y-87541728D01*
X244241179Y-87649516D01*
X244149516Y-87741179D01*
X244041728Y-87813201D01*
X243921962Y-87862809D01*
X243899932Y-87867191D01*
X243794817Y-87888100D01*
X243665183Y-87888100D01*
X243560068Y-87867191D01*
X243538038Y-87862809D01*
X243418272Y-87813201D01*
X243310484Y-87741179D01*
X243218821Y-87649516D01*
X243146799Y-87541728D01*
X243097191Y-87421962D01*
X243071900Y-87294816D01*
X243071900Y-87165184D01*
X243097191Y-87038038D01*
X243146799Y-86918272D01*
X243218821Y-86810484D01*
X243310484Y-86718821D01*
X243418272Y-86646799D01*
X243538038Y-86597191D01*
X243601611Y-86584546D01*
X243665183Y-86571900D01*
X243794817Y-86571900D01*
X243858389Y-86584546D01*
G37*
G36*
X246398389Y-86584546D02*
G01*
X246461962Y-86597191D01*
X246581728Y-86646799D01*
X246689516Y-86718821D01*
X246781179Y-86810484D01*
X246853201Y-86918272D01*
X246902809Y-87038038D01*
X246928100Y-87165184D01*
X246928100Y-87294816D01*
X246902809Y-87421962D01*
X246853201Y-87541728D01*
X246781179Y-87649516D01*
X246689516Y-87741179D01*
X246581728Y-87813201D01*
X246461962Y-87862809D01*
X246439932Y-87867191D01*
X246334817Y-87888100D01*
X246205183Y-87888100D01*
X246100068Y-87867191D01*
X246078038Y-87862809D01*
X245958272Y-87813201D01*
X245850484Y-87741179D01*
X245758821Y-87649516D01*
X245686799Y-87541728D01*
X245637191Y-87421962D01*
X245611900Y-87294816D01*
X245611900Y-87165184D01*
X245637191Y-87038038D01*
X245686799Y-86918272D01*
X245758821Y-86810484D01*
X245850484Y-86718821D01*
X245958272Y-86646799D01*
X246078038Y-86597191D01*
X246141611Y-86584546D01*
X246205183Y-86571900D01*
X246334817Y-86571900D01*
X246398389Y-86584546D01*
G37*
G36*
X256858389Y-86584546D02*
G01*
X256921962Y-86597191D01*
X257041728Y-86646799D01*
X257149516Y-86718821D01*
X257241179Y-86810484D01*
X257313201Y-86918272D01*
X257362809Y-87038038D01*
X257388100Y-87165184D01*
X257388100Y-87294816D01*
X257362809Y-87421962D01*
X257313201Y-87541728D01*
X257241179Y-87649516D01*
X257149516Y-87741179D01*
X257041728Y-87813201D01*
X256921962Y-87862809D01*
X256899932Y-87867191D01*
X256794817Y-87888100D01*
X256665183Y-87888100D01*
X256560068Y-87867191D01*
X256538038Y-87862809D01*
X256418272Y-87813201D01*
X256310484Y-87741179D01*
X256218821Y-87649516D01*
X256146799Y-87541728D01*
X256097191Y-87421962D01*
X256071900Y-87294816D01*
X256071900Y-87165184D01*
X256097191Y-87038038D01*
X256146799Y-86918272D01*
X256218821Y-86810484D01*
X256310484Y-86718821D01*
X256418272Y-86646799D01*
X256538038Y-86597191D01*
X256601611Y-86584546D01*
X256665183Y-86571900D01*
X256794817Y-86571900D01*
X256858389Y-86584546D01*
G37*
G36*
X259398389Y-86584546D02*
G01*
X259461962Y-86597191D01*
X259581728Y-86646799D01*
X259689516Y-86718821D01*
X259781179Y-86810484D01*
X259853201Y-86918272D01*
X259902809Y-87038038D01*
X259928100Y-87165184D01*
X259928100Y-87294816D01*
X259902809Y-87421962D01*
X259853201Y-87541728D01*
X259781179Y-87649516D01*
X259689516Y-87741179D01*
X259581728Y-87813201D01*
X259461962Y-87862809D01*
X259439932Y-87867191D01*
X259334817Y-87888100D01*
X259205183Y-87888100D01*
X259100068Y-87867191D01*
X259078038Y-87862809D01*
X258958272Y-87813201D01*
X258850484Y-87741179D01*
X258758821Y-87649516D01*
X258686799Y-87541728D01*
X258637191Y-87421962D01*
X258611900Y-87294816D01*
X258611900Y-87165184D01*
X258637191Y-87038038D01*
X258686799Y-86918272D01*
X258758821Y-86810484D01*
X258850484Y-86718821D01*
X258958272Y-86646799D01*
X259078038Y-86597191D01*
X259141611Y-86584546D01*
X259205183Y-86571900D01*
X259334817Y-86571900D01*
X259398389Y-86584546D01*
G37*
G36*
X250358389Y-86584546D02*
G01*
X250421962Y-86597191D01*
X250541728Y-86646799D01*
X250649516Y-86718821D01*
X250741179Y-86810484D01*
X250813201Y-86918272D01*
X250862809Y-87038038D01*
X250888100Y-87165184D01*
X250888100Y-87294816D01*
X250862809Y-87421962D01*
X250813201Y-87541728D01*
X250741179Y-87649516D01*
X250649516Y-87741179D01*
X250541728Y-87813201D01*
X250421962Y-87862809D01*
X250399932Y-87867191D01*
X250294817Y-87888100D01*
X250165183Y-87888100D01*
X250060068Y-87867191D01*
X250038038Y-87862809D01*
X249918272Y-87813201D01*
X249810484Y-87741179D01*
X249718821Y-87649516D01*
X249646799Y-87541728D01*
X249597191Y-87421962D01*
X249571900Y-87294816D01*
X249571900Y-87165184D01*
X249597191Y-87038038D01*
X249646799Y-86918272D01*
X249718821Y-86810484D01*
X249810484Y-86718821D01*
X249918272Y-86646799D01*
X250038038Y-86597191D01*
X250101611Y-86584546D01*
X250165183Y-86571900D01*
X250294817Y-86571900D01*
X250358389Y-86584546D01*
G37*
G36*
X252898389Y-86584546D02*
G01*
X252961962Y-86597191D01*
X253081728Y-86646799D01*
X253189516Y-86718821D01*
X253281179Y-86810484D01*
X253353201Y-86918272D01*
X253402809Y-87038038D01*
X253428100Y-87165184D01*
X253428100Y-87294816D01*
X253402809Y-87421962D01*
X253353201Y-87541728D01*
X253281179Y-87649516D01*
X253189516Y-87741179D01*
X253081728Y-87813201D01*
X252961962Y-87862809D01*
X252939932Y-87867191D01*
X252834817Y-87888100D01*
X252705183Y-87888100D01*
X252600068Y-87867191D01*
X252578038Y-87862809D01*
X252458272Y-87813201D01*
X252350484Y-87741179D01*
X252258821Y-87649516D01*
X252186799Y-87541728D01*
X252137191Y-87421962D01*
X252111900Y-87294816D01*
X252111900Y-87165184D01*
X252137191Y-87038038D01*
X252186799Y-86918272D01*
X252258821Y-86810484D01*
X252350484Y-86718821D01*
X252458272Y-86646799D01*
X252578038Y-86597191D01*
X252641611Y-86584546D01*
X252705183Y-86571900D01*
X252834817Y-86571900D01*
X252898389Y-86584546D01*
G37*
G36*
X303688100Y-87888100D02*
G01*
X299311900Y-87888100D01*
X299311900Y-87111900D01*
X303688100Y-87111900D01*
X303688100Y-87888100D01*
G37*
G36*
X129729881Y-86042186D02*
G01*
X129873303Y-86101593D01*
X130002388Y-86187846D01*
X130112154Y-86297612D01*
X130198407Y-86426697D01*
X130257814Y-86570119D01*
X130288100Y-86722379D01*
X130288100Y-86877621D01*
X130257814Y-87029881D01*
X130198407Y-87173303D01*
X130188404Y-87188273D01*
X130115346Y-87297612D01*
X130112154Y-87302388D01*
X130002388Y-87412154D01*
X130002385Y-87412156D01*
X130002384Y-87412157D01*
X129980626Y-87426695D01*
X129873303Y-87498407D01*
X129729881Y-87557814D01*
X129577621Y-87588100D01*
X129422379Y-87588100D01*
X129270119Y-87557814D01*
X129126697Y-87498407D01*
X129019374Y-87426695D01*
X128997616Y-87412157D01*
X128997615Y-87412156D01*
X128997612Y-87412154D01*
X128887846Y-87302388D01*
X128884655Y-87297612D01*
X128811596Y-87188273D01*
X128801593Y-87173303D01*
X128742186Y-87029881D01*
X128711900Y-86877621D01*
X128711900Y-86722379D01*
X128742186Y-86570119D01*
X128801593Y-86426697D01*
X128887846Y-86297612D01*
X128997612Y-86187846D01*
X129126697Y-86101593D01*
X129270119Y-86042186D01*
X129422379Y-86011900D01*
X129577621Y-86011900D01*
X129729881Y-86042186D01*
G37*
G36*
X179679881Y-85642186D02*
G01*
X179823303Y-85701593D01*
X179952388Y-85787846D01*
X180062154Y-85897612D01*
X180062156Y-85897615D01*
X180062157Y-85897616D01*
X180090642Y-85940246D01*
X180148407Y-86026697D01*
X180207814Y-86170119D01*
X180238100Y-86322379D01*
X180238100Y-86477621D01*
X180207814Y-86629881D01*
X180148407Y-86773303D01*
X180062154Y-86902388D01*
X179952388Y-87012154D01*
X179823303Y-87098407D01*
X179679881Y-87157814D01*
X179527621Y-87188100D01*
X179372379Y-87188100D01*
X179220119Y-87157814D01*
X179076697Y-87098407D01*
X178947612Y-87012154D01*
X178837846Y-86902388D01*
X178751593Y-86773303D01*
X178692186Y-86629881D01*
X178661900Y-86477621D01*
X178661900Y-86322379D01*
X178692186Y-86170119D01*
X178751593Y-86026697D01*
X178809358Y-85940246D01*
X178837843Y-85897616D01*
X178837844Y-85897615D01*
X178837846Y-85897612D01*
X178947612Y-85787846D01*
X179076697Y-85701593D01*
X179220119Y-85642186D01*
X179372379Y-85611900D01*
X179527621Y-85611900D01*
X179679881Y-85642186D01*
G37*
G36*
X157358389Y-85584546D02*
G01*
X157421962Y-85597191D01*
X157541728Y-85646799D01*
X157649516Y-85718821D01*
X157741179Y-85810484D01*
X157813201Y-85918272D01*
X157862809Y-86038038D01*
X157888100Y-86165184D01*
X157888100Y-86294816D01*
X157862809Y-86421962D01*
X157813201Y-86541728D01*
X157741179Y-86649516D01*
X157649516Y-86741179D01*
X157541728Y-86813201D01*
X157421962Y-86862809D01*
X157399932Y-86867191D01*
X157294817Y-86888100D01*
X157165183Y-86888100D01*
X157060068Y-86867191D01*
X157038038Y-86862809D01*
X156918272Y-86813201D01*
X156810484Y-86741179D01*
X156718821Y-86649516D01*
X156646799Y-86541728D01*
X156597191Y-86421962D01*
X156571900Y-86294816D01*
X156571900Y-86165184D01*
X156597191Y-86038038D01*
X156646799Y-85918272D01*
X156718821Y-85810484D01*
X156810484Y-85718821D01*
X156918272Y-85646799D01*
X157038038Y-85597191D01*
X157101611Y-85584545D01*
X157165183Y-85571900D01*
X157294817Y-85571900D01*
X157358389Y-85584546D01*
G37*
G36*
X303688100Y-86888100D02*
G01*
X299311900Y-86888100D01*
X299311900Y-86111900D01*
X303688100Y-86111900D01*
X303688100Y-86888100D01*
G37*
G36*
X159898389Y-85584546D02*
G01*
X159961962Y-85597191D01*
X160081728Y-85646799D01*
X160189516Y-85718821D01*
X160281179Y-85810484D01*
X160353201Y-85918272D01*
X160402809Y-86038038D01*
X160428100Y-86165184D01*
X160428100Y-86294816D01*
X160402809Y-86421962D01*
X160353201Y-86541728D01*
X160281179Y-86649516D01*
X160189516Y-86741179D01*
X160081728Y-86813201D01*
X159961962Y-86862809D01*
X159939932Y-86867191D01*
X159834817Y-86888100D01*
X159705183Y-86888100D01*
X159600068Y-86867191D01*
X159578038Y-86862809D01*
X159458272Y-86813201D01*
X159350484Y-86741179D01*
X159258821Y-86649516D01*
X159186799Y-86541728D01*
X159137191Y-86421962D01*
X159111900Y-86294816D01*
X159111900Y-86165184D01*
X159137191Y-86038038D01*
X159186799Y-85918272D01*
X159258821Y-85810484D01*
X159350484Y-85718821D01*
X159458272Y-85646799D01*
X159578038Y-85597191D01*
X159641611Y-85584545D01*
X159705183Y-85571900D01*
X159834817Y-85571900D01*
X159898389Y-85584546D01*
G37*
G36*
X303688100Y-85888100D02*
G01*
X299311900Y-85888100D01*
X299311900Y-85111900D01*
X303688100Y-85111900D01*
X303688100Y-85888100D01*
G37*
G36*
X303688100Y-84888100D02*
G01*
X299311900Y-84888100D01*
X299311900Y-84111900D01*
X303688100Y-84111900D01*
X303688100Y-84888100D01*
G37*
G36*
X303688100Y-83888100D02*
G01*
X299311900Y-83888100D01*
X299311900Y-83111900D01*
X303688100Y-83111900D01*
X303688100Y-83888100D01*
G37*
G36*
X303688100Y-82888100D02*
G01*
X299311900Y-82888100D01*
X299311900Y-82111900D01*
X303688100Y-82111900D01*
X303688100Y-82888100D01*
G37*
G36*
X303688100Y-81888100D02*
G01*
X299311900Y-81888100D01*
X299311900Y-81111900D01*
X303688100Y-81111900D01*
X303688100Y-81888100D01*
G37*
G36*
X303688100Y-80888100D02*
G01*
X299311900Y-80888100D01*
X299311900Y-80111900D01*
X303688100Y-80111900D01*
X303688100Y-80888100D01*
G37*
G36*
X303688100Y-79888100D02*
G01*
X299311900Y-79888100D01*
X299311900Y-79111900D01*
X303688100Y-79111900D01*
X303688100Y-79888100D01*
G37*
G36*
X303688100Y-78888100D02*
G01*
X299311900Y-78888100D01*
X299311900Y-78111900D01*
X303688100Y-78111900D01*
X303688100Y-78888100D01*
G37*
G36*
X129729881Y-77242186D02*
G01*
X129873303Y-77301593D01*
X130002388Y-77387846D01*
X130112154Y-77497612D01*
X130198407Y-77626697D01*
X130257814Y-77770119D01*
X130288100Y-77922379D01*
X130288100Y-78077621D01*
X130257814Y-78229881D01*
X130198407Y-78373303D01*
X130112154Y-78502388D01*
X130002388Y-78612154D01*
X129873303Y-78698407D01*
X129729881Y-78757814D01*
X129577621Y-78788100D01*
X129422379Y-78788100D01*
X129270119Y-78757814D01*
X129126697Y-78698407D01*
X128997612Y-78612154D01*
X128887846Y-78502388D01*
X128801593Y-78373303D01*
X128742186Y-78229881D01*
X128711900Y-78077621D01*
X128711900Y-77922379D01*
X128742186Y-77770119D01*
X128801593Y-77626697D01*
X128887846Y-77497612D01*
X128997612Y-77387846D01*
X129126697Y-77301593D01*
X129270119Y-77242186D01*
X129422379Y-77211900D01*
X129577621Y-77211900D01*
X129729881Y-77242186D01*
G37*
G36*
X86629881Y-76442186D02*
G01*
X86773303Y-76501593D01*
X86820020Y-76532809D01*
X86900822Y-76586799D01*
X86902388Y-76587846D01*
X87012154Y-76697612D01*
X87098407Y-76826697D01*
X87157814Y-76970119D01*
X87188100Y-77122379D01*
X87188100Y-77277621D01*
X87157814Y-77429881D01*
X87098407Y-77573303D01*
X87012154Y-77702388D01*
X86902388Y-77812154D01*
X86902385Y-77812156D01*
X86902384Y-77812157D01*
X86859754Y-77840642D01*
X86773303Y-77898407D01*
X86629881Y-77957814D01*
X86477621Y-77988100D01*
X86322379Y-77988100D01*
X86170119Y-77957814D01*
X86026697Y-77898407D01*
X85940246Y-77840642D01*
X85897616Y-77812157D01*
X85897615Y-77812156D01*
X85897612Y-77812154D01*
X85787846Y-77702388D01*
X85701593Y-77573303D01*
X85642186Y-77429881D01*
X85611900Y-77277621D01*
X85611900Y-77122379D01*
X85642186Y-76970119D01*
X85701593Y-76826697D01*
X85787846Y-76697612D01*
X85897612Y-76587846D01*
X85899179Y-76586799D01*
X85979980Y-76532809D01*
X86026697Y-76501593D01*
X86170119Y-76442186D01*
X86322379Y-76411900D01*
X86477621Y-76411900D01*
X86629881Y-76442186D01*
G37*
G36*
X303688100Y-77888100D02*
G01*
X299311900Y-77888100D01*
X299311900Y-77111900D01*
X303688100Y-77111900D01*
X303688100Y-77888100D01*
G37*
G36*
X285358389Y-76524546D02*
G01*
X285421962Y-76537191D01*
X285541728Y-76586799D01*
X285649516Y-76658821D01*
X285741179Y-76750484D01*
X285813201Y-76858272D01*
X285862809Y-76978038D01*
X285888100Y-77105184D01*
X285888100Y-77234816D01*
X285862809Y-77361962D01*
X285813201Y-77481728D01*
X285741179Y-77589516D01*
X285649516Y-77681179D01*
X285541728Y-77753201D01*
X285421962Y-77802809D01*
X285358389Y-77815455D01*
X285294817Y-77828100D01*
X285165183Y-77828100D01*
X285101611Y-77815455D01*
X285038038Y-77802809D01*
X284918272Y-77753201D01*
X284810484Y-77681179D01*
X284718821Y-77589516D01*
X284646799Y-77481728D01*
X284597191Y-77361962D01*
X284571900Y-77234816D01*
X284571900Y-77105184D01*
X284597191Y-76978038D01*
X284646799Y-76858272D01*
X284718821Y-76750484D01*
X284810484Y-76658821D01*
X284918272Y-76586799D01*
X285038038Y-76537191D01*
X285101611Y-76524546D01*
X285165183Y-76511900D01*
X285294817Y-76511900D01*
X285358389Y-76524546D01*
G37*
G36*
X287898389Y-76524546D02*
G01*
X287961962Y-76537191D01*
X288081728Y-76586799D01*
X288189516Y-76658821D01*
X288281179Y-76750484D01*
X288353201Y-76858272D01*
X288402809Y-76978038D01*
X288428100Y-77105184D01*
X288428100Y-77234816D01*
X288402809Y-77361962D01*
X288353201Y-77481728D01*
X288281179Y-77589516D01*
X288189516Y-77681179D01*
X288081728Y-77753201D01*
X287961962Y-77802809D01*
X287898389Y-77815455D01*
X287834817Y-77828100D01*
X287705183Y-77828100D01*
X287641611Y-77815455D01*
X287578038Y-77802809D01*
X287458272Y-77753201D01*
X287350484Y-77681179D01*
X287258821Y-77589516D01*
X287186799Y-77481728D01*
X287137191Y-77361962D01*
X287111900Y-77234816D01*
X287111900Y-77105184D01*
X287137191Y-76978038D01*
X287186799Y-76858272D01*
X287258821Y-76750484D01*
X287350484Y-76658821D01*
X287458272Y-76586799D01*
X287578038Y-76537191D01*
X287641611Y-76524546D01*
X287705183Y-76511900D01*
X287834817Y-76511900D01*
X287898389Y-76524546D01*
G37*
G36*
X303688100Y-76888100D02*
G01*
X299311900Y-76888100D01*
X299311900Y-76111900D01*
X303688100Y-76111900D01*
X303688100Y-76888100D01*
G37*
G36*
X286628389Y-75254545D02*
G01*
X286691962Y-75267191D01*
X286811728Y-75316799D01*
X286919516Y-75388821D01*
X287011179Y-75480484D01*
X287083201Y-75588272D01*
X287132809Y-75708038D01*
X287158100Y-75835184D01*
X287158100Y-75964816D01*
X287132809Y-76091962D01*
X287083201Y-76211728D01*
X287011179Y-76319516D01*
X286919516Y-76411179D01*
X286811728Y-76483201D01*
X286691962Y-76532809D01*
X286669932Y-76537191D01*
X286564817Y-76558100D01*
X286435183Y-76558100D01*
X286330068Y-76537191D01*
X286308038Y-76532809D01*
X286188272Y-76483201D01*
X286080484Y-76411179D01*
X285988821Y-76319516D01*
X285916799Y-76211728D01*
X285867191Y-76091962D01*
X285841900Y-75964816D01*
X285841900Y-75835184D01*
X285867191Y-75708038D01*
X285916799Y-75588272D01*
X285988821Y-75480484D01*
X286080484Y-75388821D01*
X286188272Y-75316799D01*
X286308038Y-75267191D01*
X286371611Y-75254545D01*
X286435183Y-75241900D01*
X286564817Y-75241900D01*
X286628389Y-75254545D01*
G37*
G36*
X303688100Y-75888100D02*
G01*
X299311900Y-75888100D01*
X299311900Y-75111900D01*
X303688100Y-75111900D01*
X303688100Y-75888100D01*
G37*
G36*
X287898389Y-73984545D02*
G01*
X287961962Y-73997191D01*
X288081728Y-74046799D01*
X288189516Y-74118821D01*
X288281179Y-74210484D01*
X288353201Y-74318272D01*
X288402809Y-74438038D01*
X288428100Y-74565184D01*
X288428100Y-74694816D01*
X288402809Y-74821962D01*
X288353201Y-74941728D01*
X288281179Y-75049516D01*
X288189516Y-75141179D01*
X288081728Y-75213201D01*
X287961962Y-75262809D01*
X287939932Y-75267191D01*
X287834817Y-75288100D01*
X287705183Y-75288100D01*
X287600068Y-75267191D01*
X287578038Y-75262809D01*
X287458272Y-75213201D01*
X287350484Y-75141179D01*
X287258821Y-75049516D01*
X287186799Y-74941728D01*
X287137191Y-74821962D01*
X287111900Y-74694816D01*
X287111900Y-74565184D01*
X287137191Y-74438038D01*
X287186799Y-74318272D01*
X287258821Y-74210484D01*
X287350484Y-74118821D01*
X287458272Y-74046799D01*
X287578038Y-73997191D01*
X287641611Y-73984545D01*
X287705183Y-73971900D01*
X287834817Y-73971900D01*
X287898389Y-73984545D01*
G37*
G36*
X285358389Y-73984545D02*
G01*
X285421962Y-73997191D01*
X285541728Y-74046799D01*
X285649516Y-74118821D01*
X285741179Y-74210484D01*
X285813201Y-74318272D01*
X285862809Y-74438038D01*
X285888100Y-74565184D01*
X285888100Y-74694816D01*
X285862809Y-74821962D01*
X285813201Y-74941728D01*
X285741179Y-75049516D01*
X285649516Y-75141179D01*
X285541728Y-75213201D01*
X285421962Y-75262809D01*
X285399932Y-75267191D01*
X285294817Y-75288100D01*
X285165183Y-75288100D01*
X285060068Y-75267191D01*
X285038038Y-75262809D01*
X284918272Y-75213201D01*
X284810484Y-75141179D01*
X284718821Y-75049516D01*
X284646799Y-74941728D01*
X284597191Y-74821962D01*
X284571900Y-74694816D01*
X284571900Y-74565184D01*
X284597191Y-74438038D01*
X284646799Y-74318272D01*
X284718821Y-74210484D01*
X284810484Y-74118821D01*
X284918272Y-74046799D01*
X285038038Y-73997191D01*
X285101611Y-73984545D01*
X285165183Y-73971900D01*
X285294817Y-73971900D01*
X285358389Y-73984545D01*
G37*
G36*
X303688100Y-74888100D02*
G01*
X299311900Y-74888100D01*
X299311900Y-74111900D01*
X303688100Y-74111900D01*
X303688100Y-74888100D01*
G37*
G36*
X261729881Y-73242186D02*
G01*
X261873303Y-73301593D01*
X262002388Y-73387846D01*
X262112154Y-73497612D01*
X262198407Y-73626697D01*
X262257814Y-73770119D01*
X262288100Y-73922379D01*
X262288100Y-74077621D01*
X262257814Y-74229881D01*
X262198407Y-74373303D01*
X262112154Y-74502388D01*
X262002388Y-74612154D01*
X261873303Y-74698407D01*
X261729881Y-74757814D01*
X261577621Y-74788100D01*
X261422379Y-74788100D01*
X261270119Y-74757814D01*
X261126697Y-74698407D01*
X260997612Y-74612154D01*
X260887846Y-74502388D01*
X260801593Y-74373303D01*
X260742186Y-74229881D01*
X260711900Y-74077621D01*
X260711900Y-73922379D01*
X260742186Y-73770119D01*
X260801593Y-73626697D01*
X260887846Y-73497612D01*
X260997612Y-73387846D01*
X261126697Y-73301593D01*
X261270119Y-73242186D01*
X261422379Y-73211900D01*
X261577621Y-73211900D01*
X261729881Y-73242186D01*
G37*
G36*
X40229881Y-73242186D02*
G01*
X40373303Y-73301593D01*
X40502388Y-73387846D01*
X40612154Y-73497612D01*
X40698407Y-73626697D01*
X40757814Y-73770119D01*
X40788100Y-73922379D01*
X40788100Y-74077621D01*
X40757814Y-74229881D01*
X40698407Y-74373303D01*
X40612154Y-74502388D01*
X40502388Y-74612154D01*
X40373303Y-74698407D01*
X40229881Y-74757814D01*
X40077621Y-74788100D01*
X39922379Y-74788100D01*
X39770119Y-74757814D01*
X39626697Y-74698407D01*
X39497612Y-74612154D01*
X39387846Y-74502388D01*
X39301593Y-74373303D01*
X39242186Y-74229881D01*
X39211900Y-74077621D01*
X39211900Y-73922379D01*
X39242186Y-73770119D01*
X39301593Y-73626697D01*
X39387846Y-73497612D01*
X39497612Y-73387846D01*
X39626697Y-73301593D01*
X39770119Y-73242186D01*
X39922379Y-73211900D01*
X40077621Y-73211900D01*
X40229881Y-73242186D01*
G37*
G36*
X303688100Y-73888100D02*
G01*
X299311900Y-73888100D01*
X299311900Y-73111900D01*
X303688100Y-73111900D01*
X303688100Y-73888100D01*
G37*
G36*
X303688100Y-72888100D02*
G01*
X299311900Y-72888100D01*
X299311900Y-72111900D01*
X303688100Y-72111900D01*
X303688100Y-72888100D01*
G37*
G36*
X168529881Y-70242186D02*
G01*
X168673303Y-70301593D01*
X168802388Y-70387846D01*
X168912154Y-70497612D01*
X168998407Y-70626697D01*
X169057814Y-70770119D01*
X169088100Y-70922379D01*
X169088100Y-71077621D01*
X169057814Y-71229881D01*
X168998407Y-71373303D01*
X168912154Y-71502388D01*
X168802388Y-71612154D01*
X168673303Y-71698407D01*
X168529881Y-71757814D01*
X168377621Y-71788100D01*
X168222379Y-71788100D01*
X168070119Y-71757814D01*
X167926697Y-71698407D01*
X167797612Y-71612154D01*
X167687846Y-71502388D01*
X167601593Y-71373303D01*
X167542186Y-71229881D01*
X167511900Y-71077621D01*
X167511900Y-70922379D01*
X167542186Y-70770119D01*
X167601593Y-70626697D01*
X167687846Y-70497612D01*
X167797612Y-70387846D01*
X167926697Y-70301593D01*
X168070119Y-70242186D01*
X168222379Y-70211900D01*
X168377621Y-70211900D01*
X168529881Y-70242186D01*
G37*
G36*
X159876136Y-68620119D02*
G01*
X159961962Y-68637191D01*
X160081728Y-68686799D01*
X160189516Y-68758821D01*
X160281179Y-68850484D01*
X160353201Y-68958272D01*
X160402809Y-69078038D01*
X160409545Y-69111900D01*
X160428100Y-69205183D01*
X160428100Y-69334817D01*
X160424605Y-69352388D01*
X160402809Y-69461962D01*
X160353201Y-69581728D01*
X160281179Y-69689516D01*
X160189516Y-69781179D01*
X160081728Y-69853201D01*
X159961962Y-69902809D01*
X159898389Y-69915454D01*
X159834817Y-69928100D01*
X159705183Y-69928100D01*
X159641611Y-69915454D01*
X159578038Y-69902809D01*
X159458272Y-69853201D01*
X159350484Y-69781179D01*
X159258821Y-69689516D01*
X159186799Y-69581728D01*
X159137191Y-69461962D01*
X159115395Y-69352388D01*
X159111900Y-69334817D01*
X159111900Y-69205183D01*
X159130455Y-69111900D01*
X159137191Y-69078038D01*
X159186799Y-68958272D01*
X159258821Y-68850484D01*
X159350484Y-68758821D01*
X159458272Y-68686799D01*
X159578038Y-68637191D01*
X159663864Y-68620119D01*
X159705183Y-68611900D01*
X159834817Y-68611900D01*
X159876136Y-68620119D01*
G37*
G36*
X157336136Y-68620119D02*
G01*
X157421962Y-68637191D01*
X157541728Y-68686799D01*
X157649516Y-68758821D01*
X157741179Y-68850484D01*
X157813201Y-68958272D01*
X157862809Y-69078038D01*
X157869545Y-69111900D01*
X157888100Y-69205183D01*
X157888100Y-69334817D01*
X157884605Y-69352388D01*
X157862809Y-69461962D01*
X157813201Y-69581728D01*
X157741179Y-69689516D01*
X157649516Y-69781179D01*
X157541728Y-69853201D01*
X157421962Y-69902809D01*
X157358389Y-69915454D01*
X157294817Y-69928100D01*
X157165183Y-69928100D01*
X157101611Y-69915454D01*
X157038038Y-69902809D01*
X156918272Y-69853201D01*
X156810484Y-69781179D01*
X156718821Y-69689516D01*
X156646799Y-69581728D01*
X156597191Y-69461962D01*
X156575395Y-69352388D01*
X156571900Y-69334817D01*
X156571900Y-69205183D01*
X156590455Y-69111900D01*
X156597191Y-69078038D01*
X156646799Y-68958272D01*
X156718821Y-68850484D01*
X156810484Y-68758821D01*
X156918272Y-68686799D01*
X157038038Y-68637191D01*
X157123864Y-68620119D01*
X157165183Y-68611900D01*
X157294817Y-68611900D01*
X157336136Y-68620119D01*
G37*
G36*
X303688100Y-69888100D02*
G01*
X299311900Y-69888100D01*
X299311900Y-69111900D01*
X303688100Y-69111900D01*
X303688100Y-69888100D01*
G37*
G36*
X179679881Y-68092186D02*
G01*
X179823303Y-68151593D01*
X179952388Y-68237846D01*
X180062154Y-68347612D01*
X180148407Y-68476697D01*
X180207814Y-68620119D01*
X180238100Y-68772379D01*
X180238100Y-68927621D01*
X180207814Y-69079881D01*
X180148407Y-69223303D01*
X180090642Y-69309754D01*
X180073896Y-69334816D01*
X180062154Y-69352388D01*
X179952388Y-69462154D01*
X179823303Y-69548407D01*
X179679881Y-69607814D01*
X179527621Y-69638100D01*
X179372379Y-69638100D01*
X179220119Y-69607814D01*
X179076697Y-69548407D01*
X178947612Y-69462154D01*
X178837846Y-69352388D01*
X178826105Y-69334816D01*
X178809358Y-69309754D01*
X178751593Y-69223303D01*
X178692186Y-69079881D01*
X178661900Y-68927621D01*
X178661900Y-68772379D01*
X178692186Y-68620119D01*
X178751593Y-68476697D01*
X178837846Y-68347612D01*
X178947612Y-68237846D01*
X179076697Y-68151593D01*
X179220119Y-68092186D01*
X179372379Y-68061900D01*
X179527621Y-68061900D01*
X179679881Y-68092186D01*
G37*
G36*
X303688100Y-68888100D02*
G01*
X299311900Y-68888100D01*
X299311900Y-68111900D01*
X303688100Y-68111900D01*
X303688100Y-68888100D01*
G37*
G36*
X158628389Y-67354546D02*
G01*
X158691962Y-67367191D01*
X158811728Y-67416799D01*
X158919516Y-67488821D01*
X159011179Y-67580484D01*
X159083201Y-67688272D01*
X159132809Y-67808038D01*
X159158100Y-67935184D01*
X159158100Y-68064816D01*
X159132809Y-68191962D01*
X159083201Y-68311728D01*
X159011179Y-68419516D01*
X158919516Y-68511179D01*
X158811728Y-68583201D01*
X158691962Y-68632809D01*
X158669932Y-68637191D01*
X158564817Y-68658100D01*
X158435183Y-68658100D01*
X158330068Y-68637191D01*
X158308038Y-68632809D01*
X158188272Y-68583201D01*
X158080484Y-68511179D01*
X157988821Y-68419516D01*
X157916799Y-68311728D01*
X157867191Y-68191962D01*
X157841900Y-68064816D01*
X157841900Y-67935184D01*
X157867191Y-67808038D01*
X157916799Y-67688272D01*
X157988821Y-67580484D01*
X158080484Y-67488821D01*
X158188272Y-67416799D01*
X158308038Y-67367191D01*
X158371611Y-67354546D01*
X158435183Y-67341900D01*
X158564817Y-67341900D01*
X158628389Y-67354546D01*
G37*
G36*
X303688100Y-67888100D02*
G01*
X299311900Y-67888100D01*
X299311900Y-67111900D01*
X303688100Y-67111900D01*
X303688100Y-67888100D01*
G37*
G36*
X159898389Y-66084546D02*
G01*
X159961962Y-66097191D01*
X160081728Y-66146799D01*
X160189516Y-66218821D01*
X160281179Y-66310484D01*
X160353201Y-66418272D01*
X160402809Y-66538038D01*
X160428100Y-66665184D01*
X160428100Y-66794816D01*
X160402809Y-66921962D01*
X160353201Y-67041728D01*
X160281179Y-67149516D01*
X160189516Y-67241179D01*
X160081728Y-67313201D01*
X159961962Y-67362809D01*
X159939932Y-67367191D01*
X159834817Y-67388100D01*
X159705183Y-67388100D01*
X159600068Y-67367191D01*
X159578038Y-67362809D01*
X159458272Y-67313201D01*
X159350484Y-67241179D01*
X159258821Y-67149516D01*
X159186799Y-67041728D01*
X159137191Y-66921962D01*
X159111900Y-66794816D01*
X159111900Y-66665184D01*
X159137191Y-66538038D01*
X159186799Y-66418272D01*
X159258821Y-66310484D01*
X159350484Y-66218821D01*
X159458272Y-66146799D01*
X159578038Y-66097191D01*
X159641611Y-66084546D01*
X159705183Y-66071900D01*
X159834817Y-66071900D01*
X159898389Y-66084546D01*
G37*
G36*
X157358389Y-66084546D02*
G01*
X157421962Y-66097191D01*
X157541728Y-66146799D01*
X157649516Y-66218821D01*
X157741179Y-66310484D01*
X157813201Y-66418272D01*
X157862809Y-66538038D01*
X157888100Y-66665184D01*
X157888100Y-66794816D01*
X157862809Y-66921962D01*
X157813201Y-67041728D01*
X157741179Y-67149516D01*
X157649516Y-67241179D01*
X157541728Y-67313201D01*
X157421962Y-67362809D01*
X157399932Y-67367191D01*
X157294817Y-67388100D01*
X157165183Y-67388100D01*
X157060068Y-67367191D01*
X157038038Y-67362809D01*
X156918272Y-67313201D01*
X156810484Y-67241179D01*
X156718821Y-67149516D01*
X156646799Y-67041728D01*
X156597191Y-66921962D01*
X156571900Y-66794816D01*
X156571900Y-66665184D01*
X156597191Y-66538038D01*
X156646799Y-66418272D01*
X156718821Y-66310484D01*
X156810484Y-66218821D01*
X156918272Y-66146799D01*
X157038038Y-66097191D01*
X157101611Y-66084546D01*
X157165183Y-66071900D01*
X157294817Y-66071900D01*
X157358389Y-66084546D01*
G37*
G36*
X303688100Y-66888100D02*
G01*
X299311900Y-66888100D01*
X299311900Y-66111900D01*
X303688100Y-66111900D01*
X303688100Y-66888100D01*
G37*
G36*
X303688100Y-65888100D02*
G01*
X299311900Y-65888100D01*
X299311900Y-65111900D01*
X303688100Y-65111900D01*
X303688100Y-65888100D01*
G37*
G36*
X178060293Y-64538550D02*
G01*
X178060294Y-64538550D01*
X178060297Y-64538551D01*
X178108825Y-64558651D01*
X178108829Y-64558653D01*
X178108830Y-64558654D01*
X178152511Y-64587841D01*
X178152515Y-64587844D01*
X178189656Y-64624985D01*
X178218849Y-64668675D01*
X178238949Y-64717203D01*
X178249200Y-64768734D01*
X178249200Y-64821266D01*
X178238949Y-64872797D01*
X178218849Y-64921325D01*
X178189656Y-64965015D01*
X178152515Y-65002156D01*
X178152512Y-65002158D01*
X178152511Y-65002159D01*
X178108830Y-65031346D01*
X178108829Y-65031347D01*
X178108825Y-65031349D01*
X178060297Y-65051449D01*
X178060294Y-65051450D01*
X178060293Y-65051450D01*
X178008768Y-65061700D01*
X177956232Y-65061700D01*
X177904707Y-65051450D01*
X177904706Y-65051450D01*
X177904703Y-65051449D01*
X177856175Y-65031349D01*
X177856171Y-65031347D01*
X177856170Y-65031346D01*
X177812489Y-65002159D01*
X177812488Y-65002158D01*
X177812485Y-65002156D01*
X177775344Y-64965015D01*
X177746151Y-64921325D01*
X177726051Y-64872797D01*
X177715800Y-64821266D01*
X177715800Y-64768734D01*
X177726051Y-64717203D01*
X177746151Y-64668675D01*
X177775344Y-64624985D01*
X177812485Y-64587844D01*
X177812489Y-64587841D01*
X177856170Y-64558654D01*
X177856171Y-64558653D01*
X177856175Y-64558651D01*
X177904703Y-64538551D01*
X177904706Y-64538550D01*
X177904707Y-64538550D01*
X177956232Y-64528300D01*
X178008768Y-64528300D01*
X178060293Y-64538550D01*
G37*
G36*
X176740293Y-64538550D02*
G01*
X176740294Y-64538550D01*
X176740297Y-64538551D01*
X176788825Y-64558651D01*
X176788829Y-64558653D01*
X176788830Y-64558654D01*
X176832511Y-64587841D01*
X176832515Y-64587844D01*
X176869656Y-64624985D01*
X176898849Y-64668675D01*
X176918949Y-64717203D01*
X176929200Y-64768734D01*
X176929200Y-64821266D01*
X176918949Y-64872797D01*
X176898849Y-64921325D01*
X176869656Y-64965015D01*
X176832515Y-65002156D01*
X176832512Y-65002158D01*
X176832511Y-65002159D01*
X176788830Y-65031346D01*
X176788829Y-65031347D01*
X176788825Y-65031349D01*
X176740297Y-65051449D01*
X176740294Y-65051450D01*
X176740293Y-65051450D01*
X176688768Y-65061700D01*
X176636232Y-65061700D01*
X176584707Y-65051450D01*
X176584706Y-65051450D01*
X176584703Y-65051449D01*
X176536175Y-65031349D01*
X176536171Y-65031347D01*
X176536170Y-65031346D01*
X176492489Y-65002159D01*
X176492488Y-65002158D01*
X176492485Y-65002156D01*
X176455344Y-64965015D01*
X176426151Y-64921325D01*
X176406051Y-64872797D01*
X176395800Y-64821266D01*
X176395800Y-64768734D01*
X176406051Y-64717203D01*
X176426151Y-64668675D01*
X176455344Y-64624985D01*
X176492485Y-64587844D01*
X176492489Y-64587841D01*
X176536170Y-64558654D01*
X176536171Y-64558653D01*
X176536175Y-64558651D01*
X176584703Y-64538551D01*
X176584706Y-64538550D01*
X176584707Y-64538550D01*
X176636232Y-64528300D01*
X176688768Y-64528300D01*
X176740293Y-64538550D01*
G37*
G36*
X303688100Y-64888100D02*
G01*
X299311900Y-64888100D01*
X299311900Y-64111900D01*
X303688100Y-64111900D01*
X303688100Y-64888100D01*
G37*
G36*
X177400293Y-63898550D02*
G01*
X177400294Y-63898550D01*
X177400297Y-63898551D01*
X177448825Y-63918651D01*
X177448829Y-63918653D01*
X177448830Y-63918654D01*
X177492511Y-63947841D01*
X177492515Y-63947844D01*
X177529656Y-63984985D01*
X177558849Y-64028675D01*
X177578949Y-64077203D01*
X177578950Y-64077206D01*
X177578950Y-64077207D01*
X177585852Y-64111900D01*
X177589200Y-64128734D01*
X177589200Y-64181266D01*
X177578949Y-64232797D01*
X177558849Y-64281325D01*
X177529656Y-64325015D01*
X177492515Y-64362156D01*
X177492512Y-64362158D01*
X177492511Y-64362159D01*
X177448830Y-64391346D01*
X177448829Y-64391347D01*
X177448825Y-64391349D01*
X177400297Y-64411449D01*
X177400294Y-64411450D01*
X177400293Y-64411450D01*
X177348768Y-64421700D01*
X177296232Y-64421700D01*
X177244707Y-64411450D01*
X177244706Y-64411450D01*
X177244703Y-64411449D01*
X177196175Y-64391349D01*
X177196171Y-64391347D01*
X177196170Y-64391346D01*
X177152489Y-64362159D01*
X177152488Y-64362158D01*
X177152485Y-64362156D01*
X177115344Y-64325015D01*
X177086151Y-64281325D01*
X177066051Y-64232797D01*
X177055800Y-64181266D01*
X177055800Y-64128734D01*
X177059149Y-64111900D01*
X177066050Y-64077207D01*
X177066050Y-64077206D01*
X177066051Y-64077203D01*
X177086151Y-64028675D01*
X177115344Y-63984985D01*
X177152485Y-63947844D01*
X177152489Y-63947841D01*
X177196170Y-63918654D01*
X177196171Y-63918653D01*
X177196175Y-63918651D01*
X177244703Y-63898551D01*
X177244706Y-63898550D01*
X177244707Y-63898550D01*
X177296232Y-63888300D01*
X177348768Y-63888300D01*
X177400293Y-63898550D01*
G37*
G36*
X303688100Y-63888100D02*
G01*
X299311900Y-63888100D01*
X299311900Y-63111900D01*
X303688100Y-63111900D01*
X303688100Y-63888100D01*
G37*
G36*
X178060293Y-63258550D02*
G01*
X178060294Y-63258550D01*
X178060297Y-63258551D01*
X178108825Y-63278651D01*
X178108829Y-63278653D01*
X178108830Y-63278654D01*
X178152511Y-63307841D01*
X178152515Y-63307844D01*
X178189656Y-63344985D01*
X178218849Y-63388675D01*
X178238949Y-63437203D01*
X178249200Y-63488734D01*
X178249200Y-63541266D01*
X178238949Y-63592797D01*
X178218849Y-63641325D01*
X178189656Y-63685015D01*
X178152515Y-63722156D01*
X178152512Y-63722158D01*
X178152511Y-63722159D01*
X178108830Y-63751346D01*
X178108829Y-63751347D01*
X178108825Y-63751349D01*
X178060297Y-63771449D01*
X178060294Y-63771450D01*
X178060293Y-63771450D01*
X178008768Y-63781700D01*
X177956232Y-63781700D01*
X177904707Y-63771450D01*
X177904706Y-63771450D01*
X177904703Y-63771449D01*
X177856175Y-63751349D01*
X177856171Y-63751347D01*
X177856170Y-63751346D01*
X177812489Y-63722159D01*
X177812488Y-63722158D01*
X177812485Y-63722156D01*
X177775344Y-63685015D01*
X177746151Y-63641325D01*
X177726051Y-63592797D01*
X177715800Y-63541266D01*
X177715800Y-63488734D01*
X177726051Y-63437203D01*
X177746151Y-63388675D01*
X177775344Y-63344985D01*
X177812485Y-63307844D01*
X177812489Y-63307841D01*
X177856170Y-63278654D01*
X177856171Y-63278653D01*
X177856175Y-63278651D01*
X177904703Y-63258551D01*
X177904706Y-63258550D01*
X177904707Y-63258550D01*
X177956232Y-63248300D01*
X178008768Y-63248300D01*
X178060293Y-63258550D01*
G37*
G36*
X176740293Y-63258550D02*
G01*
X176740294Y-63258550D01*
X176740297Y-63258551D01*
X176788825Y-63278651D01*
X176788829Y-63278653D01*
X176788830Y-63278654D01*
X176832511Y-63307841D01*
X176832515Y-63307844D01*
X176869656Y-63344985D01*
X176898849Y-63388675D01*
X176918949Y-63437203D01*
X176929200Y-63488734D01*
X176929200Y-63541266D01*
X176918949Y-63592797D01*
X176898849Y-63641325D01*
X176869656Y-63685015D01*
X176832515Y-63722156D01*
X176832512Y-63722158D01*
X176832511Y-63722159D01*
X176788830Y-63751346D01*
X176788829Y-63751347D01*
X176788825Y-63751349D01*
X176740297Y-63771449D01*
X176740294Y-63771450D01*
X176740293Y-63771450D01*
X176688768Y-63781700D01*
X176636232Y-63781700D01*
X176584707Y-63771450D01*
X176584706Y-63771450D01*
X176584703Y-63771449D01*
X176536175Y-63751349D01*
X176536171Y-63751347D01*
X176536170Y-63751346D01*
X176492489Y-63722159D01*
X176492488Y-63722158D01*
X176492485Y-63722156D01*
X176455344Y-63685015D01*
X176426151Y-63641325D01*
X176406051Y-63592797D01*
X176395800Y-63541266D01*
X176395800Y-63488734D01*
X176406051Y-63437203D01*
X176426151Y-63388675D01*
X176455344Y-63344985D01*
X176492485Y-63307844D01*
X176492489Y-63307841D01*
X176536170Y-63278654D01*
X176536171Y-63278653D01*
X176536175Y-63278651D01*
X176584703Y-63258551D01*
X176584706Y-63258550D01*
X176584707Y-63258550D01*
X176636232Y-63248300D01*
X176688768Y-63248300D01*
X176740293Y-63258550D01*
G37*
G36*
X177400293Y-62618550D02*
G01*
X177400294Y-62618550D01*
X177400297Y-62618551D01*
X177448825Y-62638651D01*
X177448829Y-62638653D01*
X177448830Y-62638654D01*
X177492511Y-62667841D01*
X177492515Y-62667844D01*
X177529656Y-62704985D01*
X177558849Y-62748675D01*
X177578949Y-62797203D01*
X177578950Y-62797206D01*
X177578950Y-62797207D01*
X177589200Y-62848732D01*
X177589200Y-62901268D01*
X177578950Y-62952793D01*
X177578949Y-62952797D01*
X177558849Y-63001325D01*
X177558847Y-63001329D01*
X177558846Y-63001330D01*
X177529659Y-63045011D01*
X177529656Y-63045015D01*
X177492515Y-63082156D01*
X177492512Y-63082158D01*
X177492511Y-63082159D01*
X177448830Y-63111346D01*
X177448829Y-63111347D01*
X177448825Y-63111349D01*
X177400297Y-63131449D01*
X177400294Y-63131450D01*
X177400293Y-63131450D01*
X177348768Y-63141700D01*
X177296232Y-63141700D01*
X177244707Y-63131450D01*
X177244706Y-63131450D01*
X177244703Y-63131449D01*
X177196175Y-63111349D01*
X177196171Y-63111347D01*
X177196170Y-63111346D01*
X177152489Y-63082159D01*
X177152488Y-63082158D01*
X177152485Y-63082156D01*
X177115344Y-63045015D01*
X177115341Y-63045011D01*
X177086154Y-63001330D01*
X177086153Y-63001329D01*
X177086151Y-63001325D01*
X177066051Y-62952797D01*
X177066050Y-62952793D01*
X177055800Y-62901268D01*
X177055800Y-62848732D01*
X177066050Y-62797207D01*
X177066050Y-62797206D01*
X177066051Y-62797203D01*
X177086151Y-62748675D01*
X177115344Y-62704985D01*
X177152485Y-62667844D01*
X177152489Y-62667841D01*
X177196170Y-62638654D01*
X177196171Y-62638653D01*
X177196175Y-62638651D01*
X177244703Y-62618551D01*
X177244706Y-62618550D01*
X177244707Y-62618550D01*
X177296232Y-62608300D01*
X177348768Y-62608300D01*
X177400293Y-62618550D01*
G37*
G36*
X159479881Y-61492186D02*
G01*
X159623303Y-61551593D01*
X159752388Y-61637846D01*
X159862154Y-61747612D01*
X159862156Y-61747615D01*
X159862157Y-61747616D01*
X159890642Y-61790246D01*
X159948407Y-61876697D01*
X160007814Y-62020119D01*
X160038100Y-62172379D01*
X160038100Y-62327621D01*
X160007814Y-62479881D01*
X159948407Y-62623303D01*
X159918647Y-62667841D01*
X159864639Y-62748670D01*
X159862154Y-62752388D01*
X159752388Y-62862154D01*
X159623303Y-62948407D01*
X159479881Y-63007814D01*
X159327621Y-63038100D01*
X159172379Y-63038100D01*
X159020119Y-63007814D01*
X158876697Y-62948407D01*
X158747612Y-62862154D01*
X158637846Y-62752388D01*
X158635362Y-62748670D01*
X158581353Y-62667841D01*
X158551593Y-62623303D01*
X158492186Y-62479881D01*
X158461900Y-62327621D01*
X158461900Y-62172379D01*
X158492186Y-62020119D01*
X158551593Y-61876697D01*
X158609358Y-61790246D01*
X158637843Y-61747616D01*
X158637844Y-61747615D01*
X158637846Y-61747612D01*
X158747612Y-61637846D01*
X158876697Y-61551593D01*
X159020119Y-61492186D01*
X159172379Y-61461900D01*
X159327621Y-61461900D01*
X159479881Y-61492186D01*
G37*
G36*
X303688100Y-62888100D02*
G01*
X299311900Y-62888100D01*
X299311900Y-62111900D01*
X303688100Y-62111900D01*
X303688100Y-62888100D01*
G37*
G36*
X178060293Y-61978550D02*
G01*
X178060294Y-61978550D01*
X178060297Y-61978551D01*
X178108825Y-61998651D01*
X178108829Y-61998653D01*
X178108830Y-61998654D01*
X178152511Y-62027841D01*
X178152515Y-62027844D01*
X178189656Y-62064985D01*
X178218849Y-62108675D01*
X178238949Y-62157203D01*
X178249200Y-62208734D01*
X178249200Y-62261266D01*
X178238949Y-62312797D01*
X178218849Y-62361325D01*
X178189656Y-62405015D01*
X178152515Y-62442156D01*
X178152512Y-62442158D01*
X178152511Y-62442159D01*
X178108830Y-62471346D01*
X178108829Y-62471347D01*
X178108825Y-62471349D01*
X178060297Y-62491449D01*
X178060294Y-62491450D01*
X178060293Y-62491450D01*
X178008768Y-62501700D01*
X177956232Y-62501700D01*
X177904707Y-62491450D01*
X177904706Y-62491450D01*
X177904703Y-62491449D01*
X177856175Y-62471349D01*
X177856171Y-62471347D01*
X177856170Y-62471346D01*
X177812489Y-62442159D01*
X177812488Y-62442158D01*
X177812485Y-62442156D01*
X177775344Y-62405015D01*
X177746151Y-62361325D01*
X177726051Y-62312797D01*
X177715800Y-62261266D01*
X177715800Y-62208734D01*
X177726051Y-62157203D01*
X177746151Y-62108675D01*
X177775344Y-62064985D01*
X177812485Y-62027844D01*
X177812489Y-62027841D01*
X177856170Y-61998654D01*
X177856171Y-61998653D01*
X177856175Y-61998651D01*
X177904703Y-61978551D01*
X177904706Y-61978550D01*
X177904707Y-61978550D01*
X177956232Y-61968300D01*
X178008768Y-61968300D01*
X178060293Y-61978550D01*
G37*
G36*
X176740293Y-61978550D02*
G01*
X176740294Y-61978550D01*
X176740297Y-61978551D01*
X176788825Y-61998651D01*
X176788829Y-61998653D01*
X176788830Y-61998654D01*
X176832511Y-62027841D01*
X176832515Y-62027844D01*
X176869656Y-62064985D01*
X176898849Y-62108675D01*
X176918949Y-62157203D01*
X176929200Y-62208734D01*
X176929200Y-62261266D01*
X176918949Y-62312797D01*
X176898849Y-62361325D01*
X176869656Y-62405015D01*
X176832515Y-62442156D01*
X176832512Y-62442158D01*
X176832511Y-62442159D01*
X176788830Y-62471346D01*
X176788829Y-62471347D01*
X176788825Y-62471349D01*
X176740297Y-62491449D01*
X176740294Y-62491450D01*
X176740293Y-62491450D01*
X176688768Y-62501700D01*
X176636232Y-62501700D01*
X176584707Y-62491450D01*
X176584706Y-62491450D01*
X176584703Y-62491449D01*
X176536175Y-62471349D01*
X176536171Y-62471347D01*
X176536170Y-62471346D01*
X176492489Y-62442159D01*
X176492488Y-62442158D01*
X176492485Y-62442156D01*
X176455344Y-62405015D01*
X176426151Y-62361325D01*
X176406051Y-62312797D01*
X176395800Y-62261266D01*
X176395800Y-62208734D01*
X176406051Y-62157203D01*
X176426151Y-62108675D01*
X176455344Y-62064985D01*
X176492485Y-62027844D01*
X176492489Y-62027841D01*
X176536170Y-61998654D01*
X176536171Y-61998653D01*
X176536175Y-61998651D01*
X176584703Y-61978551D01*
X176584706Y-61978550D01*
X176584707Y-61978550D01*
X176636232Y-61968300D01*
X176688768Y-61968300D01*
X176740293Y-61978550D01*
G37*
G36*
X303688100Y-61888100D02*
G01*
X299311900Y-61888100D01*
X299311900Y-61111900D01*
X303688100Y-61111900D01*
X303688100Y-61888100D01*
G37*
G36*
X177400293Y-61338550D02*
G01*
X177400294Y-61338550D01*
X177400297Y-61338551D01*
X177448825Y-61358651D01*
X177448829Y-61358653D01*
X177448830Y-61358654D01*
X177492511Y-61387841D01*
X177492515Y-61387844D01*
X177529656Y-61424985D01*
X177558849Y-61468675D01*
X177578949Y-61517203D01*
X177578950Y-61517206D01*
X177578950Y-61517207D01*
X177589200Y-61568732D01*
X177589200Y-61621268D01*
X177585902Y-61637846D01*
X177578949Y-61672797D01*
X177558849Y-61721325D01*
X177558847Y-61721329D01*
X177558846Y-61721330D01*
X177541282Y-61747616D01*
X177529656Y-61765015D01*
X177492515Y-61802156D01*
X177492512Y-61802158D01*
X177492511Y-61802159D01*
X177448830Y-61831346D01*
X177448829Y-61831347D01*
X177448825Y-61831349D01*
X177400297Y-61851449D01*
X177400294Y-61851450D01*
X177400293Y-61851450D01*
X177348768Y-61861700D01*
X177296232Y-61861700D01*
X177244707Y-61851450D01*
X177244706Y-61851450D01*
X177244703Y-61851449D01*
X177196175Y-61831349D01*
X177196171Y-61831347D01*
X177196170Y-61831346D01*
X177152489Y-61802159D01*
X177152488Y-61802158D01*
X177152485Y-61802156D01*
X177115344Y-61765015D01*
X177103718Y-61747616D01*
X177086154Y-61721330D01*
X177086153Y-61721329D01*
X177086151Y-61721325D01*
X177066051Y-61672797D01*
X177059098Y-61637846D01*
X177055800Y-61621268D01*
X177055800Y-61568732D01*
X177066050Y-61517207D01*
X177066050Y-61517206D01*
X177066051Y-61517203D01*
X177086151Y-61468675D01*
X177115344Y-61424985D01*
X177152485Y-61387844D01*
X177152489Y-61387841D01*
X177196170Y-61358654D01*
X177196171Y-61358653D01*
X177196175Y-61358651D01*
X177244703Y-61338551D01*
X177244706Y-61338550D01*
X177244707Y-61338550D01*
X177296232Y-61328300D01*
X177348768Y-61328300D01*
X177400293Y-61338550D01*
G37*
G36*
X178060293Y-60698550D02*
G01*
X178060294Y-60698550D01*
X178060297Y-60698551D01*
X178108825Y-60718651D01*
X178108829Y-60718653D01*
X178108830Y-60718654D01*
X178152511Y-60747841D01*
X178152515Y-60747844D01*
X178189656Y-60784985D01*
X178218849Y-60828675D01*
X178238949Y-60877203D01*
X178249200Y-60928734D01*
X178249200Y-60981266D01*
X178238949Y-61032797D01*
X178218849Y-61081325D01*
X178218847Y-61081329D01*
X178218846Y-61081330D01*
X178189659Y-61125011D01*
X178189656Y-61125015D01*
X178152515Y-61162156D01*
X178152512Y-61162158D01*
X178152511Y-61162159D01*
X178108830Y-61191346D01*
X178108829Y-61191347D01*
X178108825Y-61191349D01*
X178060297Y-61211449D01*
X178060294Y-61211450D01*
X178060293Y-61211450D01*
X178008768Y-61221700D01*
X177956232Y-61221700D01*
X177904707Y-61211450D01*
X177904706Y-61211450D01*
X177904703Y-61211449D01*
X177856175Y-61191349D01*
X177856171Y-61191347D01*
X177856170Y-61191346D01*
X177812489Y-61162159D01*
X177812488Y-61162158D01*
X177812485Y-61162156D01*
X177775344Y-61125015D01*
X177775341Y-61125011D01*
X177746154Y-61081330D01*
X177746153Y-61081329D01*
X177746151Y-61081325D01*
X177726051Y-61032797D01*
X177715800Y-60981266D01*
X177715800Y-60928734D01*
X177726051Y-60877203D01*
X177746151Y-60828675D01*
X177775344Y-60784985D01*
X177812485Y-60747844D01*
X177812489Y-60747841D01*
X177856170Y-60718654D01*
X177856171Y-60718653D01*
X177856175Y-60718651D01*
X177904703Y-60698551D01*
X177904706Y-60698550D01*
X177904707Y-60698550D01*
X177956232Y-60688300D01*
X178008768Y-60688300D01*
X178060293Y-60698550D01*
G37*
G36*
X176740293Y-60698550D02*
G01*
X176740294Y-60698550D01*
X176740297Y-60698551D01*
X176788825Y-60718651D01*
X176788829Y-60718653D01*
X176788830Y-60718654D01*
X176832511Y-60747841D01*
X176832515Y-60747844D01*
X176869656Y-60784985D01*
X176898849Y-60828675D01*
X176918949Y-60877203D01*
X176929200Y-60928734D01*
X176929200Y-60981266D01*
X176918949Y-61032797D01*
X176898849Y-61081325D01*
X176898847Y-61081329D01*
X176898846Y-61081330D01*
X176869659Y-61125011D01*
X176869656Y-61125015D01*
X176832515Y-61162156D01*
X176832512Y-61162158D01*
X176832511Y-61162159D01*
X176788830Y-61191346D01*
X176788829Y-61191347D01*
X176788825Y-61191349D01*
X176740297Y-61211449D01*
X176740294Y-61211450D01*
X176740293Y-61211450D01*
X176688768Y-61221700D01*
X176636232Y-61221700D01*
X176584707Y-61211450D01*
X176584706Y-61211450D01*
X176584703Y-61211449D01*
X176536175Y-61191349D01*
X176536171Y-61191347D01*
X176536170Y-61191346D01*
X176492489Y-61162159D01*
X176492488Y-61162158D01*
X176492485Y-61162156D01*
X176455344Y-61125015D01*
X176455341Y-61125011D01*
X176426154Y-61081330D01*
X176426153Y-61081329D01*
X176426151Y-61081325D01*
X176406051Y-61032797D01*
X176395800Y-60981266D01*
X176395800Y-60928734D01*
X176406051Y-60877203D01*
X176426151Y-60828675D01*
X176455344Y-60784985D01*
X176492485Y-60747844D01*
X176492489Y-60747841D01*
X176536170Y-60718654D01*
X176536171Y-60718653D01*
X176536175Y-60718651D01*
X176584703Y-60698551D01*
X176584706Y-60698550D01*
X176584707Y-60698550D01*
X176636232Y-60688300D01*
X176688768Y-60688300D01*
X176740293Y-60698550D01*
G37*
G36*
X40229881Y-59492186D02*
G01*
X40373303Y-59551593D01*
X40502388Y-59637846D01*
X40612154Y-59747612D01*
X40698407Y-59876697D01*
X40757814Y-60020119D01*
X40788100Y-60172379D01*
X40788100Y-60327621D01*
X40757814Y-60479881D01*
X40698407Y-60623303D01*
X40654977Y-60688300D01*
X40615191Y-60747844D01*
X40612154Y-60752388D01*
X40502388Y-60862154D01*
X40373303Y-60948407D01*
X40229881Y-61007814D01*
X40077621Y-61038100D01*
X39922379Y-61038100D01*
X39770119Y-61007814D01*
X39626697Y-60948407D01*
X39497612Y-60862154D01*
X39387846Y-60752388D01*
X39384810Y-60747844D01*
X39345023Y-60688300D01*
X39301593Y-60623303D01*
X39242186Y-60479881D01*
X39211900Y-60327621D01*
X39211900Y-60172379D01*
X39242186Y-60020119D01*
X39301593Y-59876697D01*
X39387846Y-59747612D01*
X39497612Y-59637846D01*
X39626697Y-59551593D01*
X39770119Y-59492186D01*
X39922379Y-59461900D01*
X40077621Y-59461900D01*
X40229881Y-59492186D01*
G37*
G36*
X303688100Y-60888100D02*
G01*
X299311900Y-60888100D01*
X299311900Y-60111900D01*
X303688100Y-60111900D01*
X303688100Y-60888100D01*
G37*
G36*
X177400293Y-60058550D02*
G01*
X177400294Y-60058550D01*
X177400297Y-60058551D01*
X177448825Y-60078651D01*
X177448829Y-60078653D01*
X177448830Y-60078654D01*
X177492511Y-60107841D01*
X177492515Y-60107844D01*
X177529656Y-60144985D01*
X177529658Y-60144988D01*
X177529659Y-60144989D01*
X177547961Y-60172379D01*
X177558849Y-60188675D01*
X177578949Y-60237203D01*
X177589200Y-60288734D01*
X177589200Y-60341266D01*
X177578949Y-60392797D01*
X177558849Y-60441325D01*
X177558847Y-60441329D01*
X177558846Y-60441330D01*
X177529659Y-60485011D01*
X177529656Y-60485015D01*
X177492515Y-60522156D01*
X177492512Y-60522158D01*
X177492511Y-60522159D01*
X177448830Y-60551346D01*
X177448829Y-60551347D01*
X177448825Y-60551349D01*
X177400297Y-60571449D01*
X177400294Y-60571450D01*
X177400293Y-60571450D01*
X177348768Y-60581700D01*
X177296232Y-60581700D01*
X177244707Y-60571450D01*
X177244706Y-60571450D01*
X177244703Y-60571449D01*
X177196175Y-60551349D01*
X177196171Y-60551347D01*
X177196170Y-60551346D01*
X177152489Y-60522159D01*
X177152488Y-60522158D01*
X177152485Y-60522156D01*
X177115344Y-60485015D01*
X177115341Y-60485011D01*
X177086154Y-60441330D01*
X177086153Y-60441329D01*
X177086151Y-60441325D01*
X177066051Y-60392797D01*
X177055800Y-60341266D01*
X177055800Y-60288734D01*
X177066051Y-60237203D01*
X177086151Y-60188675D01*
X177097040Y-60172379D01*
X177115341Y-60144989D01*
X177115342Y-60144988D01*
X177115344Y-60144985D01*
X177152485Y-60107844D01*
X177152489Y-60107841D01*
X177196170Y-60078654D01*
X177196171Y-60078653D01*
X177196175Y-60078651D01*
X177244703Y-60058551D01*
X177244706Y-60058550D01*
X177244707Y-60058550D01*
X177296232Y-60048300D01*
X177348768Y-60048300D01*
X177400293Y-60058550D01*
G37*
G36*
X190979881Y-58992186D02*
G01*
X191123303Y-59051593D01*
X191252388Y-59137846D01*
X191362154Y-59247612D01*
X191448407Y-59376697D01*
X191507814Y-59520119D01*
X191538100Y-59672379D01*
X191538100Y-59827621D01*
X191507814Y-59979881D01*
X191448407Y-60123303D01*
X191404726Y-60188675D01*
X191372301Y-60237203D01*
X191362154Y-60252388D01*
X191252388Y-60362154D01*
X191123303Y-60448407D01*
X190979881Y-60507814D01*
X190827621Y-60538100D01*
X190672379Y-60538100D01*
X190520119Y-60507814D01*
X190376697Y-60448407D01*
X190247612Y-60362154D01*
X190137846Y-60252388D01*
X190127700Y-60237203D01*
X190095274Y-60188675D01*
X190051593Y-60123303D01*
X189992186Y-59979881D01*
X189961900Y-59827621D01*
X189961900Y-59672379D01*
X189992186Y-59520119D01*
X190051593Y-59376697D01*
X190137846Y-59247612D01*
X190247612Y-59137846D01*
X190376697Y-59051593D01*
X190520119Y-58992186D01*
X190672379Y-58961900D01*
X190827621Y-58961900D01*
X190979881Y-58992186D01*
G37*
G36*
X178060293Y-59418550D02*
G01*
X178060294Y-59418550D01*
X178060297Y-59418551D01*
X178108825Y-59438651D01*
X178108829Y-59438653D01*
X178108830Y-59438654D01*
X178152511Y-59467841D01*
X178152515Y-59467844D01*
X178189656Y-59504985D01*
X178189658Y-59504988D01*
X178189659Y-59504989D01*
X178199769Y-59520119D01*
X178218849Y-59548675D01*
X178238949Y-59597203D01*
X178238950Y-59597206D01*
X178238950Y-59597207D01*
X178249200Y-59648732D01*
X178249200Y-59701268D01*
X178239980Y-59747616D01*
X178238949Y-59752797D01*
X178218849Y-59801325D01*
X178218847Y-59801329D01*
X178218846Y-59801330D01*
X178189659Y-59845011D01*
X178189656Y-59845015D01*
X178152515Y-59882156D01*
X178152512Y-59882158D01*
X178152511Y-59882159D01*
X178108830Y-59911346D01*
X178108829Y-59911347D01*
X178108825Y-59911349D01*
X178060297Y-59931449D01*
X178060294Y-59931450D01*
X178060293Y-59931450D01*
X178008768Y-59941700D01*
X177956232Y-59941700D01*
X177904707Y-59931450D01*
X177904706Y-59931450D01*
X177904703Y-59931449D01*
X177856175Y-59911349D01*
X177856171Y-59911347D01*
X177856170Y-59911346D01*
X177812489Y-59882159D01*
X177812488Y-59882158D01*
X177812485Y-59882156D01*
X177775344Y-59845015D01*
X177775341Y-59845011D01*
X177746154Y-59801330D01*
X177746153Y-59801329D01*
X177746151Y-59801325D01*
X177726051Y-59752797D01*
X177725020Y-59747616D01*
X177715800Y-59701268D01*
X177715800Y-59648732D01*
X177726050Y-59597207D01*
X177726050Y-59597206D01*
X177726051Y-59597203D01*
X177746151Y-59548675D01*
X177765232Y-59520119D01*
X177775341Y-59504989D01*
X177775342Y-59504988D01*
X177775344Y-59504985D01*
X177812485Y-59467844D01*
X177812489Y-59467841D01*
X177856170Y-59438654D01*
X177856171Y-59438653D01*
X177856175Y-59438651D01*
X177904703Y-59418551D01*
X177904706Y-59418550D01*
X177904707Y-59418550D01*
X177956232Y-59408300D01*
X178008768Y-59408300D01*
X178060293Y-59418550D01*
G37*
G36*
X176740293Y-59418550D02*
G01*
X176740294Y-59418550D01*
X176740297Y-59418551D01*
X176788825Y-59438651D01*
X176788829Y-59438653D01*
X176788830Y-59438654D01*
X176832511Y-59467841D01*
X176832515Y-59467844D01*
X176869656Y-59504985D01*
X176869658Y-59504988D01*
X176869659Y-59504989D01*
X176879769Y-59520119D01*
X176898849Y-59548675D01*
X176918949Y-59597203D01*
X176918950Y-59597206D01*
X176918950Y-59597207D01*
X176929200Y-59648732D01*
X176929200Y-59701268D01*
X176919980Y-59747616D01*
X176918949Y-59752797D01*
X176898849Y-59801325D01*
X176898847Y-59801329D01*
X176898846Y-59801330D01*
X176869659Y-59845011D01*
X176869656Y-59845015D01*
X176832515Y-59882156D01*
X176832512Y-59882158D01*
X176832511Y-59882159D01*
X176788830Y-59911346D01*
X176788829Y-59911347D01*
X176788825Y-59911349D01*
X176740297Y-59931449D01*
X176740294Y-59931450D01*
X176740293Y-59931450D01*
X176688768Y-59941700D01*
X176636232Y-59941700D01*
X176584707Y-59931450D01*
X176584706Y-59931450D01*
X176584703Y-59931449D01*
X176536175Y-59911349D01*
X176536171Y-59911347D01*
X176536170Y-59911346D01*
X176492489Y-59882159D01*
X176492488Y-59882158D01*
X176492485Y-59882156D01*
X176455344Y-59845015D01*
X176455341Y-59845011D01*
X176426154Y-59801330D01*
X176426153Y-59801329D01*
X176426151Y-59801325D01*
X176406051Y-59752797D01*
X176405020Y-59747616D01*
X176395800Y-59701268D01*
X176395800Y-59648732D01*
X176406050Y-59597207D01*
X176406050Y-59597206D01*
X176406051Y-59597203D01*
X176426151Y-59548675D01*
X176445232Y-59520119D01*
X176455341Y-59504989D01*
X176455342Y-59504988D01*
X176455344Y-59504985D01*
X176492485Y-59467844D01*
X176492489Y-59467841D01*
X176536170Y-59438654D01*
X176536171Y-59438653D01*
X176536175Y-59438651D01*
X176584703Y-59418551D01*
X176584706Y-59418550D01*
X176584707Y-59418550D01*
X176636232Y-59408300D01*
X176688768Y-59408300D01*
X176740293Y-59418550D01*
G37*
G36*
X303688100Y-59888100D02*
G01*
X299311900Y-59888100D01*
X299311900Y-59111900D01*
X303688100Y-59111900D01*
X303688100Y-59888100D01*
G37*
G36*
X206729881Y-57742186D02*
G01*
X206873303Y-57801593D01*
X207002388Y-57887846D01*
X207112154Y-57997612D01*
X207198407Y-58126697D01*
X207257814Y-58270119D01*
X207288100Y-58422379D01*
X207288100Y-58577621D01*
X207257814Y-58729881D01*
X207198407Y-58873303D01*
X207112154Y-59002388D01*
X207002388Y-59112154D01*
X206873303Y-59198407D01*
X206729881Y-59257814D01*
X206577621Y-59288100D01*
X206422379Y-59288100D01*
X206270119Y-59257814D01*
X206126697Y-59198407D01*
X205997612Y-59112154D01*
X205887846Y-59002388D01*
X205801593Y-58873303D01*
X205742186Y-58729881D01*
X205711900Y-58577621D01*
X205711900Y-58422379D01*
X205742186Y-58270119D01*
X205801593Y-58126697D01*
X205887846Y-57997612D01*
X205997612Y-57887846D01*
X206126697Y-57801593D01*
X206270119Y-57742186D01*
X206422379Y-57711900D01*
X206577621Y-57711900D01*
X206729881Y-57742186D01*
G37*
G36*
X157358389Y-57124545D02*
G01*
X157421962Y-57137191D01*
X157541728Y-57186799D01*
X157649516Y-57258821D01*
X157741179Y-57350484D01*
X157813201Y-57458272D01*
X157862809Y-57578038D01*
X157888100Y-57705184D01*
X157888100Y-57834816D01*
X157862809Y-57961962D01*
X157813201Y-58081728D01*
X157741179Y-58189516D01*
X157649516Y-58281179D01*
X157541728Y-58353201D01*
X157421962Y-58402809D01*
X157358389Y-58415455D01*
X157294817Y-58428100D01*
X157165183Y-58428100D01*
X157101611Y-58415455D01*
X157038038Y-58402809D01*
X156918272Y-58353201D01*
X156810484Y-58281179D01*
X156718821Y-58189516D01*
X156646799Y-58081728D01*
X156597191Y-57961962D01*
X156571900Y-57834816D01*
X156571900Y-57705184D01*
X156597191Y-57578038D01*
X156646799Y-57458272D01*
X156718821Y-57350484D01*
X156810484Y-57258821D01*
X156918272Y-57186799D01*
X157038038Y-57137191D01*
X157101611Y-57124545D01*
X157165183Y-57111900D01*
X157294817Y-57111900D01*
X157358389Y-57124545D01*
G37*
G36*
X159898389Y-57124545D02*
G01*
X159961962Y-57137191D01*
X160081728Y-57186799D01*
X160189516Y-57258821D01*
X160281179Y-57350484D01*
X160353201Y-57458272D01*
X160402809Y-57578038D01*
X160428100Y-57705184D01*
X160428100Y-57834816D01*
X160402809Y-57961962D01*
X160353201Y-58081728D01*
X160281179Y-58189516D01*
X160189516Y-58281179D01*
X160081728Y-58353201D01*
X159961962Y-58402809D01*
X159898389Y-58415455D01*
X159834817Y-58428100D01*
X159705183Y-58428100D01*
X159641611Y-58415455D01*
X159578038Y-58402809D01*
X159458272Y-58353201D01*
X159350484Y-58281179D01*
X159258821Y-58189516D01*
X159186799Y-58081728D01*
X159137191Y-57961962D01*
X159111900Y-57834816D01*
X159111900Y-57705184D01*
X159137191Y-57578038D01*
X159186799Y-57458272D01*
X159258821Y-57350484D01*
X159350484Y-57258821D01*
X159458272Y-57186799D01*
X159578038Y-57137191D01*
X159641611Y-57124545D01*
X159705183Y-57111900D01*
X159834817Y-57111900D01*
X159898389Y-57124545D01*
G37*
G36*
X86629881Y-56042186D02*
G01*
X86773303Y-56101593D01*
X86902388Y-56187846D01*
X87012154Y-56297612D01*
X87012156Y-56297615D01*
X87012157Y-56297616D01*
X87019121Y-56308038D01*
X87098407Y-56426697D01*
X87157814Y-56570119D01*
X87188100Y-56722379D01*
X87188100Y-56877621D01*
X87157814Y-57029881D01*
X87098407Y-57173303D01*
X87012154Y-57302388D01*
X86902388Y-57412154D01*
X86773303Y-57498407D01*
X86629881Y-57557814D01*
X86477621Y-57588100D01*
X86322379Y-57588100D01*
X86170119Y-57557814D01*
X86026697Y-57498407D01*
X85897612Y-57412154D01*
X85787846Y-57302388D01*
X85701593Y-57173303D01*
X85642186Y-57029881D01*
X85611900Y-56877621D01*
X85611900Y-56722379D01*
X85642186Y-56570119D01*
X85701593Y-56426697D01*
X85780879Y-56308038D01*
X85787843Y-56297616D01*
X85787844Y-56297615D01*
X85787846Y-56297612D01*
X85897612Y-56187846D01*
X86026697Y-56101593D01*
X86170119Y-56042186D01*
X86322379Y-56011900D01*
X86477621Y-56011900D01*
X86629881Y-56042186D01*
G37*
G36*
X158628389Y-55854545D02*
G01*
X158691962Y-55867191D01*
X158811728Y-55916799D01*
X158919516Y-55988821D01*
X159011179Y-56080484D01*
X159083201Y-56188272D01*
X159132809Y-56308038D01*
X159132809Y-56308039D01*
X159156412Y-56426695D01*
X159158100Y-56435184D01*
X159158100Y-56564816D01*
X159132809Y-56691962D01*
X159083201Y-56811728D01*
X159011179Y-56919516D01*
X158919516Y-57011179D01*
X158811728Y-57083201D01*
X158691962Y-57132809D01*
X158669932Y-57137191D01*
X158564817Y-57158100D01*
X158435183Y-57158100D01*
X158330068Y-57137191D01*
X158308038Y-57132809D01*
X158188272Y-57083201D01*
X158080484Y-57011179D01*
X157988821Y-56919516D01*
X157916799Y-56811728D01*
X157867191Y-56691962D01*
X157841900Y-56564816D01*
X157841900Y-56435184D01*
X157843589Y-56426695D01*
X157867191Y-56308039D01*
X157867191Y-56308038D01*
X157916799Y-56188272D01*
X157988821Y-56080484D01*
X158080484Y-55988821D01*
X158188272Y-55916799D01*
X158308038Y-55867191D01*
X158371611Y-55854545D01*
X158435183Y-55841900D01*
X158564817Y-55841900D01*
X158628389Y-55854545D01*
G37*
G36*
X129729881Y-55042186D02*
G01*
X129873303Y-55101593D01*
X130002388Y-55187846D01*
X130112154Y-55297612D01*
X130198407Y-55426697D01*
X130257814Y-55570119D01*
X130288100Y-55722379D01*
X130288100Y-55877621D01*
X130257814Y-56029881D01*
X130198407Y-56173303D01*
X130188404Y-56188273D01*
X130115346Y-56297612D01*
X130112154Y-56302388D01*
X130002388Y-56412154D01*
X129873303Y-56498407D01*
X129729881Y-56557814D01*
X129577621Y-56588100D01*
X129422379Y-56588100D01*
X129270119Y-56557814D01*
X129126697Y-56498407D01*
X128997612Y-56412154D01*
X128887846Y-56302388D01*
X128884655Y-56297612D01*
X128811596Y-56188273D01*
X128801593Y-56173303D01*
X128742186Y-56029881D01*
X128711900Y-55877621D01*
X128711900Y-55722379D01*
X128742186Y-55570119D01*
X128801593Y-55426697D01*
X128887846Y-55297612D01*
X128997612Y-55187846D01*
X129126697Y-55101593D01*
X129270119Y-55042186D01*
X129422379Y-55011900D01*
X129577621Y-55011900D01*
X129729881Y-55042186D01*
G37*
G36*
X179679881Y-54642186D02*
G01*
X179823303Y-54701593D01*
X179952388Y-54787846D01*
X180062154Y-54897612D01*
X180062156Y-54897615D01*
X180062157Y-54897616D01*
X180090642Y-54940246D01*
X180148407Y-55026697D01*
X180207814Y-55170119D01*
X180238100Y-55322379D01*
X180238100Y-55477621D01*
X180207814Y-55629881D01*
X180148407Y-55773303D01*
X180062154Y-55902388D01*
X179952388Y-56012154D01*
X179823303Y-56098407D01*
X179679881Y-56157814D01*
X179527621Y-56188100D01*
X179372379Y-56188100D01*
X179220119Y-56157814D01*
X179076697Y-56098407D01*
X178947612Y-56012154D01*
X178837846Y-55902388D01*
X178751593Y-55773303D01*
X178692186Y-55629881D01*
X178661900Y-55477621D01*
X178661900Y-55322379D01*
X178692186Y-55170119D01*
X178751593Y-55026697D01*
X178809358Y-54940246D01*
X178837843Y-54897616D01*
X178837844Y-54897615D01*
X178837846Y-54897612D01*
X178947612Y-54787846D01*
X179076697Y-54701593D01*
X179220119Y-54642186D01*
X179372379Y-54611900D01*
X179527621Y-54611900D01*
X179679881Y-54642186D01*
G37*
G36*
X157358389Y-54584545D02*
G01*
X157421962Y-54597191D01*
X157541728Y-54646799D01*
X157649516Y-54718821D01*
X157741179Y-54810484D01*
X157813201Y-54918272D01*
X157862809Y-55038038D01*
X157888100Y-55165184D01*
X157888100Y-55294816D01*
X157862809Y-55421962D01*
X157813201Y-55541728D01*
X157741179Y-55649516D01*
X157649516Y-55741179D01*
X157541728Y-55813201D01*
X157421962Y-55862809D01*
X157399932Y-55867191D01*
X157294817Y-55888100D01*
X157165183Y-55888100D01*
X157060068Y-55867191D01*
X157038038Y-55862809D01*
X156918272Y-55813201D01*
X156810484Y-55741179D01*
X156718821Y-55649516D01*
X156646799Y-55541728D01*
X156597191Y-55421962D01*
X156571900Y-55294816D01*
X156571900Y-55165184D01*
X156597191Y-55038038D01*
X156646799Y-54918272D01*
X156718821Y-54810484D01*
X156810484Y-54718821D01*
X156918272Y-54646799D01*
X157038038Y-54597191D01*
X157101611Y-54584545D01*
X157165183Y-54571900D01*
X157294817Y-54571900D01*
X157358389Y-54584545D01*
G37*
G36*
X159898389Y-54584545D02*
G01*
X159961962Y-54597191D01*
X160081728Y-54646799D01*
X160189516Y-54718821D01*
X160281179Y-54810484D01*
X160353201Y-54918272D01*
X160402809Y-55038038D01*
X160428100Y-55165184D01*
X160428100Y-55294816D01*
X160402809Y-55421962D01*
X160353201Y-55541728D01*
X160281179Y-55649516D01*
X160189516Y-55741179D01*
X160081728Y-55813201D01*
X159961962Y-55862809D01*
X159939932Y-55867191D01*
X159834817Y-55888100D01*
X159705183Y-55888100D01*
X159600068Y-55867191D01*
X159578038Y-55862809D01*
X159458272Y-55813201D01*
X159350484Y-55741179D01*
X159258821Y-55649516D01*
X159186799Y-55541728D01*
X159137191Y-55421962D01*
X159111900Y-55294816D01*
X159111900Y-55165184D01*
X159137191Y-55038038D01*
X159186799Y-54918272D01*
X159258821Y-54810484D01*
X159350484Y-54718821D01*
X159458272Y-54646799D01*
X159578038Y-54597191D01*
X159641611Y-54584545D01*
X159705183Y-54571900D01*
X159834817Y-54571900D01*
X159898389Y-54584545D01*
G37*
M02*
