G04 #@! TF.GenerationSoftware,KiCad,Pcbnew,(5.1.5)-3*
G04 #@! TF.CreationDate,2020-07-24T16:39:48-04:00*
G04 #@! TF.ProjectId,main_board,6d61696e-5f62-46f6-9172-642e6b696361,rev?*
G04 #@! TF.SameCoordinates,Original*
G04 #@! TF.FileFunction,Other,Fab,Bot*
%FSLAX46Y46*%
G04 Gerber Fmt 4.6, Leading zero omitted, Abs format (unit mm)*
G04 Created by KiCad (PCBNEW (5.1.5)-3) date 2020-07-24 16:39:48*
%MOMM*%
%LPD*%
G04 APERTURE LIST*
%ADD10C,0.150000*%
%ADD11C,0.100000*%
G04 APERTURE END LIST*
D10*
X125271428Y-64904761D02*
X125652380Y-64904761D01*
X125842857Y-65000000D01*
X126033333Y-65190476D01*
X126128571Y-65571428D01*
X126128571Y-66238095D01*
X126033333Y-66619047D01*
X125842857Y-66809523D01*
X125652380Y-66904761D01*
X125271428Y-66904761D01*
X125080952Y-66809523D01*
X124890476Y-66619047D01*
X124795238Y-66238095D01*
X124795238Y-65571428D01*
X124890476Y-65190476D01*
X125080952Y-65000000D01*
X125271428Y-64904761D01*
X127842857Y-65571428D02*
X127842857Y-66904761D01*
X126985714Y-65571428D02*
X126985714Y-66619047D01*
X127080952Y-66809523D01*
X127271428Y-66904761D01*
X127557142Y-66904761D01*
X127747619Y-66809523D01*
X127842857Y-66714285D01*
X128509523Y-65571428D02*
X129271428Y-65571428D01*
X128795238Y-64904761D02*
X128795238Y-66619047D01*
X128890476Y-66809523D01*
X129080952Y-66904761D01*
X129271428Y-66904761D01*
X129938095Y-65571428D02*
X129938095Y-67571428D01*
X129938095Y-65666666D02*
X130128571Y-65571428D01*
X130509523Y-65571428D01*
X130699999Y-65666666D01*
X130795238Y-65761904D01*
X130890476Y-65952380D01*
X130890476Y-66523809D01*
X130795238Y-66714285D01*
X130699999Y-66809523D01*
X130509523Y-66904761D01*
X130128571Y-66904761D01*
X129938095Y-66809523D01*
X132604761Y-65571428D02*
X132604761Y-66904761D01*
X131747619Y-65571428D02*
X131747619Y-66619047D01*
X131842857Y-66809523D01*
X132033333Y-66904761D01*
X132319047Y-66904761D01*
X132509523Y-66809523D01*
X132604761Y-66714285D01*
X133271428Y-65571428D02*
X134033333Y-65571428D01*
X133557142Y-64904761D02*
X133557142Y-66619047D01*
X133652380Y-66809523D01*
X133842857Y-66904761D01*
X134033333Y-66904761D01*
X136223809Y-66904761D02*
X136223809Y-65571428D01*
X136223809Y-65952380D02*
X136319047Y-65761904D01*
X136414285Y-65666666D01*
X136604761Y-65571428D01*
X136795238Y-65571428D01*
X137747619Y-66904761D02*
X137557142Y-66809523D01*
X137461904Y-66714285D01*
X137366666Y-66523809D01*
X137366666Y-65952380D01*
X137461904Y-65761904D01*
X137557142Y-65666666D01*
X137747619Y-65571428D01*
X138033333Y-65571428D01*
X138223809Y-65666666D01*
X138319047Y-65761904D01*
X138414285Y-65952380D01*
X138414285Y-66523809D01*
X138319047Y-66714285D01*
X138223809Y-66809523D01*
X138033333Y-66904761D01*
X137747619Y-66904761D01*
X140128571Y-65571428D02*
X140128571Y-66904761D01*
X139271428Y-65571428D02*
X139271428Y-66619047D01*
X139366666Y-66809523D01*
X139557142Y-66904761D01*
X139842857Y-66904761D01*
X140033333Y-66809523D01*
X140128571Y-66714285D01*
X140795238Y-65571428D02*
X141557142Y-65571428D01*
X141080952Y-64904761D02*
X141080952Y-66619047D01*
X141176190Y-66809523D01*
X141366666Y-66904761D01*
X141557142Y-66904761D01*
X142223809Y-66904761D02*
X142223809Y-65571428D01*
X142223809Y-64904761D02*
X142128571Y-65000000D01*
X142223809Y-65095238D01*
X142319047Y-65000000D01*
X142223809Y-64904761D01*
X142223809Y-65095238D01*
X143176190Y-65571428D02*
X143176190Y-66904761D01*
X143176190Y-65761904D02*
X143271428Y-65666666D01*
X143461904Y-65571428D01*
X143747619Y-65571428D01*
X143938095Y-65666666D01*
X144033333Y-65857142D01*
X144033333Y-66904761D01*
X145842857Y-65571428D02*
X145842857Y-67190476D01*
X145747619Y-67380952D01*
X145652380Y-67476190D01*
X145461904Y-67571428D01*
X145176190Y-67571428D01*
X144985714Y-67476190D01*
X145842857Y-66809523D02*
X145652380Y-66904761D01*
X145271428Y-66904761D01*
X145080952Y-66809523D01*
X144985714Y-66714285D01*
X144890476Y-66523809D01*
X144890476Y-65952380D01*
X144985714Y-65761904D01*
X145080952Y-65666666D01*
X145271428Y-65571428D01*
X145652380Y-65571428D01*
X145842857Y-65666666D01*
X149176190Y-66904761D02*
X149176190Y-65857142D01*
X149080952Y-65666666D01*
X148890476Y-65571428D01*
X148509523Y-65571428D01*
X148319047Y-65666666D01*
X149176190Y-66809523D02*
X148985714Y-66904761D01*
X148509523Y-66904761D01*
X148319047Y-66809523D01*
X148223809Y-66619047D01*
X148223809Y-66428571D01*
X148319047Y-66238095D01*
X148509523Y-66142857D01*
X148985714Y-66142857D01*
X149176190Y-66047619D01*
X150128571Y-66904761D02*
X150128571Y-65571428D01*
X150128571Y-65952380D02*
X150223809Y-65761904D01*
X150319047Y-65666666D01*
X150509523Y-65571428D01*
X150700000Y-65571428D01*
X152128571Y-66809523D02*
X151938095Y-66904761D01*
X151557142Y-66904761D01*
X151366666Y-66809523D01*
X151271428Y-66619047D01*
X151271428Y-65857142D01*
X151366666Y-65666666D01*
X151557142Y-65571428D01*
X151938095Y-65571428D01*
X152128571Y-65666666D01*
X152223809Y-65857142D01*
X152223809Y-66047619D01*
X151271428Y-66238095D01*
X153938095Y-66904761D02*
X153938095Y-65857142D01*
X153842857Y-65666666D01*
X153652380Y-65571428D01*
X153271428Y-65571428D01*
X153080952Y-65666666D01*
X153938095Y-66809523D02*
X153747619Y-66904761D01*
X153271428Y-66904761D01*
X153080952Y-66809523D01*
X152985714Y-66619047D01*
X152985714Y-66428571D01*
X153080952Y-66238095D01*
X153271428Y-66142857D01*
X153747619Y-66142857D01*
X153938095Y-66047619D01*
X156985714Y-67666666D02*
X156890476Y-67571428D01*
X156700000Y-67285714D01*
X156604761Y-67095238D01*
X156509523Y-66809523D01*
X156414285Y-66333333D01*
X156414285Y-65952380D01*
X156509523Y-65476190D01*
X156604761Y-65190476D01*
X156700000Y-65000000D01*
X156890476Y-64714285D01*
X156985714Y-64619047D01*
X157747619Y-66904761D02*
X157747619Y-64904761D01*
X157747619Y-65666666D02*
X157938095Y-65571428D01*
X158319047Y-65571428D01*
X158509523Y-65666666D01*
X158604761Y-65761904D01*
X158700000Y-65952380D01*
X158700000Y-66523809D01*
X158604761Y-66714285D01*
X158509523Y-66809523D01*
X158319047Y-66904761D01*
X157938095Y-66904761D01*
X157747619Y-66809523D01*
X159842857Y-66904761D02*
X159652380Y-66809523D01*
X159557142Y-66714285D01*
X159461904Y-66523809D01*
X159461904Y-65952380D01*
X159557142Y-65761904D01*
X159652380Y-65666666D01*
X159842857Y-65571428D01*
X160128571Y-65571428D01*
X160319047Y-65666666D01*
X160414285Y-65761904D01*
X160509523Y-65952380D01*
X160509523Y-66523809D01*
X160414285Y-66714285D01*
X160319047Y-66809523D01*
X160128571Y-66904761D01*
X159842857Y-66904761D01*
X161080952Y-65571428D02*
X161842857Y-65571428D01*
X161366666Y-64904761D02*
X161366666Y-66619047D01*
X161461904Y-66809523D01*
X161652380Y-66904761D01*
X161842857Y-66904761D01*
X162223809Y-65571428D02*
X162985714Y-65571428D01*
X162509523Y-64904761D02*
X162509523Y-66619047D01*
X162604761Y-66809523D01*
X162795238Y-66904761D01*
X162985714Y-66904761D01*
X163938095Y-66904761D02*
X163747619Y-66809523D01*
X163652380Y-66714285D01*
X163557142Y-66523809D01*
X163557142Y-65952380D01*
X163652380Y-65761904D01*
X163747619Y-65666666D01*
X163938095Y-65571428D01*
X164223809Y-65571428D01*
X164414285Y-65666666D01*
X164509523Y-65761904D01*
X164604761Y-65952380D01*
X164604761Y-66523809D01*
X164509523Y-66714285D01*
X164414285Y-66809523D01*
X164223809Y-66904761D01*
X163938095Y-66904761D01*
X165461904Y-66904761D02*
X165461904Y-65571428D01*
X165461904Y-65761904D02*
X165557142Y-65666666D01*
X165747619Y-65571428D01*
X166033333Y-65571428D01*
X166223809Y-65666666D01*
X166319047Y-65857142D01*
X166319047Y-66904761D01*
X166319047Y-65857142D02*
X166414285Y-65666666D01*
X166604761Y-65571428D01*
X166890476Y-65571428D01*
X167080952Y-65666666D01*
X167176190Y-65857142D01*
X167176190Y-66904761D01*
X167938095Y-67666666D02*
X168033333Y-67571428D01*
X168223809Y-67285714D01*
X168319047Y-67095238D01*
X168414285Y-66809523D01*
X168509523Y-66333333D01*
X168509523Y-65952380D01*
X168414285Y-65476190D01*
X168319047Y-65190476D01*
X168223809Y-65000000D01*
X168033333Y-64714285D01*
X167938095Y-64619047D01*
X35000000Y-139000000D02*
X35000000Y-224000000D01*
X115000000Y-44000000D02*
X35000000Y-139000000D01*
X171700000Y-44000000D02*
X115000000Y-44000000D01*
X171700000Y-91000000D02*
X171700000Y-44000000D01*
X125000000Y-91000000D02*
X171700000Y-91000000D01*
X87000000Y-147000000D02*
X125000000Y-91000000D01*
X87000000Y-224000000D02*
X87000000Y-147000000D01*
X35000000Y-224000000D02*
X87000000Y-224000000D01*
X128333333Y-115904761D02*
X128333333Y-113904761D01*
X129285714Y-114571428D02*
X129285714Y-115904761D01*
X129285714Y-114761904D02*
X129380952Y-114666666D01*
X129571428Y-114571428D01*
X129857142Y-114571428D01*
X130047619Y-114666666D01*
X130142857Y-114857142D01*
X130142857Y-115904761D01*
X131095238Y-114571428D02*
X131095238Y-116571428D01*
X131095238Y-114666666D02*
X131285714Y-114571428D01*
X131666666Y-114571428D01*
X131857142Y-114666666D01*
X131952380Y-114761904D01*
X132047619Y-114952380D01*
X132047619Y-115523809D01*
X131952380Y-115714285D01*
X131857142Y-115809523D01*
X131666666Y-115904761D01*
X131285714Y-115904761D01*
X131095238Y-115809523D01*
X133761904Y-114571428D02*
X133761904Y-115904761D01*
X132904761Y-114571428D02*
X132904761Y-115619047D01*
X133000000Y-115809523D01*
X133190476Y-115904761D01*
X133476190Y-115904761D01*
X133666666Y-115809523D01*
X133761904Y-115714285D01*
X134428571Y-114571428D02*
X135190476Y-114571428D01*
X134714285Y-113904761D02*
X134714285Y-115619047D01*
X134809523Y-115809523D01*
X135000000Y-115904761D01*
X135190476Y-115904761D01*
X137380952Y-115904761D02*
X137380952Y-114571428D01*
X137380952Y-114952380D02*
X137476190Y-114761904D01*
X137571428Y-114666666D01*
X137761904Y-114571428D01*
X137952380Y-114571428D01*
X138904761Y-115904761D02*
X138714285Y-115809523D01*
X138619047Y-115714285D01*
X138523809Y-115523809D01*
X138523809Y-114952380D01*
X138619047Y-114761904D01*
X138714285Y-114666666D01*
X138904761Y-114571428D01*
X139190476Y-114571428D01*
X139380952Y-114666666D01*
X139476190Y-114761904D01*
X139571428Y-114952380D01*
X139571428Y-115523809D01*
X139476190Y-115714285D01*
X139380952Y-115809523D01*
X139190476Y-115904761D01*
X138904761Y-115904761D01*
X141285714Y-114571428D02*
X141285714Y-115904761D01*
X140428571Y-114571428D02*
X140428571Y-115619047D01*
X140523809Y-115809523D01*
X140714285Y-115904761D01*
X141000000Y-115904761D01*
X141190476Y-115809523D01*
X141285714Y-115714285D01*
X141952380Y-114571428D02*
X142714285Y-114571428D01*
X142238095Y-113904761D02*
X142238095Y-115619047D01*
X142333333Y-115809523D01*
X142523809Y-115904761D01*
X142714285Y-115904761D01*
X143380952Y-115904761D02*
X143380952Y-114571428D01*
X143380952Y-113904761D02*
X143285714Y-114000000D01*
X143380952Y-114095238D01*
X143476190Y-114000000D01*
X143380952Y-113904761D01*
X143380952Y-114095238D01*
X144333333Y-114571428D02*
X144333333Y-115904761D01*
X144333333Y-114761904D02*
X144428571Y-114666666D01*
X144619047Y-114571428D01*
X144904761Y-114571428D01*
X145095238Y-114666666D01*
X145190476Y-114857142D01*
X145190476Y-115904761D01*
X147000000Y-114571428D02*
X147000000Y-116190476D01*
X146904761Y-116380952D01*
X146809523Y-116476190D01*
X146619047Y-116571428D01*
X146333333Y-116571428D01*
X146142857Y-116476190D01*
X147000000Y-115809523D02*
X146809523Y-115904761D01*
X146428571Y-115904761D01*
X146238095Y-115809523D01*
X146142857Y-115714285D01*
X146047619Y-115523809D01*
X146047619Y-114952380D01*
X146142857Y-114761904D01*
X146238095Y-114666666D01*
X146428571Y-114571428D01*
X146809523Y-114571428D01*
X147000000Y-114666666D01*
X150333333Y-115904761D02*
X150333333Y-114857142D01*
X150238095Y-114666666D01*
X150047619Y-114571428D01*
X149666666Y-114571428D01*
X149476190Y-114666666D01*
X150333333Y-115809523D02*
X150142857Y-115904761D01*
X149666666Y-115904761D01*
X149476190Y-115809523D01*
X149380952Y-115619047D01*
X149380952Y-115428571D01*
X149476190Y-115238095D01*
X149666666Y-115142857D01*
X150142857Y-115142857D01*
X150333333Y-115047619D01*
X151285714Y-115904761D02*
X151285714Y-114571428D01*
X151285714Y-114952380D02*
X151380952Y-114761904D01*
X151476190Y-114666666D01*
X151666666Y-114571428D01*
X151857142Y-114571428D01*
X153285714Y-115809523D02*
X153095238Y-115904761D01*
X152714285Y-115904761D01*
X152523809Y-115809523D01*
X152428571Y-115619047D01*
X152428571Y-114857142D01*
X152523809Y-114666666D01*
X152714285Y-114571428D01*
X153095238Y-114571428D01*
X153285714Y-114666666D01*
X153380952Y-114857142D01*
X153380952Y-115047619D01*
X152428571Y-115238095D01*
X155095238Y-115904761D02*
X155095238Y-114857142D01*
X155000000Y-114666666D01*
X154809523Y-114571428D01*
X154428571Y-114571428D01*
X154238095Y-114666666D01*
X155095238Y-115809523D02*
X154904761Y-115904761D01*
X154428571Y-115904761D01*
X154238095Y-115809523D01*
X154142857Y-115619047D01*
X154142857Y-115428571D01*
X154238095Y-115238095D01*
X154428571Y-115142857D01*
X154904761Y-115142857D01*
X155095238Y-115047619D01*
X158142857Y-116666666D02*
X158047619Y-116571428D01*
X157857142Y-116285714D01*
X157761904Y-116095238D01*
X157666666Y-115809523D01*
X157571428Y-115333333D01*
X157571428Y-114952380D01*
X157666666Y-114476190D01*
X157761904Y-114190476D01*
X157857142Y-114000000D01*
X158047619Y-113714285D01*
X158142857Y-113619047D01*
X158904761Y-115904761D02*
X158904761Y-113904761D01*
X158904761Y-114666666D02*
X159095238Y-114571428D01*
X159476190Y-114571428D01*
X159666666Y-114666666D01*
X159761904Y-114761904D01*
X159857142Y-114952380D01*
X159857142Y-115523809D01*
X159761904Y-115714285D01*
X159666666Y-115809523D01*
X159476190Y-115904761D01*
X159095238Y-115904761D01*
X158904761Y-115809523D01*
X161000000Y-115904761D02*
X160809523Y-115809523D01*
X160714285Y-115714285D01*
X160619047Y-115523809D01*
X160619047Y-114952380D01*
X160714285Y-114761904D01*
X160809523Y-114666666D01*
X161000000Y-114571428D01*
X161285714Y-114571428D01*
X161476190Y-114666666D01*
X161571428Y-114761904D01*
X161666666Y-114952380D01*
X161666666Y-115523809D01*
X161571428Y-115714285D01*
X161476190Y-115809523D01*
X161285714Y-115904761D01*
X161000000Y-115904761D01*
X162238095Y-114571428D02*
X163000000Y-114571428D01*
X162523809Y-113904761D02*
X162523809Y-115619047D01*
X162619047Y-115809523D01*
X162809523Y-115904761D01*
X163000000Y-115904761D01*
X163380952Y-114571428D02*
X164142857Y-114571428D01*
X163666666Y-113904761D02*
X163666666Y-115619047D01*
X163761904Y-115809523D01*
X163952380Y-115904761D01*
X164142857Y-115904761D01*
X165095238Y-115904761D02*
X164904761Y-115809523D01*
X164809523Y-115714285D01*
X164714285Y-115523809D01*
X164714285Y-114952380D01*
X164809523Y-114761904D01*
X164904761Y-114666666D01*
X165095238Y-114571428D01*
X165380952Y-114571428D01*
X165571428Y-114666666D01*
X165666666Y-114761904D01*
X165761904Y-114952380D01*
X165761904Y-115523809D01*
X165666666Y-115714285D01*
X165571428Y-115809523D01*
X165380952Y-115904761D01*
X165095238Y-115904761D01*
X166619047Y-115904761D02*
X166619047Y-114571428D01*
X166619047Y-114761904D02*
X166714285Y-114666666D01*
X166904761Y-114571428D01*
X167190476Y-114571428D01*
X167380952Y-114666666D01*
X167476190Y-114857142D01*
X167476190Y-115904761D01*
X167476190Y-114857142D02*
X167571428Y-114666666D01*
X167761904Y-114571428D01*
X168047619Y-114571428D01*
X168238095Y-114666666D01*
X168333333Y-114857142D01*
X168333333Y-115904761D01*
X169095238Y-116666666D02*
X169190476Y-116571428D01*
X169380952Y-116285714D01*
X169476190Y-116095238D01*
X169571428Y-115809523D01*
X169666666Y-115333333D01*
X169666666Y-114952380D01*
X169571428Y-114476190D01*
X169476190Y-114190476D01*
X169380952Y-114000000D01*
X169190476Y-113714285D01*
X169095238Y-113619047D01*
X88000000Y-148000000D02*
X88000000Y-215000000D01*
X122000000Y-110000000D02*
X88000000Y-148000000D01*
X173000000Y-110000000D02*
X122000000Y-110000000D01*
X221000000Y-145000000D02*
X173000000Y-110000000D01*
X231000000Y-176000000D02*
X221000000Y-145000000D01*
X231000000Y-215000000D02*
X231000000Y-176000000D01*
X88000000Y-215000000D02*
X231000000Y-215000000D01*
X182050000Y-72400000D02*
G75*
G03X182050000Y-72400000I-1250000J0D01*
G01*
X180050000Y-72150000D02*
X180050000Y-72650000D01*
X181550000Y-72150000D02*
X180050000Y-72150000D01*
X181550000Y-72650000D02*
X181550000Y-72150000D01*
X180050000Y-72650000D02*
X181550000Y-72650000D01*
X124250000Y-204000000D02*
G75*
G03X124250000Y-204000000I-1250000J0D01*
G01*
X122250000Y-203750000D02*
X122250000Y-204250000D01*
X123750000Y-203750000D02*
X122250000Y-203750000D01*
X123750000Y-204250000D02*
X123750000Y-203750000D01*
X122250000Y-204250000D02*
X123750000Y-204250000D01*
X144850000Y-82400000D02*
G75*
G03X144850000Y-82400000I-1250000J0D01*
G01*
X144350000Y-82650000D02*
X144350000Y-82150000D01*
X142850000Y-82650000D02*
X144350000Y-82650000D01*
X142850000Y-82150000D02*
X142850000Y-82650000D01*
X144350000Y-82150000D02*
X142850000Y-82150000D01*
X173650000Y-74800000D02*
G75*
G03X173650000Y-74800000I-1250000J0D01*
G01*
X173150000Y-75050000D02*
X173150000Y-74550000D01*
X171650000Y-75050000D02*
X173150000Y-75050000D01*
X171650000Y-74550000D02*
X171650000Y-75050000D01*
X173150000Y-74550000D02*
X171650000Y-74550000D01*
D11*
X43710000Y-63965000D02*
X39900000Y-63965000D01*
X39900000Y-63965000D02*
X39900000Y-84285000D01*
X39900000Y-84285000D02*
X44980000Y-84285000D01*
X44980000Y-84285000D02*
X44980000Y-65235000D01*
X44980000Y-65235000D02*
X43710000Y-63965000D01*
D10*
X182538095Y-74352380D02*
X181966666Y-74352380D01*
X182252380Y-75352380D02*
X182252380Y-74352380D01*
X181633333Y-75352380D02*
X181633333Y-74352380D01*
X181252380Y-74352380D01*
X181157142Y-74400000D01*
X181109523Y-74447619D01*
X181061904Y-74542857D01*
X181061904Y-74685714D01*
X181109523Y-74780952D01*
X181157142Y-74828571D01*
X181252380Y-74876190D01*
X181633333Y-74876190D01*
X180680952Y-74447619D02*
X180633333Y-74400000D01*
X180538095Y-74352380D01*
X180300000Y-74352380D01*
X180204761Y-74400000D01*
X180157142Y-74447619D01*
X180109523Y-74542857D01*
X180109523Y-74638095D01*
X180157142Y-74780952D01*
X180728571Y-75352380D01*
X180109523Y-75352380D01*
X179633333Y-75352380D02*
X179442857Y-75352380D01*
X179347619Y-75304761D01*
X179300000Y-75257142D01*
X179204761Y-75114285D01*
X179157142Y-74923809D01*
X179157142Y-74542857D01*
X179204761Y-74447619D01*
X179252380Y-74400000D01*
X179347619Y-74352380D01*
X179538095Y-74352380D01*
X179633333Y-74400000D01*
X179680952Y-74447619D01*
X179728571Y-74542857D01*
X179728571Y-74780952D01*
X179680952Y-74876190D01*
X179633333Y-74923809D01*
X179538095Y-74971428D01*
X179347619Y-74971428D01*
X179252380Y-74923809D01*
X179204761Y-74876190D01*
X179157142Y-74780952D01*
X182538095Y-74352380D02*
X181966666Y-74352380D01*
X182252380Y-75352380D02*
X182252380Y-74352380D01*
X181633333Y-75352380D02*
X181633333Y-74352380D01*
X181252380Y-74352380D01*
X181157142Y-74400000D01*
X181109523Y-74447619D01*
X181061904Y-74542857D01*
X181061904Y-74685714D01*
X181109523Y-74780952D01*
X181157142Y-74828571D01*
X181252380Y-74876190D01*
X181633333Y-74876190D01*
X180680952Y-74447619D02*
X180633333Y-74400000D01*
X180538095Y-74352380D01*
X180300000Y-74352380D01*
X180204761Y-74400000D01*
X180157142Y-74447619D01*
X180109523Y-74542857D01*
X180109523Y-74638095D01*
X180157142Y-74780952D01*
X180728571Y-75352380D01*
X180109523Y-75352380D01*
X179633333Y-75352380D02*
X179442857Y-75352380D01*
X179347619Y-75304761D01*
X179300000Y-75257142D01*
X179204761Y-75114285D01*
X179157142Y-74923809D01*
X179157142Y-74542857D01*
X179204761Y-74447619D01*
X179252380Y-74400000D01*
X179347619Y-74352380D01*
X179538095Y-74352380D01*
X179633333Y-74400000D01*
X179680952Y-74447619D01*
X179728571Y-74542857D01*
X179728571Y-74780952D01*
X179680952Y-74876190D01*
X179633333Y-74923809D01*
X179538095Y-74971428D01*
X179347619Y-74971428D01*
X179252380Y-74923809D01*
X179204761Y-74876190D01*
X179157142Y-74780952D01*
X124738095Y-205952380D02*
X124166666Y-205952380D01*
X124452380Y-206952380D02*
X124452380Y-205952380D01*
X123833333Y-206952380D02*
X123833333Y-205952380D01*
X123452380Y-205952380D01*
X123357142Y-206000000D01*
X123309523Y-206047619D01*
X123261904Y-206142857D01*
X123261904Y-206285714D01*
X123309523Y-206380952D01*
X123357142Y-206428571D01*
X123452380Y-206476190D01*
X123833333Y-206476190D01*
X122880952Y-206047619D02*
X122833333Y-206000000D01*
X122738095Y-205952380D01*
X122500000Y-205952380D01*
X122404761Y-206000000D01*
X122357142Y-206047619D01*
X122309523Y-206142857D01*
X122309523Y-206238095D01*
X122357142Y-206380952D01*
X122928571Y-206952380D01*
X122309523Y-206952380D01*
X121738095Y-206380952D02*
X121833333Y-206333333D01*
X121880952Y-206285714D01*
X121928571Y-206190476D01*
X121928571Y-206142857D01*
X121880952Y-206047619D01*
X121833333Y-206000000D01*
X121738095Y-205952380D01*
X121547619Y-205952380D01*
X121452380Y-206000000D01*
X121404761Y-206047619D01*
X121357142Y-206142857D01*
X121357142Y-206190476D01*
X121404761Y-206285714D01*
X121452380Y-206333333D01*
X121547619Y-206380952D01*
X121738095Y-206380952D01*
X121833333Y-206428571D01*
X121880952Y-206476190D01*
X121928571Y-206571428D01*
X121928571Y-206761904D01*
X121880952Y-206857142D01*
X121833333Y-206904761D01*
X121738095Y-206952380D01*
X121547619Y-206952380D01*
X121452380Y-206904761D01*
X121404761Y-206857142D01*
X121357142Y-206761904D01*
X121357142Y-206571428D01*
X121404761Y-206476190D01*
X121452380Y-206428571D01*
X121547619Y-206380952D01*
X124738095Y-205952380D02*
X124166666Y-205952380D01*
X124452380Y-206952380D02*
X124452380Y-205952380D01*
X123833333Y-206952380D02*
X123833333Y-205952380D01*
X123452380Y-205952380D01*
X123357142Y-206000000D01*
X123309523Y-206047619D01*
X123261904Y-206142857D01*
X123261904Y-206285714D01*
X123309523Y-206380952D01*
X123357142Y-206428571D01*
X123452380Y-206476190D01*
X123833333Y-206476190D01*
X122880952Y-206047619D02*
X122833333Y-206000000D01*
X122738095Y-205952380D01*
X122500000Y-205952380D01*
X122404761Y-206000000D01*
X122357142Y-206047619D01*
X122309523Y-206142857D01*
X122309523Y-206238095D01*
X122357142Y-206380952D01*
X122928571Y-206952380D01*
X122309523Y-206952380D01*
X121738095Y-206380952D02*
X121833333Y-206333333D01*
X121880952Y-206285714D01*
X121928571Y-206190476D01*
X121928571Y-206142857D01*
X121880952Y-206047619D01*
X121833333Y-206000000D01*
X121738095Y-205952380D01*
X121547619Y-205952380D01*
X121452380Y-206000000D01*
X121404761Y-206047619D01*
X121357142Y-206142857D01*
X121357142Y-206190476D01*
X121404761Y-206285714D01*
X121452380Y-206333333D01*
X121547619Y-206380952D01*
X121738095Y-206380952D01*
X121833333Y-206428571D01*
X121880952Y-206476190D01*
X121928571Y-206571428D01*
X121928571Y-206761904D01*
X121880952Y-206857142D01*
X121833333Y-206904761D01*
X121738095Y-206952380D01*
X121547619Y-206952380D01*
X121452380Y-206904761D01*
X121404761Y-206857142D01*
X121357142Y-206761904D01*
X121357142Y-206571428D01*
X121404761Y-206476190D01*
X121452380Y-206428571D01*
X121547619Y-206380952D01*
X144861904Y-79352380D02*
X144290476Y-79352380D01*
X144576190Y-80352380D02*
X144576190Y-79352380D01*
X143957142Y-80352380D02*
X143957142Y-79352380D01*
X143576190Y-79352380D01*
X143480952Y-79400000D01*
X143433333Y-79447619D01*
X143385714Y-79542857D01*
X143385714Y-79685714D01*
X143433333Y-79780952D01*
X143480952Y-79828571D01*
X143576190Y-79876190D01*
X143957142Y-79876190D01*
X142528571Y-79352380D02*
X142719047Y-79352380D01*
X142814285Y-79400000D01*
X142861904Y-79447619D01*
X142957142Y-79590476D01*
X143004761Y-79780952D01*
X143004761Y-80161904D01*
X142957142Y-80257142D01*
X142909523Y-80304761D01*
X142814285Y-80352380D01*
X142623809Y-80352380D01*
X142528571Y-80304761D01*
X142480952Y-80257142D01*
X142433333Y-80161904D01*
X142433333Y-79923809D01*
X142480952Y-79828571D01*
X142528571Y-79780952D01*
X142623809Y-79733333D01*
X142814285Y-79733333D01*
X142909523Y-79780952D01*
X142957142Y-79828571D01*
X143004761Y-79923809D01*
X173661904Y-71752380D02*
X173090476Y-71752380D01*
X173376190Y-72752380D02*
X173376190Y-71752380D01*
X172757142Y-72752380D02*
X172757142Y-71752380D01*
X172376190Y-71752380D01*
X172280952Y-71800000D01*
X172233333Y-71847619D01*
X172185714Y-71942857D01*
X172185714Y-72085714D01*
X172233333Y-72180952D01*
X172280952Y-72228571D01*
X172376190Y-72276190D01*
X172757142Y-72276190D01*
X171852380Y-71752380D02*
X171185714Y-71752380D01*
X171614285Y-72752380D01*
X41892380Y-73791666D02*
X42606666Y-73791666D01*
X42749523Y-73744047D01*
X42844761Y-73648809D01*
X42892380Y-73505952D01*
X42892380Y-73410714D01*
X42892380Y-74791666D02*
X42892380Y-74220238D01*
X42892380Y-74505952D02*
X41892380Y-74505952D01*
X42035238Y-74410714D01*
X42130476Y-74315476D01*
X42178095Y-74220238D01*
M02*
