M48
; DRILL file {KiCad (5.1.5)-3} date 7/24/2020 3:11:04 PM
; FORMAT={-:-/ absolute / metric / decimal}
; #@! TF.CreationDate,2020-07-24T15:11:04-04:00
; #@! TF.GenerationSoftware,Kicad,Pcbnew,(5.1.5)-3
FMAT,2
METRIC
T1C0.200
T2C0.254
T3C0.300
T4C0.600
T5C0.762
T6C0.840
T7C1.000
T8C2.410
T9C3.175
T10C3.200
T11C0.800
T12C1.200
T13C2.350
T14C2.700
%
G90
G05
T1
X161.05Y-67.63
X161.05Y-68.83
X161.05Y-70.03
X162.45Y-67.63
X162.45Y-68.83
X162.45Y-70.03
T2
X62.6Y-139.8
X63.2Y-141.2
X63.25Y-139.5
X63.6Y-138.0
X63.7Y-138.7
X63.7Y-141.6
X64.4Y-139.0
X87.8Y-92.55
X87.8Y-93.2
X88.4Y-251.4
X89.6Y-252.4
X90.4Y-92.0
X90.6Y-91.4
X91.2Y-265.8
X97.081Y-113.619
X97.545Y-113.154
X98.35Y-125.7
X98.8Y-125.2
X99.2Y-124.1
X99.8Y-123.8
X99.8Y-251.4
X99.8Y-263.8
X102.4Y-252.4
X102.4Y-265.6
X116.7Y-108.8
X117.0Y-109.35
X117.2Y-143.2
X118.2Y-142.4
X119.6Y-141.6
X122.6Y-144.4
X123.0Y-133.0
X123.3Y-132.4
X125.6Y-134.2
X125.6Y-134.9
X128.1Y-102.5
X129.6Y-93.9
X129.6Y-94.55
X130.4Y-94.8
X130.4Y-112.0
X130.7Y-111.4
X131.2Y-53.6
X131.3Y-62.4
X131.4Y-102.4
X132.4Y-145.2
X132.5Y-115.2
X132.55Y-93.5
X132.8Y-108.2
X132.9Y-97.5
X133.0Y-94.1
X133.0Y-111.0
X133.168Y-115.168
X133.632Y-115.632
X133.65Y-111.2
X133.85Y-43.071
X133.85Y-43.729
X133.9Y-63.0
X134.2Y-115.4
X134.25Y-44.2
X134.4Y-62.4
X134.4Y-106.8
X134.45Y-42.85
X134.5Y-92.0
X134.9Y-63.0
X135.0Y-97.5
X135.2Y-93.0
X135.3Y-92.2
X135.4Y-62.4
X135.8Y-97.8
X136.1Y-63.0
X136.8Y-62.4
X137.071Y-106.956
X137.2Y-97.8
X137.3Y-63.0
X137.6Y-126.8
X137.729Y-106.956
X137.8Y-62.4
X138.1Y-44.6
X138.1Y-45.4
X138.1Y-107.5
X138.2Y-127.1
X138.4Y-63.0
X138.5Y-45.9
X138.55Y-44.05
X139.0Y-62.4
X139.1Y-136.75
X139.271Y-97.2
X139.5Y-63.0
X139.6Y-96.65
X139.6Y-136.2
X139.929Y-97.2
X140.0Y-62.4
X140.25Y-45.65
X140.25Y-46.271
X140.25Y-46.929
X140.568Y-108.632
X140.65Y-47.45
X141.032Y-108.168
X141.15Y-107.55
X141.3Y-62.7
X141.671Y-62.2
X141.85Y-97.6
X141.85Y-98.25
X142.2Y-47.871
X142.2Y-48.529
X142.329Y-62.2
X142.5Y-47.3
X142.5Y-97.85
X142.7Y-62.7
X142.85Y-48.5
X143.1Y-109.15
X143.2Y-49.471
X143.2Y-50.129
X143.471Y-108.6
X143.55Y-50.65
X143.65Y-49.05
X143.7Y-62.7
X143.7Y-127.2
X143.968Y-126.632
X144.071Y-62.2
X144.129Y-108.6
X144.432Y-126.168
X144.5Y-109.15
X144.729Y-62.2
X145.071Y-97.0
X145.1Y-62.7
X145.1Y-126.15
X145.1Y-138.5
X145.4Y-96.45
X145.4Y-137.271
X145.4Y-137.929
X145.7Y-136.7
X145.729Y-97.0
X146.0Y-52.1
X146.4Y-118.3
X146.471Y-97.8
X146.55Y-112.1
X146.6Y-51.071
X146.6Y-51.729
X146.8Y-97.25
X146.968Y-118.568
X147.1Y-50.6
X147.129Y-97.8
X147.168Y-112.232
X147.432Y-119.032
X147.5Y-111.1
X147.632Y-111.768
X147.95Y-119.45
X148.368Y-108.632
X148.45Y-109.25
X148.7Y-62.7
X148.832Y-108.168
X148.871Y-97.8
X149.071Y-62.2
X149.2Y-75.4
X149.2Y-97.25
X149.45Y-108.3
X149.529Y-97.8
X149.729Y-62.2
X151.968Y-107.832
X152.0Y-125.4
X152.05Y-108.45
X152.071Y-62.2
X152.271Y-98.0
X152.432Y-107.368
X152.6Y-97.45
X152.6Y-125.85
X152.729Y-62.2
X152.929Y-98.0
X153.0Y-135.2
X153.0Y-146.4
X153.1Y-107.5
X153.15Y-62.75
X153.55Y-135.5
X154.3Y-62.95
X154.471Y-98.0
X154.671Y-62.4
X154.8Y-97.45
X155.129Y-98.0
X155.329Y-62.4
X155.7Y-62.95
X156.1Y-119.35
X156.471Y-118.8
X156.6Y-63.3
X156.768Y-63.968
X156.8Y-102.2
X156.878Y-98.32
X157.129Y-118.8
X157.15Y-65.05
X157.2Y-97.8
X157.232Y-64.432
X157.529Y-102.2
X157.535Y-98.32
X157.568Y-108.832
X157.65Y-109.45
X157.7Y-118.5
X158.032Y-108.368
X158.1Y-129.5
X158.471Y-130.0
X158.65Y-108.45
X159.129Y-130.0
X159.7Y-130.35
X160.35Y-140.55
X160.368Y-141.168
X160.832Y-141.632
X161.15Y-142.15
X166.3Y-125.25
X166.4Y-124.6
X167.8Y-146.8
X168.0Y-125.8
X168.0Y-130.8
X168.5Y-126.2
X168.55Y-130.3
X168.7Y-135.2
X168.8Y-135.8
X173.15Y-125.55
X173.2Y-129.6
X173.65Y-131.15
X173.768Y-125.632
X173.8Y-129.871
X173.8Y-130.529
X174.232Y-125.168
X174.85Y-125.15
X175.0Y-140.6
X175.471Y-141.0
X176.129Y-141.0
X176.5Y-140.45
X183.7Y-81.3
X190.6Y-134.4
X191.25Y-134.35
X194.45Y-135.25
X194.8Y-135.8
X195.4Y-189.0
X197.494Y-187.094
X201.6Y-90.0
X201.6Y-144.4
X203.4Y-91.2
X203.8Y-70.6
X203.8Y-75.6
X203.8Y-79.0
X203.8Y-83.0
X203.8Y-87.0
X204.0Y-64.0
X204.2Y-135.1
X204.4Y-94.0
X204.4Y-96.8
X204.4Y-99.4
X204.5Y-62.2
X204.7Y-134.6
X205.0Y-91.8
X206.15Y-131.85
X206.471Y-132.4
X207.0Y-62.2
X207.129Y-132.4
X207.4Y-124.6
X207.65Y-132.8
X207.8Y-113.471
X207.8Y-114.129
X208.0Y-124.9
X208.2Y-123.4
X208.25Y-113.05
X208.25Y-114.6
X208.8Y-122.9
X209.0Y-64.2
X209.2Y-99.6
X209.5Y-62.2
X211.45Y-142.25
X211.79Y-142.774
X211.9Y-77.5
X211.9Y-79.5
X212.0Y-62.2
X212.448Y-142.774
X213.0Y-143.15
X213.4Y-99.6
X213.8Y-97.7
X214.0Y-64.8
X214.3Y-98.071
X214.3Y-98.729
X214.5Y-62.2
X214.9Y-98.9
X215.1Y-59.8
X216.4Y-98.4
X217.0Y-62.2
X217.6Y-59.8
X219.0Y-64.8
X219.4Y-99.6
X219.5Y-62.2
X219.95Y-96.25
X220.1Y-59.8
X220.568Y-96.168
X221.032Y-96.632
X221.1Y-88.5
X221.1Y-97.25
X222.0Y-62.2
X222.6Y-59.8
X223.6Y-65.0
X224.0Y-69.8
X224.0Y-74.8
X224.0Y-79.8
X224.0Y-84.8
X224.0Y-86.8
X224.1Y-56.9
X224.2Y-95.8
X224.2Y-99.4
X224.5Y-62.2
X225.1Y-59.8
X225.8Y-90.4
X226.0Y-93.0
X226.6Y-56.9
X227.4Y-92.0
X227.4Y-97.0
X227.4Y-104.6
X227.5Y-65.2
X227.5Y-67.7
X227.5Y-70.2
X227.5Y-72.7
X227.5Y-75.2
X227.5Y-77.7
X227.5Y-80.2
X227.5Y-82.7
X227.5Y-85.2
X227.5Y-87.1
X227.5Y-90.2
X227.6Y-59.8
X227.776Y-109.624
X228.0Y-138.2
X228.3Y-104.7
X228.7Y-138.1
X228.8Y-109.4
X229.0Y-114.8
X229.0Y-127.8
X229.1Y-56.9
X229.2Y-104.6
X229.2Y-128.45
X229.3Y-61.0
X229.3Y-63.5
X229.3Y-66.0
X229.3Y-68.5
X229.3Y-71.0
X229.3Y-73.5
X229.3Y-76.0
X229.3Y-78.5
X229.3Y-81.0
X229.3Y-83.5
X229.3Y-86.0
X229.3Y-91.0
X229.3Y-93.5
X229.6Y-108.6
X229.65Y-114.7
X230.2Y-104.7
X231.0Y-104.6
X231.1Y-59.6
X231.1Y-62.1
X231.1Y-64.6
X231.1Y-67.1
X231.1Y-69.6
X231.1Y-72.1
X231.1Y-74.6
X231.1Y-77.1
X231.1Y-79.6
X231.1Y-82.1
X231.1Y-84.6
X231.1Y-87.1
X231.1Y-89.6
X231.1Y-92.1
X231.1Y-94.6
X231.1Y-97.1
X231.8Y-112.2
X232.9Y-58.2
X232.9Y-60.7
X232.9Y-63.2
X232.9Y-65.7
X232.9Y-68.2
X232.9Y-70.7
X232.9Y-73.2
X232.9Y-75.7
X232.9Y-78.2
X232.9Y-80.7
X232.9Y-83.2
X232.9Y-85.7
X232.9Y-88.2
X232.9Y-90.7
X232.9Y-93.2
X232.9Y-95.7
X232.9Y-98.2
X234.7Y-59.8
X234.7Y-69.8
X234.7Y-77.2
X234.7Y-83.2
X234.7Y-89.8
X234.7Y-99.8
T3
X30.8Y-232.8
X31.4Y-55.2
X32.2Y-107.6
X33.0Y-34.6
X34.2Y-44.8
X34.2Y-64.8
X34.2Y-74.8
X34.2Y-85.8
X34.2Y-95.8
X34.2Y-115.8
X34.2Y-125.8
X34.2Y-135.8
X34.2Y-145.8
X34.2Y-155.8
X34.2Y-165.8
X34.2Y-175.8
X34.2Y-185.8
X34.2Y-195.8
X34.2Y-205.8
X34.2Y-215.8
X34.2Y-225.8
X34.2Y-238.4
X34.2Y-245.8
X34.2Y-255.8
X34.2Y-265.8
X34.2Y-275.8
X34.2Y-282.8
X40.3Y-88.4
X42.8Y-86.4
X42.8Y-265.8
X42.8Y-282.8
X43.0Y-34.6
X46.0Y-80.8
X46.2Y-66.5
X46.2Y-77.8
X46.3Y-72.1
X47.2Y-79.9
X48.1Y-72.3
X48.1Y-77.8
X48.2Y-66.4
X48.5Y-80.9
X48.6Y-74.9
X48.7Y-69.3
X50.0Y-229.0
X50.6Y-69.3
X50.7Y-75.0
X51.0Y-80.8
X51.4Y-67.6
X52.0Y-60.1
X52.0Y-63.8
X52.8Y-265.8
X52.8Y-282.8
X53.0Y-34.6
X53.8Y-61.9
X56.2Y-229.2
X57.9Y-80.7
X58.0Y-229.6
X58.0Y-258.8
X59.7Y-78.6
X62.8Y-265.8
X62.8Y-282.8
X63.0Y-34.6
X66.4Y-179.6
X69.6Y-238.8
X70.2Y-227.2
X71.1Y-263.0
X71.2Y-274.8
X71.8Y-229.4
X71.8Y-248.4
X72.0Y-225.2
X72.4Y-273.6
X72.8Y-226.0
X72.8Y-282.8
X73.0Y-34.6
X73.4Y-255.2
X73.6Y-226.8
X73.8Y-271.1
X74.2Y-228.0
X75.0Y-273.6
X76.4Y-262.9
X77.5Y-273.5
X79.5Y-229.0
X81.8Y-264.2
X82.8Y-282.8
X83.0Y-34.6
X83.6Y-265.6
X83.6Y-267.6
X83.6Y-270.2
X83.6Y-272.2
X83.8Y-236.4
X84.8Y-244.6
X86.0Y-242.6
X87.0Y-179.0
X87.0Y-185.0
X87.0Y-194.0
X87.0Y-199.0
X87.0Y-209.0
X87.0Y-219.0
X87.0Y-229.0
X88.4Y-266.2
X88.4Y-269.2
X88.8Y-264.2
X91.2Y-136.0
X92.8Y-282.8
X93.0Y-34.6
X94.2Y-248.4
X94.2Y-264.2
X94.6Y-146.8
X94.8Y-221.8
X95.8Y-268.8
X96.2Y-146.8
X96.25Y-127.35
X96.6Y-242.6
X96.7Y-269.6
X97.0Y-229.0
X97.4Y-220.2
X97.6Y-127.4
X97.6Y-243.6
X97.6Y-266.9
X97.8Y-146.8
X98.2Y-263.2
X98.4Y-219.4
X99.2Y-129.6
X99.4Y-133.4
X99.4Y-146.8
X100.2Y-128.6
X101.0Y-146.8
X101.4Y-264.0
X102.2Y-143.6
X102.6Y-146.8
X102.8Y-282.8
X103.0Y-34.6
X103.4Y-131.6
X103.4Y-133.6
X103.4Y-264.0
X103.6Y-136.8
X104.0Y-146.8
X105.0Y-133.6
X105.4Y-124.6
X105.4Y-143.545
X105.4Y-146.4
X105.425Y-130.575
X105.6Y-264.0
X106.0Y-132.6
X106.4Y-147.4
X107.0Y-179.6
X108.0Y-147.4
X108.2Y-122.8
X108.387Y-264.188
X108.4Y-273.2
X109.0Y-124.8
X109.0Y-146.4
X109.2Y-121.8
X109.2Y-125.6
X109.2Y-137.6
X109.2Y-138.4
X109.4Y-267.6
X109.4Y-270.2
X109.8Y-135.8
X110.0Y-263.2
X110.8Y-147.0
X111.2Y-243.6
X111.6Y-122.8
X111.6Y-238.8
X112.0Y-231.0
X112.2Y-147.0
X112.2Y-266.6
X112.4Y-136.8
X112.6Y-244.6
X112.8Y-282.8
X113.0Y-34.6
X113.2Y-135.8
X113.2Y-263.2
X113.8Y-224.6
X113.8Y-225.6
X113.8Y-226.8
X114.0Y-223.6
X114.0Y-232.4
X114.0Y-245.6
X114.0Y-269.0
X115.6Y-263.2
X115.8Y-255.2
X115.8Y-258.8
X116.0Y-228.0
X116.7Y-262.3
X117.0Y-228.2
X119.4Y-264.5
X119.5Y-229.0
X120.6Y-181.6
X122.3Y-266.8
X122.8Y-282.8
X123.0Y-34.6
X123.0Y-179.0
X123.0Y-185.0
X123.0Y-194.0
X123.0Y-199.0
X123.0Y-209.0
X123.0Y-219.0
X123.0Y-229.0
X125.4Y-181.6
X125.6Y-249.8
X128.2Y-251.4
X129.8Y-248.4
X130.4Y-221.8
X131.8Y-251.4
X132.2Y-242.6
X132.5Y-229.0
X132.8Y-263.1
X132.8Y-282.8
X133.0Y-34.6
X133.0Y-220.2
X133.2Y-243.6
X133.7Y-53.9
X133.7Y-61.5
X133.7Y-98.4
X133.7Y-106.1
X134.0Y-219.4
X134.6Y-249.6
X136.1Y-54.0
X136.1Y-61.7
X136.9Y-102.0
X138.5Y-54.0
X138.5Y-61.7
X138.5Y-98.4
X138.5Y-106.1
X139.0Y-263.1
X139.0Y-269.0
X139.0Y-274.0
X139.0Y-279.0
X140.9Y-54.0
X140.9Y-61.7
X140.9Y-98.5
X140.9Y-106.1
X142.4Y-179.6
X142.8Y-282.8
X143.0Y-34.6
X143.3Y-54.0
X143.3Y-61.7
X143.3Y-98.5
X143.3Y-106.1
X144.0Y-102.8
X144.5Y-102.1
X145.4Y-263.1
X145.7Y-54.0
X145.7Y-61.7
X147.2Y-238.8
X147.6Y-231.0
X148.1Y-54.0
X148.1Y-61.7
X148.1Y-98.5
X148.1Y-106.2
X148.2Y-244.6
X149.0Y-53.5
X149.4Y-224.6
X149.4Y-225.6
X149.4Y-226.8
X149.5Y-255.2
X149.6Y-223.6
X149.6Y-232.4
X149.6Y-245.6
X149.7Y-53.8
X150.5Y-73.9
X150.5Y-93.9
X150.9Y-73.0
X150.9Y-77.0
X150.9Y-92.3
X151.1Y-273.7
X151.3Y-73.9
X151.3Y-93.3
X151.4Y-255.2
X151.4Y-258.8
X151.6Y-228.0
X152.3Y-266.8
X152.4Y-53.2
X152.6Y-228.2
X152.7Y-95.4
X152.8Y-282.8
X153.0Y-34.6
X153.0Y-53.8
X153.2Y-51.0
X153.6Y-52.0
X153.7Y-54.1
X153.7Y-61.7
X153.7Y-96.4
X153.7Y-101.6
X153.7Y-102.7
X154.5Y-53.7
X155.4Y-53.3
X155.85Y-267.15
X156.0Y-275.6
X156.1Y-54.1
X156.1Y-58.4
X156.1Y-67.2
X156.1Y-97.6
X156.1Y-106.0
X156.9Y-53.8
X157.565Y-70.735
X157.7Y-97.3
X157.9Y-53.5
X158.2Y-94.7
X158.4Y-275.6
X158.5Y-54.0
X158.5Y-101.9
X159.0Y-179.0
X159.0Y-185.0
X159.0Y-194.0
X159.0Y-199.0
X159.0Y-209.0
X159.0Y-219.0
X159.0Y-229.0
X159.3Y-94.7
X159.75Y-267.15
X160.1Y-58.0
X160.3Y-53.6
X160.9Y-64.1
X161.3Y-53.3
X161.7Y-54.0
X161.7Y-61.6
X161.7Y-65.0
X161.7Y-98.4
X161.7Y-103.0
X161.8Y-42.2
X161.8Y-45.8
X162.0Y-52.0
X162.8Y-282.8
X163.0Y-34.6
X163.0Y-238.5
X163.8Y-270.4
X164.0Y-229.0
X164.1Y-98.5
X164.1Y-103.0
X164.4Y-277.2
X164.6Y-44.2
X165.4Y-248.4
X165.7Y-54.0
X165.7Y-61.6
X166.0Y-221.8
X166.1Y-68.5
X166.6Y-275.8
X167.1Y-69.3
X167.6Y-242.6
X168.6Y-220.2
X168.6Y-243.6
X169.4Y-238.6
X169.4Y-265.4
X169.6Y-219.4
X172.8Y-282.8
X173.0Y-34.6
X174.8Y-262.4
X177.2Y-267.2
X178.0Y-179.6
X178.0Y-271.8
X178.6Y-268.4
X180.4Y-263.2
X181.0Y-274.6
X182.6Y-262.6
X182.8Y-238.8
X182.8Y-282.8
X183.0Y-34.6
X183.0Y-231.0
X183.6Y-244.6
X185.0Y-224.6
X185.0Y-225.6
X185.0Y-226.8
X185.0Y-232.4
X185.0Y-245.6
X185.2Y-83.4
X185.2Y-86.6
X185.2Y-223.6
X186.5Y-91.0
X187.0Y-255.2
X187.0Y-258.8
X187.2Y-228.0
X188.2Y-228.2
X190.5Y-271.7
X191.5Y-229.0
X191.6Y-242.6
X192.2Y-45.2
X192.5Y-47.2
X192.8Y-282.8
X192.9Y-41.3
X193.0Y-34.6
X193.2Y-262.6
X195.0Y-179.0
X195.0Y-185.0
X195.0Y-199.5
X195.0Y-207.5
X195.6Y-86.6
X195.6Y-89.8
X195.8Y-83.2
X197.917Y-79.583
X198.0Y-229.0
X198.4Y-243.6
X198.483Y-79.017
X199.2Y-263.6
X199.2Y-274.0
X200.2Y-270.2
X200.8Y-248.4
X201.4Y-221.8
X202.0Y-66.0
X202.8Y-282.8
X203.0Y-34.6
X203.0Y-279.0
X203.2Y-262.6
X203.4Y-242.6
X203.7Y-40.3
X203.7Y-50.3
X203.7Y-55.0
X203.7Y-59.5
X203.8Y-278.2
X204.0Y-220.2
X204.4Y-243.6
X205.0Y-69.0
X205.0Y-219.4
X205.7Y-87.4
X206.6Y-68.6
X206.8Y-88.3
X207.6Y-244.6
X207.8Y-93.2
X208.8Y-92.2
X210.3Y-76.5
X210.4Y-73.8
X210.6Y-92.0
X212.6Y-96.4
X212.8Y-282.8
X213.0Y-34.6
X213.2Y-262.6
X213.6Y-179.6
X213.7Y-40.3
X213.7Y-50.3
X214.2Y-93.6
X217.1Y-89.5
X217.8Y-85.8
X218.2Y-238.8
X218.4Y-83.4
X218.8Y-84.8
X218.8Y-231.0
X219.0Y-144.6
X219.4Y-82.4
X219.4Y-244.6
X219.8Y-145.6
X220.4Y-224.6
X220.4Y-225.6
X220.4Y-226.8
X220.5Y-144.6
X220.6Y-223.6
X220.8Y-232.4
X220.8Y-245.6
X221.3Y-145.6
X221.6Y-107.6
X221.6Y-108.4
X221.6Y-118.2
X221.6Y-119.0
X221.6Y-129.0
X221.6Y-129.8
X221.6Y-139.6
X221.6Y-140.4
X222.0Y-144.6
X222.4Y-255.2
X222.4Y-258.8
X222.6Y-228.0
X222.8Y-145.6
X222.8Y-282.8
X223.0Y-34.6
X223.0Y-105.0
X223.0Y-111.0
X223.0Y-115.6
X223.0Y-121.6
X223.0Y-121.6
X223.0Y-126.4
X223.0Y-132.4
X223.0Y-137.0
X223.0Y-143.0
X223.2Y-262.6
X223.5Y-144.6
X223.6Y-228.2
X224.094Y-108.421
X224.3Y-107.7
X224.3Y-145.6
X224.7Y-40.3
X224.7Y-50.3
X224.8Y-119.4
X224.8Y-130.2
X224.8Y-140.8
X225.0Y-144.6
X225.8Y-145.6
X226.0Y-229.0
X226.4Y-117.8
X226.4Y-119.4
X226.4Y-128.6
X226.4Y-130.2
X226.4Y-139.2
X226.4Y-140.8
X227.4Y-108.0
X232.8Y-102.4
X232.8Y-109.6
X232.8Y-282.8
X234.2Y-34.6
X234.2Y-39.8
X234.2Y-49.8
X234.2Y-119.8
X234.2Y-129.8
X234.2Y-139.8
X234.2Y-149.8
X234.2Y-159.8
X234.2Y-169.8
X234.2Y-179.8
X234.2Y-189.8
X234.2Y-199.8
X234.2Y-209.8
X234.2Y-219.8
X234.2Y-229.8
X234.2Y-240.8
X234.2Y-250.8
X234.2Y-260.4
X234.2Y-270.8
X234.8Y-109.8
T4
X43.0Y-258.8
X54.0Y-96.0
X159.0Y-235.8
X171.0Y-262.8
X171.2Y-238.8
T5
X208.082Y-186.0
X208.082Y-188.0
X208.082Y-190.0
X208.082Y-192.0
X208.082Y-194.0
X208.082Y-198.0
X208.082Y-200.0
X208.082Y-202.0
X208.082Y-204.0
X208.082Y-206.0
X208.082Y-208.0
X208.082Y-210.0
X208.082Y-212.0
X208.082Y-214.0
X208.082Y-216.0
X208.082Y-218.0
X208.082Y-220.0
X208.082Y-222.0
X208.082Y-224.0
X208.082Y-226.0
X208.082Y-228.0
X208.082Y-230.0
X208.082Y-232.0
X208.082Y-234.0
X210.082Y-185.0
X210.082Y-187.0
X210.082Y-189.0
X210.082Y-191.0
X210.082Y-193.0
X210.082Y-195.0
X210.082Y-199.0
X210.082Y-201.0
X210.082Y-203.0
X210.082Y-205.0
X210.082Y-207.0
X210.082Y-209.0
X210.082Y-211.0
X210.082Y-213.0
X210.082Y-215.0
X210.082Y-217.0
X210.082Y-219.0
X210.082Y-221.0
X210.082Y-223.0
X210.082Y-225.0
X210.082Y-227.0
X210.082Y-229.0
X210.082Y-231.0
X210.082Y-233.0
X210.082Y-235.0
X213.082Y-185.0
X213.082Y-187.0
X213.082Y-189.0
X213.082Y-191.0
X213.082Y-193.0
X213.082Y-195.0
X213.082Y-199.0
X213.082Y-201.0
X213.082Y-203.0
X213.082Y-205.0
X213.082Y-207.0
X213.082Y-209.0
X213.082Y-211.0
X213.082Y-213.0
X213.082Y-215.0
X213.082Y-217.0
X213.082Y-219.0
X213.082Y-221.0
X213.082Y-223.0
X213.082Y-225.0
X213.082Y-227.0
X213.082Y-229.0
X213.082Y-231.0
X213.082Y-233.0
X213.082Y-235.0
X215.082Y-186.0
X215.082Y-188.0
X215.082Y-190.0
X215.082Y-192.0
X215.082Y-194.0
X215.082Y-198.0
X215.082Y-200.0
X215.082Y-202.0
X215.082Y-204.0
X215.082Y-206.0
X215.082Y-208.0
X215.082Y-210.0
X215.082Y-212.0
X215.082Y-214.0
X215.082Y-216.0
X215.082Y-218.0
X215.082Y-220.0
X215.082Y-222.0
X215.082Y-224.0
X215.082Y-226.0
X215.082Y-228.0
X215.082Y-230.0
X215.082Y-232.0
X215.082Y-234.0
X136.962Y-186.0
X136.962Y-188.0
X136.962Y-190.0
X136.962Y-192.0
X136.962Y-194.0
X136.962Y-198.0
X136.962Y-200.0
X136.962Y-202.0
X136.962Y-204.0
X136.962Y-206.0
X136.962Y-208.0
X136.962Y-210.0
X136.962Y-212.0
X136.962Y-214.0
X136.962Y-216.0
X136.962Y-218.0
X136.962Y-220.0
X136.962Y-222.0
X136.962Y-224.0
X136.962Y-226.0
X136.962Y-228.0
X136.962Y-230.0
X136.962Y-232.0
X136.962Y-234.0
X138.962Y-185.0
X138.962Y-187.0
X138.962Y-189.0
X138.962Y-191.0
X138.962Y-193.0
X138.962Y-195.0
X138.962Y-199.0
X138.962Y-201.0
X138.962Y-203.0
X138.962Y-205.0
X138.962Y-207.0
X138.962Y-209.0
X138.962Y-211.0
X138.962Y-213.0
X138.962Y-215.0
X138.962Y-217.0
X138.962Y-219.0
X138.962Y-221.0
X138.962Y-223.0
X138.962Y-225.0
X138.962Y-227.0
X138.962Y-229.0
X138.962Y-231.0
X138.962Y-233.0
X138.962Y-235.0
X141.962Y-185.0
X141.962Y-187.0
X141.962Y-189.0
X141.962Y-191.0
X141.962Y-193.0
X141.962Y-195.0
X141.962Y-199.0
X141.962Y-201.0
X141.962Y-203.0
X141.962Y-205.0
X141.962Y-207.0
X141.962Y-209.0
X141.962Y-211.0
X141.962Y-213.0
X141.962Y-215.0
X141.962Y-217.0
X141.962Y-219.0
X141.962Y-221.0
X141.962Y-223.0
X141.962Y-225.0
X141.962Y-227.0
X141.962Y-229.0
X141.962Y-231.0
X141.962Y-233.0
X141.962Y-235.0
X143.962Y-186.0
X143.962Y-188.0
X143.962Y-190.0
X143.962Y-192.0
X143.962Y-194.0
X143.962Y-198.0
X143.962Y-200.0
X143.962Y-202.0
X143.962Y-204.0
X143.962Y-206.0
X143.962Y-208.0
X143.962Y-210.0
X143.962Y-212.0
X143.962Y-214.0
X143.962Y-216.0
X143.962Y-218.0
X143.962Y-220.0
X143.962Y-222.0
X143.962Y-224.0
X143.962Y-226.0
X143.962Y-228.0
X143.962Y-230.0
X143.962Y-232.0
X143.962Y-234.0
X172.522Y-186.0
X172.522Y-188.0
X172.522Y-190.0
X172.522Y-192.0
X172.522Y-194.0
X172.522Y-198.0
X172.522Y-200.0
X172.522Y-202.0
X172.522Y-204.0
X172.522Y-206.0
X172.522Y-208.0
X172.522Y-210.0
X172.522Y-212.0
X172.522Y-214.0
X172.522Y-216.0
X172.522Y-218.0
X172.522Y-220.0
X172.522Y-222.0
X172.522Y-224.0
X172.522Y-226.0
X172.522Y-228.0
X172.522Y-230.0
X172.522Y-232.0
X172.522Y-234.0
X174.522Y-185.0
X174.522Y-187.0
X174.522Y-189.0
X174.522Y-191.0
X174.522Y-193.0
X174.522Y-195.0
X174.522Y-199.0
X174.522Y-201.0
X174.522Y-203.0
X174.522Y-205.0
X174.522Y-207.0
X174.522Y-209.0
X174.522Y-211.0
X174.522Y-213.0
X174.522Y-215.0
X174.522Y-217.0
X174.522Y-219.0
X174.522Y-221.0
X174.522Y-223.0
X174.522Y-225.0
X174.522Y-227.0
X174.522Y-229.0
X174.522Y-231.0
X174.522Y-233.0
X174.522Y-235.0
X177.522Y-185.0
X177.522Y-187.0
X177.522Y-189.0
X177.522Y-191.0
X177.522Y-193.0
X177.522Y-195.0
X177.522Y-199.0
X177.522Y-201.0
X177.522Y-203.0
X177.522Y-205.0
X177.522Y-207.0
X177.522Y-209.0
X177.522Y-211.0
X177.522Y-213.0
X177.522Y-215.0
X177.522Y-217.0
X177.522Y-219.0
X177.522Y-221.0
X177.522Y-223.0
X177.522Y-225.0
X177.522Y-227.0
X177.522Y-229.0
X177.522Y-231.0
X177.522Y-233.0
X177.522Y-235.0
X179.522Y-186.0
X179.522Y-188.0
X179.522Y-190.0
X179.522Y-192.0
X179.522Y-194.0
X179.522Y-198.0
X179.522Y-200.0
X179.522Y-202.0
X179.522Y-204.0
X179.522Y-206.0
X179.522Y-208.0
X179.522Y-210.0
X179.522Y-212.0
X179.522Y-214.0
X179.522Y-216.0
X179.522Y-218.0
X179.522Y-220.0
X179.522Y-222.0
X179.522Y-224.0
X179.522Y-226.0
X179.522Y-228.0
X179.522Y-230.0
X179.522Y-232.0
X179.522Y-234.0
X60.762Y-186.0
X60.762Y-188.0
X60.762Y-190.0
X60.762Y-192.0
X60.762Y-194.0
X60.762Y-198.0
X60.762Y-200.0
X60.762Y-202.0
X60.762Y-204.0
X60.762Y-206.0
X60.762Y-208.0
X60.762Y-210.0
X60.762Y-212.0
X60.762Y-214.0
X60.762Y-216.0
X60.762Y-218.0
X60.762Y-220.0
X60.762Y-222.0
X60.762Y-224.0
X60.762Y-226.0
X60.762Y-228.0
X60.762Y-230.0
X60.762Y-232.0
X60.762Y-234.0
X62.762Y-185.0
X62.762Y-187.0
X62.762Y-189.0
X62.762Y-191.0
X62.762Y-193.0
X62.762Y-195.0
X62.762Y-199.0
X62.762Y-201.0
X62.762Y-203.0
X62.762Y-205.0
X62.762Y-207.0
X62.762Y-209.0
X62.762Y-211.0
X62.762Y-213.0
X62.762Y-215.0
X62.762Y-217.0
X62.762Y-219.0
X62.762Y-221.0
X62.762Y-223.0
X62.762Y-225.0
X62.762Y-227.0
X62.762Y-229.0
X62.762Y-231.0
X62.762Y-233.0
X62.762Y-235.0
X65.762Y-185.0
X65.762Y-187.0
X65.762Y-189.0
X65.762Y-191.0
X65.762Y-193.0
X65.762Y-195.0
X65.762Y-199.0
X65.762Y-201.0
X65.762Y-203.0
X65.762Y-205.0
X65.762Y-207.0
X65.762Y-209.0
X65.762Y-211.0
X65.762Y-213.0
X65.762Y-215.0
X65.762Y-217.0
X65.762Y-219.0
X65.762Y-221.0
X65.762Y-223.0
X65.762Y-225.0
X65.762Y-227.0
X65.762Y-229.0
X65.762Y-231.0
X65.762Y-233.0
X65.762Y-235.0
X67.762Y-186.0
X67.762Y-188.0
X67.762Y-190.0
X67.762Y-192.0
X67.762Y-194.0
X67.762Y-198.0
X67.762Y-200.0
X67.762Y-202.0
X67.762Y-204.0
X67.762Y-206.0
X67.762Y-208.0
X67.762Y-210.0
X67.762Y-212.0
X67.762Y-214.0
X67.762Y-216.0
X67.762Y-218.0
X67.762Y-220.0
X67.762Y-222.0
X67.762Y-224.0
X67.762Y-226.0
X67.762Y-228.0
X67.762Y-230.0
X67.762Y-232.0
X67.762Y-234.0
X101.402Y-186.0
X101.402Y-188.0
X101.402Y-190.0
X101.402Y-192.0
X101.402Y-194.0
X101.402Y-198.0
X101.402Y-200.0
X101.402Y-202.0
X101.402Y-204.0
X101.402Y-206.0
X101.402Y-208.0
X101.402Y-210.0
X101.402Y-212.0
X101.402Y-214.0
X101.402Y-216.0
X101.402Y-218.0
X101.402Y-220.0
X101.402Y-222.0
X101.402Y-224.0
X101.402Y-226.0
X101.402Y-228.0
X101.402Y-230.0
X101.402Y-232.0
X101.402Y-234.0
X103.402Y-185.0
X103.402Y-187.0
X103.402Y-189.0
X103.402Y-191.0
X103.402Y-193.0
X103.402Y-195.0
X103.402Y-199.0
X103.402Y-201.0
X103.402Y-203.0
X103.402Y-205.0
X103.402Y-207.0
X103.402Y-209.0
X103.402Y-211.0
X103.402Y-213.0
X103.402Y-215.0
X103.402Y-217.0
X103.402Y-219.0
X103.402Y-221.0
X103.402Y-223.0
X103.402Y-225.0
X103.402Y-227.0
X103.402Y-229.0
X103.402Y-231.0
X103.402Y-233.0
X103.402Y-235.0
X106.402Y-185.0
X106.402Y-187.0
X106.402Y-189.0
X106.402Y-191.0
X106.402Y-193.0
X106.402Y-195.0
X106.402Y-199.0
X106.402Y-201.0
X106.402Y-203.0
X106.402Y-205.0
X106.402Y-207.0
X106.402Y-209.0
X106.402Y-211.0
X106.402Y-213.0
X106.402Y-215.0
X106.402Y-217.0
X106.402Y-219.0
X106.402Y-221.0
X106.402Y-223.0
X106.402Y-225.0
X106.402Y-227.0
X106.402Y-229.0
X106.402Y-231.0
X106.402Y-233.0
X106.402Y-235.0
X108.402Y-186.0
X108.402Y-188.0
X108.402Y-190.0
X108.402Y-192.0
X108.402Y-194.0
X108.402Y-198.0
X108.402Y-200.0
X108.402Y-202.0
X108.402Y-204.0
X108.402Y-206.0
X108.402Y-208.0
X108.402Y-210.0
X108.402Y-212.0
X108.402Y-214.0
X108.402Y-216.0
X108.402Y-218.0
X108.402Y-220.0
X108.402Y-222.0
X108.402Y-224.0
X108.402Y-226.0
X108.402Y-228.0
X108.402Y-230.0
X108.402Y-232.0
X108.402Y-234.0
T6
X205.73Y-53.13
X205.73Y-55.67
X207.0Y-54.4
X208.27Y-53.13
X208.27Y-55.67
X218.73Y-42.93
X218.73Y-45.47
X220.0Y-44.2
X221.27Y-42.93
X221.27Y-45.47
X228.73Y-42.93
X228.73Y-45.47
X230.0Y-44.2
X231.27Y-42.93
X231.27Y-45.47
X218.73Y-53.13
X218.73Y-55.67
X220.0Y-54.4
X221.27Y-53.13
X221.27Y-55.67
X205.83Y-42.555
X205.83Y-45.095
X207.1Y-43.825
X208.37Y-42.555
X208.37Y-45.095
T7
X172.4Y-74.8
X195.4Y-203.5
X223.0Y-102.0
X143.6Y-82.4
X215.5Y-251.5
X195.4Y-195.8
X41.17Y-65.235
X41.17Y-67.775
X41.17Y-70.315
X41.17Y-72.855
X41.17Y-75.395
X41.17Y-77.935
X41.17Y-80.475
X41.17Y-83.015
X43.71Y-65.235
X43.71Y-67.775
X43.71Y-70.315
X43.71Y-72.855
X43.71Y-75.395
X43.71Y-77.935
X43.71Y-80.475
X43.71Y-83.015
X81.0Y-255.4
X123.0Y-204.0
X199.5Y-251.5
X87.0Y-204.0
X36.4Y-234.0
X97.4Y-250.8
X180.8Y-72.4
X195.4Y-219.2
X163.0Y-251.5
X159.8Y-174.0
X170.2Y-42.66
X170.2Y-45.2
X172.74Y-42.66
X172.74Y-45.2
X175.28Y-42.66
X175.28Y-45.2
X177.82Y-42.66
X177.82Y-45.2
X180.36Y-42.66
X180.36Y-45.2
X182.9Y-42.66
X182.9Y-45.2
X185.44Y-42.66
X185.44Y-45.2
X187.98Y-42.66
X187.98Y-45.2
X185.0Y-275.0
X195.0Y-275.0
X195.4Y-211.2
X185.0Y-267.2
X195.0Y-267.2
X81.0Y-259.0
X156.0Y-251.5
X81.0Y-248.6
X103.7Y-250.8
X110.0Y-250.8
X207.5Y-251.5
X191.5Y-251.5
T8
X123.95Y-273.65
X159.0Y-204.0
X81.95Y-71.8
T9
X100.71Y-55.235
X100.71Y-104.765
X194.69Y-55.235
X194.69Y-104.765
T10
X36.71Y-55.235
X36.71Y-104.765
T11
X125.6Y-57.775
X125.6Y-102.225
T12
X169.8Y-57.775
X169.8Y-102.225
T13
X211.582Y-196.65
X211.582Y-236.8
X140.462Y-196.65
X140.462Y-236.8
X176.022Y-196.65
X176.022Y-236.8
X64.262Y-196.65
X64.262Y-236.8
X104.902Y-196.65
X104.902Y-236.8
T14
X195.58Y-286.755
X73.66Y-286.755
X165.1Y-30.905
X139.7Y-164.255
X104.14Y-30.905
X104.14Y-164.255
X38.1Y-164.255
X43.18Y-30.905
X134.62Y-286.755
X226.06Y-286.755
X43.18Y-286.755
X210.82Y-164.255
X63.5Y-164.255
X175.26Y-164.255
X165.1Y-286.755
X104.14Y-286.755
X226.06Y-30.905
T0
M30
