G04 #@! TF.GenerationSoftware,KiCad,Pcbnew,(5.1.5)-3*
G04 #@! TF.CreationDate,2020-07-24T16:39:48-04:00*
G04 #@! TF.ProjectId,main_board,6d61696e-5f62-46f6-9172-642e6b696361,rev?*
G04 #@! TF.SameCoordinates,Original*
G04 #@! TF.FileFunction,OtherDrawing,Comment*
%FSLAX46Y46*%
G04 Gerber Fmt 4.6, Leading zero omitted, Abs format (unit mm)*
G04 Created by KiCad (PCBNEW (5.1.5)-3) date 2020-07-24 16:39:48*
%MOMM*%
%LPD*%
G04 APERTURE LIST*
%ADD10C,0.150000*%
%ADD11C,0.120000*%
G04 APERTURE END LIST*
D10*
X29628571Y-150542857D02*
X29628571Y-149342857D01*
X30028571Y-150200000D01*
X30428571Y-149342857D01*
X30428571Y-150542857D01*
X30999999Y-150542857D02*
X30999999Y-149742857D01*
X30999999Y-149342857D02*
X30942857Y-149400000D01*
X30999999Y-149457142D01*
X31057142Y-149400000D01*
X30999999Y-149342857D01*
X30999999Y-149457142D01*
X32085714Y-150542857D02*
X32085714Y-149342857D01*
X32085714Y-150485714D02*
X31971428Y-150542857D01*
X31742857Y-150542857D01*
X31628571Y-150485714D01*
X31571428Y-150428571D01*
X31514285Y-150314285D01*
X31514285Y-149971428D01*
X31571428Y-149857142D01*
X31628571Y-149800000D01*
X31742857Y-149742857D01*
X31971428Y-149742857D01*
X32085714Y-149800000D01*
X33171428Y-150542857D02*
X33171428Y-149342857D01*
X33171428Y-150485714D02*
X33057142Y-150542857D01*
X32828571Y-150542857D01*
X32714285Y-150485714D01*
X32657142Y-150428571D01*
X32599999Y-150314285D01*
X32599999Y-149971428D01*
X32657142Y-149857142D01*
X32714285Y-149800000D01*
X32828571Y-149742857D01*
X33057142Y-149742857D01*
X33171428Y-149800000D01*
X33914285Y-150542857D02*
X33799999Y-150485714D01*
X33742857Y-150371428D01*
X33742857Y-149342857D01*
X34828571Y-150485714D02*
X34714285Y-150542857D01*
X34485714Y-150542857D01*
X34371428Y-150485714D01*
X34314285Y-150371428D01*
X34314285Y-149914285D01*
X34371428Y-149800000D01*
X34485714Y-149742857D01*
X34714285Y-149742857D01*
X34828571Y-149800000D01*
X34885714Y-149914285D01*
X34885714Y-150028571D01*
X34314285Y-150142857D01*
X36314285Y-150542857D02*
X36314285Y-149342857D01*
X36314285Y-149800000D02*
X36428571Y-149742857D01*
X36657142Y-149742857D01*
X36771428Y-149800000D01*
X36828571Y-149857142D01*
X36885714Y-149971428D01*
X36885714Y-150314285D01*
X36828571Y-150428571D01*
X36771428Y-150485714D01*
X36657142Y-150542857D01*
X36428571Y-150542857D01*
X36314285Y-150485714D01*
X37571428Y-150542857D02*
X37457142Y-150485714D01*
X37399999Y-150428571D01*
X37342857Y-150314285D01*
X37342857Y-149971428D01*
X37399999Y-149857142D01*
X37457142Y-149800000D01*
X37571428Y-149742857D01*
X37742857Y-149742857D01*
X37857142Y-149800000D01*
X37914285Y-149857142D01*
X37971428Y-149971428D01*
X37971428Y-150314285D01*
X37914285Y-150428571D01*
X37857142Y-150485714D01*
X37742857Y-150542857D01*
X37571428Y-150542857D01*
X38999999Y-150542857D02*
X38999999Y-149914285D01*
X38942857Y-149800000D01*
X38828571Y-149742857D01*
X38599999Y-149742857D01*
X38485714Y-149800000D01*
X38999999Y-150485714D02*
X38885714Y-150542857D01*
X38599999Y-150542857D01*
X38485714Y-150485714D01*
X38428571Y-150371428D01*
X38428571Y-150257142D01*
X38485714Y-150142857D01*
X38599999Y-150085714D01*
X38885714Y-150085714D01*
X38999999Y-150028571D01*
X39571428Y-150542857D02*
X39571428Y-149742857D01*
X39571428Y-149971428D02*
X39628571Y-149857142D01*
X39685714Y-149800000D01*
X39799999Y-149742857D01*
X39914285Y-149742857D01*
X40828571Y-150542857D02*
X40828571Y-149342857D01*
X40828571Y-150485714D02*
X40714285Y-150542857D01*
X40485714Y-150542857D01*
X40371428Y-150485714D01*
X40314285Y-150428571D01*
X40257142Y-150314285D01*
X40257142Y-149971428D01*
X40314285Y-149857142D01*
X40371428Y-149800000D01*
X40485714Y-149742857D01*
X40714285Y-149742857D01*
X40828571Y-149800000D01*
X42257142Y-150485714D02*
X42371428Y-150542857D01*
X42599999Y-150542857D01*
X42714285Y-150485714D01*
X42771428Y-150371428D01*
X42771428Y-150314285D01*
X42714285Y-150200000D01*
X42599999Y-150142857D01*
X42428571Y-150142857D01*
X42314285Y-150085714D01*
X42257142Y-149971428D01*
X42257142Y-149914285D01*
X42314285Y-149800000D01*
X42428571Y-149742857D01*
X42599999Y-149742857D01*
X42714285Y-149800000D01*
X43799999Y-149742857D02*
X43799999Y-150542857D01*
X43285714Y-149742857D02*
X43285714Y-150371428D01*
X43342857Y-150485714D01*
X43457142Y-150542857D01*
X43628571Y-150542857D01*
X43742857Y-150485714D01*
X43799999Y-150428571D01*
X44371428Y-149742857D02*
X44371428Y-150942857D01*
X44371428Y-149800000D02*
X44485714Y-149742857D01*
X44714285Y-149742857D01*
X44828571Y-149800000D01*
X44885714Y-149857142D01*
X44942857Y-149971428D01*
X44942857Y-150314285D01*
X44885714Y-150428571D01*
X44828571Y-150485714D01*
X44714285Y-150542857D01*
X44485714Y-150542857D01*
X44371428Y-150485714D01*
X45457142Y-149742857D02*
X45457142Y-150942857D01*
X45457142Y-149800000D02*
X45571428Y-149742857D01*
X45799999Y-149742857D01*
X45914285Y-149800000D01*
X45971428Y-149857142D01*
X46028571Y-149971428D01*
X46028571Y-150314285D01*
X45971428Y-150428571D01*
X45914285Y-150485714D01*
X45799999Y-150542857D01*
X45571428Y-150542857D01*
X45457142Y-150485714D01*
X46714285Y-150542857D02*
X46599999Y-150485714D01*
X46542857Y-150428571D01*
X46485714Y-150314285D01*
X46485714Y-149971428D01*
X46542857Y-149857142D01*
X46599999Y-149800000D01*
X46714285Y-149742857D01*
X46885714Y-149742857D01*
X46999999Y-149800000D01*
X47057142Y-149857142D01*
X47114285Y-149971428D01*
X47114285Y-150314285D01*
X47057142Y-150428571D01*
X46999999Y-150485714D01*
X46885714Y-150542857D01*
X46714285Y-150542857D01*
X47628571Y-150542857D02*
X47628571Y-149742857D01*
X47628571Y-149971428D02*
X47685714Y-149857142D01*
X47742857Y-149800000D01*
X47857142Y-149742857D01*
X47971428Y-149742857D01*
X48199999Y-149742857D02*
X48657142Y-149742857D01*
X48371428Y-149342857D02*
X48371428Y-150371428D01*
X48428571Y-150485714D01*
X48542857Y-150542857D01*
X48657142Y-150542857D01*
X49971428Y-150542857D02*
X49971428Y-149342857D01*
X50085714Y-150085714D02*
X50428571Y-150542857D01*
X50428571Y-149742857D02*
X49971428Y-150200000D01*
X51399999Y-150485714D02*
X51285714Y-150542857D01*
X51057142Y-150542857D01*
X50942857Y-150485714D01*
X50885714Y-150371428D01*
X50885714Y-149914285D01*
X50942857Y-149800000D01*
X51057142Y-149742857D01*
X51285714Y-149742857D01*
X51399999Y-149800000D01*
X51457142Y-149914285D01*
X51457142Y-150028571D01*
X50885714Y-150142857D01*
X52428571Y-150485714D02*
X52314285Y-150542857D01*
X52085714Y-150542857D01*
X51971428Y-150485714D01*
X51914285Y-150371428D01*
X51914285Y-149914285D01*
X51971428Y-149800000D01*
X52085714Y-149742857D01*
X52314285Y-149742857D01*
X52428571Y-149800000D01*
X52485714Y-149914285D01*
X52485714Y-150028571D01*
X51914285Y-150142857D01*
X53000000Y-149742857D02*
X53000000Y-150942857D01*
X53000000Y-149800000D02*
X53114285Y-149742857D01*
X53342857Y-149742857D01*
X53457142Y-149800000D01*
X53514285Y-149857142D01*
X53571428Y-149971428D01*
X53571428Y-150314285D01*
X53514285Y-150428571D01*
X53457142Y-150485714D01*
X53342857Y-150542857D01*
X53114285Y-150542857D01*
X53000000Y-150485714D01*
X54257142Y-150542857D02*
X54142857Y-150485714D01*
X54085714Y-150428571D01*
X54028571Y-150314285D01*
X54028571Y-149971428D01*
X54085714Y-149857142D01*
X54142857Y-149800000D01*
X54257142Y-149742857D01*
X54428571Y-149742857D01*
X54542857Y-149800000D01*
X54600000Y-149857142D01*
X54657142Y-149971428D01*
X54657142Y-150314285D01*
X54600000Y-150428571D01*
X54542857Y-150485714D01*
X54428571Y-150542857D01*
X54257142Y-150542857D01*
X55685714Y-149742857D02*
X55685714Y-150542857D01*
X55171428Y-149742857D02*
X55171428Y-150371428D01*
X55228571Y-150485714D01*
X55342857Y-150542857D01*
X55514285Y-150542857D01*
X55628571Y-150485714D01*
X55685714Y-150428571D01*
X56085714Y-149742857D02*
X56542857Y-149742857D01*
X56257142Y-149342857D02*
X56257142Y-150371428D01*
X56314285Y-150485714D01*
X56428571Y-150542857D01*
X56542857Y-150542857D01*
X236000000Y-148000000D02*
X28000000Y-148000000D01*
X236000000Y-169000000D02*
X236000000Y-148000000D01*
X28000000Y-169000000D02*
X236000000Y-169000000D01*
X28000000Y-148000000D02*
X28000000Y-169000000D01*
X65043333Y-112752379D02*
X64852857Y-112752379D01*
X64757619Y-112799999D01*
X64710000Y-112847618D01*
X64614761Y-112990475D01*
X64567142Y-113180951D01*
X64567142Y-113561903D01*
X64614761Y-113657141D01*
X64662380Y-113704760D01*
X64757619Y-113752379D01*
X64948095Y-113752379D01*
X65043333Y-113704760D01*
X65090952Y-113657141D01*
X65138571Y-113561903D01*
X65138571Y-113323808D01*
X65090952Y-113228570D01*
X65043333Y-113180951D01*
X64948095Y-113133332D01*
X64757619Y-113133332D01*
X64662380Y-113180951D01*
X64614761Y-113228570D01*
X64567142Y-113323808D01*
X65995714Y-113085713D02*
X65995714Y-113752379D01*
X65757619Y-112704760D02*
X65519523Y-113419046D01*
X66138571Y-113419046D01*
X66519523Y-113657141D02*
X66567142Y-113704760D01*
X66519523Y-113752379D01*
X66471904Y-113704760D01*
X66519523Y-113657141D01*
X66519523Y-113752379D01*
X67186190Y-112752379D02*
X67281428Y-112752379D01*
X67376666Y-112799999D01*
X67424285Y-112847618D01*
X67471904Y-112942856D01*
X67519523Y-113133332D01*
X67519523Y-113371427D01*
X67471904Y-113561903D01*
X67424285Y-113657141D01*
X67376666Y-113704760D01*
X67281428Y-113752379D01*
X67186190Y-113752379D01*
X67090952Y-113704760D01*
X67043333Y-113657141D01*
X66995714Y-113561903D01*
X66948095Y-113371427D01*
X66948095Y-113133332D01*
X66995714Y-112942856D01*
X67043333Y-112847618D01*
X67090952Y-112799999D01*
X67186190Y-112752379D01*
X68138571Y-112752379D02*
X68233809Y-112752379D01*
X68329047Y-112799999D01*
X68376666Y-112847618D01*
X68424285Y-112942856D01*
X68471904Y-113133332D01*
X68471904Y-113371427D01*
X68424285Y-113561903D01*
X68376666Y-113657141D01*
X68329047Y-113704760D01*
X68233809Y-113752379D01*
X68138571Y-113752379D01*
X68043333Y-113704760D01*
X67995714Y-113657141D01*
X67948095Y-113561903D01*
X67900476Y-113371427D01*
X67900476Y-113133332D01*
X67948095Y-112942856D01*
X67995714Y-112847618D01*
X68043333Y-112799999D01*
X68138571Y-112752379D01*
X69090952Y-112752379D02*
X69186190Y-112752379D01*
X69281428Y-112799999D01*
X69329047Y-112847618D01*
X69376666Y-112942856D01*
X69424285Y-113133332D01*
X69424285Y-113371427D01*
X69376666Y-113561903D01*
X69329047Y-113657141D01*
X69281428Y-113704760D01*
X69186190Y-113752379D01*
X69090952Y-113752379D01*
X68995714Y-113704760D01*
X68948095Y-113657141D01*
X68900476Y-113561903D01*
X68852857Y-113371427D01*
X68852857Y-113133332D01*
X68900476Y-112942856D01*
X68948095Y-112847618D01*
X68995714Y-112799999D01*
X69090952Y-112752379D01*
X70614761Y-113752379D02*
X70614761Y-113085713D01*
X70614761Y-113180951D02*
X70662380Y-113133332D01*
X70757619Y-113085713D01*
X70900476Y-113085713D01*
X70995714Y-113133332D01*
X71043333Y-113228570D01*
X71043333Y-113752379D01*
X71043333Y-113228570D02*
X71090952Y-113133332D01*
X71186190Y-113085713D01*
X71329047Y-113085713D01*
X71424285Y-113133332D01*
X71471904Y-113228570D01*
X71471904Y-113752379D01*
X71948095Y-113752379D02*
X71948095Y-113085713D01*
X71948095Y-113180951D02*
X71995714Y-113133332D01*
X72090952Y-113085713D01*
X72233809Y-113085713D01*
X72329047Y-113133332D01*
X72376666Y-113228570D01*
X72376666Y-113752379D01*
X72376666Y-113228570D02*
X72424285Y-113133332D01*
X72519523Y-113085713D01*
X72662380Y-113085713D01*
X72757619Y-113133332D01*
X72805238Y-113228570D01*
X72805238Y-113752379D01*
X36710000Y-111999999D02*
X100710000Y-111999999D01*
X36710000Y-110300000D02*
X36710000Y-112586420D01*
X100710000Y-110300000D02*
X100710000Y-112586420D01*
X100710000Y-111999999D02*
X99583496Y-112586420D01*
X100710000Y-111999999D02*
X99583496Y-111413578D01*
X36710000Y-111999999D02*
X37836504Y-112586420D01*
X36710000Y-111999999D02*
X37836504Y-111413578D01*
X31062380Y-63806428D02*
X31062380Y-64377857D01*
X31062380Y-64092142D02*
X30062380Y-64092142D01*
X30205238Y-64187380D01*
X30300476Y-64282619D01*
X30348095Y-64377857D01*
X30062380Y-63187380D02*
X30062380Y-63092142D01*
X30110000Y-62996904D01*
X30157619Y-62949285D01*
X30252857Y-62901666D01*
X30443333Y-62854047D01*
X30681428Y-62854047D01*
X30871904Y-62901666D01*
X30967142Y-62949285D01*
X31014761Y-62996904D01*
X31062380Y-63092142D01*
X31062380Y-63187380D01*
X31014761Y-63282619D01*
X30967142Y-63330238D01*
X30871904Y-63377857D01*
X30681428Y-63425476D01*
X30443333Y-63425476D01*
X30252857Y-63377857D01*
X30157619Y-63330238D01*
X30110000Y-63282619D01*
X30062380Y-63187380D01*
X30967142Y-62425476D02*
X31014761Y-62377857D01*
X31062380Y-62425476D01*
X31014761Y-62473095D01*
X30967142Y-62425476D01*
X31062380Y-62425476D01*
X30062380Y-61758809D02*
X30062380Y-61663571D01*
X30110000Y-61568333D01*
X30157619Y-61520714D01*
X30252857Y-61473095D01*
X30443333Y-61425476D01*
X30681428Y-61425476D01*
X30871904Y-61473095D01*
X30967142Y-61520714D01*
X31014761Y-61568333D01*
X31062380Y-61663571D01*
X31062380Y-61758809D01*
X31014761Y-61854047D01*
X30967142Y-61901666D01*
X30871904Y-61949285D01*
X30681428Y-61996904D01*
X30443333Y-61996904D01*
X30252857Y-61949285D01*
X30157619Y-61901666D01*
X30110000Y-61854047D01*
X30062380Y-61758809D01*
X30062380Y-60806428D02*
X30062380Y-60711190D01*
X30110000Y-60615952D01*
X30157619Y-60568333D01*
X30252857Y-60520714D01*
X30443333Y-60473095D01*
X30681428Y-60473095D01*
X30871904Y-60520714D01*
X30967142Y-60568333D01*
X31014761Y-60615952D01*
X31062380Y-60711190D01*
X31062380Y-60806428D01*
X31014761Y-60901666D01*
X30967142Y-60949285D01*
X30871904Y-60996904D01*
X30681428Y-61044523D01*
X30443333Y-61044523D01*
X30252857Y-60996904D01*
X30157619Y-60949285D01*
X30110000Y-60901666D01*
X30062380Y-60806428D01*
X30062380Y-59854047D02*
X30062380Y-59758809D01*
X30110000Y-59663571D01*
X30157619Y-59615952D01*
X30252857Y-59568333D01*
X30443333Y-59520714D01*
X30681428Y-59520714D01*
X30871904Y-59568333D01*
X30967142Y-59615952D01*
X31014761Y-59663571D01*
X31062380Y-59758809D01*
X31062380Y-59854047D01*
X31014761Y-59949285D01*
X30967142Y-59996904D01*
X30871904Y-60044523D01*
X30681428Y-60092142D01*
X30443333Y-60092142D01*
X30252857Y-60044523D01*
X30157619Y-59996904D01*
X30110000Y-59949285D01*
X30062380Y-59854047D01*
X31062380Y-58330238D02*
X30395714Y-58330238D01*
X30490952Y-58330238D02*
X30443333Y-58282619D01*
X30395714Y-58187380D01*
X30395714Y-58044523D01*
X30443333Y-57949285D01*
X30538571Y-57901666D01*
X31062380Y-57901666D01*
X30538571Y-57901666D02*
X30443333Y-57854047D01*
X30395714Y-57758809D01*
X30395714Y-57615952D01*
X30443333Y-57520714D01*
X30538571Y-57473095D01*
X31062380Y-57473095D01*
X31062380Y-56996904D02*
X30395714Y-56996904D01*
X30490952Y-56996904D02*
X30443333Y-56949285D01*
X30395714Y-56854047D01*
X30395714Y-56711190D01*
X30443333Y-56615952D01*
X30538571Y-56568333D01*
X31062380Y-56568333D01*
X30538571Y-56568333D02*
X30443333Y-56520714D01*
X30395714Y-56425476D01*
X30395714Y-56282619D01*
X30443333Y-56187380D01*
X30538571Y-56139761D01*
X31062380Y-56139761D01*
X31910000Y-55235000D02*
X31910000Y-65235000D01*
X32710000Y-55235000D02*
X31323579Y-55235000D01*
X32710000Y-65235000D02*
X31323579Y-65235000D01*
X31910000Y-65235000D02*
X31323579Y-64108496D01*
X31910000Y-65235000D02*
X32496421Y-64108496D01*
X31910000Y-55235000D02*
X31323579Y-56361504D01*
X31910000Y-55235000D02*
X32496421Y-56361504D01*
X32710000Y-65235000D02*
X39310000Y-65235000D01*
X36495714Y-46752380D02*
X37162380Y-46752380D01*
X36733809Y-47752380D01*
X37543333Y-47657142D02*
X37590952Y-47704761D01*
X37543333Y-47752380D01*
X37495714Y-47704761D01*
X37543333Y-47657142D01*
X37543333Y-47752380D01*
X38210000Y-46752380D02*
X38305238Y-46752380D01*
X38400476Y-46800000D01*
X38448095Y-46847619D01*
X38495714Y-46942857D01*
X38543333Y-47133333D01*
X38543333Y-47371428D01*
X38495714Y-47561904D01*
X38448095Y-47657142D01*
X38400476Y-47704761D01*
X38305238Y-47752380D01*
X38210000Y-47752380D01*
X38114761Y-47704761D01*
X38067142Y-47657142D01*
X38019523Y-47561904D01*
X37971904Y-47371428D01*
X37971904Y-47133333D01*
X38019523Y-46942857D01*
X38067142Y-46847619D01*
X38114761Y-46800000D01*
X38210000Y-46752380D01*
X39162380Y-46752380D02*
X39257619Y-46752380D01*
X39352857Y-46800000D01*
X39400476Y-46847619D01*
X39448095Y-46942857D01*
X39495714Y-47133333D01*
X39495714Y-47371428D01*
X39448095Y-47561904D01*
X39400476Y-47657142D01*
X39352857Y-47704761D01*
X39257619Y-47752380D01*
X39162380Y-47752380D01*
X39067142Y-47704761D01*
X39019523Y-47657142D01*
X38971904Y-47561904D01*
X38924285Y-47371428D01*
X38924285Y-47133333D01*
X38971904Y-46942857D01*
X39019523Y-46847619D01*
X39067142Y-46800000D01*
X39162380Y-46752380D01*
X40114761Y-46752380D02*
X40210000Y-46752380D01*
X40305238Y-46800000D01*
X40352857Y-46847619D01*
X40400476Y-46942857D01*
X40448095Y-47133333D01*
X40448095Y-47371428D01*
X40400476Y-47561904D01*
X40352857Y-47657142D01*
X40305238Y-47704761D01*
X40210000Y-47752380D01*
X40114761Y-47752380D01*
X40019523Y-47704761D01*
X39971904Y-47657142D01*
X39924285Y-47561904D01*
X39876666Y-47371428D01*
X39876666Y-47133333D01*
X39924285Y-46942857D01*
X39971904Y-46847619D01*
X40019523Y-46800000D01*
X40114761Y-46752380D01*
X41638571Y-47752380D02*
X41638571Y-47085714D01*
X41638571Y-47180952D02*
X41686190Y-47133333D01*
X41781428Y-47085714D01*
X41924285Y-47085714D01*
X42019523Y-47133333D01*
X42067142Y-47228571D01*
X42067142Y-47752380D01*
X42067142Y-47228571D02*
X42114761Y-47133333D01*
X42210000Y-47085714D01*
X42352857Y-47085714D01*
X42448095Y-47133333D01*
X42495714Y-47228571D01*
X42495714Y-47752380D01*
X42971904Y-47752380D02*
X42971904Y-47085714D01*
X42971904Y-47180952D02*
X43019523Y-47133333D01*
X43114761Y-47085714D01*
X43257619Y-47085714D01*
X43352857Y-47133333D01*
X43400476Y-47228571D01*
X43400476Y-47752380D01*
X43400476Y-47228571D02*
X43448095Y-47133333D01*
X43543333Y-47085714D01*
X43686190Y-47085714D01*
X43781428Y-47133333D01*
X43829047Y-47228571D01*
X43829047Y-47752380D01*
X36710000Y-48600000D02*
X43710000Y-48600000D01*
X36710000Y-49600000D02*
X36710000Y-48013579D01*
X43710000Y-49600000D02*
X43710000Y-48013579D01*
X43710000Y-48600000D02*
X42583496Y-49186421D01*
X43710000Y-48600000D02*
X42583496Y-48013579D01*
X36710000Y-48600000D02*
X37836504Y-49186421D01*
X36710000Y-48600000D02*
X37836504Y-48013579D01*
X43710000Y-63400000D02*
X43710000Y-49600000D01*
X36710000Y-51500000D02*
X36710000Y-49600000D01*
X100710000Y-110300000D02*
X100710000Y-108400000D01*
X36710000Y-110300000D02*
X36710000Y-108400000D01*
X27038314Y-83663601D02*
X27704980Y-83664947D01*
X26656882Y-83900927D02*
X27370686Y-84140464D01*
X27371935Y-83521417D01*
X27706133Y-83093520D02*
X27706518Y-82903044D01*
X27659091Y-82807710D01*
X27611568Y-82759995D01*
X27468904Y-82664468D01*
X27278524Y-82616465D01*
X26897573Y-82615696D01*
X26802239Y-82663122D01*
X26754523Y-82710645D01*
X26706712Y-82805787D01*
X26706328Y-82996263D01*
X26753754Y-83091597D01*
X26801277Y-83139312D01*
X26896419Y-83187123D01*
X27134514Y-83187604D01*
X27229848Y-83140177D01*
X27277563Y-83092654D01*
X27325374Y-82997513D01*
X27325759Y-82807037D01*
X27278332Y-82711703D01*
X27230809Y-82663988D01*
X27135667Y-82616176D01*
X27612722Y-82188567D02*
X27660437Y-82141044D01*
X27707960Y-82188760D01*
X27660245Y-82236282D01*
X27612722Y-82188567D01*
X27707960Y-82188760D01*
X26709885Y-81234362D02*
X26708923Y-81710551D01*
X27185017Y-81759131D01*
X27137494Y-81711416D01*
X27090067Y-81616082D01*
X27090548Y-81377988D01*
X27138359Y-81282846D01*
X27186074Y-81235323D01*
X27281408Y-81187896D01*
X27519503Y-81188377D01*
X27614645Y-81236188D01*
X27662168Y-81283903D01*
X27709594Y-81379237D01*
X27709114Y-81617332D01*
X27661302Y-81712474D01*
X27613587Y-81759997D01*
X26710654Y-80853410D02*
X26711904Y-80234364D01*
X27092182Y-80568465D01*
X27092471Y-80425609D01*
X27140282Y-80330467D01*
X27187997Y-80282944D01*
X27283331Y-80235517D01*
X27521426Y-80235998D01*
X27616568Y-80283809D01*
X27664091Y-80331524D01*
X27711517Y-80426858D01*
X27710940Y-80712572D01*
X27663129Y-80807714D01*
X27615414Y-80855237D01*
X26713154Y-79615317D02*
X26713346Y-79520079D01*
X26761157Y-79424938D01*
X26808872Y-79377415D01*
X26904206Y-79329988D01*
X27094778Y-79282754D01*
X27332873Y-79283234D01*
X27523253Y-79331238D01*
X27618394Y-79379049D01*
X27665917Y-79426764D01*
X27713344Y-79522098D01*
X27713152Y-79617336D01*
X27665340Y-79712478D01*
X27617625Y-79760001D01*
X27522291Y-79807427D01*
X27331719Y-79854662D01*
X27093625Y-79854181D01*
X26903245Y-79806178D01*
X26808103Y-79758366D01*
X26760580Y-79710651D01*
X26713154Y-79615317D01*
X27716228Y-78093530D02*
X27049563Y-78092184D01*
X27144801Y-78092376D02*
X27097278Y-78044661D01*
X27049851Y-77949327D01*
X27050140Y-77806470D01*
X27097951Y-77711328D01*
X27193285Y-77663902D01*
X27717093Y-77664959D01*
X27193285Y-77663902D02*
X27098143Y-77616090D01*
X27050717Y-77520756D01*
X27051005Y-77377900D01*
X27098816Y-77282758D01*
X27194150Y-77235331D01*
X27717959Y-77236389D01*
X27718920Y-76760199D02*
X27052255Y-76758853D01*
X27147493Y-76759046D02*
X27099970Y-76711330D01*
X27052543Y-76615996D01*
X27052832Y-76473140D01*
X27100643Y-76377998D01*
X27195977Y-76330571D01*
X27719785Y-76331629D01*
X27195977Y-76330571D02*
X27100835Y-76282760D01*
X27053409Y-76187426D01*
X27053697Y-76044569D01*
X27101508Y-75949427D01*
X27196842Y-75902001D01*
X27720651Y-75903058D01*
X28610000Y-55235000D02*
X28510000Y-104765000D01*
X28610000Y-55235000D02*
X28023580Y-55233816D01*
X28510000Y-104765000D02*
X27923580Y-104763816D01*
X28510000Y-104765000D02*
X27925855Y-103637315D01*
X28510000Y-104765000D02*
X29098694Y-103639683D01*
X28610000Y-55235000D02*
X28021306Y-56360317D01*
X28610000Y-55235000D02*
X29194145Y-56362685D01*
X28510000Y-104765000D02*
X32710000Y-104765000D01*
X28610000Y-55235000D02*
X32710000Y-55235000D01*
X190873428Y-245024380D02*
X190302000Y-245024380D01*
X190587714Y-245024380D02*
X190587714Y-244024380D01*
X190492476Y-244167238D01*
X190397238Y-244262476D01*
X190302000Y-244310095D01*
X191302000Y-244929142D02*
X191349619Y-244976761D01*
X191302000Y-245024380D01*
X191254380Y-244976761D01*
X191302000Y-244929142D01*
X191302000Y-245024380D01*
X192206761Y-244357714D02*
X192206761Y-245024380D01*
X191968666Y-243976761D02*
X191730571Y-244691047D01*
X192349619Y-244691047D01*
X192921047Y-244024380D02*
X193016285Y-244024380D01*
X193111523Y-244072000D01*
X193159142Y-244119619D01*
X193206761Y-244214857D01*
X193254380Y-244405333D01*
X193254380Y-244643428D01*
X193206761Y-244833904D01*
X193159142Y-244929142D01*
X193111523Y-244976761D01*
X193016285Y-245024380D01*
X192921047Y-245024380D01*
X192825809Y-244976761D01*
X192778190Y-244929142D01*
X192730571Y-244833904D01*
X192682952Y-244643428D01*
X192682952Y-244405333D01*
X192730571Y-244214857D01*
X192778190Y-244119619D01*
X192825809Y-244072000D01*
X192921047Y-244024380D01*
X193873428Y-244024380D02*
X193968666Y-244024380D01*
X194063904Y-244072000D01*
X194111523Y-244119619D01*
X194159142Y-244214857D01*
X194206761Y-244405333D01*
X194206761Y-244643428D01*
X194159142Y-244833904D01*
X194111523Y-244929142D01*
X194063904Y-244976761D01*
X193968666Y-245024380D01*
X193873428Y-245024380D01*
X193778190Y-244976761D01*
X193730571Y-244929142D01*
X193682952Y-244833904D01*
X193635333Y-244643428D01*
X193635333Y-244405333D01*
X193682952Y-244214857D01*
X193730571Y-244119619D01*
X193778190Y-244072000D01*
X193873428Y-244024380D01*
X194825809Y-244024380D02*
X194921047Y-244024380D01*
X195016285Y-244072000D01*
X195063904Y-244119619D01*
X195111523Y-244214857D01*
X195159142Y-244405333D01*
X195159142Y-244643428D01*
X195111523Y-244833904D01*
X195063904Y-244929142D01*
X195016285Y-244976761D01*
X194921047Y-245024380D01*
X194825809Y-245024380D01*
X194730571Y-244976761D01*
X194682952Y-244929142D01*
X194635333Y-244833904D01*
X194587714Y-244643428D01*
X194587714Y-244405333D01*
X194635333Y-244214857D01*
X194682952Y-244119619D01*
X194730571Y-244072000D01*
X194825809Y-244024380D01*
X196349619Y-245024380D02*
X196349619Y-244357714D01*
X196349619Y-244024380D02*
X196302000Y-244072000D01*
X196349619Y-244119619D01*
X196397238Y-244072000D01*
X196349619Y-244024380D01*
X196349619Y-244119619D01*
X196825809Y-244357714D02*
X196825809Y-245024380D01*
X196825809Y-244452952D02*
X196873428Y-244405333D01*
X196968666Y-244357714D01*
X197111523Y-244357714D01*
X197206761Y-244405333D01*
X197254380Y-244500571D01*
X197254380Y-245024380D01*
X176022000Y-243272000D02*
X211582000Y-243272000D01*
X176022000Y-243272000D02*
X176022000Y-243858421D01*
X211582000Y-243272000D02*
X211582000Y-243858421D01*
X211582000Y-243272000D02*
X210455496Y-243858421D01*
X211582000Y-243272000D02*
X210455496Y-242685579D01*
X176022000Y-243272000D02*
X177148504Y-243858421D01*
X176022000Y-243272000D02*
X177148504Y-242685579D01*
X211582000Y-238954000D02*
X211582000Y-243780000D01*
X155313843Y-245029662D02*
X154742414Y-245029808D01*
X155028128Y-245029735D02*
X155027873Y-244029735D01*
X154932672Y-244172617D01*
X154837458Y-244267879D01*
X154742232Y-244315523D01*
X155742390Y-244934315D02*
X155790021Y-244981922D01*
X155742414Y-245029553D01*
X155694783Y-244981946D01*
X155742390Y-244934315D01*
X155742414Y-245029553D01*
X156647006Y-244362656D02*
X156647176Y-245029322D01*
X156408813Y-243981764D02*
X156170900Y-244696111D01*
X156789948Y-244695953D01*
X157361206Y-244029140D02*
X157456445Y-244029116D01*
X157551695Y-244076711D01*
X157599326Y-244124318D01*
X157646969Y-244219543D01*
X157694637Y-244410008D01*
X157694698Y-244648103D01*
X157647127Y-244838591D01*
X157599532Y-244933841D01*
X157551926Y-244981473D01*
X157456700Y-245029116D01*
X157361462Y-245029140D01*
X157266211Y-244981545D01*
X157218580Y-244933939D01*
X157170937Y-244838713D01*
X157123269Y-244648249D01*
X157123208Y-244410153D01*
X157170779Y-244219665D01*
X157218374Y-244124415D01*
X157265981Y-244076784D01*
X157361206Y-244029140D01*
X158313587Y-244028897D02*
X158408825Y-244028873D01*
X158504076Y-244076468D01*
X158551707Y-244124075D01*
X158599350Y-244219301D01*
X158647018Y-244409765D01*
X158647079Y-244647860D01*
X158599508Y-244838348D01*
X158551913Y-244933598D01*
X158504307Y-244981230D01*
X158409081Y-245028873D01*
X158313842Y-245028897D01*
X158218592Y-244981302D01*
X158170961Y-244933696D01*
X158123318Y-244838470D01*
X158075650Y-244648006D01*
X158075589Y-244409910D01*
X158123160Y-244219422D01*
X158170755Y-244124172D01*
X158218361Y-244076541D01*
X158313587Y-244028897D01*
X159265968Y-244028654D02*
X159361206Y-244028630D01*
X159456457Y-244076225D01*
X159504088Y-244123832D01*
X159551731Y-244219058D01*
X159599399Y-244409522D01*
X159599460Y-244647617D01*
X159551889Y-244838105D01*
X159504294Y-244933355D01*
X159456687Y-244980987D01*
X159361461Y-245028630D01*
X159266223Y-245028654D01*
X159170973Y-244981060D01*
X159123342Y-244933453D01*
X159075699Y-244838227D01*
X159028031Y-244647763D01*
X159027970Y-244409667D01*
X159075541Y-244219179D01*
X159123135Y-244123929D01*
X159170742Y-244076298D01*
X159265968Y-244028654D01*
X160790033Y-245028266D02*
X160789863Y-244361599D01*
X160789778Y-244028266D02*
X160742171Y-244075897D01*
X160789802Y-244123504D01*
X160837409Y-244075872D01*
X160789778Y-244028266D01*
X160789802Y-244123504D01*
X161266053Y-244361477D02*
X161266223Y-245028144D01*
X161266078Y-244456716D02*
X161313684Y-244409084D01*
X161408910Y-244361441D01*
X161551768Y-244361405D01*
X161647018Y-244408999D01*
X161694661Y-244504225D01*
X161694795Y-245028035D01*
X140461935Y-243281071D02*
X176022000Y-243272000D01*
X140461935Y-243281071D02*
X140462085Y-243867492D01*
X176022000Y-243272000D02*
X176022150Y-243858421D01*
X176022000Y-243272000D02*
X174895646Y-243858708D01*
X176022000Y-243272000D02*
X174895347Y-242685867D01*
X140461935Y-243281071D02*
X141588588Y-243867204D01*
X140461935Y-243281071D02*
X141588289Y-242694363D01*
X176022000Y-238954000D02*
X176022000Y-243780000D01*
X119740922Y-244885489D02*
X119169508Y-244881408D01*
X119455215Y-244883448D02*
X119462357Y-243883474D01*
X119366101Y-244025647D01*
X119270185Y-244120202D01*
X119174609Y-244167140D01*
X120170162Y-244793315D02*
X120217440Y-244841273D01*
X120169482Y-244888550D01*
X120122204Y-244840592D01*
X120170162Y-244793315D01*
X120169482Y-244888550D01*
X121078983Y-244228363D02*
X121074221Y-244895013D01*
X120843615Y-243845720D02*
X120600423Y-244558287D01*
X121219455Y-244562708D01*
X121795631Y-243900140D02*
X121890867Y-243900820D01*
X121985762Y-243949118D01*
X122033040Y-243997076D01*
X122079978Y-244092652D01*
X122126235Y-244283464D01*
X122124534Y-244521553D01*
X122075556Y-244711684D01*
X122027258Y-244806580D01*
X121979300Y-244853857D01*
X121883724Y-244900795D01*
X121788488Y-244900115D01*
X121693593Y-244851816D01*
X121646315Y-244803859D01*
X121599378Y-244708283D01*
X121553120Y-244517471D01*
X121554821Y-244279382D01*
X121603799Y-244089251D01*
X121652097Y-243994355D01*
X121700055Y-243947078D01*
X121795631Y-243900140D01*
X122747988Y-243906943D02*
X122843223Y-243907623D01*
X122938119Y-243955921D01*
X122985397Y-244003879D01*
X123032334Y-244099455D01*
X123078592Y-244290266D01*
X123076891Y-244528355D01*
X123027913Y-244718487D01*
X122979614Y-244813382D01*
X122931656Y-244860660D01*
X122836081Y-244907597D01*
X122740845Y-244906917D01*
X122645950Y-244858619D01*
X122598672Y-244810661D01*
X122551734Y-244715085D01*
X122505477Y-244524274D01*
X122507178Y-244286185D01*
X122556156Y-244096053D01*
X122604454Y-244001158D01*
X122652412Y-243953880D01*
X122747988Y-243906943D01*
X123700344Y-243913745D02*
X123795580Y-243914425D01*
X123890476Y-243962724D01*
X123937753Y-244010681D01*
X123984691Y-244106257D01*
X124030948Y-244297069D01*
X124029248Y-244535158D01*
X123980269Y-244725289D01*
X123931971Y-244820185D01*
X123884013Y-244867462D01*
X123788437Y-244914400D01*
X123693202Y-244913720D01*
X123598306Y-244865422D01*
X123551028Y-244817464D01*
X123504091Y-244721888D01*
X123457834Y-244531076D01*
X123459534Y-244292987D01*
X123508513Y-244102856D01*
X123556811Y-244007960D01*
X123604769Y-243960683D01*
X123700344Y-243913745D01*
X125216972Y-244924604D02*
X125221734Y-244257954D01*
X125224115Y-243924629D02*
X125176157Y-243971907D01*
X125223435Y-244019865D01*
X125271393Y-243972587D01*
X125224115Y-243924629D01*
X125223435Y-244019865D01*
X125697912Y-244261355D02*
X125693151Y-244928005D01*
X125697232Y-244356591D02*
X125745190Y-244309313D01*
X125840766Y-244262376D01*
X125983619Y-244263396D01*
X126078515Y-244311694D01*
X126125453Y-244407270D01*
X126121711Y-244931066D01*
X104901935Y-243027071D02*
X140461935Y-243281071D01*
X104902000Y-243018000D02*
X104897747Y-243613477D01*
X140462000Y-243272000D02*
X140457747Y-243867477D01*
X140461935Y-243281071D02*
X139331271Y-243859431D01*
X140461935Y-243281071D02*
X139339649Y-242686619D01*
X104901935Y-243027071D02*
X106024221Y-243621523D01*
X104901935Y-243027071D02*
X106032599Y-242448711D01*
X140462000Y-238954000D02*
X140462000Y-243780000D01*
X81642280Y-244617619D02*
X81070863Y-244613865D01*
X81356571Y-244615742D02*
X81363141Y-243615763D01*
X81266966Y-243757992D01*
X81171104Y-243852602D01*
X81075556Y-243899594D01*
X82071467Y-244525198D02*
X82118773Y-244573129D01*
X82070842Y-244620434D01*
X82023536Y-244572503D01*
X82071467Y-244525198D01*
X82070842Y-244620434D01*
X82982153Y-243626399D02*
X82791681Y-243625148D01*
X82696132Y-243672140D01*
X82648201Y-243719445D01*
X82552027Y-243861674D01*
X82503158Y-244051833D01*
X82500655Y-244432777D01*
X82547648Y-244528326D01*
X82594953Y-244576257D01*
X82689876Y-244624500D01*
X82880348Y-244625752D01*
X82975897Y-244578759D01*
X83023828Y-244531454D01*
X83072071Y-244436531D01*
X83073635Y-244198441D01*
X83026643Y-244102892D01*
X82979338Y-244054961D01*
X82884415Y-244006717D01*
X82693943Y-244005466D01*
X82598394Y-244052459D01*
X82550463Y-244099764D01*
X82502219Y-244194687D01*
X83696424Y-243631091D02*
X83791660Y-243631717D01*
X83886583Y-243679960D01*
X83933888Y-243727891D01*
X83980880Y-243823440D01*
X84027247Y-244014225D01*
X84025683Y-244252315D01*
X83976814Y-244442474D01*
X83928570Y-244537398D01*
X83880639Y-244584703D01*
X83785090Y-244631695D01*
X83689854Y-244631070D01*
X83594931Y-244582826D01*
X83547626Y-244534895D01*
X83500634Y-244439346D01*
X83454267Y-244248561D01*
X83455831Y-244010471D01*
X83504700Y-243820312D01*
X83552944Y-243725389D01*
X83600875Y-243678084D01*
X83696424Y-243631091D01*
X84648784Y-243637347D02*
X84744020Y-243637973D01*
X84838943Y-243686217D01*
X84886248Y-243734148D01*
X84933241Y-243829696D01*
X84979608Y-244020481D01*
X84978043Y-244258571D01*
X84929174Y-244448731D01*
X84880931Y-244543654D01*
X84833000Y-244590959D01*
X84737451Y-244637952D01*
X84642215Y-244637326D01*
X84547292Y-244589082D01*
X84499986Y-244541151D01*
X84452994Y-244445603D01*
X84406627Y-244254818D01*
X84408191Y-244016728D01*
X84457061Y-243826568D01*
X84505304Y-243731645D01*
X84553235Y-243684340D01*
X84648784Y-243637347D01*
X85601144Y-243643604D02*
X85696380Y-243644229D01*
X85791304Y-243692473D01*
X85838609Y-243740404D01*
X85885601Y-243835953D01*
X85931968Y-244026738D01*
X85930404Y-244264828D01*
X85881535Y-244454987D01*
X85833291Y-244549910D01*
X85785360Y-244597215D01*
X85689811Y-244644208D01*
X85594575Y-244643582D01*
X85499652Y-244595339D01*
X85452347Y-244547408D01*
X85405354Y-244451859D01*
X85358988Y-244261074D01*
X85360552Y-244022984D01*
X85409421Y-243832825D01*
X85457665Y-243737901D01*
X85505595Y-243690596D01*
X85601144Y-243643604D01*
X87118352Y-244653592D02*
X87122731Y-243986940D01*
X87124921Y-243653614D02*
X87076990Y-243700919D01*
X87124295Y-243748850D01*
X87172226Y-243701545D01*
X87124921Y-243653614D01*
X87124295Y-243748850D01*
X87598911Y-243990068D02*
X87594532Y-244656720D01*
X87598286Y-244085304D02*
X87646217Y-244037999D01*
X87741766Y-243991007D01*
X87884620Y-243991945D01*
X87979543Y-244040189D01*
X88026535Y-244135738D01*
X88023094Y-244659536D01*
X64262600Y-242751029D02*
X104902000Y-243018000D01*
X64262600Y-242751029D02*
X64258748Y-243337437D01*
X104902000Y-243018000D02*
X104898148Y-243604408D01*
X104902000Y-243018000D02*
X103771668Y-243597008D01*
X104902000Y-243018000D02*
X103779373Y-242424192D01*
X64262600Y-242751029D02*
X65385227Y-243344837D01*
X64262600Y-242751029D02*
X65392932Y-242172021D01*
X25400000Y-249088000D02*
X25400000Y-252088000D01*
X41904078Y-244517793D02*
X41332649Y-244518161D01*
X41618363Y-244517977D02*
X41617720Y-243517977D01*
X41522574Y-243660896D01*
X41427397Y-243756195D01*
X41332190Y-243803875D01*
X42332588Y-244422280D02*
X42380237Y-244469868D01*
X42332649Y-244517518D01*
X42284999Y-244469929D01*
X42332588Y-244422280D01*
X42332649Y-244517518D01*
X43284386Y-243516905D02*
X42808196Y-243517211D01*
X42760883Y-243993432D01*
X42808472Y-243945783D01*
X42903679Y-243898103D01*
X43141774Y-243897949D01*
X43237043Y-243945507D01*
X43284693Y-243993096D01*
X43332373Y-244088303D01*
X43332526Y-244326398D01*
X43284969Y-244421667D01*
X43237380Y-244469317D01*
X43142173Y-244516997D01*
X42904077Y-244517150D01*
X42808809Y-244469592D01*
X42761159Y-244422004D01*
X43665339Y-243516660D02*
X44284386Y-243516262D01*
X43951298Y-243897429D01*
X44094155Y-243897337D01*
X44189424Y-243944894D01*
X44237074Y-243992483D01*
X44284754Y-244087690D01*
X44284907Y-244325785D01*
X44237349Y-244421054D01*
X44189761Y-244468704D01*
X44094553Y-244516384D01*
X43808839Y-244516568D01*
X43713570Y-244469010D01*
X43665921Y-244421422D01*
X44903434Y-243515864D02*
X44998672Y-243515802D01*
X45093941Y-243563360D01*
X45141590Y-243610949D01*
X45189271Y-243706156D01*
X45237012Y-243896601D01*
X45237165Y-244134697D01*
X45189669Y-244325203D01*
X45142111Y-244420472D01*
X45094523Y-244468122D01*
X44999315Y-244515802D01*
X44904077Y-244515863D01*
X44808808Y-244468306D01*
X44761159Y-244420717D01*
X44713478Y-244325510D01*
X44665737Y-244135064D01*
X44665584Y-243896969D01*
X44713080Y-243706462D01*
X44760638Y-243611194D01*
X44808226Y-243563544D01*
X44903434Y-243515864D01*
X45855815Y-243515251D02*
X45951053Y-243515190D01*
X46046321Y-243562747D01*
X46093971Y-243610336D01*
X46141651Y-243705543D01*
X46189393Y-243895989D01*
X46189546Y-244134084D01*
X46142050Y-244324591D01*
X46094492Y-244419859D01*
X46046903Y-244467509D01*
X45951696Y-244515189D01*
X45856458Y-244515251D01*
X45761189Y-244467693D01*
X45713539Y-244420105D01*
X45665859Y-244324897D01*
X45618118Y-244134452D01*
X45617964Y-243896356D01*
X45665461Y-243705850D01*
X45713019Y-243610581D01*
X45760607Y-243562931D01*
X45855815Y-243515251D01*
X47380267Y-244514270D02*
X47379838Y-243847604D01*
X47379624Y-243514271D02*
X47332035Y-243561920D01*
X47379685Y-243609509D01*
X47427273Y-243561859D01*
X47379624Y-243514271D01*
X47379685Y-243609509D01*
X47856029Y-243847298D02*
X47856457Y-244513964D01*
X47856090Y-243942536D02*
X47903678Y-243894886D01*
X47998886Y-243847206D01*
X48141743Y-243847114D01*
X48237011Y-243894672D01*
X48284692Y-243989879D01*
X48285029Y-244513688D01*
X25400522Y-242776029D02*
X64262522Y-242751029D01*
X25400000Y-241965000D02*
X25400899Y-243362449D01*
X64262000Y-241940000D02*
X64262899Y-243337449D01*
X64262522Y-242751029D02*
X63136396Y-243338174D01*
X64262522Y-242751029D02*
X63135641Y-242165333D01*
X25400522Y-242776029D02*
X26527403Y-243361725D01*
X25400522Y-242776029D02*
X26526648Y-242188884D01*
X25400000Y-238965000D02*
X25400000Y-241965000D01*
X230124215Y-229562103D02*
X230122643Y-230133530D01*
X230123429Y-229847816D02*
X229123433Y-229845067D01*
X229266028Y-229940697D01*
X229361003Y-230036197D01*
X229408360Y-230131565D01*
X229125921Y-228940308D02*
X229126183Y-228845070D01*
X229174064Y-228749963D01*
X229221813Y-228702476D01*
X229317182Y-228655119D01*
X229507789Y-228608024D01*
X229745883Y-228608678D01*
X229936227Y-228656821D01*
X230031334Y-228704702D01*
X230078822Y-228752452D01*
X230126179Y-228847820D01*
X230125917Y-228943058D01*
X230078036Y-229038165D01*
X230030287Y-229085653D01*
X229934918Y-229133010D01*
X229744312Y-229180105D01*
X229506217Y-229179450D01*
X229315873Y-229131307D01*
X229220766Y-229083427D01*
X229173278Y-229035677D01*
X229125921Y-228940308D01*
X229128540Y-227987931D02*
X229128802Y-227892693D01*
X229176683Y-227797586D01*
X229224433Y-227750098D01*
X229319801Y-227702741D01*
X229510408Y-227655646D01*
X229748502Y-227656301D01*
X229938846Y-227704444D01*
X230033953Y-227752324D01*
X230081441Y-227800074D01*
X230128798Y-227895443D01*
X230128536Y-227990681D01*
X230080655Y-228085787D01*
X230032906Y-228133275D01*
X229937537Y-228180632D01*
X229746931Y-228227727D01*
X229508836Y-228227073D01*
X229318492Y-228178930D01*
X229223385Y-228131049D01*
X229175897Y-228083299D01*
X229128540Y-227987931D01*
X230035394Y-227228517D02*
X230083144Y-227181029D01*
X230130631Y-227228779D01*
X230082882Y-227276267D01*
X230035394Y-227228517D01*
X230130631Y-227228779D01*
X229132469Y-226559365D02*
X229132730Y-226464127D01*
X229180611Y-226369020D01*
X229228361Y-226321532D01*
X229323730Y-226274175D01*
X229514336Y-226227080D01*
X229752431Y-226227735D01*
X229942775Y-226275878D01*
X230037882Y-226323758D01*
X230085370Y-226371508D01*
X230132727Y-226466877D01*
X230132465Y-226562115D01*
X230084584Y-226657221D01*
X230036834Y-226704709D01*
X229941466Y-226752066D01*
X229750859Y-226799161D01*
X229512765Y-226798507D01*
X229322420Y-226750364D01*
X229227313Y-226702483D01*
X229179826Y-226654733D01*
X229132469Y-226559365D01*
X229135088Y-225606987D02*
X229135350Y-225511750D01*
X229183230Y-225416643D01*
X229230980Y-225369155D01*
X229326349Y-225321798D01*
X229516955Y-225274703D01*
X229755050Y-225275358D01*
X229945394Y-225323500D01*
X230040501Y-225371381D01*
X230087989Y-225419131D01*
X230135346Y-225514500D01*
X230135084Y-225609737D01*
X230087203Y-225704844D01*
X230039453Y-225752332D01*
X229944085Y-225799689D01*
X229753478Y-225846784D01*
X229515384Y-225846129D01*
X229325039Y-225797987D01*
X229229932Y-225750106D01*
X229182445Y-225702356D01*
X229135088Y-225606987D01*
X229137707Y-224654610D02*
X229137969Y-224559372D01*
X229185849Y-224464265D01*
X229233599Y-224416778D01*
X229328968Y-224369421D01*
X229519574Y-224322325D01*
X229757669Y-224322980D01*
X229948013Y-224371123D01*
X230043120Y-224419004D01*
X230090608Y-224466754D01*
X230137965Y-224562122D01*
X230137703Y-224657360D01*
X230089822Y-224752467D01*
X230042072Y-224799955D01*
X229946704Y-224847312D01*
X229756097Y-224894407D01*
X229518003Y-224893752D01*
X229327658Y-224845609D01*
X229232552Y-224797728D01*
X229185064Y-224749979D01*
X229137707Y-224654610D01*
X230141893Y-223133556D02*
X229475229Y-223131723D01*
X229570467Y-223131985D02*
X229522979Y-223084235D01*
X229475622Y-222988866D01*
X229476015Y-222846010D01*
X229523896Y-222750903D01*
X229619264Y-222703546D01*
X230143072Y-222704986D01*
X229619264Y-222703546D02*
X229524158Y-222655665D01*
X229476801Y-222560296D01*
X229477193Y-222417440D01*
X229525074Y-222322333D01*
X229620443Y-222274976D01*
X230144250Y-222276417D01*
X230145560Y-221800228D02*
X229478896Y-221798395D01*
X229574134Y-221798656D02*
X229526646Y-221750907D01*
X229479289Y-221655538D01*
X229479682Y-221512681D01*
X229527562Y-221417575D01*
X229622931Y-221370218D01*
X230146739Y-221371658D01*
X229622931Y-221370218D02*
X229527824Y-221322337D01*
X229480467Y-221226968D01*
X229480860Y-221084112D01*
X229528741Y-220989005D01*
X229624110Y-220941648D01*
X230147917Y-220943088D01*
X228520472Y-175509681D02*
X228245472Y-275509681D01*
X225000000Y-175500000D02*
X229106890Y-175511294D01*
X224725000Y-275500000D02*
X228831890Y-275511294D01*
X228245472Y-275509681D02*
X227662151Y-274381569D01*
X228245472Y-275509681D02*
X228834988Y-274384794D01*
X228520472Y-175509681D02*
X227930956Y-176634568D01*
X228520472Y-175509681D02*
X229103793Y-176637793D01*
X104902000Y-238954000D02*
X104902000Y-242940000D01*
X64262000Y-238940000D02*
X64262000Y-242940000D01*
X72872380Y-183821428D02*
X72872380Y-183630952D01*
X72824761Y-183535714D01*
X72777142Y-183488095D01*
X72634285Y-183392857D01*
X72443809Y-183345238D01*
X72062857Y-183345238D01*
X71967619Y-183392857D01*
X71920000Y-183440476D01*
X71872380Y-183535714D01*
X71872380Y-183726190D01*
X71920000Y-183821428D01*
X71967619Y-183869047D01*
X72062857Y-183916666D01*
X72300952Y-183916666D01*
X72396190Y-183869047D01*
X72443809Y-183821428D01*
X72491428Y-183726190D01*
X72491428Y-183535714D01*
X72443809Y-183440476D01*
X72396190Y-183392857D01*
X72300952Y-183345238D01*
X72777142Y-182916666D02*
X72824761Y-182869047D01*
X72872380Y-182916666D01*
X72824761Y-182964285D01*
X72777142Y-182916666D01*
X72872380Y-182916666D01*
X71872380Y-181964285D02*
X71872380Y-182440476D01*
X72348571Y-182488095D01*
X72300952Y-182440476D01*
X72253333Y-182345238D01*
X72253333Y-182107142D01*
X72300952Y-182011904D01*
X72348571Y-181964285D01*
X72443809Y-181916666D01*
X72681904Y-181916666D01*
X72777142Y-181964285D01*
X72824761Y-182011904D01*
X72872380Y-182107142D01*
X72872380Y-182345238D01*
X72824761Y-182440476D01*
X72777142Y-182488095D01*
X71872380Y-181297619D02*
X71872380Y-181202380D01*
X71920000Y-181107142D01*
X71967619Y-181059523D01*
X72062857Y-181011904D01*
X72253333Y-180964285D01*
X72491428Y-180964285D01*
X72681904Y-181011904D01*
X72777142Y-181059523D01*
X72824761Y-181107142D01*
X72872380Y-181202380D01*
X72872380Y-181297619D01*
X72824761Y-181392857D01*
X72777142Y-181440476D01*
X72681904Y-181488095D01*
X72491428Y-181535714D01*
X72253333Y-181535714D01*
X72062857Y-181488095D01*
X71967619Y-181440476D01*
X71920000Y-181392857D01*
X71872380Y-181297619D01*
X71872380Y-180345238D02*
X71872380Y-180250000D01*
X71920000Y-180154761D01*
X71967619Y-180107142D01*
X72062857Y-180059523D01*
X72253333Y-180011904D01*
X72491428Y-180011904D01*
X72681904Y-180059523D01*
X72777142Y-180107142D01*
X72824761Y-180154761D01*
X72872380Y-180250000D01*
X72872380Y-180345238D01*
X72824761Y-180440476D01*
X72777142Y-180488095D01*
X72681904Y-180535714D01*
X72491428Y-180583333D01*
X72253333Y-180583333D01*
X72062857Y-180535714D01*
X71967619Y-180488095D01*
X71920000Y-180440476D01*
X71872380Y-180345238D01*
X72872380Y-178821428D02*
X72205714Y-178821428D01*
X72300952Y-178821428D02*
X72253333Y-178773809D01*
X72205714Y-178678571D01*
X72205714Y-178535714D01*
X72253333Y-178440476D01*
X72348571Y-178392857D01*
X72872380Y-178392857D01*
X72348571Y-178392857D02*
X72253333Y-178345238D01*
X72205714Y-178250000D01*
X72205714Y-178107142D01*
X72253333Y-178011904D01*
X72348571Y-177964285D01*
X72872380Y-177964285D01*
X72872380Y-177488095D02*
X72205714Y-177488095D01*
X72300952Y-177488095D02*
X72253333Y-177440476D01*
X72205714Y-177345238D01*
X72205714Y-177202380D01*
X72253333Y-177107142D01*
X72348571Y-177059523D01*
X72872380Y-177059523D01*
X72348571Y-177059523D02*
X72253333Y-177011904D01*
X72205714Y-176916666D01*
X72205714Y-176773809D01*
X72253333Y-176678571D01*
X72348571Y-176630952D01*
X72872380Y-176630952D01*
X71120000Y-185000000D02*
X71120000Y-175500000D01*
X70620000Y-185000000D02*
X71706421Y-185000000D01*
X70620000Y-175500000D02*
X71706421Y-175500000D01*
X71120000Y-175500000D02*
X71706421Y-176626504D01*
X71120000Y-175500000D02*
X70533579Y-176626504D01*
X71120000Y-185000000D02*
X71706421Y-183873496D01*
X71120000Y-185000000D02*
X70533579Y-183873496D01*
X83000000Y-175500000D02*
X86000000Y-175500000D01*
X66760000Y-185000000D02*
X70760000Y-185000000D01*
X212051428Y-277744571D02*
X212194285Y-277792190D01*
X212241904Y-277839809D01*
X212289523Y-277935047D01*
X212289523Y-278077904D01*
X212241904Y-278173142D01*
X212194285Y-278220761D01*
X212099047Y-278268380D01*
X211718095Y-278268380D01*
X211718095Y-277268380D01*
X212051428Y-277268380D01*
X212146666Y-277316000D01*
X212194285Y-277363619D01*
X212241904Y-277458857D01*
X212241904Y-277554095D01*
X212194285Y-277649333D01*
X212146666Y-277696952D01*
X212051428Y-277744571D01*
X211718095Y-277744571D01*
X212860952Y-278268380D02*
X212765714Y-278220761D01*
X212718095Y-278173142D01*
X212670476Y-278077904D01*
X212670476Y-277792190D01*
X212718095Y-277696952D01*
X212765714Y-277649333D01*
X212860952Y-277601714D01*
X213003809Y-277601714D01*
X213099047Y-277649333D01*
X213146666Y-277696952D01*
X213194285Y-277792190D01*
X213194285Y-278077904D01*
X213146666Y-278173142D01*
X213099047Y-278220761D01*
X213003809Y-278268380D01*
X212860952Y-278268380D01*
X213480000Y-277601714D02*
X213860952Y-277601714D01*
X213622857Y-277268380D02*
X213622857Y-278125523D01*
X213670476Y-278220761D01*
X213765714Y-278268380D01*
X213860952Y-278268380D01*
X214051428Y-277601714D02*
X214432380Y-277601714D01*
X214194285Y-277268380D02*
X214194285Y-278125523D01*
X214241904Y-278220761D01*
X214337142Y-278268380D01*
X214432380Y-278268380D01*
X214908571Y-278268380D02*
X214813333Y-278220761D01*
X214765714Y-278173142D01*
X214718095Y-278077904D01*
X214718095Y-277792190D01*
X214765714Y-277696952D01*
X214813333Y-277649333D01*
X214908571Y-277601714D01*
X215051428Y-277601714D01*
X215146666Y-277649333D01*
X215194285Y-277696952D01*
X215241904Y-277792190D01*
X215241904Y-278077904D01*
X215194285Y-278173142D01*
X215146666Y-278220761D01*
X215051428Y-278268380D01*
X214908571Y-278268380D01*
X215670476Y-278268380D02*
X215670476Y-277601714D01*
X215670476Y-277696952D02*
X215718095Y-277649333D01*
X215813333Y-277601714D01*
X215956190Y-277601714D01*
X216051428Y-277649333D01*
X216099047Y-277744571D01*
X216099047Y-278268380D01*
X216099047Y-277744571D02*
X216146666Y-277649333D01*
X216241904Y-277601714D01*
X216384761Y-277601714D01*
X216480000Y-277649333D01*
X216527619Y-277744571D01*
X216527619Y-278268380D01*
X217765714Y-277601714D02*
X217765714Y-278601714D01*
X217765714Y-277649333D02*
X217860952Y-277601714D01*
X218051428Y-277601714D01*
X218146666Y-277649333D01*
X218194285Y-277696952D01*
X218241904Y-277792190D01*
X218241904Y-278077904D01*
X218194285Y-278173142D01*
X218146666Y-278220761D01*
X218051428Y-278268380D01*
X217860952Y-278268380D01*
X217765714Y-278220761D01*
X218813333Y-278268380D02*
X218718095Y-278220761D01*
X218670476Y-278125523D01*
X218670476Y-277268380D01*
X219622857Y-277601714D02*
X219622857Y-278268380D01*
X219194285Y-277601714D02*
X219194285Y-278125523D01*
X219241904Y-278220761D01*
X219337142Y-278268380D01*
X219480000Y-278268380D01*
X219575238Y-278220761D01*
X219622857Y-278173142D01*
X220527619Y-277601714D02*
X220527619Y-278411238D01*
X220480000Y-278506476D01*
X220432380Y-278554095D01*
X220337142Y-278601714D01*
X220194285Y-278601714D01*
X220099047Y-278554095D01*
X220527619Y-278220761D02*
X220432380Y-278268380D01*
X220241904Y-278268380D01*
X220146666Y-278220761D01*
X220099047Y-278173142D01*
X220051428Y-278077904D01*
X220051428Y-277792190D01*
X220099047Y-277696952D01*
X220146666Y-277649333D01*
X220241904Y-277601714D01*
X220432380Y-277601714D01*
X220527619Y-277649333D01*
X221003809Y-278268380D02*
X221003809Y-277601714D01*
X221003809Y-277268380D02*
X220956190Y-277316000D01*
X221003809Y-277363619D01*
X221051428Y-277316000D01*
X221003809Y-277268380D01*
X221003809Y-277363619D01*
X221480000Y-277601714D02*
X221480000Y-278268380D01*
X221480000Y-277696952D02*
X221527619Y-277649333D01*
X221622857Y-277601714D01*
X221765714Y-277601714D01*
X221860952Y-277649333D01*
X221908571Y-277744571D01*
X221908571Y-278268380D01*
X223575238Y-278220761D02*
X223480000Y-278268380D01*
X223289523Y-278268380D01*
X223194285Y-278220761D01*
X223146666Y-278173142D01*
X223099047Y-278077904D01*
X223099047Y-277792190D01*
X223146666Y-277696952D01*
X223194285Y-277649333D01*
X223289523Y-277601714D01*
X223480000Y-277601714D01*
X223575238Y-277649333D01*
X224432380Y-278268380D02*
X224432380Y-277744571D01*
X224384761Y-277649333D01*
X224289523Y-277601714D01*
X224099047Y-277601714D01*
X224003809Y-277649333D01*
X224432380Y-278220761D02*
X224337142Y-278268380D01*
X224099047Y-278268380D01*
X224003809Y-278220761D01*
X223956190Y-278125523D01*
X223956190Y-278030285D01*
X224003809Y-277935047D01*
X224099047Y-277887428D01*
X224337142Y-277887428D01*
X224432380Y-277839809D01*
X224908571Y-278268380D02*
X224908571Y-277601714D01*
X224908571Y-277792190D02*
X224956190Y-277696952D01*
X225003809Y-277649333D01*
X225099047Y-277601714D01*
X225194285Y-277601714D01*
X225956190Y-278268380D02*
X225956190Y-277268380D01*
X225956190Y-278220761D02*
X225860952Y-278268380D01*
X225670476Y-278268380D01*
X225575238Y-278220761D01*
X225527619Y-278173142D01*
X225480000Y-278077904D01*
X225480000Y-277792190D01*
X225527619Y-277696952D01*
X225575238Y-277649333D01*
X225670476Y-277601714D01*
X225860952Y-277601714D01*
X225956190Y-277649333D01*
X227575238Y-278220761D02*
X227480000Y-278268380D01*
X227289523Y-278268380D01*
X227194285Y-278220761D01*
X227146666Y-278125523D01*
X227146666Y-277744571D01*
X227194285Y-277649333D01*
X227289523Y-277601714D01*
X227480000Y-277601714D01*
X227575238Y-277649333D01*
X227622857Y-277744571D01*
X227622857Y-277839809D01*
X227146666Y-277935047D01*
X228480000Y-278268380D02*
X228480000Y-277268380D01*
X228480000Y-278220761D02*
X228384761Y-278268380D01*
X228194285Y-278268380D01*
X228099047Y-278220761D01*
X228051428Y-278173142D01*
X228003809Y-278077904D01*
X228003809Y-277792190D01*
X228051428Y-277696952D01*
X228099047Y-277649333D01*
X228194285Y-277601714D01*
X228384761Y-277601714D01*
X228480000Y-277649333D01*
X229384761Y-277601714D02*
X229384761Y-278411238D01*
X229337142Y-278506476D01*
X229289523Y-278554095D01*
X229194285Y-278601714D01*
X229051428Y-278601714D01*
X228956190Y-278554095D01*
X229384761Y-278220761D02*
X229289523Y-278268380D01*
X229099047Y-278268380D01*
X229003809Y-278220761D01*
X228956190Y-278173142D01*
X228908571Y-278077904D01*
X228908571Y-277792190D01*
X228956190Y-277696952D01*
X229003809Y-277649333D01*
X229099047Y-277601714D01*
X229289523Y-277601714D01*
X229384761Y-277649333D01*
X230241904Y-278220761D02*
X230146666Y-278268380D01*
X229956190Y-278268380D01*
X229860952Y-278220761D01*
X229813333Y-278125523D01*
X229813333Y-277744571D01*
X229860952Y-277649333D01*
X229956190Y-277601714D01*
X230146666Y-277601714D01*
X230241904Y-277649333D01*
X230289523Y-277744571D01*
X230289523Y-277839809D01*
X229813333Y-277935047D01*
X210138380Y-173128380D02*
X210709809Y-173128380D01*
X210424095Y-174128380D02*
X210424095Y-173128380D01*
X211186000Y-174128380D02*
X211090761Y-174080761D01*
X211043142Y-174033142D01*
X210995523Y-173937904D01*
X210995523Y-173652190D01*
X211043142Y-173556952D01*
X211090761Y-173509333D01*
X211186000Y-173461714D01*
X211328857Y-173461714D01*
X211424095Y-173509333D01*
X211471714Y-173556952D01*
X211519333Y-173652190D01*
X211519333Y-173937904D01*
X211471714Y-174033142D01*
X211424095Y-174080761D01*
X211328857Y-174128380D01*
X211186000Y-174128380D01*
X211947904Y-173461714D02*
X211947904Y-174461714D01*
X211947904Y-173509333D02*
X212043142Y-173461714D01*
X212233619Y-173461714D01*
X212328857Y-173509333D01*
X212376476Y-173556952D01*
X212424095Y-173652190D01*
X212424095Y-173937904D01*
X212376476Y-174033142D01*
X212328857Y-174080761D01*
X212233619Y-174128380D01*
X212043142Y-174128380D01*
X211947904Y-174080761D01*
X213614571Y-173461714D02*
X213614571Y-174461714D01*
X213614571Y-173509333D02*
X213709809Y-173461714D01*
X213900285Y-173461714D01*
X213995523Y-173509333D01*
X214043142Y-173556952D01*
X214090761Y-173652190D01*
X214090761Y-173937904D01*
X214043142Y-174033142D01*
X213995523Y-174080761D01*
X213900285Y-174128380D01*
X213709809Y-174128380D01*
X213614571Y-174080761D01*
X214662190Y-174128380D02*
X214566952Y-174080761D01*
X214519333Y-173985523D01*
X214519333Y-173128380D01*
X215471714Y-173461714D02*
X215471714Y-174128380D01*
X215043142Y-173461714D02*
X215043142Y-173985523D01*
X215090761Y-174080761D01*
X215186000Y-174128380D01*
X215328857Y-174128380D01*
X215424095Y-174080761D01*
X215471714Y-174033142D01*
X216376476Y-173461714D02*
X216376476Y-174271238D01*
X216328857Y-174366476D01*
X216281238Y-174414095D01*
X216186000Y-174461714D01*
X216043142Y-174461714D01*
X215947904Y-174414095D01*
X216376476Y-174080761D02*
X216281238Y-174128380D01*
X216090761Y-174128380D01*
X215995523Y-174080761D01*
X215947904Y-174033142D01*
X215900285Y-173937904D01*
X215900285Y-173652190D01*
X215947904Y-173556952D01*
X215995523Y-173509333D01*
X216090761Y-173461714D01*
X216281238Y-173461714D01*
X216376476Y-173509333D01*
X216852666Y-174128380D02*
X216852666Y-173461714D01*
X216852666Y-173128380D02*
X216805047Y-173176000D01*
X216852666Y-173223619D01*
X216900285Y-173176000D01*
X216852666Y-173128380D01*
X216852666Y-173223619D01*
X217328857Y-173461714D02*
X217328857Y-174128380D01*
X217328857Y-173556952D02*
X217376476Y-173509333D01*
X217471714Y-173461714D01*
X217614571Y-173461714D01*
X217709809Y-173509333D01*
X217757428Y-173604571D01*
X217757428Y-174128380D01*
X219424095Y-174080761D02*
X219328857Y-174128380D01*
X219138380Y-174128380D01*
X219043142Y-174080761D01*
X218995523Y-174033142D01*
X218947904Y-173937904D01*
X218947904Y-173652190D01*
X218995523Y-173556952D01*
X219043142Y-173509333D01*
X219138380Y-173461714D01*
X219328857Y-173461714D01*
X219424095Y-173509333D01*
X220281238Y-174128380D02*
X220281238Y-173604571D01*
X220233619Y-173509333D01*
X220138380Y-173461714D01*
X219947904Y-173461714D01*
X219852666Y-173509333D01*
X220281238Y-174080761D02*
X220186000Y-174128380D01*
X219947904Y-174128380D01*
X219852666Y-174080761D01*
X219805047Y-173985523D01*
X219805047Y-173890285D01*
X219852666Y-173795047D01*
X219947904Y-173747428D01*
X220186000Y-173747428D01*
X220281238Y-173699809D01*
X220757428Y-174128380D02*
X220757428Y-173461714D01*
X220757428Y-173652190D02*
X220805047Y-173556952D01*
X220852666Y-173509333D01*
X220947904Y-173461714D01*
X221043142Y-173461714D01*
X221805047Y-174128380D02*
X221805047Y-173128380D01*
X221805047Y-174080761D02*
X221709809Y-174128380D01*
X221519333Y-174128380D01*
X221424095Y-174080761D01*
X221376476Y-174033142D01*
X221328857Y-173937904D01*
X221328857Y-173652190D01*
X221376476Y-173556952D01*
X221424095Y-173509333D01*
X221519333Y-173461714D01*
X221709809Y-173461714D01*
X221805047Y-173509333D01*
X223424095Y-174080761D02*
X223328857Y-174128380D01*
X223138380Y-174128380D01*
X223043142Y-174080761D01*
X222995523Y-173985523D01*
X222995523Y-173604571D01*
X223043142Y-173509333D01*
X223138380Y-173461714D01*
X223328857Y-173461714D01*
X223424095Y-173509333D01*
X223471714Y-173604571D01*
X223471714Y-173699809D01*
X222995523Y-173795047D01*
X224328857Y-174128380D02*
X224328857Y-173128380D01*
X224328857Y-174080761D02*
X224233619Y-174128380D01*
X224043142Y-174128380D01*
X223947904Y-174080761D01*
X223900285Y-174033142D01*
X223852666Y-173937904D01*
X223852666Y-173652190D01*
X223900285Y-173556952D01*
X223947904Y-173509333D01*
X224043142Y-173461714D01*
X224233619Y-173461714D01*
X224328857Y-173509333D01*
X225233619Y-173461714D02*
X225233619Y-174271238D01*
X225186000Y-174366476D01*
X225138380Y-174414095D01*
X225043142Y-174461714D01*
X224900285Y-174461714D01*
X224805047Y-174414095D01*
X225233619Y-174080761D02*
X225138380Y-174128380D01*
X224947904Y-174128380D01*
X224852666Y-174080761D01*
X224805047Y-174033142D01*
X224757428Y-173937904D01*
X224757428Y-173652190D01*
X224805047Y-173556952D01*
X224852666Y-173509333D01*
X224947904Y-173461714D01*
X225138380Y-173461714D01*
X225233619Y-173509333D01*
X226090761Y-174080761D02*
X225995523Y-174128380D01*
X225805047Y-174128380D01*
X225709809Y-174080761D01*
X225662190Y-173985523D01*
X225662190Y-173604571D01*
X225709809Y-173509333D01*
X225805047Y-173461714D01*
X225995523Y-173461714D01*
X226090761Y-173509333D01*
X226138380Y-173604571D01*
X226138380Y-173699809D01*
X225662190Y-173795047D01*
X38100000Y-275500000D02*
X224725000Y-275500000D01*
X38100000Y-175500000D02*
X225000000Y-175500000D01*
X231331428Y-20188571D02*
X231664761Y-20188571D01*
X231807619Y-20712380D02*
X231331428Y-20712380D01*
X231331428Y-19712380D01*
X231807619Y-19712380D01*
X232236190Y-20045714D02*
X232236190Y-20712380D01*
X232236190Y-20140952D02*
X232283809Y-20093333D01*
X232379047Y-20045714D01*
X232521904Y-20045714D01*
X232617142Y-20093333D01*
X232664761Y-20188571D01*
X232664761Y-20712380D01*
X233569523Y-20664761D02*
X233474285Y-20712380D01*
X233283809Y-20712380D01*
X233188571Y-20664761D01*
X233140952Y-20617142D01*
X233093333Y-20521904D01*
X233093333Y-20236190D01*
X233140952Y-20140952D01*
X233188571Y-20093333D01*
X233283809Y-20045714D01*
X233474285Y-20045714D01*
X233569523Y-20093333D01*
X234140952Y-20712380D02*
X234045714Y-20664761D01*
X233998095Y-20569523D01*
X233998095Y-19712380D01*
X234664761Y-20712380D02*
X234569523Y-20664761D01*
X234521904Y-20617142D01*
X234474285Y-20521904D01*
X234474285Y-20236190D01*
X234521904Y-20140952D01*
X234569523Y-20093333D01*
X234664761Y-20045714D01*
X234807619Y-20045714D01*
X234902857Y-20093333D01*
X234950476Y-20140952D01*
X234998095Y-20236190D01*
X234998095Y-20521904D01*
X234950476Y-20617142D01*
X234902857Y-20664761D01*
X234807619Y-20712380D01*
X234664761Y-20712380D01*
X235379047Y-20664761D02*
X235474285Y-20712380D01*
X235664761Y-20712380D01*
X235760000Y-20664761D01*
X235807619Y-20569523D01*
X235807619Y-20521904D01*
X235760000Y-20426666D01*
X235664761Y-20379047D01*
X235521904Y-20379047D01*
X235426666Y-20331428D01*
X235379047Y-20236190D01*
X235379047Y-20188571D01*
X235426666Y-20093333D01*
X235521904Y-20045714D01*
X235664761Y-20045714D01*
X235760000Y-20093333D01*
X236664761Y-20045714D02*
X236664761Y-20712380D01*
X236236190Y-20045714D02*
X236236190Y-20569523D01*
X236283809Y-20664761D01*
X236379047Y-20712380D01*
X236521904Y-20712380D01*
X236617142Y-20664761D01*
X236664761Y-20617142D01*
X237140952Y-20712380D02*
X237140952Y-20045714D01*
X237140952Y-20236190D02*
X237188571Y-20140952D01*
X237236190Y-20093333D01*
X237331428Y-20045714D01*
X237426666Y-20045714D01*
X238140952Y-20664761D02*
X238045714Y-20712380D01*
X237855238Y-20712380D01*
X237760000Y-20664761D01*
X237712380Y-20569523D01*
X237712380Y-20188571D01*
X237760000Y-20093333D01*
X237855238Y-20045714D01*
X238045714Y-20045714D01*
X238140952Y-20093333D01*
X238188571Y-20188571D01*
X238188571Y-20283809D01*
X237712380Y-20379047D01*
X239379047Y-20712380D02*
X239379047Y-20045714D01*
X239379047Y-20236190D02*
X239426666Y-20140952D01*
X239474285Y-20093333D01*
X239569523Y-20045714D01*
X239664761Y-20045714D01*
X239998095Y-20712380D02*
X239998095Y-20045714D01*
X239998095Y-19712380D02*
X239950476Y-19760000D01*
X239998095Y-19807619D01*
X240045714Y-19760000D01*
X239998095Y-19712380D01*
X239998095Y-19807619D01*
X240902857Y-20045714D02*
X240902857Y-20855238D01*
X240855238Y-20950476D01*
X240807619Y-20998095D01*
X240712380Y-21045714D01*
X240569523Y-21045714D01*
X240474285Y-20998095D01*
X240902857Y-20664761D02*
X240807619Y-20712380D01*
X240617142Y-20712380D01*
X240521904Y-20664761D01*
X240474285Y-20617142D01*
X240426666Y-20521904D01*
X240426666Y-20236190D01*
X240474285Y-20140952D01*
X240521904Y-20093333D01*
X240617142Y-20045714D01*
X240807619Y-20045714D01*
X240902857Y-20093333D01*
X241379047Y-20712380D02*
X241379047Y-19712380D01*
X241807619Y-20712380D02*
X241807619Y-20188571D01*
X241760000Y-20093333D01*
X241664761Y-20045714D01*
X241521904Y-20045714D01*
X241426666Y-20093333D01*
X241379047Y-20140952D01*
X242140952Y-20045714D02*
X242521904Y-20045714D01*
X242283809Y-19712380D02*
X242283809Y-20569523D01*
X242331428Y-20664761D01*
X242426666Y-20712380D01*
X242521904Y-20712380D01*
X243569523Y-20664761D02*
X243664761Y-20712380D01*
X243855238Y-20712380D01*
X243950476Y-20664761D01*
X243998095Y-20569523D01*
X243998095Y-20521904D01*
X243950476Y-20426666D01*
X243855238Y-20379047D01*
X243712380Y-20379047D01*
X243617142Y-20331428D01*
X243569523Y-20236190D01*
X243569523Y-20188571D01*
X243617142Y-20093333D01*
X243712380Y-20045714D01*
X243855238Y-20045714D01*
X243950476Y-20093333D01*
X244426666Y-20712380D02*
X244426666Y-20045714D01*
X244426666Y-19712380D02*
X244379047Y-19760000D01*
X244426666Y-19807619D01*
X244474285Y-19760000D01*
X244426666Y-19712380D01*
X244426666Y-19807619D01*
X245331428Y-20712380D02*
X245331428Y-19712380D01*
X245331428Y-20664761D02*
X245236190Y-20712380D01*
X245045714Y-20712380D01*
X244950476Y-20664761D01*
X244902857Y-20617142D01*
X244855238Y-20521904D01*
X244855238Y-20236190D01*
X244902857Y-20140952D01*
X244950476Y-20093333D01*
X245045714Y-20045714D01*
X245236190Y-20045714D01*
X245331428Y-20093333D01*
X246188571Y-20664761D02*
X246093333Y-20712380D01*
X245902857Y-20712380D01*
X245807619Y-20664761D01*
X245760000Y-20569523D01*
X245760000Y-20188571D01*
X245807619Y-20093333D01*
X245902857Y-20045714D01*
X246093333Y-20045714D01*
X246188571Y-20093333D01*
X246236190Y-20188571D01*
X246236190Y-20283809D01*
X245760000Y-20379047D01*
X125913333Y-22585714D02*
X125913333Y-23252380D01*
X125675238Y-22204761D02*
X125437142Y-22919047D01*
X126056190Y-22919047D01*
X126389523Y-22347619D02*
X126437142Y-22300000D01*
X126532380Y-22252380D01*
X126770476Y-22252380D01*
X126865714Y-22300000D01*
X126913333Y-22347619D01*
X126960952Y-22442857D01*
X126960952Y-22538095D01*
X126913333Y-22680952D01*
X126341904Y-23252380D01*
X126960952Y-23252380D01*
X128151428Y-23252380D02*
X128151428Y-22252380D01*
X128151428Y-22728571D02*
X128722857Y-22728571D01*
X128722857Y-23252380D02*
X128722857Y-22252380D01*
X129199047Y-23252380D02*
X129199047Y-22252380D01*
X129580000Y-22252380D01*
X129675238Y-22300000D01*
X129722857Y-22347619D01*
X129770476Y-22442857D01*
X129770476Y-22585714D01*
X129722857Y-22680952D01*
X129675238Y-22728571D01*
X129580000Y-22776190D01*
X129199047Y-22776190D01*
X131246666Y-23633333D02*
X131199047Y-23585714D01*
X131103809Y-23442857D01*
X131056190Y-23347619D01*
X131008571Y-23204761D01*
X130960952Y-22966666D01*
X130960952Y-22776190D01*
X131008571Y-22538095D01*
X131056190Y-22395238D01*
X131103809Y-22300000D01*
X131199047Y-22157142D01*
X131246666Y-22109523D01*
X131627619Y-23252380D02*
X131627619Y-22252380D01*
X132056190Y-23252380D02*
X132056190Y-22728571D01*
X132008571Y-22633333D01*
X131913333Y-22585714D01*
X131770476Y-22585714D01*
X131675238Y-22633333D01*
X131627619Y-22680952D01*
X132960952Y-23252380D02*
X132960952Y-22728571D01*
X132913333Y-22633333D01*
X132818095Y-22585714D01*
X132627619Y-22585714D01*
X132532380Y-22633333D01*
X132960952Y-23204761D02*
X132865714Y-23252380D01*
X132627619Y-23252380D01*
X132532380Y-23204761D01*
X132484761Y-23109523D01*
X132484761Y-23014285D01*
X132532380Y-22919047D01*
X132627619Y-22871428D01*
X132865714Y-22871428D01*
X132960952Y-22823809D01*
X133580000Y-23252380D02*
X133484761Y-23204761D01*
X133437142Y-23109523D01*
X133437142Y-22252380D01*
X133818095Y-22585714D02*
X134199047Y-22585714D01*
X133960952Y-23252380D02*
X133960952Y-22395238D01*
X134008571Y-22300000D01*
X134103809Y-22252380D01*
X134199047Y-22252380D01*
X135294285Y-23252380D02*
X135294285Y-22585714D01*
X135294285Y-22776190D02*
X135341904Y-22680952D01*
X135389523Y-22633333D01*
X135484761Y-22585714D01*
X135580000Y-22585714D01*
X136341904Y-23252380D02*
X136341904Y-22728571D01*
X136294285Y-22633333D01*
X136199047Y-22585714D01*
X136008571Y-22585714D01*
X135913333Y-22633333D01*
X136341904Y-23204761D02*
X136246666Y-23252380D01*
X136008571Y-23252380D01*
X135913333Y-23204761D01*
X135865714Y-23109523D01*
X135865714Y-23014285D01*
X135913333Y-22919047D01*
X136008571Y-22871428D01*
X136246666Y-22871428D01*
X136341904Y-22823809D01*
X137246666Y-23204761D02*
X137151428Y-23252380D01*
X136960952Y-23252380D01*
X136865714Y-23204761D01*
X136818095Y-23157142D01*
X136770476Y-23061904D01*
X136770476Y-22776190D01*
X136818095Y-22680952D01*
X136865714Y-22633333D01*
X136960952Y-22585714D01*
X137151428Y-22585714D01*
X137246666Y-22633333D01*
X137675238Y-23252380D02*
X137675238Y-22252380D01*
X137770476Y-22871428D02*
X138056190Y-23252380D01*
X138056190Y-22585714D02*
X137675238Y-22966666D01*
X138389523Y-23633333D02*
X138437142Y-23585714D01*
X138532380Y-23442857D01*
X138580000Y-23347619D01*
X138627619Y-23204761D01*
X138675238Y-22966666D01*
X138675238Y-22776190D01*
X138627619Y-22538095D01*
X138580000Y-22395238D01*
X138532380Y-22300000D01*
X138437142Y-22157142D01*
X138389523Y-22109523D01*
X128770476Y-26520952D02*
X128675238Y-26473333D01*
X128627619Y-26425714D01*
X128580000Y-26330476D01*
X128580000Y-26282857D01*
X128627619Y-26187619D01*
X128675238Y-26140000D01*
X128770476Y-26092380D01*
X128960952Y-26092380D01*
X129056190Y-26140000D01*
X129103809Y-26187619D01*
X129151428Y-26282857D01*
X129151428Y-26330476D01*
X129103809Y-26425714D01*
X129056190Y-26473333D01*
X128960952Y-26520952D01*
X128770476Y-26520952D01*
X128675238Y-26568571D01*
X128627619Y-26616190D01*
X128580000Y-26711428D01*
X128580000Y-26901904D01*
X128627619Y-26997142D01*
X128675238Y-27044761D01*
X128770476Y-27092380D01*
X128960952Y-27092380D01*
X129056190Y-27044761D01*
X129103809Y-26997142D01*
X129151428Y-26901904D01*
X129151428Y-26711428D01*
X129103809Y-26616190D01*
X129056190Y-26568571D01*
X128960952Y-26520952D01*
X129580000Y-26997142D02*
X129627619Y-27044761D01*
X129580000Y-27092380D01*
X129532380Y-27044761D01*
X129580000Y-26997142D01*
X129580000Y-27092380D01*
X130484761Y-26425714D02*
X130484761Y-27092380D01*
X130246666Y-26044761D02*
X130008571Y-26759047D01*
X130627619Y-26759047D01*
X131199047Y-26092380D02*
X131294285Y-26092380D01*
X131389523Y-26140000D01*
X131437142Y-26187619D01*
X131484761Y-26282857D01*
X131532380Y-26473333D01*
X131532380Y-26711428D01*
X131484761Y-26901904D01*
X131437142Y-26997142D01*
X131389523Y-27044761D01*
X131294285Y-27092380D01*
X131199047Y-27092380D01*
X131103809Y-27044761D01*
X131056190Y-26997142D01*
X131008571Y-26901904D01*
X130960952Y-26711428D01*
X130960952Y-26473333D01*
X131008571Y-26282857D01*
X131056190Y-26187619D01*
X131103809Y-26140000D01*
X131199047Y-26092380D01*
X132151428Y-26092380D02*
X132246666Y-26092380D01*
X132341904Y-26140000D01*
X132389523Y-26187619D01*
X132437142Y-26282857D01*
X132484761Y-26473333D01*
X132484761Y-26711428D01*
X132437142Y-26901904D01*
X132389523Y-26997142D01*
X132341904Y-27044761D01*
X132246666Y-27092380D01*
X132151428Y-27092380D01*
X132056190Y-27044761D01*
X132008571Y-26997142D01*
X131960952Y-26901904D01*
X131913333Y-26711428D01*
X131913333Y-26473333D01*
X131960952Y-26282857D01*
X132008571Y-26187619D01*
X132056190Y-26140000D01*
X132151428Y-26092380D01*
X133103809Y-26092380D02*
X133199047Y-26092380D01*
X133294285Y-26140000D01*
X133341904Y-26187619D01*
X133389523Y-26282857D01*
X133437142Y-26473333D01*
X133437142Y-26711428D01*
X133389523Y-26901904D01*
X133341904Y-26997142D01*
X133294285Y-27044761D01*
X133199047Y-27092380D01*
X133103809Y-27092380D01*
X133008571Y-27044761D01*
X132960952Y-26997142D01*
X132913333Y-26901904D01*
X132865714Y-26711428D01*
X132865714Y-26473333D01*
X132913333Y-26282857D01*
X132960952Y-26187619D01*
X133008571Y-26140000D01*
X133103809Y-26092380D01*
X134627619Y-27092380D02*
X134627619Y-26425714D01*
X134627619Y-26092380D02*
X134580000Y-26140000D01*
X134627619Y-26187619D01*
X134675238Y-26140000D01*
X134627619Y-26092380D01*
X134627619Y-26187619D01*
X135103809Y-26425714D02*
X135103809Y-27092380D01*
X135103809Y-26520952D02*
X135151428Y-26473333D01*
X135246666Y-26425714D01*
X135389523Y-26425714D01*
X135484761Y-26473333D01*
X135532380Y-26568571D01*
X135532380Y-27092380D01*
X25400000Y-25340000D02*
X238760000Y-25340000D01*
X25400000Y-25340000D02*
X25400000Y-25926421D01*
X238760000Y-25340000D02*
X238760000Y-25926421D01*
X238760000Y-25340000D02*
X237633496Y-25926421D01*
X238760000Y-25340000D02*
X237633496Y-24753579D01*
X25400000Y-25340000D02*
X26526504Y-25926421D01*
X25400000Y-25340000D02*
X26526504Y-24753579D01*
X238760000Y-22800000D02*
X238760000Y-294580000D01*
X15392380Y-20712380D02*
X15392380Y-19712380D01*
X15773333Y-19712380D01*
X15868571Y-19760000D01*
X15916190Y-19807619D01*
X15963809Y-19902857D01*
X15963809Y-20045714D01*
X15916190Y-20140952D01*
X15868571Y-20188571D01*
X15773333Y-20236190D01*
X15392380Y-20236190D01*
X16392380Y-20712380D02*
X16392380Y-20045714D01*
X16392380Y-19712380D02*
X16344761Y-19760000D01*
X16392380Y-19807619D01*
X16439999Y-19760000D01*
X16392380Y-19712380D01*
X16392380Y-19807619D01*
X16725714Y-20045714D02*
X17106666Y-20045714D01*
X16868571Y-19712380D02*
X16868571Y-20569523D01*
X16916190Y-20664761D01*
X17011428Y-20712380D01*
X17106666Y-20712380D01*
X17868571Y-20664761D02*
X17773333Y-20712380D01*
X17582857Y-20712380D01*
X17487619Y-20664761D01*
X17440000Y-20617142D01*
X17392380Y-20521904D01*
X17392380Y-20236190D01*
X17440000Y-20140952D01*
X17487619Y-20093333D01*
X17582857Y-20045714D01*
X17773333Y-20045714D01*
X17868571Y-20093333D01*
X18297142Y-20712380D02*
X18297142Y-19712380D01*
X18725714Y-20712380D02*
X18725714Y-20188571D01*
X18678095Y-20093333D01*
X18582857Y-20045714D01*
X18440000Y-20045714D01*
X18344761Y-20093333D01*
X18297142Y-20140952D01*
X20106666Y-20712380D02*
X20011428Y-20664761D01*
X19963809Y-20569523D01*
X19963809Y-19712380D01*
X20487619Y-20712380D02*
X20487619Y-20045714D01*
X20487619Y-19712380D02*
X20439999Y-19760000D01*
X20487619Y-19807619D01*
X20535238Y-19760000D01*
X20487619Y-19712380D01*
X20487619Y-19807619D01*
X20963809Y-20045714D02*
X20963809Y-20712380D01*
X20963809Y-20140952D02*
X21011428Y-20093333D01*
X21106666Y-20045714D01*
X21249523Y-20045714D01*
X21344761Y-20093333D01*
X21392380Y-20188571D01*
X21392380Y-20712380D01*
X22249523Y-20664761D02*
X22154285Y-20712380D01*
X21963809Y-20712380D01*
X21868571Y-20664761D01*
X21820952Y-20569523D01*
X21820952Y-20188571D01*
X21868571Y-20093333D01*
X21963809Y-20045714D01*
X22154285Y-20045714D01*
X22249523Y-20093333D01*
X22297142Y-20188571D01*
X22297142Y-20283809D01*
X21820952Y-20379047D01*
X23916190Y-20712380D02*
X23916190Y-20188571D01*
X23868571Y-20093333D01*
X23773333Y-20045714D01*
X23582857Y-20045714D01*
X23487619Y-20093333D01*
X23916190Y-20664761D02*
X23820952Y-20712380D01*
X23582857Y-20712380D01*
X23487619Y-20664761D01*
X23439999Y-20569523D01*
X23439999Y-20474285D01*
X23487619Y-20379047D01*
X23582857Y-20331428D01*
X23820952Y-20331428D01*
X23916190Y-20283809D01*
X24249523Y-20045714D02*
X24630476Y-20045714D01*
X24392380Y-19712380D02*
X24392380Y-20569523D01*
X24439999Y-20664761D01*
X24535238Y-20712380D01*
X24630476Y-20712380D01*
X26154285Y-20712380D02*
X26154285Y-20188571D01*
X26106666Y-20093333D01*
X26011428Y-20045714D01*
X25820952Y-20045714D01*
X25725714Y-20093333D01*
X26154285Y-20664761D02*
X26059047Y-20712380D01*
X25820952Y-20712380D01*
X25725714Y-20664761D01*
X25678095Y-20569523D01*
X25678095Y-20474285D01*
X25725714Y-20379047D01*
X25820952Y-20331428D01*
X26059047Y-20331428D01*
X26154285Y-20283809D01*
X26487619Y-20045714D02*
X26868571Y-20045714D01*
X26630476Y-19712380D02*
X26630476Y-20569523D01*
X26678095Y-20664761D01*
X26773333Y-20712380D01*
X26868571Y-20712380D01*
X28344761Y-20664761D02*
X28249523Y-20712380D01*
X28059047Y-20712380D01*
X27963809Y-20664761D01*
X27916190Y-20569523D01*
X27916190Y-20188571D01*
X27963809Y-20093333D01*
X28059047Y-20045714D01*
X28249523Y-20045714D01*
X28344761Y-20093333D01*
X28392380Y-20188571D01*
X28392380Y-20283809D01*
X27916190Y-20379047D01*
X28820952Y-20045714D02*
X28820952Y-20712380D01*
X28820952Y-20140952D02*
X28868571Y-20093333D01*
X28963809Y-20045714D01*
X29106666Y-20045714D01*
X29201904Y-20093333D01*
X29249523Y-20188571D01*
X29249523Y-20712380D01*
X30154285Y-20664761D02*
X30059047Y-20712380D01*
X29868571Y-20712380D01*
X29773333Y-20664761D01*
X29725714Y-20617142D01*
X29678095Y-20521904D01*
X29678095Y-20236190D01*
X29725714Y-20140952D01*
X29773333Y-20093333D01*
X29868571Y-20045714D01*
X30059047Y-20045714D01*
X30154285Y-20093333D01*
X30725714Y-20712380D02*
X30630476Y-20664761D01*
X30582857Y-20569523D01*
X30582857Y-19712380D01*
X31249523Y-20712380D02*
X31154285Y-20664761D01*
X31106666Y-20617142D01*
X31059047Y-20521904D01*
X31059047Y-20236190D01*
X31106666Y-20140952D01*
X31154285Y-20093333D01*
X31249523Y-20045714D01*
X31392380Y-20045714D01*
X31487619Y-20093333D01*
X31535238Y-20140952D01*
X31582857Y-20236190D01*
X31582857Y-20521904D01*
X31535238Y-20617142D01*
X31487619Y-20664761D01*
X31392380Y-20712380D01*
X31249523Y-20712380D01*
X31963809Y-20664761D02*
X32059047Y-20712380D01*
X32249523Y-20712380D01*
X32344761Y-20664761D01*
X32392380Y-20569523D01*
X32392380Y-20521904D01*
X32344761Y-20426666D01*
X32249523Y-20379047D01*
X32106666Y-20379047D01*
X32011428Y-20331428D01*
X31963809Y-20236190D01*
X31963809Y-20188571D01*
X32011428Y-20093333D01*
X32106666Y-20045714D01*
X32249523Y-20045714D01*
X32344761Y-20093333D01*
X33249523Y-20045714D02*
X33249523Y-20712380D01*
X32820952Y-20045714D02*
X32820952Y-20569523D01*
X32868571Y-20664761D01*
X32963809Y-20712380D01*
X33106666Y-20712380D01*
X33201904Y-20664761D01*
X33249523Y-20617142D01*
X33725714Y-20712380D02*
X33725714Y-20045714D01*
X33725714Y-20236190D02*
X33773333Y-20140952D01*
X33820952Y-20093333D01*
X33916190Y-20045714D01*
X34011428Y-20045714D01*
X34725714Y-20664761D02*
X34630476Y-20712380D01*
X34439999Y-20712380D01*
X34344761Y-20664761D01*
X34297142Y-20569523D01*
X34297142Y-20188571D01*
X34344761Y-20093333D01*
X34439999Y-20045714D01*
X34630476Y-20045714D01*
X34725714Y-20093333D01*
X34773333Y-20188571D01*
X34773333Y-20283809D01*
X34297142Y-20379047D01*
X36392380Y-20712380D02*
X36392380Y-19712380D01*
X36392380Y-20664761D02*
X36297142Y-20712380D01*
X36106666Y-20712380D01*
X36011428Y-20664761D01*
X35963809Y-20617142D01*
X35916190Y-20521904D01*
X35916190Y-20236190D01*
X35963809Y-20140952D01*
X36011428Y-20093333D01*
X36106666Y-20045714D01*
X36297142Y-20045714D01*
X36392380Y-20093333D01*
X36868571Y-20712380D02*
X36868571Y-20045714D01*
X36868571Y-19712380D02*
X36820952Y-19760000D01*
X36868571Y-19807619D01*
X36916190Y-19760000D01*
X36868571Y-19712380D01*
X36868571Y-19807619D01*
X37249523Y-20045714D02*
X37487619Y-20712380D01*
X37725714Y-20045714D01*
X38106666Y-20712380D02*
X38106666Y-20045714D01*
X38106666Y-19712380D02*
X38059047Y-19760000D01*
X38106666Y-19807619D01*
X38154285Y-19760000D01*
X38106666Y-19712380D01*
X38106666Y-19807619D01*
X39011428Y-20712380D02*
X39011428Y-19712380D01*
X39011428Y-20664761D02*
X38916190Y-20712380D01*
X38725714Y-20712380D01*
X38630476Y-20664761D01*
X38582857Y-20617142D01*
X38535238Y-20521904D01*
X38535238Y-20236190D01*
X38582857Y-20140952D01*
X38630476Y-20093333D01*
X38725714Y-20045714D01*
X38916190Y-20045714D01*
X39011428Y-20093333D01*
X39868571Y-20664761D02*
X39773333Y-20712380D01*
X39582857Y-20712380D01*
X39487619Y-20664761D01*
X39439999Y-20569523D01*
X39439999Y-20188571D01*
X39487619Y-20093333D01*
X39582857Y-20045714D01*
X39773333Y-20045714D01*
X39868571Y-20093333D01*
X39916190Y-20188571D01*
X39916190Y-20283809D01*
X39439999Y-20379047D01*
X40344761Y-20712380D02*
X40344761Y-20045714D01*
X40344761Y-20236190D02*
X40392380Y-20140952D01*
X40439999Y-20093333D01*
X40535238Y-20045714D01*
X40630476Y-20045714D01*
X25400000Y-22800000D02*
X25400000Y-294580000D01*
D11*
X96900000Y-51425000D02*
X198500000Y-51425000D01*
X96900000Y-108575000D02*
X96900000Y-51425000D01*
X198500000Y-108575000D02*
X96900000Y-108575000D01*
X198500000Y-51425000D02*
X198500000Y-108575000D01*
M02*
