G04 #@! TF.GenerationSoftware,KiCad,Pcbnew,(5.1.5)-3*
G04 #@! TF.CreationDate,2020-07-24T16:39:48-04:00*
G04 #@! TF.ProjectId,main_board,6d61696e-5f62-46f6-9172-642e6b696361,rev?*
G04 #@! TF.SameCoordinates,Original*
G04 #@! TF.FileFunction,Copper,L4,Bot*
G04 #@! TF.FilePolarity,Positive*
%FSLAX46Y46*%
G04 Gerber Fmt 4.6, Leading zero omitted, Abs format (unit mm)*
G04 Created by KiCad (PCBNEW (5.1.5)-3) date 2020-07-24 16:39:48*
%MOMM*%
%LPD*%
G04 APERTURE LIST*
%ADD10C,0.180000*%
%ADD11C,6.400000*%
%ADD12C,2.000000*%
%ADD13C,6.350000*%
%ADD14O,1.700000X1.700000*%
%ADD15R,1.700000X1.700000*%
%ADD16C,5.000000*%
%ADD17C,1.240000*%
%ADD18C,1.362000*%
%ADD19C,0.500000*%
%ADD20C,0.100000*%
%ADD21C,0.457200*%
%ADD22C,0.600000*%
%ADD23C,1.000000*%
%ADD24C,0.200000*%
%ADD25C,0.500000*%
%ADD26C,1.000000*%
%ADD27C,2.000000*%
%ADD28C,0.150000*%
%ADD29C,3.000000*%
%ADD30C,0.175000*%
%ADD31C,0.300000*%
%ADD32C,0.250000*%
%ADD33C,0.254000*%
G04 APERTURE END LIST*
D10*
X71180952Y-51428571D02*
X71323809Y-51476190D01*
X71371428Y-51523809D01*
X71419047Y-51619047D01*
X71419047Y-51761904D01*
X71371428Y-51857142D01*
X71323809Y-51904761D01*
X71228571Y-51952380D01*
X70847619Y-51952380D01*
X70847619Y-50952380D01*
X71180952Y-50952380D01*
X71276190Y-51000000D01*
X71323809Y-51047619D01*
X71371428Y-51142857D01*
X71371428Y-51238095D01*
X71323809Y-51333333D01*
X71276190Y-51380952D01*
X71180952Y-51428571D01*
X70847619Y-51428571D01*
X71847619Y-51857142D02*
X71895238Y-51904761D01*
X71847619Y-51952380D01*
X71800000Y-51904761D01*
X71847619Y-51857142D01*
X71847619Y-51952380D01*
X72895238Y-51857142D02*
X72847619Y-51904761D01*
X72704761Y-51952380D01*
X72609523Y-51952380D01*
X72466666Y-51904761D01*
X72371428Y-51809523D01*
X72323809Y-51714285D01*
X72276190Y-51523809D01*
X72276190Y-51380952D01*
X72323809Y-51190476D01*
X72371428Y-51095238D01*
X72466666Y-51000000D01*
X72609523Y-50952380D01*
X72704761Y-50952380D01*
X72847619Y-51000000D01*
X72895238Y-51047619D01*
X73752380Y-51285714D02*
X73752380Y-51952380D01*
X73323809Y-51285714D02*
X73323809Y-51809523D01*
X73371428Y-51904761D01*
X73466666Y-51952380D01*
X73609523Y-51952380D01*
X73704761Y-51904761D01*
X73752380Y-51857142D01*
D11*
X36710000Y-104765000D03*
X36710000Y-55235000D03*
D12*
X195400000Y-219200000D03*
X180800000Y-72400000D03*
X123000000Y-204000000D03*
X87000000Y-204000000D03*
X215500000Y-251500000D03*
X199500000Y-251500000D03*
X207500000Y-251500000D03*
X191500000Y-251500000D03*
D13*
X100710000Y-104765000D03*
X194690000Y-55235000D03*
X100710000Y-55235000D03*
X194690000Y-104765000D03*
D14*
X187980000Y-42660000D03*
X187980000Y-45200000D03*
X185440000Y-42660000D03*
X185440000Y-45200000D03*
X182900000Y-42660000D03*
X182900000Y-45200000D03*
X180360000Y-42660000D03*
X180360000Y-45200000D03*
X177820000Y-42660000D03*
X177820000Y-45200000D03*
X175280000Y-42660000D03*
X175280000Y-45200000D03*
X172740000Y-42660000D03*
X172740000Y-45200000D03*
X170200000Y-42660000D03*
D15*
X170200000Y-45200000D03*
D12*
X143600000Y-82400000D03*
X110000000Y-250800000D03*
X103700000Y-250800000D03*
X97400000Y-250800000D03*
X223000000Y-102000000D03*
X81000000Y-248600000D03*
X159800000Y-174000000D03*
D16*
X81950000Y-71800000D03*
X123950000Y-273650000D03*
X159000000Y-204000000D03*
D12*
X81000000Y-259000000D03*
X36400000Y-234000000D03*
X81000000Y-255400000D03*
X195400000Y-211200000D03*
X195400000Y-203500000D03*
X195400000Y-195800000D03*
X172400000Y-74800000D03*
X163000000Y-251500000D03*
X156000000Y-251500000D03*
D17*
X205830000Y-45095000D03*
X208370000Y-42555000D03*
X208370000Y-45095000D03*
X205830000Y-42555000D03*
X207100000Y-43825000D03*
X221270000Y-45470000D03*
X218730000Y-42930000D03*
X221270000Y-42930000D03*
X218730000Y-45470000D03*
X220000000Y-44200000D03*
D18*
X108402000Y-234000000D03*
X108402000Y-232000000D03*
X108402000Y-192000000D03*
X108402000Y-218000000D03*
X108402000Y-230000000D03*
X108402000Y-228000000D03*
X108402000Y-224000000D03*
X108402000Y-194000000D03*
X108402000Y-210000000D03*
X108402000Y-226000000D03*
X108402000Y-222000000D03*
X108402000Y-220000000D03*
X108402000Y-216000000D03*
X108402000Y-190000000D03*
X108402000Y-188000000D03*
X108402000Y-186000000D03*
X108402000Y-214000000D03*
X108402000Y-212000000D03*
X108402000Y-208000000D03*
X108402000Y-206000000D03*
X108402000Y-204000000D03*
X108402000Y-200000000D03*
X108402000Y-202000000D03*
X106402000Y-233000000D03*
X106402000Y-231000000D03*
X106402000Y-229000000D03*
X106402000Y-227000000D03*
X106402000Y-225000000D03*
X106402000Y-223000000D03*
X106402000Y-221000000D03*
X106402000Y-219000000D03*
X106402000Y-217000000D03*
X106402000Y-215000000D03*
X106402000Y-213000000D03*
X106402000Y-211000000D03*
X106402000Y-209000000D03*
X106402000Y-207000000D03*
X106402000Y-205000000D03*
X106402000Y-203000000D03*
X106402000Y-201000000D03*
X106402000Y-199000000D03*
X106402000Y-195000000D03*
X106402000Y-193000000D03*
X106402000Y-191000000D03*
X106402000Y-189000000D03*
X106402000Y-187000000D03*
X106402000Y-185000000D03*
X103402000Y-187000000D03*
X103402000Y-227000000D03*
X103402000Y-195000000D03*
X103402000Y-221000000D03*
X103402000Y-193000000D03*
X103402000Y-201000000D03*
X103402000Y-199000000D03*
X103402000Y-203000000D03*
X103402000Y-189000000D03*
X103402000Y-191000000D03*
X103402000Y-223000000D03*
X103402000Y-225000000D03*
X103402000Y-229000000D03*
X103402000Y-231000000D03*
X103402000Y-233000000D03*
X103402000Y-209000000D03*
X103402000Y-205000000D03*
X103402000Y-207000000D03*
X103402000Y-211000000D03*
X103402000Y-213000000D03*
X103402000Y-215000000D03*
X103402000Y-185000000D03*
X103402000Y-217000000D03*
X103402000Y-219000000D03*
X101402000Y-206000000D03*
X101402000Y-208000000D03*
X101402000Y-218000000D03*
X101402000Y-202000000D03*
X101402000Y-220000000D03*
X101402000Y-204000000D03*
X101402000Y-216000000D03*
X101402000Y-200000000D03*
X101402000Y-212000000D03*
X101402000Y-224000000D03*
X101402000Y-226000000D03*
X101402000Y-210000000D03*
X101402000Y-228000000D03*
X101402000Y-232000000D03*
X101402000Y-234000000D03*
X101402000Y-230000000D03*
X101402000Y-186000000D03*
X101402000Y-192000000D03*
X101402000Y-214000000D03*
X101402000Y-194000000D03*
X101402000Y-222000000D03*
X101402000Y-190000000D03*
X101402000Y-188000000D03*
X108402000Y-198000000D03*
X101402000Y-198000000D03*
X103402000Y-235000000D03*
X106402000Y-235000000D03*
X143962000Y-234000000D03*
X143962000Y-232000000D03*
X143962000Y-192000000D03*
X143962000Y-218000000D03*
X143962000Y-230000000D03*
X143962000Y-228000000D03*
X143962000Y-224000000D03*
X143962000Y-194000000D03*
X143962000Y-210000000D03*
X143962000Y-226000000D03*
X143962000Y-222000000D03*
X143962000Y-220000000D03*
X143962000Y-216000000D03*
X143962000Y-190000000D03*
X143962000Y-188000000D03*
X143962000Y-186000000D03*
X143962000Y-214000000D03*
X143962000Y-212000000D03*
X143962000Y-208000000D03*
X143962000Y-206000000D03*
X143962000Y-204000000D03*
X143962000Y-200000000D03*
X143962000Y-202000000D03*
X141962000Y-233000000D03*
X141962000Y-231000000D03*
X141962000Y-229000000D03*
X141962000Y-227000000D03*
X141962000Y-225000000D03*
X141962000Y-223000000D03*
X141962000Y-221000000D03*
X141962000Y-219000000D03*
X141962000Y-217000000D03*
X141962000Y-215000000D03*
X141962000Y-213000000D03*
X141962000Y-211000000D03*
X141962000Y-209000000D03*
X141962000Y-207000000D03*
X141962000Y-205000000D03*
X141962000Y-203000000D03*
X141962000Y-201000000D03*
X141962000Y-199000000D03*
X141962000Y-195000000D03*
X141962000Y-193000000D03*
X141962000Y-191000000D03*
X141962000Y-189000000D03*
X141962000Y-187000000D03*
X141962000Y-185000000D03*
X138962000Y-187000000D03*
X138962000Y-227000000D03*
X138962000Y-195000000D03*
X138962000Y-221000000D03*
X138962000Y-193000000D03*
X138962000Y-201000000D03*
X138962000Y-199000000D03*
X138962000Y-203000000D03*
X138962000Y-189000000D03*
X138962000Y-191000000D03*
X138962000Y-223000000D03*
X138962000Y-225000000D03*
X138962000Y-229000000D03*
X138962000Y-231000000D03*
X138962000Y-233000000D03*
X138962000Y-209000000D03*
X138962000Y-205000000D03*
X138962000Y-207000000D03*
X138962000Y-211000000D03*
X138962000Y-213000000D03*
X138962000Y-215000000D03*
X138962000Y-185000000D03*
X138962000Y-217000000D03*
X138962000Y-219000000D03*
X136962000Y-206000000D03*
X136962000Y-208000000D03*
X136962000Y-218000000D03*
X136962000Y-202000000D03*
X136962000Y-220000000D03*
X136962000Y-204000000D03*
X136962000Y-216000000D03*
X136962000Y-200000000D03*
X136962000Y-212000000D03*
X136962000Y-224000000D03*
X136962000Y-226000000D03*
X136962000Y-210000000D03*
X136962000Y-228000000D03*
X136962000Y-232000000D03*
X136962000Y-234000000D03*
X136962000Y-230000000D03*
X136962000Y-186000000D03*
X136962000Y-192000000D03*
X136962000Y-214000000D03*
X136962000Y-194000000D03*
X136962000Y-222000000D03*
X136962000Y-190000000D03*
X136962000Y-188000000D03*
X143962000Y-198000000D03*
X136962000Y-198000000D03*
X138962000Y-235000000D03*
X141962000Y-235000000D03*
X179522000Y-234000000D03*
X179522000Y-232000000D03*
X179522000Y-192000000D03*
X179522000Y-218000000D03*
X179522000Y-230000000D03*
X179522000Y-228000000D03*
X179522000Y-224000000D03*
X179522000Y-194000000D03*
X179522000Y-210000000D03*
X179522000Y-226000000D03*
X179522000Y-222000000D03*
X179522000Y-220000000D03*
X179522000Y-216000000D03*
X179522000Y-190000000D03*
X179522000Y-188000000D03*
X179522000Y-186000000D03*
X179522000Y-214000000D03*
X179522000Y-212000000D03*
X179522000Y-208000000D03*
X179522000Y-206000000D03*
X179522000Y-204000000D03*
X179522000Y-200000000D03*
X179522000Y-202000000D03*
X177522000Y-233000000D03*
X177522000Y-231000000D03*
X177522000Y-229000000D03*
X177522000Y-227000000D03*
X177522000Y-225000000D03*
X177522000Y-223000000D03*
X177522000Y-221000000D03*
X177522000Y-219000000D03*
X177522000Y-217000000D03*
X177522000Y-215000000D03*
X177522000Y-213000000D03*
X177522000Y-211000000D03*
X177522000Y-209000000D03*
X177522000Y-207000000D03*
X177522000Y-205000000D03*
X177522000Y-203000000D03*
X177522000Y-201000000D03*
X177522000Y-199000000D03*
X177522000Y-195000000D03*
X177522000Y-193000000D03*
X177522000Y-191000000D03*
X177522000Y-189000000D03*
X177522000Y-187000000D03*
X177522000Y-185000000D03*
X174522000Y-187000000D03*
X174522000Y-227000000D03*
X174522000Y-195000000D03*
X174522000Y-221000000D03*
X174522000Y-193000000D03*
X174522000Y-201000000D03*
X174522000Y-199000000D03*
X174522000Y-203000000D03*
X174522000Y-189000000D03*
X174522000Y-191000000D03*
X174522000Y-223000000D03*
X174522000Y-225000000D03*
X174522000Y-229000000D03*
X174522000Y-231000000D03*
X174522000Y-233000000D03*
X174522000Y-209000000D03*
X174522000Y-205000000D03*
X174522000Y-207000000D03*
X174522000Y-211000000D03*
X174522000Y-213000000D03*
X174522000Y-215000000D03*
X174522000Y-185000000D03*
X174522000Y-217000000D03*
X174522000Y-219000000D03*
X172522000Y-206000000D03*
X172522000Y-208000000D03*
X172522000Y-218000000D03*
X172522000Y-202000000D03*
X172522000Y-220000000D03*
X172522000Y-204000000D03*
X172522000Y-216000000D03*
X172522000Y-200000000D03*
X172522000Y-212000000D03*
X172522000Y-224000000D03*
X172522000Y-226000000D03*
X172522000Y-210000000D03*
X172522000Y-228000000D03*
X172522000Y-232000000D03*
X172522000Y-234000000D03*
X172522000Y-230000000D03*
X172522000Y-186000000D03*
X172522000Y-192000000D03*
X172522000Y-214000000D03*
X172522000Y-194000000D03*
X172522000Y-222000000D03*
X172522000Y-190000000D03*
X172522000Y-188000000D03*
X179522000Y-198000000D03*
X172522000Y-198000000D03*
X174522000Y-235000000D03*
X177522000Y-235000000D03*
X215082000Y-234000000D03*
X215082000Y-232000000D03*
X215082000Y-192000000D03*
X215082000Y-218000000D03*
X215082000Y-230000000D03*
X215082000Y-228000000D03*
X215082000Y-224000000D03*
X215082000Y-194000000D03*
X215082000Y-210000000D03*
X215082000Y-226000000D03*
X215082000Y-222000000D03*
X215082000Y-220000000D03*
X215082000Y-216000000D03*
X215082000Y-190000000D03*
X215082000Y-188000000D03*
X215082000Y-186000000D03*
X215082000Y-214000000D03*
X215082000Y-212000000D03*
X215082000Y-208000000D03*
X215082000Y-206000000D03*
X215082000Y-204000000D03*
X215082000Y-200000000D03*
X215082000Y-202000000D03*
X213082000Y-233000000D03*
X213082000Y-231000000D03*
X213082000Y-229000000D03*
X213082000Y-227000000D03*
X213082000Y-225000000D03*
X213082000Y-223000000D03*
X213082000Y-221000000D03*
X213082000Y-219000000D03*
X213082000Y-217000000D03*
X213082000Y-215000000D03*
X213082000Y-213000000D03*
X213082000Y-211000000D03*
X213082000Y-209000000D03*
X213082000Y-207000000D03*
X213082000Y-205000000D03*
X213082000Y-203000000D03*
X213082000Y-201000000D03*
X213082000Y-199000000D03*
X213082000Y-195000000D03*
X213082000Y-193000000D03*
X213082000Y-191000000D03*
X213082000Y-189000000D03*
X213082000Y-187000000D03*
X213082000Y-185000000D03*
X210082000Y-187000000D03*
X210082000Y-227000000D03*
X210082000Y-195000000D03*
X210082000Y-221000000D03*
X210082000Y-193000000D03*
X210082000Y-201000000D03*
X210082000Y-199000000D03*
X210082000Y-203000000D03*
X210082000Y-189000000D03*
X210082000Y-191000000D03*
X210082000Y-223000000D03*
X210082000Y-225000000D03*
X210082000Y-229000000D03*
X210082000Y-231000000D03*
X210082000Y-233000000D03*
X210082000Y-209000000D03*
X210082000Y-205000000D03*
X210082000Y-207000000D03*
X210082000Y-211000000D03*
X210082000Y-213000000D03*
X210082000Y-215000000D03*
X210082000Y-185000000D03*
X210082000Y-217000000D03*
X210082000Y-219000000D03*
X208082000Y-206000000D03*
X208082000Y-208000000D03*
X208082000Y-218000000D03*
X208082000Y-202000000D03*
X208082000Y-220000000D03*
X208082000Y-204000000D03*
X208082000Y-216000000D03*
X208082000Y-200000000D03*
X208082000Y-212000000D03*
X208082000Y-224000000D03*
X208082000Y-226000000D03*
X208082000Y-210000000D03*
X208082000Y-228000000D03*
X208082000Y-232000000D03*
X208082000Y-234000000D03*
X208082000Y-230000000D03*
X208082000Y-186000000D03*
X208082000Y-192000000D03*
X208082000Y-214000000D03*
X208082000Y-194000000D03*
X208082000Y-222000000D03*
X208082000Y-190000000D03*
X208082000Y-188000000D03*
X215082000Y-198000000D03*
X208082000Y-198000000D03*
X210082000Y-235000000D03*
X213082000Y-235000000D03*
X67762000Y-234000000D03*
X67762000Y-232000000D03*
X67762000Y-192000000D03*
X67762000Y-218000000D03*
X67762000Y-230000000D03*
X67762000Y-228000000D03*
X67762000Y-224000000D03*
X67762000Y-194000000D03*
X67762000Y-210000000D03*
X67762000Y-226000000D03*
X67762000Y-222000000D03*
X67762000Y-220000000D03*
X67762000Y-216000000D03*
X67762000Y-190000000D03*
X67762000Y-188000000D03*
X67762000Y-186000000D03*
X67762000Y-214000000D03*
X67762000Y-212000000D03*
X67762000Y-208000000D03*
X67762000Y-206000000D03*
X67762000Y-204000000D03*
X67762000Y-200000000D03*
X67762000Y-202000000D03*
X65762000Y-233000000D03*
X65762000Y-231000000D03*
X65762000Y-229000000D03*
X65762000Y-227000000D03*
X65762000Y-225000000D03*
X65762000Y-223000000D03*
X65762000Y-221000000D03*
X65762000Y-219000000D03*
X65762000Y-217000000D03*
X65762000Y-215000000D03*
X65762000Y-213000000D03*
X65762000Y-211000000D03*
X65762000Y-209000000D03*
X65762000Y-207000000D03*
X65762000Y-205000000D03*
X65762000Y-203000000D03*
X65762000Y-201000000D03*
X65762000Y-199000000D03*
X65762000Y-195000000D03*
X65762000Y-193000000D03*
X65762000Y-191000000D03*
X65762000Y-189000000D03*
X65762000Y-187000000D03*
X65762000Y-185000000D03*
X62762000Y-187000000D03*
X62762000Y-227000000D03*
X62762000Y-195000000D03*
X62762000Y-221000000D03*
X62762000Y-193000000D03*
X62762000Y-201000000D03*
X62762000Y-199000000D03*
X62762000Y-203000000D03*
X62762000Y-189000000D03*
X62762000Y-191000000D03*
X62762000Y-223000000D03*
X62762000Y-225000000D03*
X62762000Y-229000000D03*
X62762000Y-231000000D03*
X62762000Y-233000000D03*
X62762000Y-209000000D03*
X62762000Y-205000000D03*
X62762000Y-207000000D03*
X62762000Y-211000000D03*
X62762000Y-213000000D03*
X62762000Y-215000000D03*
X62762000Y-185000000D03*
X62762000Y-217000000D03*
X62762000Y-219000000D03*
X60762000Y-206000000D03*
X60762000Y-208000000D03*
X60762000Y-218000000D03*
X60762000Y-202000000D03*
X60762000Y-220000000D03*
X60762000Y-204000000D03*
X60762000Y-216000000D03*
X60762000Y-200000000D03*
X60762000Y-212000000D03*
X60762000Y-224000000D03*
X60762000Y-226000000D03*
X60762000Y-210000000D03*
X60762000Y-228000000D03*
X60762000Y-232000000D03*
X60762000Y-234000000D03*
X60762000Y-230000000D03*
X60762000Y-186000000D03*
X60762000Y-192000000D03*
X60762000Y-214000000D03*
X60762000Y-194000000D03*
X60762000Y-222000000D03*
X60762000Y-190000000D03*
X60762000Y-188000000D03*
X67762000Y-198000000D03*
X60762000Y-198000000D03*
X62762000Y-235000000D03*
X65762000Y-235000000D03*
D19*
X161050000Y-67630000D03*
X162450000Y-67630000D03*
X161050000Y-68830000D03*
X162450000Y-68830000D03*
X161050000Y-70030000D03*
X162450000Y-70030000D03*
G04 #@! TA.AperFunction,Conductor*
D20*
G36*
X162474504Y-67381204D02*
G01*
X162498773Y-67384804D01*
X162522571Y-67390765D01*
X162545671Y-67399030D01*
X162567849Y-67409520D01*
X162588893Y-67422133D01*
X162608598Y-67436747D01*
X162626777Y-67453223D01*
X162643253Y-67471402D01*
X162657867Y-67491107D01*
X162670480Y-67512151D01*
X162680970Y-67534329D01*
X162689235Y-67557429D01*
X162695196Y-67581227D01*
X162698796Y-67605496D01*
X162700000Y-67630000D01*
X162700000Y-70030000D01*
X162698796Y-70054504D01*
X162695196Y-70078773D01*
X162689235Y-70102571D01*
X162680970Y-70125671D01*
X162670480Y-70147849D01*
X162657867Y-70168893D01*
X162643253Y-70188598D01*
X162626777Y-70206777D01*
X162608598Y-70223253D01*
X162588893Y-70237867D01*
X162567849Y-70250480D01*
X162545671Y-70260970D01*
X162522571Y-70269235D01*
X162498773Y-70275196D01*
X162474504Y-70278796D01*
X162450000Y-70280000D01*
X161050000Y-70280000D01*
X161025496Y-70278796D01*
X161001227Y-70275196D01*
X160977429Y-70269235D01*
X160954329Y-70260970D01*
X160932151Y-70250480D01*
X160911107Y-70237867D01*
X160891402Y-70223253D01*
X160873223Y-70206777D01*
X160856747Y-70188598D01*
X160842133Y-70168893D01*
X160829520Y-70147849D01*
X160819030Y-70125671D01*
X160810765Y-70102571D01*
X160804804Y-70078773D01*
X160801204Y-70054504D01*
X160800000Y-70030000D01*
X160800000Y-67630000D01*
X160801204Y-67605496D01*
X160804804Y-67581227D01*
X160810765Y-67557429D01*
X160819030Y-67534329D01*
X160829520Y-67512151D01*
X160842133Y-67491107D01*
X160856747Y-67471402D01*
X160873223Y-67453223D01*
X160891402Y-67436747D01*
X160911107Y-67422133D01*
X160932151Y-67409520D01*
X160954329Y-67399030D01*
X160977429Y-67390765D01*
X161001227Y-67384804D01*
X161025496Y-67381204D01*
X161050000Y-67380000D01*
X162450000Y-67380000D01*
X162474504Y-67381204D01*
G37*
G04 #@! TD.AperFunction*
D17*
X207000000Y-54400000D03*
X205730000Y-53130000D03*
X208270000Y-55670000D03*
X208270000Y-53130000D03*
X205730000Y-55670000D03*
D15*
X43710000Y-65235000D03*
D14*
X41170000Y-65235000D03*
X43710000Y-67775000D03*
X41170000Y-67775000D03*
X43710000Y-70315000D03*
X41170000Y-70315000D03*
X43710000Y-72855000D03*
X41170000Y-72855000D03*
X43710000Y-75395000D03*
X41170000Y-75395000D03*
X43710000Y-77935000D03*
X41170000Y-77935000D03*
X43710000Y-80475000D03*
X41170000Y-80475000D03*
X43710000Y-83015000D03*
X41170000Y-83015000D03*
D12*
X185000000Y-267200000D03*
X195000000Y-267200000D03*
X195000000Y-275000000D03*
X185000000Y-275000000D03*
D17*
X228730000Y-45470000D03*
X231270000Y-42930000D03*
X231270000Y-45470000D03*
X228730000Y-42930000D03*
X230000000Y-44200000D03*
X218730000Y-55670000D03*
X221270000Y-53130000D03*
X221270000Y-55670000D03*
X218730000Y-53130000D03*
X220000000Y-54400000D03*
D21*
X221100000Y-88500000D03*
X231800000Y-112200000D03*
D22*
X223000000Y-121600000D03*
X221600000Y-107600000D03*
X223000000Y-105000000D03*
X224800000Y-119400000D03*
X221600000Y-119000000D03*
X223000000Y-121600000D03*
X224800000Y-130200000D03*
X221600000Y-129800000D03*
X223000000Y-132400000D03*
X222800000Y-145600000D03*
X224300000Y-145600000D03*
X221300000Y-145600000D03*
X219800000Y-145600000D03*
X225800000Y-145600000D03*
X97600000Y-127400000D03*
X106000000Y-132600000D03*
X105000000Y-133600000D03*
X111600000Y-122800000D03*
X109000000Y-124800000D03*
X109200000Y-137600000D03*
X109800000Y-135800000D03*
X109000000Y-146400000D03*
X108000000Y-147400000D03*
X94600000Y-146800000D03*
X96200000Y-146800000D03*
X97800000Y-146800000D03*
X99400000Y-146800000D03*
X101000000Y-146800000D03*
X102600000Y-146800000D03*
X104000000Y-146800000D03*
X110800000Y-147000000D03*
X112200000Y-147000000D03*
X219000000Y-144600000D03*
X220500000Y-144600000D03*
X222000000Y-144600000D03*
X223500000Y-144600000D03*
X225000000Y-144600000D03*
X224800000Y-140800000D03*
X221600000Y-140400000D03*
X223000000Y-143000000D03*
X224300000Y-107700000D03*
X186500000Y-91000000D03*
X185200000Y-83400000D03*
X185200000Y-86600000D03*
D23*
X159000000Y-235800000D03*
D22*
X163800000Y-270400000D03*
X178000000Y-271800000D03*
X180400000Y-263200000D03*
X169400000Y-238600000D03*
X92400000Y-271300000D03*
X188200000Y-228200000D03*
X223600000Y-228200000D03*
X152600000Y-228200000D03*
X222400000Y-258800000D03*
X187000000Y-258800000D03*
X151400000Y-258800000D03*
D23*
X54000000Y-96000000D03*
X43000000Y-258800000D03*
D22*
X58000000Y-229600000D03*
X58000000Y-258800000D03*
X117000000Y-228200000D03*
X115800000Y-258800000D03*
D21*
X140567644Y-108632356D03*
D22*
X187200000Y-228000000D03*
X222600000Y-228000000D03*
X151600000Y-228000000D03*
X222400000Y-255200000D03*
X187000000Y-255200000D03*
X151400000Y-255200000D03*
X71800000Y-229400000D03*
X73400000Y-255200000D03*
X116000000Y-228000000D03*
X115800000Y-255200000D03*
X151100000Y-273700000D03*
X149500000Y-255200000D03*
X201400000Y-221800000D03*
X200800000Y-248400000D03*
X166000000Y-221800000D03*
X165400000Y-248400000D03*
X130400000Y-221800000D03*
X129800000Y-248400000D03*
X70200000Y-227200000D03*
X71800000Y-248400000D03*
X94800000Y-221800000D03*
X94200000Y-248400000D03*
D21*
X145400000Y-137928600D03*
X143967644Y-126632356D03*
X141850000Y-98250000D03*
D22*
X218200000Y-238800000D03*
X182800000Y-238800000D03*
X147200000Y-238800000D03*
X111600000Y-238800000D03*
X69600000Y-238800000D03*
D23*
X171000000Y-262800000D03*
D22*
X190500000Y-271700000D03*
D23*
X171200000Y-238800000D03*
D22*
X163000000Y-238500000D03*
D21*
X145400000Y-137271400D03*
X144432356Y-126167644D03*
X142500000Y-97850000D03*
X141032356Y-108167644D03*
X208200000Y-123400000D03*
X203400000Y-91200000D03*
X207400000Y-124600000D03*
X201600000Y-90000000D03*
X195400000Y-189000000D03*
X137600000Y-126800000D03*
X139928600Y-97200000D03*
X137728600Y-106956235D03*
X183700000Y-81300000D03*
X204200000Y-135100000D03*
X211900000Y-79500000D03*
X211900000Y-77500000D03*
X197493999Y-187093999D03*
X133632356Y-115632356D03*
X133167644Y-115167644D03*
X137071400Y-106956235D03*
X139271400Y-97200000D03*
X145071400Y-97000000D03*
X143471400Y-108600000D03*
X146967644Y-118567644D03*
X147432356Y-119032356D03*
X144128600Y-108600000D03*
X145728600Y-97000000D03*
X152000000Y-125400000D03*
X147632356Y-111767644D03*
X147128600Y-97800000D03*
X159128600Y-130000000D03*
X160832356Y-141632356D03*
X146471400Y-97800000D03*
X158471400Y-130000000D03*
X160367644Y-141167644D03*
X147167644Y-112232356D03*
X151967644Y-107832356D03*
X175471400Y-141000000D03*
X173800000Y-130528600D03*
X152271400Y-98000000D03*
X176128600Y-141000000D03*
X173800000Y-129871400D03*
X152928600Y-98000000D03*
X152432356Y-107367644D03*
X166400000Y-124600000D03*
X149528600Y-97800000D03*
X148832356Y-108167644D03*
X157128600Y-118800000D03*
X156471400Y-118800000D03*
X148367644Y-108632356D03*
X148871400Y-97800000D03*
X154471400Y-98000000D03*
X157567644Y-108832356D03*
X173767644Y-125632356D03*
X174232356Y-125167644D03*
X158032356Y-108367644D03*
X155128600Y-98000000D03*
X168000000Y-125800000D03*
X168000000Y-130800000D03*
X190600000Y-134400000D03*
X157528600Y-102200000D03*
X157534996Y-98320050D03*
X207128600Y-132400000D03*
X212447605Y-142774364D03*
X156877796Y-98320050D03*
X206471400Y-132400000D03*
X211790405Y-142774364D03*
X156800000Y-102200000D03*
X226000000Y-93000000D03*
X228000000Y-138200000D03*
X145700000Y-136700000D03*
X213400000Y-99600000D03*
X209200000Y-99600000D03*
X219400000Y-99600000D03*
X224200000Y-99400000D03*
X204400000Y-99400000D03*
X203800000Y-75600000D03*
X203800000Y-87000000D03*
X203800000Y-79000000D03*
X205000000Y-91800000D03*
X203800000Y-70600000D03*
X203800000Y-83000000D03*
X204000000Y-64000000D03*
X209000000Y-64200000D03*
X214000000Y-64800000D03*
X219000000Y-64800000D03*
X223600000Y-65000000D03*
X224000000Y-84800000D03*
X224000000Y-79800000D03*
X224000000Y-74800000D03*
X224000000Y-69800000D03*
D22*
X33000000Y-34600000D03*
X43000000Y-34600000D03*
X53000000Y-34600000D03*
X63000000Y-34600000D03*
X73000000Y-34600000D03*
X83000000Y-34600000D03*
X93000000Y-34600000D03*
X103000000Y-34600000D03*
X113000000Y-34600000D03*
X123000000Y-34600000D03*
X133000000Y-34600000D03*
X143000000Y-34600000D03*
X153000000Y-34600000D03*
X163000000Y-34600000D03*
X173000000Y-34600000D03*
X183000000Y-34600000D03*
X193000000Y-34600000D03*
X203000000Y-34600000D03*
X213000000Y-34600000D03*
X223000000Y-34600000D03*
X221600000Y-108400000D03*
X223000000Y-111000000D03*
X226400000Y-119400000D03*
X226400000Y-117800000D03*
X221600000Y-118200000D03*
X223000000Y-115600000D03*
X226400000Y-130200000D03*
X226400000Y-128600000D03*
X221600000Y-129000000D03*
X223000000Y-126400000D03*
X169600000Y-219400000D03*
X185000000Y-225600000D03*
X185000000Y-224600000D03*
X185200000Y-223600000D03*
X168600000Y-220200000D03*
X185000000Y-226800000D03*
X205000000Y-219400000D03*
X220400000Y-225600000D03*
X220400000Y-224600000D03*
X220600000Y-223600000D03*
X204000000Y-220200000D03*
X220400000Y-226800000D03*
X134000000Y-219400000D03*
X149400000Y-225600000D03*
X149400000Y-224600000D03*
X149600000Y-223600000D03*
X133000000Y-220200000D03*
X149400000Y-226800000D03*
X213600000Y-179600000D03*
X178000000Y-179600000D03*
X142400000Y-179600000D03*
X107000000Y-179600000D03*
X66400000Y-179600000D03*
X125400000Y-181600000D03*
X120600000Y-181600000D03*
X169400000Y-265400000D03*
X178600000Y-268400000D03*
X200200000Y-270200000D03*
X164400000Y-277200000D03*
X166600000Y-275800000D03*
X158400000Y-275600000D03*
X156000000Y-275600000D03*
X155850000Y-267150000D03*
X159750000Y-267150000D03*
X83600000Y-265600000D03*
X83600000Y-267600000D03*
X83600000Y-270200000D03*
X83600000Y-272200000D03*
X98200000Y-263200000D03*
X95800000Y-268800000D03*
X97600000Y-266900000D03*
X109400000Y-267600000D03*
X109400000Y-270200000D03*
X125600000Y-249800000D03*
X128200000Y-251400000D03*
X131800000Y-251400000D03*
X134600000Y-249600000D03*
X56200000Y-229200000D03*
X72000000Y-225200000D03*
X72800000Y-226000000D03*
X73600000Y-226800000D03*
X74200000Y-228000000D03*
X83800000Y-236400000D03*
X113800000Y-226800000D03*
X113800000Y-225600000D03*
X113800000Y-224600000D03*
X114000000Y-223600000D03*
X97400000Y-220200000D03*
X98400000Y-219400000D03*
X119400000Y-264500000D03*
X116700000Y-262300000D03*
X71200000Y-274800000D03*
X72400000Y-273600000D03*
X73800000Y-271100000D03*
X76400000Y-262900000D03*
X71100000Y-263000000D03*
X75000000Y-273600000D03*
X77500000Y-273500000D03*
X99400000Y-133400000D03*
X91200000Y-136000000D03*
X108200000Y-122800000D03*
X109200000Y-121800000D03*
X103400000Y-131600000D03*
X103400000Y-133600000D03*
X105425000Y-130575000D03*
X100200000Y-128600000D03*
X99200000Y-129600000D03*
X105400000Y-124600000D03*
X109200000Y-125600000D03*
X113200000Y-135800000D03*
X112400000Y-136800000D03*
X103600000Y-136800000D03*
X105400000Y-143545000D03*
X102200000Y-143600000D03*
X105400000Y-146400000D03*
X106400000Y-147400000D03*
X109200000Y-138400000D03*
X226400000Y-140800000D03*
X226400000Y-139200000D03*
X221600000Y-139600000D03*
X223000000Y-137000000D03*
X227400000Y-108000000D03*
X133700000Y-98400000D03*
X133700000Y-106100000D03*
X138500000Y-98400000D03*
X138500000Y-106100000D03*
X140900000Y-98500000D03*
X140900000Y-106100000D03*
X143300000Y-98500000D03*
X143300000Y-106100000D03*
X144500000Y-102100000D03*
X144000000Y-102800000D03*
X148100000Y-106200000D03*
X148100000Y-98500000D03*
X153700000Y-101600000D03*
X153700000Y-102700000D03*
X156100000Y-106000000D03*
X156100000Y-97600000D03*
X158500000Y-101900000D03*
X161700000Y-98400000D03*
X161700000Y-103000000D03*
X164100000Y-103000000D03*
X136900000Y-102000000D03*
X133700000Y-53900000D03*
X133700000Y-61500000D03*
X136100000Y-54000000D03*
X136100000Y-61700000D03*
X138500000Y-54000000D03*
X138500000Y-61700000D03*
X140900000Y-54000000D03*
X140900000Y-61700000D03*
X143300000Y-54000000D03*
X143300000Y-61700000D03*
X145700000Y-54000000D03*
X145700000Y-61700000D03*
X148100000Y-61700000D03*
X148100000Y-54000000D03*
X153700000Y-54100000D03*
X153700000Y-61700000D03*
X156100000Y-58400000D03*
X156100000Y-54100000D03*
X158500000Y-54000000D03*
X161700000Y-54000000D03*
X161700000Y-61600000D03*
X165700000Y-61600000D03*
X165700000Y-54000000D03*
X203800000Y-278200000D03*
X203000000Y-279000000D03*
X161800000Y-42200000D03*
X161800000Y-45800000D03*
X164600000Y-44200000D03*
X153600000Y-52000000D03*
X153200000Y-51000000D03*
X152700000Y-95400000D03*
X153700000Y-96400000D03*
X157565000Y-70735000D03*
X166100000Y-68500000D03*
X167100000Y-69300000D03*
X161700000Y-65000000D03*
X160900000Y-64100000D03*
X158200000Y-94700000D03*
X159300000Y-94700000D03*
X164100000Y-98500000D03*
X224093959Y-108421145D03*
X195800000Y-83200000D03*
X195600000Y-86600000D03*
X195600000Y-89800000D03*
X210400000Y-73800000D03*
X205000000Y-69000000D03*
X206600000Y-68600000D03*
X212600000Y-96400000D03*
X207800000Y-93200000D03*
X208800000Y-92200000D03*
X214200000Y-93600000D03*
X217800000Y-85800000D03*
X218800000Y-84800000D03*
X218400000Y-83400000D03*
X219400000Y-82400000D03*
X217100000Y-89500000D03*
X205700000Y-87400000D03*
X206800000Y-88300000D03*
X162000000Y-52000000D03*
X40300000Y-88400000D03*
X42800000Y-86400000D03*
X57900000Y-80700000D03*
X59700000Y-78600000D03*
X47200000Y-79900000D03*
X46000000Y-80800000D03*
X51000000Y-80800000D03*
X48500000Y-80900000D03*
X48100000Y-77800000D03*
X46200000Y-77800000D03*
X48600000Y-74900000D03*
X50700000Y-75000000D03*
X46300000Y-72100000D03*
X48100000Y-72300000D03*
X48700000Y-69300000D03*
X50600000Y-69300000D03*
X46200000Y-66500000D03*
X48200000Y-66400000D03*
X52000000Y-63800000D03*
X53800000Y-61900000D03*
X52000000Y-60100000D03*
X96250000Y-127350000D03*
D21*
X204400000Y-94000000D03*
X204400000Y-96800000D03*
X224200000Y-95800000D03*
X224000000Y-86800000D03*
X225800000Y-90400000D03*
X216400000Y-98400000D03*
D22*
X34200000Y-282800000D03*
X122800000Y-282800000D03*
X232800000Y-282800000D03*
X222800000Y-282800000D03*
X162800000Y-282800000D03*
X42800000Y-282800000D03*
X172800000Y-282800000D03*
X132800000Y-282800000D03*
X92800000Y-282800000D03*
X82800000Y-282800000D03*
X202800000Y-282800000D03*
X112800000Y-282800000D03*
X192800000Y-282800000D03*
X212800000Y-282800000D03*
X142800000Y-282800000D03*
X72800000Y-282800000D03*
X62800000Y-282800000D03*
X102800000Y-282800000D03*
X182800000Y-282800000D03*
X152800000Y-282800000D03*
X52800000Y-282800000D03*
X139000000Y-279000000D03*
X139000000Y-274000000D03*
X139000000Y-269000000D03*
X139000000Y-263100000D03*
X34200000Y-225800000D03*
X34200000Y-245800000D03*
X34200000Y-265800000D03*
X34200000Y-175800000D03*
X34200000Y-85800000D03*
X34200000Y-275800000D03*
X34200000Y-215800000D03*
X34200000Y-165800000D03*
X34200000Y-195800000D03*
X34200000Y-125800000D03*
X34200000Y-185800000D03*
X34200000Y-115800000D03*
X34200000Y-145800000D03*
X34200000Y-95800000D03*
X34200000Y-155800000D03*
X34200000Y-205800000D03*
X34200000Y-135800000D03*
X34200000Y-255800000D03*
X34200000Y-44800000D03*
X34200000Y-74800000D03*
X34200000Y-64800000D03*
X30800000Y-232800000D03*
X31400000Y-55200000D03*
X32200000Y-107600000D03*
X34200000Y-238400000D03*
X62800000Y-265800000D03*
X42800000Y-265800000D03*
X52800000Y-265800000D03*
X122300000Y-266800000D03*
X145400000Y-263100000D03*
X132800000Y-263100000D03*
X152300000Y-266800000D03*
X193200000Y-262600000D03*
X213200000Y-262600000D03*
X223200000Y-262600000D03*
X203200000Y-262600000D03*
X182600000Y-262600000D03*
X110000000Y-263200000D03*
X81800000Y-264200000D03*
X88800000Y-264200000D03*
X94200000Y-264200000D03*
X105600000Y-264000000D03*
X103400000Y-264000000D03*
X101400000Y-264000000D03*
X113200000Y-263200000D03*
X115600000Y-263200000D03*
D21*
X234700000Y-77200000D03*
D22*
X234200000Y-260400000D03*
X234200000Y-209800000D03*
D21*
X234700000Y-83200000D03*
D22*
X234200000Y-139800000D03*
X234200000Y-149800000D03*
X234200000Y-199800000D03*
X234200000Y-119800000D03*
X234800000Y-109800000D03*
X234200000Y-39800000D03*
X234200000Y-179800000D03*
X234200000Y-219800000D03*
D21*
X234700000Y-99800000D03*
X234700000Y-69800000D03*
D22*
X234200000Y-189800000D03*
X234200000Y-229800000D03*
D21*
X234700000Y-89800000D03*
X234700000Y-59800000D03*
D22*
X234200000Y-159800000D03*
X234200000Y-169800000D03*
X234200000Y-129800000D03*
X234200000Y-49800000D03*
X234200000Y-34600000D03*
X234200000Y-270800000D03*
X234200000Y-240800000D03*
X234200000Y-250800000D03*
D21*
X232900000Y-58200000D03*
X232900000Y-60700000D03*
X231100000Y-62100000D03*
X232900000Y-63200000D03*
X231100000Y-64600000D03*
X229300000Y-61000000D03*
X232900000Y-65700000D03*
X231100000Y-67100000D03*
X229300000Y-63500000D03*
X227500000Y-65200000D03*
X232900000Y-68200000D03*
X231100000Y-69600000D03*
X229300000Y-66000000D03*
X227500000Y-67700000D03*
X232900000Y-70700000D03*
X231100000Y-72100000D03*
X229300000Y-68500000D03*
X227500000Y-70200000D03*
X232900000Y-73200000D03*
X231100000Y-74600000D03*
X229300000Y-71000000D03*
X227500000Y-72700000D03*
X232900000Y-75700000D03*
X231100000Y-77100000D03*
X229300000Y-73500000D03*
X227500000Y-75200000D03*
X232900000Y-78200000D03*
X231100000Y-79600000D03*
X229300000Y-76000000D03*
X227500000Y-77700000D03*
X232900000Y-80700000D03*
X231100000Y-82100000D03*
X229300000Y-78500000D03*
X227500000Y-80200000D03*
X232900000Y-83200000D03*
X231100000Y-84600000D03*
X229300000Y-81000000D03*
X227500000Y-82700000D03*
X232900000Y-85700000D03*
X231100000Y-87100000D03*
X229300000Y-83500000D03*
X227500000Y-85200000D03*
X232900000Y-88200000D03*
X231100000Y-89600000D03*
X229300000Y-86000000D03*
X232900000Y-90700000D03*
X231100000Y-92100000D03*
X227500000Y-90200000D03*
X232900000Y-93200000D03*
X231100000Y-94600000D03*
X229300000Y-91000000D03*
X232900000Y-95700000D03*
X231100000Y-97100000D03*
X229300000Y-93500000D03*
X232900000Y-98200000D03*
X204500000Y-62200000D03*
X207000000Y-62200000D03*
X224100000Y-56900000D03*
X209500000Y-62200000D03*
X226600000Y-56900000D03*
X212000000Y-62200000D03*
X229100000Y-56900000D03*
X214500000Y-62200000D03*
X215100000Y-59800000D03*
X217000000Y-62200000D03*
X217600000Y-59800000D03*
X219500000Y-62200000D03*
X220100000Y-59800000D03*
X222000000Y-62200000D03*
X222600000Y-59800000D03*
X224500000Y-62200000D03*
X225100000Y-59800000D03*
X227600000Y-59800000D03*
X231100000Y-59600000D03*
X227500000Y-87100000D03*
D22*
X224700000Y-40300000D03*
X224700000Y-50300000D03*
X213700000Y-40300000D03*
X213700000Y-50300000D03*
X203700000Y-50300000D03*
X203700000Y-40300000D03*
X203700000Y-59500000D03*
X203700000Y-55000000D03*
D21*
X227400000Y-97000000D03*
D22*
X232800000Y-102400000D03*
X232800000Y-109600000D03*
D21*
X227400000Y-92000000D03*
D22*
X159000000Y-209000000D03*
X159000000Y-194000000D03*
X159000000Y-199000000D03*
X159000000Y-229000000D03*
X159000000Y-179000000D03*
X159000000Y-219000000D03*
X159000000Y-185000000D03*
X123000000Y-194000000D03*
X123000000Y-199000000D03*
X123000000Y-229000000D03*
X123000000Y-209000000D03*
X123000000Y-179000000D03*
X123000000Y-185000000D03*
X123000000Y-219000000D03*
X87000000Y-209000000D03*
X87000000Y-194000000D03*
X87000000Y-199000000D03*
X87000000Y-229000000D03*
X87000000Y-179000000D03*
X87000000Y-219000000D03*
X87000000Y-185000000D03*
X79500000Y-229000000D03*
X50000000Y-229000000D03*
X97000000Y-229000000D03*
X119500000Y-229000000D03*
X132500000Y-229000000D03*
X164000000Y-229000000D03*
X191500000Y-229000000D03*
X198000000Y-229000000D03*
X226000000Y-229000000D03*
X195000000Y-207500000D03*
X195000000Y-199500000D03*
X195000000Y-179000000D03*
X195000000Y-185000000D03*
D21*
X145100000Y-138500000D03*
X139100000Y-136750000D03*
X153550000Y-135500000D03*
X125600000Y-134900000D03*
X123300000Y-132400000D03*
X138200000Y-127100000D03*
X134200000Y-115400000D03*
X132500000Y-115200000D03*
X146400000Y-118300000D03*
X147950000Y-119450000D03*
X143700000Y-127200000D03*
X145100000Y-126150000D03*
X152600000Y-125850000D03*
X156100000Y-119350000D03*
X157700000Y-118500000D03*
X166300000Y-125250000D03*
X168500000Y-126200000D03*
X173150000Y-125550000D03*
X174850000Y-125150000D03*
X173650000Y-131150000D03*
X173200000Y-129600000D03*
X168550000Y-130300000D03*
X159700000Y-130350000D03*
X158100000Y-129500000D03*
X168700000Y-135200000D03*
X160350000Y-140550000D03*
X161150000Y-142150000D03*
X176500000Y-140450000D03*
X175000000Y-140600000D03*
X191250000Y-134350000D03*
X194450000Y-135250000D03*
X204700000Y-134600000D03*
X206150000Y-131850000D03*
X207650000Y-132800000D03*
X213000000Y-143150000D03*
X211450000Y-142250000D03*
X208000000Y-124900000D03*
X208800000Y-122900000D03*
X99200000Y-124100000D03*
X98350000Y-125700000D03*
X90600000Y-91400000D03*
X87800000Y-92550000D03*
X117000000Y-109350000D03*
X208250000Y-114600000D03*
X208250000Y-113050000D03*
X228700000Y-138100000D03*
X229200000Y-128450000D03*
X229650000Y-114700000D03*
X228300000Y-104700000D03*
X230200000Y-104700000D03*
X221100000Y-97250000D03*
X219950000Y-96250000D03*
X214900000Y-98900000D03*
X213800000Y-97700000D03*
X63700000Y-141600000D03*
X63250000Y-139500000D03*
X63700000Y-138700000D03*
X135300000Y-92200000D03*
X129600000Y-94550000D03*
X132550000Y-93500000D03*
X139600000Y-96650000D03*
X145400000Y-96450000D03*
X149200000Y-97250000D03*
X141850000Y-97600000D03*
X146800000Y-97250000D03*
X152600000Y-97450000D03*
X154800000Y-97450000D03*
X157200000Y-97800000D03*
X138100000Y-107500000D03*
X141150000Y-107550000D03*
X143100000Y-109150000D03*
X144500000Y-109150000D03*
X147500000Y-111100000D03*
X146550000Y-112100000D03*
X148450000Y-109250000D03*
X149450000Y-108300000D03*
X152050000Y-108450000D03*
X153100000Y-107500000D03*
X157650000Y-109450000D03*
X158650000Y-108450000D03*
X133650000Y-111200000D03*
X130700000Y-111400000D03*
X148700000Y-62700000D03*
X153150000Y-62750000D03*
X154300000Y-62950000D03*
X155700000Y-62950000D03*
X156600000Y-63300000D03*
X157150000Y-65050000D03*
X147100000Y-50600000D03*
X146000000Y-52100000D03*
X143550000Y-50650000D03*
X143650000Y-49050000D03*
X142850000Y-48500000D03*
X142500000Y-47300000D03*
X140650000Y-47450000D03*
X140250000Y-45650000D03*
X138500000Y-45900000D03*
X138550000Y-44050000D03*
X134250000Y-44200000D03*
X134450000Y-42850000D03*
X141300000Y-62700000D03*
X142700000Y-62700000D03*
X143700000Y-62700000D03*
X145100000Y-62700000D03*
X139500000Y-63000000D03*
X138400000Y-63000000D03*
X137300000Y-63000000D03*
X136100000Y-63000000D03*
X134900000Y-63000000D03*
X133900000Y-63000000D03*
D22*
X96200000Y-271300000D03*
X95200000Y-272300000D03*
D21*
X140000000Y-62400000D03*
X141671400Y-62200000D03*
X156767644Y-63967644D03*
X154671400Y-62400000D03*
X152071400Y-62200000D03*
X149071400Y-62200000D03*
X144071400Y-62200000D03*
X157232356Y-64432356D03*
X155328600Y-62400000D03*
X152728600Y-62200000D03*
X149728600Y-62200000D03*
X144728600Y-62200000D03*
X142328600Y-62200000D03*
X139000000Y-62400000D03*
X137800000Y-62400000D03*
X136800000Y-62400000D03*
X146600000Y-51071400D03*
X143200000Y-50128600D03*
X133850000Y-43728600D03*
X142200000Y-48528600D03*
X140250000Y-46928600D03*
X138100000Y-45400000D03*
X142200000Y-47871400D03*
X138100000Y-44600000D03*
X143200000Y-49471400D03*
X140250000Y-46271400D03*
X134400000Y-62400000D03*
X133850000Y-43071400D03*
X146600000Y-51728600D03*
D22*
X150500000Y-93900000D03*
X151300000Y-93300000D03*
X150900000Y-92300000D03*
X150900000Y-73000000D03*
X150500000Y-73900000D03*
X151300000Y-73900000D03*
X150900000Y-77000000D03*
X51400000Y-67600000D03*
X202000000Y-66000000D03*
X210600000Y-92000000D03*
X210300001Y-76500001D03*
D21*
X97545384Y-113153863D03*
X207800000Y-113471400D03*
X220567644Y-96167644D03*
X97080672Y-113618575D03*
X207800000Y-114128600D03*
X221032356Y-96632356D03*
D22*
X197917157Y-79582843D03*
D21*
X214300000Y-98728600D03*
D22*
X198482843Y-79017157D03*
D21*
X214300000Y-98071400D03*
X135400000Y-62400000D03*
D22*
X108400000Y-273200000D03*
X108387500Y-264187500D03*
X203400000Y-242600000D03*
X167600000Y-242600000D03*
X132200000Y-242600000D03*
X96600000Y-242600000D03*
X88400000Y-266200000D03*
X86000000Y-242600000D03*
X191600000Y-242600000D03*
X219400000Y-244600000D03*
X218800000Y-231000000D03*
X183600000Y-244600000D03*
X183000000Y-231000000D03*
X148200000Y-244600000D03*
X147600000Y-231000000D03*
X112000000Y-231000000D03*
X112600000Y-244600000D03*
X88400000Y-269200000D03*
X84800000Y-244600000D03*
X207600000Y-244600000D03*
X204400000Y-243600000D03*
X168600000Y-243600000D03*
X133200000Y-243600000D03*
X97600000Y-243600000D03*
X112200000Y-266600000D03*
X111200000Y-243600000D03*
X198400000Y-243600000D03*
X220800000Y-232400000D03*
X220800000Y-245600000D03*
X185000000Y-232400000D03*
X185000000Y-245600000D03*
X149600000Y-232400000D03*
X149600000Y-245600000D03*
X114000000Y-232400000D03*
X114000000Y-245600000D03*
X114000000Y-269000000D03*
D21*
X117200000Y-143200000D03*
X88400000Y-251400000D03*
X99800000Y-251400000D03*
X99800000Y-263800000D03*
X119600000Y-141600000D03*
X91200000Y-265800000D03*
X118200000Y-142400000D03*
X89600000Y-252400000D03*
X102400000Y-252400000D03*
X102400000Y-265600000D03*
D22*
X157700000Y-97300000D03*
X156100000Y-67200000D03*
D21*
X149200000Y-75400000D03*
X131400000Y-102400000D03*
X99800000Y-123800000D03*
X129600000Y-93900000D03*
X132900000Y-97500000D03*
X133000000Y-94100000D03*
X139600000Y-136200000D03*
X153000000Y-135200000D03*
X168800000Y-135800000D03*
X194800000Y-135800000D03*
X229000000Y-127800000D03*
X229000000Y-114800000D03*
X98800000Y-125200000D03*
X116700000Y-108800000D03*
D22*
X177200000Y-267200000D03*
X174800000Y-262400000D03*
X181000000Y-274600000D03*
D21*
X128100000Y-102500000D03*
X130400000Y-94800000D03*
X231000000Y-104600000D03*
X229600000Y-108600000D03*
X229200000Y-104600000D03*
X228800000Y-109400000D03*
X123000000Y-133000000D03*
X132800000Y-108200000D03*
X122600000Y-144400000D03*
X135800000Y-97800000D03*
X125600000Y-134200000D03*
X130400000Y-112000000D03*
X133000000Y-111000000D03*
X137200000Y-97800000D03*
X227400000Y-104600000D03*
X227776223Y-109623777D03*
X131300000Y-62400000D03*
X64400000Y-139000000D03*
X131200000Y-53600000D03*
X63600000Y-138000000D03*
X62600000Y-139800000D03*
X134400000Y-106800000D03*
X90400000Y-92000000D03*
X134500000Y-92000000D03*
X63200000Y-141200000D03*
X87800000Y-93200000D03*
X135000000Y-97500000D03*
X135200000Y-93000000D03*
X132400000Y-145200000D03*
X153000000Y-146400000D03*
X167800000Y-146800000D03*
X201600000Y-144400000D03*
D22*
X199200000Y-274000000D03*
X199200000Y-263600000D03*
X160300000Y-53600000D03*
X192900000Y-41300000D03*
X161300000Y-53300000D03*
X192200000Y-45200000D03*
X160100000Y-58000000D03*
X192500000Y-47200000D03*
X157900000Y-53500000D03*
X156900000Y-53800000D03*
X155400000Y-53300000D03*
X154500000Y-53700000D03*
X153000000Y-53800000D03*
X152400000Y-53200000D03*
X149700000Y-53800000D03*
X149000000Y-53500000D03*
D24*
X233800000Y-110200000D02*
X231800000Y-112200000D01*
X228600000Y-88000000D02*
X233800000Y-93200000D01*
X221423289Y-88500000D02*
X221923289Y-88000000D01*
X221100000Y-88500000D02*
X221423289Y-88500000D01*
X221923289Y-88000000D02*
X228600000Y-88000000D01*
X233800000Y-93200000D02*
X233800000Y-110200000D01*
D25*
X205500000Y-127100000D02*
X214200000Y-127100000D01*
X186500000Y-91000000D02*
X186500000Y-108100000D01*
X214200000Y-127100000D02*
X218700000Y-127100000D01*
X186500000Y-108100000D02*
X205500000Y-127100000D01*
X185200000Y-83400000D02*
X186400000Y-83400000D01*
X186400000Y-83400000D02*
X186500000Y-83500000D01*
X186500000Y-83500000D02*
X186400000Y-86600000D01*
X185200000Y-86600000D02*
X186400000Y-86600000D01*
X186400000Y-86600000D02*
X186500000Y-91000000D01*
D26*
X60762000Y-234000000D02*
X61800000Y-235038000D01*
X62724000Y-235038000D02*
X62762000Y-235000000D01*
X61800000Y-235038000D02*
X62724000Y-235038000D01*
X66762000Y-235000000D02*
X67762000Y-234000000D01*
X65762000Y-235000000D02*
X66762000Y-235000000D01*
X102402000Y-234000000D02*
X103402000Y-235000000D01*
X101402000Y-234000000D02*
X102402000Y-234000000D01*
X105721001Y-234319001D02*
X106402000Y-235000000D01*
X104082999Y-234319001D02*
X105721001Y-234319001D01*
X103402000Y-235000000D02*
X104082999Y-234319001D01*
X107402000Y-235000000D02*
X108402000Y-234000000D01*
X106402000Y-235000000D02*
X107402000Y-235000000D01*
X137962000Y-234000000D02*
X138962000Y-235000000D01*
X136962000Y-234000000D02*
X137962000Y-234000000D01*
X141281001Y-234319001D02*
X141962000Y-235000000D01*
X140606078Y-234319001D02*
X141281001Y-234319001D01*
X139925079Y-235000000D02*
X140606078Y-234319001D01*
X138962000Y-235000000D02*
X139925079Y-235000000D01*
X142962000Y-235000000D02*
X143962000Y-234000000D01*
X141962000Y-235000000D02*
X142962000Y-235000000D01*
X173522000Y-234000000D02*
X174522000Y-235000000D01*
X172522000Y-234000000D02*
X173522000Y-234000000D01*
X176841001Y-234319001D02*
X177522000Y-235000000D01*
X174522000Y-235000000D02*
X175202999Y-234319001D01*
X175202999Y-234319001D02*
X176841001Y-234319001D01*
X178522000Y-235000000D02*
X179522000Y-234000000D01*
X177522000Y-235000000D02*
X178522000Y-235000000D01*
X209082000Y-234000000D02*
X210082000Y-235000000D01*
X208082000Y-234000000D02*
X209082000Y-234000000D01*
X214082000Y-235000000D02*
X215082000Y-234000000D01*
X213082000Y-235000000D02*
X214082000Y-235000000D01*
X210762999Y-234319001D02*
X210082000Y-235000000D01*
X211437922Y-234319001D02*
X210762999Y-234319001D01*
X212118921Y-235000000D02*
X211437922Y-234319001D01*
X213082000Y-235000000D02*
X212118921Y-235000000D01*
X65081001Y-234319001D02*
X65762000Y-235000000D01*
X64406078Y-234319001D02*
X65081001Y-234319001D01*
X63725079Y-235000000D02*
X64406078Y-234319001D01*
X62762000Y-235000000D02*
X63725079Y-235000000D01*
X41170000Y-83015000D02*
X43710000Y-83015000D01*
X30200000Y-93985000D02*
X41170000Y-83015000D01*
X30200000Y-227200000D02*
X30200000Y-93985000D01*
X36400000Y-234000000D02*
X32400000Y-229400000D01*
X32400000Y-229400000D02*
X30200000Y-227200000D01*
X178000000Y-271800000D02*
X179800000Y-271800000D01*
D27*
X180400000Y-263200000D02*
X180200000Y-271600000D01*
D28*
X169400000Y-261000000D02*
X169400000Y-238600000D01*
X166200000Y-261000000D02*
X169400000Y-261000000D01*
X163800000Y-270400000D02*
X163800000Y-263400000D01*
X163800000Y-263400000D02*
X166200000Y-261000000D01*
X157200000Y-235800000D02*
X159000000Y-235800000D01*
X156000000Y-251500000D02*
X156000000Y-237000000D01*
X156000000Y-237000000D02*
X157200000Y-235800000D01*
D25*
X223600000Y-228200000D02*
X223600000Y-257600000D01*
X223600000Y-257600000D02*
X222400000Y-258800000D01*
X188200000Y-228200000D02*
X188200000Y-257600000D01*
X188200000Y-257600000D02*
X187000000Y-258800000D01*
X152600000Y-228200000D02*
X152600000Y-257600000D01*
X152600000Y-257600000D02*
X151400000Y-258800000D01*
D29*
X50000000Y-96000000D02*
X54000000Y-96000000D01*
X47000000Y-99000000D02*
X50000000Y-96000000D01*
X43000000Y-258800000D02*
X43000000Y-107000000D01*
X43000000Y-107000000D02*
X47000000Y-103000000D01*
X47000000Y-103000000D02*
X47000000Y-99000000D01*
D25*
X58000000Y-229600000D02*
X58000000Y-238000000D01*
X58000000Y-238000000D02*
X58000000Y-258800000D01*
X117000000Y-228200000D02*
X117000000Y-257600000D01*
X117000000Y-257600000D02*
X115800000Y-258800000D01*
D30*
X111162500Y-193272334D02*
X111162500Y-170372334D01*
X109809834Y-194625000D02*
X111162500Y-193272334D01*
X109027000Y-194625000D02*
X109809834Y-194625000D01*
X140812500Y-108677666D02*
X140767190Y-108632356D01*
X108402000Y-194000000D02*
X109027000Y-194625000D01*
X111162500Y-193272334D02*
X111162500Y-170372334D01*
X111162500Y-170372334D02*
X140812500Y-140722334D01*
X140812500Y-140722334D02*
X140812500Y-108677666D01*
X140767190Y-108632356D02*
X140567644Y-108632356D01*
D25*
X222600000Y-228000000D02*
X222600000Y-255000000D01*
X222600000Y-255000000D02*
X222400000Y-255200000D01*
X187200000Y-228000000D02*
X187200000Y-255000000D01*
X187200000Y-255000000D02*
X187000000Y-255200000D01*
X151600000Y-228000000D02*
X151600000Y-255000000D01*
X151600000Y-255000000D02*
X151400000Y-255200000D01*
X72900001Y-230500001D02*
X72900001Y-254700001D01*
X71800000Y-229400000D02*
X72900001Y-230500001D01*
X72900001Y-254700001D02*
X73400000Y-255200000D01*
X116000000Y-228000000D02*
X116000000Y-255000000D01*
X116000000Y-255000000D02*
X115800000Y-255200000D01*
X151100000Y-273700000D02*
X149500000Y-272100000D01*
X149500000Y-272100000D02*
X149500000Y-255200000D01*
X201400000Y-247800000D02*
X200800000Y-248400000D01*
X201400000Y-221800000D02*
X201400000Y-247800000D01*
X166000000Y-247800000D02*
X165400000Y-248400000D01*
X166000000Y-221800000D02*
X166000000Y-247800000D01*
X130400000Y-247800000D02*
X129800000Y-248400000D01*
X130400000Y-221800000D02*
X130400000Y-247800000D01*
X72000000Y-231600000D02*
X70200000Y-229800000D01*
X72000000Y-248200000D02*
X72000000Y-231600000D01*
X70200000Y-229800000D02*
X70200000Y-227200000D01*
X71800000Y-248400000D02*
X72000000Y-248200000D01*
X94800000Y-247800000D02*
X94200000Y-248400000D01*
X94800000Y-221800000D02*
X94800000Y-247800000D01*
D30*
X116012500Y-203522334D02*
X116012500Y-172722334D01*
X116012500Y-172722334D02*
X116012500Y-203522334D01*
X145526869Y-137928600D02*
X145812500Y-138214231D01*
X145400000Y-137928600D02*
X145526869Y-137928600D01*
X116012500Y-203522334D02*
X110909834Y-208625000D01*
X110909834Y-208625000D02*
X109027000Y-208625000D01*
X145812500Y-138214231D02*
X145812500Y-142922334D01*
X145812500Y-142922334D02*
X116012500Y-172722334D01*
X109027000Y-208625000D02*
X108402000Y-208000000D01*
X114412500Y-201072334D02*
X114412500Y-171722334D01*
X109027000Y-204625000D02*
X108402000Y-204000000D01*
X144167190Y-126632356D02*
X144412500Y-126877666D01*
X144412500Y-126877666D02*
X144412500Y-127722334D01*
X143967644Y-126632356D02*
X144167190Y-126632356D01*
X143812500Y-128322334D02*
X143812500Y-142322334D01*
X144412500Y-127722334D02*
X143812500Y-128322334D01*
X143812500Y-142322334D02*
X114412500Y-171722334D01*
X114412500Y-171722334D02*
X114412500Y-201072334D01*
X114412500Y-201072334D02*
X110859834Y-204625000D01*
X110859834Y-204625000D02*
X109027000Y-204625000D01*
X112862500Y-198222334D02*
X112862500Y-171072334D01*
X142212500Y-98612500D02*
X141850000Y-98250000D01*
X108402000Y-200000000D02*
X109027000Y-200625000D01*
X112862500Y-198222334D02*
X112862500Y-171072334D01*
X112862500Y-171072334D02*
X142212500Y-141722334D01*
X110459834Y-200625000D02*
X112862500Y-198222334D01*
X142212500Y-141722334D02*
X142212500Y-98612500D01*
X109027000Y-200625000D02*
X110459834Y-200625000D01*
D28*
X217400000Y-229400000D02*
X217400000Y-238000000D01*
X217000000Y-229000000D02*
X217400000Y-229400000D01*
X217400000Y-238000000D02*
X218200000Y-238800000D01*
X213002000Y-229000000D02*
X217000000Y-229000000D01*
X182000000Y-229400000D02*
X182000000Y-238000000D01*
X181600000Y-229000000D02*
X182000000Y-229400000D01*
X182000000Y-238000000D02*
X182800000Y-238800000D01*
X177602000Y-229000000D02*
X181600000Y-229000000D01*
X146400000Y-229400000D02*
X146400000Y-238000000D01*
X146000000Y-229000000D02*
X146400000Y-229400000D01*
X146400000Y-238000000D02*
X147200000Y-238800000D01*
X142002000Y-229000000D02*
X146000000Y-229000000D01*
X106402000Y-229000000D02*
X110400000Y-229000000D01*
X110400000Y-229000000D02*
X110800000Y-229400000D01*
X110800000Y-229400000D02*
X110800000Y-238000000D01*
X110800000Y-238000000D02*
X111600000Y-238800000D01*
X69600000Y-238800000D02*
X70200000Y-237800000D01*
X70200000Y-237800000D02*
X70200000Y-232600000D01*
X69600000Y-232000000D02*
X67762000Y-232000000D01*
X70200000Y-232600000D02*
X69600000Y-232000000D01*
D27*
X171000000Y-262800000D02*
X171200000Y-238800000D01*
D28*
X163000000Y-251500000D02*
X163000000Y-238500000D01*
D30*
X116387500Y-203677666D02*
X116387500Y-172877666D01*
X116387500Y-203677666D02*
X111065166Y-209000000D01*
X116387500Y-172877666D02*
X116387500Y-203677666D01*
X146187500Y-143077666D02*
X116387500Y-172877666D01*
X145866101Y-137704871D02*
X145866101Y-137737501D01*
X111065166Y-209000000D02*
X106402000Y-209000000D01*
X146187500Y-138058900D02*
X146187500Y-143077666D01*
X145866101Y-137737501D02*
X146187500Y-138058900D01*
X145400000Y-137271400D02*
X145591099Y-137462499D01*
X145591099Y-137462499D02*
X145623729Y-137462499D01*
X145623729Y-137462499D02*
X145866101Y-137704871D01*
X114787500Y-201227666D02*
X114787500Y-171877666D01*
X111015166Y-205000000D02*
X106402000Y-205000000D01*
X114787500Y-201227666D02*
X111015166Y-205000000D01*
X144187500Y-142477666D02*
X114787500Y-171877666D01*
X144787500Y-127877666D02*
X144187500Y-128477666D01*
X144787500Y-126722334D02*
X144787500Y-127877666D01*
X144432356Y-126367190D02*
X144787500Y-126722334D01*
X144187500Y-128477666D02*
X144187500Y-142477666D01*
X144432356Y-126167644D02*
X144432356Y-126367190D01*
X114787500Y-171877666D02*
X114787500Y-201227666D01*
X113237500Y-198377666D02*
X113237500Y-171227666D01*
X142500000Y-98173289D02*
X142500000Y-97850000D01*
X142587500Y-98260789D02*
X142500000Y-98173289D01*
X142587500Y-141877666D02*
X142587500Y-98260789D01*
X113237500Y-198377666D02*
X113237500Y-171227666D01*
X110615166Y-201000000D02*
X113237500Y-198377666D01*
X113237500Y-171227666D02*
X142587500Y-141877666D01*
X106402000Y-201000000D02*
X110615166Y-201000000D01*
X111537500Y-193427666D02*
X111537500Y-170527666D01*
X141187500Y-108522334D02*
X141032356Y-108367190D01*
X141032356Y-108367190D02*
X141032356Y-108167644D01*
X141187500Y-140877666D02*
X141187500Y-108522334D01*
X111537500Y-170527666D02*
X141187500Y-140877666D01*
X109965166Y-195000000D02*
X111537500Y-193427666D01*
X111537500Y-193427666D02*
X111537500Y-170527666D01*
X106402000Y-195000000D02*
X109965166Y-195000000D01*
D28*
X208200000Y-123400000D02*
X208200000Y-123076711D01*
X208200000Y-123076711D02*
X208200000Y-122800000D01*
X208200000Y-122800000D02*
X203400000Y-118000000D01*
X203400000Y-118000000D02*
X203400000Y-92000000D01*
X203400000Y-92000000D02*
X203400000Y-91200000D01*
X207400000Y-124600000D02*
X201600000Y-118800000D01*
X201600000Y-118800000D02*
X201600000Y-90000000D01*
X195400000Y-195800000D02*
X195400000Y-189000000D01*
X137600000Y-138800000D02*
X104450000Y-171950000D01*
X104450000Y-171950000D02*
X104450000Y-185952000D01*
X104450000Y-185952000D02*
X103402000Y-187000000D01*
X137600000Y-126800000D02*
X137600000Y-138800000D01*
D30*
X98387500Y-193985500D02*
X98387500Y-164375000D01*
X102320501Y-197559119D02*
X102320501Y-197918501D01*
X101842881Y-197081499D02*
X102320501Y-197559119D01*
X101483499Y-197081499D02*
X101842881Y-197081499D01*
X98387500Y-193985500D02*
X101483499Y-197081499D01*
X113977666Y-160337500D02*
X102425000Y-160337500D01*
X136387500Y-137927666D02*
X113977666Y-160337500D01*
X139787500Y-97341100D02*
X139787500Y-119077666D01*
X136387500Y-122477666D02*
X136387500Y-137927666D01*
X102425000Y-160337500D02*
X98387500Y-164375000D01*
X139787500Y-119077666D02*
X136387500Y-122477666D01*
X98387500Y-164375000D02*
X98387500Y-193985500D01*
X102320501Y-197918501D02*
X103402000Y-199000000D01*
X139928600Y-97200000D02*
X139787500Y-97341100D01*
X96787500Y-196385500D02*
X96787500Y-163675000D01*
X101483499Y-201081499D02*
X101842881Y-201081499D01*
X100961119Y-200918501D02*
X101320501Y-200918501D01*
X100483499Y-200440881D02*
X100961119Y-200918501D01*
X102320501Y-201559119D02*
X102320501Y-201918501D01*
X100483499Y-200081499D02*
X100483499Y-200440881D01*
X96787500Y-196385500D02*
X100483499Y-200081499D01*
X102320501Y-201918501D02*
X103402000Y-203000000D01*
X101842881Y-201081499D02*
X102320501Y-201559119D01*
X101320501Y-200918501D02*
X101483499Y-201081499D01*
X137587500Y-107097335D02*
X137728600Y-106956235D01*
X137587500Y-116027666D02*
X137587500Y-107097335D01*
X113527666Y-158537500D02*
X134787500Y-137277666D01*
X101741488Y-158537500D02*
X113527666Y-158537500D01*
X134787500Y-137277666D02*
X134787500Y-118827666D01*
X96787500Y-163491488D02*
X101741488Y-158537500D01*
X134787500Y-118827666D02*
X137587500Y-116027666D01*
X96787500Y-196385500D02*
X96787500Y-163491488D01*
D28*
X183471401Y-81528599D02*
X183471401Y-109771401D01*
X183700000Y-81300000D02*
X183471401Y-81528599D01*
X183471401Y-109771401D02*
X204200000Y-130500000D01*
X204200000Y-130500000D02*
X204200000Y-135100000D01*
X211900000Y-79500000D02*
X211900000Y-77500000D01*
X195400000Y-203500000D02*
X197600000Y-201300000D01*
X197600000Y-201300000D02*
X197600000Y-187000000D01*
X197587998Y-187000000D02*
X197493999Y-187093999D01*
X197600000Y-187000000D02*
X197587998Y-187000000D01*
D30*
X95200000Y-162800000D02*
X95187500Y-199922334D01*
X102320501Y-205918501D02*
X103402000Y-207000000D01*
X102320501Y-205559119D02*
X102320501Y-205918501D01*
X101842881Y-205081499D02*
X102320501Y-205559119D01*
X101483499Y-205081499D02*
X101842881Y-205081499D01*
X95187500Y-199922334D02*
X100277666Y-205012500D01*
X95200000Y-162800000D02*
X95187500Y-199922334D01*
X95200000Y-162575097D02*
X95200000Y-162800000D01*
X100987597Y-156787500D02*
X95200000Y-162575097D01*
X112877666Y-156787500D02*
X100987597Y-156787500D01*
X133187500Y-115877666D02*
X133187500Y-136477666D01*
X101414500Y-205012500D02*
X101483499Y-205081499D01*
X100277666Y-205012500D02*
X101414500Y-205012500D01*
X133632356Y-115632356D02*
X133432810Y-115632356D01*
X133432810Y-115632356D02*
X133187500Y-115877666D01*
X133187500Y-136477666D02*
X112877666Y-156787500D01*
X94812500Y-200077666D02*
X94812500Y-162700000D01*
X94812500Y-200077666D02*
X100122334Y-205387500D01*
X100122334Y-205387500D02*
X101259169Y-205387500D01*
X101402000Y-205530331D02*
X101402000Y-206000000D01*
X101259169Y-205387500D02*
X101402000Y-205530331D01*
X132812500Y-115722334D02*
X132812500Y-136322334D01*
X112722334Y-156412500D02*
X100832265Y-156412500D01*
X94812500Y-162432265D02*
X94812500Y-200077666D01*
X133167644Y-115367190D02*
X132812500Y-115722334D01*
X100832265Y-156412500D02*
X94812500Y-162432265D01*
X132812500Y-136322334D02*
X112722334Y-156412500D01*
X133167644Y-115167644D02*
X133167644Y-115367190D01*
X96412500Y-196540831D02*
X96412500Y-163525000D01*
X101402000Y-201530331D02*
X101402000Y-202000000D01*
X101165161Y-201293492D02*
X101402000Y-201530331D01*
X100108508Y-200596207D02*
X100805793Y-201293492D01*
X96412500Y-196540831D02*
X100108508Y-200236840D01*
X100108508Y-200236840D02*
X100108508Y-200596207D01*
X100805793Y-201293492D02*
X101165161Y-201293492D01*
X96412500Y-163336156D02*
X101586156Y-158162500D01*
X134412500Y-137122334D02*
X134412500Y-118672334D01*
X96412500Y-196540831D02*
X96412500Y-163336156D01*
X101586156Y-158162500D02*
X113372334Y-158162500D01*
X134412500Y-118672334D02*
X137212500Y-115872334D01*
X137212500Y-107097335D02*
X137071400Y-106956235D01*
X113372334Y-158162500D02*
X134412500Y-137122334D01*
X137212500Y-115872334D02*
X137212500Y-107097335D01*
X98012500Y-194140831D02*
X98000000Y-164225000D01*
X136012500Y-122322334D02*
X136012500Y-137772334D01*
X139271400Y-97200000D02*
X139412500Y-97341100D01*
X113822334Y-159962500D02*
X102262500Y-159962500D01*
X139412500Y-118922334D02*
X136012500Y-122322334D01*
X101402000Y-197530331D02*
X101402000Y-198000000D01*
X139412500Y-97341100D02*
X139412500Y-118922334D01*
X98000000Y-164225000D02*
X98012500Y-194140831D01*
X136012500Y-137772334D02*
X113822334Y-159962500D01*
X102262500Y-159962500D02*
X98000000Y-164225000D01*
X98012500Y-194140831D02*
X101402000Y-197530331D01*
X137002000Y-198050000D02*
X137002000Y-197580331D01*
X133612500Y-164222334D02*
X150212500Y-147622334D01*
X150212500Y-147622334D02*
X150212500Y-117877666D01*
X150212500Y-117877666D02*
X145212500Y-112877666D01*
X133612500Y-194140831D02*
X133612500Y-164222334D01*
X145212500Y-112877666D02*
X145212500Y-97141100D01*
X133600000Y-164225000D02*
X133612500Y-194140831D01*
X145212500Y-97141100D02*
X145071400Y-97000000D01*
X136962000Y-197530331D02*
X136119169Y-196687500D01*
X136962000Y-198000000D02*
X136962000Y-197530331D01*
X136119169Y-196687500D02*
X134922334Y-196687500D01*
X134922334Y-196687500D02*
X133600000Y-195365166D01*
X133600000Y-195365166D02*
X133600000Y-164225000D01*
X148612500Y-144922334D02*
X148612500Y-118277666D01*
X132012500Y-161522334D02*
X148612500Y-144922334D01*
X132012500Y-197627666D02*
X132012500Y-161522334D01*
X135672334Y-201287500D02*
X132012500Y-197627666D01*
X136962000Y-201530331D02*
X136725161Y-201293492D01*
X136365793Y-201293492D02*
X136359801Y-201287500D01*
X136962000Y-202000000D02*
X136962000Y-201530331D01*
X136359801Y-201287500D02*
X135672334Y-201287500D01*
X136725161Y-201293492D02*
X136365793Y-201293492D01*
X148612500Y-118277666D02*
X143612500Y-113277666D01*
X143612500Y-113277666D02*
X143612500Y-108741100D01*
X143612500Y-108741100D02*
X143471400Y-108600000D01*
X146739045Y-118796243D02*
X146967644Y-118567644D01*
X147012500Y-144125000D02*
X147012500Y-119302330D01*
X146739045Y-119028875D02*
X146739045Y-118796243D01*
X147012500Y-119302330D02*
X146739045Y-119028875D01*
X136744169Y-205312500D02*
X136962000Y-205530331D01*
X133547334Y-205312500D02*
X136744169Y-205312500D01*
X130412500Y-160722334D02*
X130412500Y-200597320D01*
X136962000Y-205530331D02*
X136962000Y-206000000D01*
X130412500Y-200597320D02*
X130404951Y-200604869D01*
X130404951Y-202170117D02*
X133547334Y-205312500D01*
X147012500Y-144122334D02*
X130412500Y-160722334D01*
X130404951Y-200604869D02*
X130404951Y-202170117D01*
X130787500Y-199922334D02*
X130800000Y-162800000D01*
X142227666Y-149437500D02*
X147387500Y-144277666D01*
X147432356Y-119555144D02*
X147432356Y-119032356D01*
X147387500Y-144275000D02*
X147387500Y-119600000D01*
X147387500Y-119600000D02*
X147432356Y-119555144D01*
X130787500Y-160877666D02*
X142227666Y-149437500D01*
X130787500Y-199922334D02*
X130787500Y-160877666D01*
X130779951Y-202014785D02*
X130779951Y-200604869D01*
X137880501Y-205918501D02*
X137880501Y-205559119D01*
X133702666Y-204937500D02*
X130779951Y-202014785D01*
X137880501Y-205559119D02*
X137402881Y-205081499D01*
X137402881Y-205081499D02*
X137043499Y-205081499D01*
X137043499Y-205081499D02*
X136899500Y-204937500D01*
X138962000Y-207000000D02*
X137880501Y-205918501D01*
X136899500Y-204937500D02*
X133702666Y-204937500D01*
X130787500Y-200597320D02*
X130779951Y-200604869D01*
X130787500Y-199922334D02*
X130787500Y-200597320D01*
X132387500Y-196385500D02*
X132387500Y-163675000D01*
X148987500Y-118122334D02*
X143987500Y-113122334D01*
X135827666Y-200912500D02*
X132387500Y-197472334D01*
X143987500Y-108741100D02*
X144128600Y-108600000D01*
X137880501Y-201918501D02*
X137880501Y-201559119D01*
X148987500Y-145077666D02*
X148987500Y-118122334D01*
X143987500Y-113122334D02*
X143987500Y-108741100D01*
X137880501Y-201559119D02*
X137239883Y-200918501D01*
X136521119Y-200918501D02*
X136515118Y-200912500D01*
X138962000Y-203000000D02*
X137880501Y-201918501D01*
X137239883Y-200918501D02*
X136521119Y-200918501D01*
X136515118Y-200912500D02*
X135827666Y-200912500D01*
X132387500Y-197472334D02*
X132387500Y-161677666D01*
X132387500Y-161677666D02*
X148987500Y-145077666D01*
X133987500Y-193985500D02*
X133987500Y-164375000D01*
X150587500Y-117722334D02*
X145587500Y-112722334D01*
X150587500Y-147777666D02*
X150587500Y-117722334D01*
X133987500Y-164377666D02*
X150587500Y-147777666D01*
X133987500Y-194035500D02*
X133987500Y-164377666D01*
X145587500Y-97141100D02*
X145728600Y-97000000D01*
X145587500Y-112722334D02*
X145587500Y-97141100D01*
X137043499Y-197081499D02*
X136274500Y-196312500D01*
X137880501Y-197918501D02*
X137880501Y-197559119D01*
X138962000Y-199000000D02*
X137880501Y-197918501D01*
X137402881Y-197081499D02*
X137043499Y-197081499D01*
X137880501Y-197559119D02*
X137402881Y-197081499D01*
X136274500Y-196312500D02*
X135077666Y-196312500D01*
X133987500Y-195222334D02*
X133987500Y-193985500D01*
X135077666Y-196312500D02*
X133987500Y-195222334D01*
D28*
X139002000Y-187050000D02*
X140050000Y-186002000D01*
X140050000Y-177950000D02*
X142250000Y-177950000D01*
X140050000Y-186002000D02*
X140050000Y-177950000D01*
X142250000Y-177950000D02*
X143200000Y-177000000D01*
X143200000Y-177000000D02*
X143200000Y-170000000D01*
X143200000Y-170000000D02*
X143200000Y-157200000D01*
X143200000Y-157200000D02*
X152000000Y-148400000D01*
X152000000Y-148400000D02*
X152000000Y-125400000D01*
D30*
X152187500Y-116522334D02*
X147632356Y-111967190D01*
X147632356Y-111967190D02*
X147632356Y-111767644D01*
X155787500Y-150077666D02*
X155787500Y-131122334D01*
X145565166Y-195050000D02*
X147137500Y-193477666D01*
X147137500Y-158727666D02*
X155787500Y-150077666D01*
X153787500Y-121922334D02*
X152187500Y-120322334D01*
X142002000Y-195050000D02*
X145565166Y-195050000D01*
X147137500Y-193477666D02*
X147137500Y-158727666D01*
X155787500Y-131122334D02*
X153787500Y-129122334D01*
X152187500Y-120322334D02*
X152187500Y-116522334D01*
X153787500Y-129122334D02*
X153787500Y-121922334D01*
X148837500Y-198427666D02*
X148837500Y-159427666D01*
X142002000Y-201050000D02*
X146215166Y-201050000D01*
X148837500Y-159427666D02*
X157387500Y-150877666D01*
X146215166Y-201050000D02*
X148837500Y-198427666D01*
X157387500Y-150877666D02*
X157387500Y-130322334D01*
X157387500Y-130322334D02*
X155387500Y-128322334D01*
X155387500Y-128322334D02*
X155387500Y-121522334D01*
X155387500Y-121522334D02*
X153787500Y-119922334D01*
X153787500Y-119922334D02*
X153787500Y-115922334D01*
X146987500Y-97941100D02*
X147128600Y-97800000D01*
X146987500Y-109122334D02*
X146987500Y-97941100D01*
X153787500Y-115922334D02*
X146987500Y-109122334D01*
X146615166Y-205050000D02*
X150387500Y-201277666D01*
X142002000Y-205050000D02*
X146615166Y-205050000D01*
X150387500Y-201277666D02*
X150387500Y-160277666D01*
X150387500Y-160277666D02*
X158987500Y-151677666D01*
X158987500Y-130141100D02*
X159128600Y-130000000D01*
X158987500Y-151677666D02*
X158987500Y-130141100D01*
X151987500Y-161077666D02*
X160587500Y-152477666D01*
X151987500Y-203727666D02*
X151987500Y-161077666D01*
X142002000Y-209050000D02*
X146665166Y-209050000D01*
X146665166Y-209050000D02*
X151987500Y-203727666D01*
X160587500Y-152477666D02*
X160587500Y-141677666D01*
X160632810Y-141632356D02*
X160832356Y-141632356D01*
X160587500Y-141677666D02*
X160632810Y-141632356D01*
X148462500Y-159272334D02*
X157012500Y-150722334D01*
X144002000Y-200050000D02*
X144627000Y-200675000D01*
X144627000Y-200675000D02*
X146059834Y-200675000D01*
X146059834Y-200675000D02*
X148462500Y-198272334D01*
X148462500Y-198272334D02*
X148462500Y-159272334D01*
X157012500Y-150722334D02*
X157012500Y-130477666D01*
X157012500Y-130477666D02*
X155012500Y-128477666D01*
X155012500Y-128477666D02*
X155012500Y-121677666D01*
X155012500Y-121677666D02*
X153412500Y-120077666D01*
X153412500Y-120077666D02*
X153412500Y-116077666D01*
X146612500Y-109277666D02*
X146612500Y-97941100D01*
X146612500Y-97941100D02*
X146471400Y-97800000D01*
X153412500Y-116077666D02*
X146612500Y-109277666D01*
X144627000Y-204675000D02*
X144002000Y-204050000D01*
X150012500Y-201122334D02*
X146459834Y-204675000D01*
X158612500Y-151522334D02*
X150012500Y-160122334D01*
X146459834Y-204675000D02*
X144627000Y-204675000D01*
X150012500Y-160122334D02*
X150012500Y-201122334D01*
X158612500Y-130141100D02*
X158471400Y-130000000D01*
X158612500Y-151522334D02*
X158612500Y-130141100D01*
X151612500Y-160922334D02*
X160212500Y-152322334D01*
X144002000Y-208050000D02*
X144627000Y-208675000D01*
X144627000Y-208675000D02*
X146509834Y-208675000D01*
X146509834Y-208675000D02*
X151612500Y-203572334D01*
X151612500Y-203572334D02*
X151612500Y-160922334D01*
X160212500Y-152322334D02*
X160212500Y-141522334D01*
X160367644Y-141367190D02*
X160367644Y-141167644D01*
X160212500Y-141522334D02*
X160367644Y-141367190D01*
X155412500Y-149922334D02*
X155412500Y-131277666D01*
X146762500Y-193322334D02*
X146762500Y-158572334D01*
X145409834Y-194675000D02*
X146762500Y-193322334D01*
X147367190Y-112232356D02*
X147167644Y-112232356D01*
X151812500Y-120477666D02*
X151812500Y-116677666D01*
X146762500Y-158572334D02*
X155412500Y-149922334D01*
X144002000Y-194050000D02*
X144627000Y-194675000D01*
X155412500Y-131277666D02*
X153412500Y-129277666D01*
X153412500Y-129277666D02*
X153412500Y-122077666D01*
X144627000Y-194675000D02*
X145409834Y-194675000D01*
X153412500Y-122077666D02*
X151812500Y-120477666D01*
X151812500Y-116677666D02*
X147367190Y-112232356D01*
X170212500Y-154277666D02*
X171122334Y-155187500D01*
X163122334Y-122387500D02*
X165922334Y-122387500D01*
X161412500Y-120677666D02*
X163122334Y-122387500D01*
X182400000Y-159715166D02*
X182400000Y-160100000D01*
X165922334Y-122387500D02*
X170212500Y-126677666D01*
X161412500Y-117077666D02*
X161412500Y-120677666D01*
X170212500Y-126677666D02*
X170212500Y-154277666D01*
X151967644Y-107832356D02*
X152167190Y-107832356D01*
X152167190Y-107832356D02*
X161412500Y-117077666D01*
X177872334Y-155187500D02*
X182400000Y-159715166D01*
X182400000Y-160100000D02*
X182412500Y-193322334D01*
X182412500Y-193322334D02*
X181059834Y-194675000D01*
X181059834Y-194675000D02*
X180277000Y-194675000D01*
X180277000Y-194675000D02*
X179652000Y-194050000D01*
X171122334Y-155187500D02*
X177872334Y-155187500D01*
X175612500Y-141141100D02*
X175471400Y-141000000D01*
X180277000Y-208675000D02*
X182259834Y-208675000D01*
X182259834Y-208675000D02*
X187412500Y-203522334D01*
X187412500Y-203522334D02*
X187412500Y-156477666D01*
X187412500Y-156477666D02*
X175612500Y-144677666D01*
X179652000Y-208050000D02*
X180277000Y-208675000D01*
X175612500Y-144677666D02*
X175612500Y-141141100D01*
X185812500Y-158277666D02*
X179522334Y-151987500D01*
X179652000Y-204050000D02*
X180277000Y-204675000D01*
X182109834Y-204675000D02*
X185812500Y-200972334D01*
X180277000Y-204675000D02*
X182109834Y-204675000D01*
X185812500Y-200972334D02*
X185812500Y-158277666D01*
X179522334Y-151987500D02*
X175522334Y-151987500D01*
X175522334Y-151987500D02*
X173412500Y-149877666D01*
X173800000Y-130528600D02*
X173926869Y-130528600D01*
X174812500Y-131414232D02*
X174812500Y-131722334D01*
X173926869Y-130528600D02*
X174812500Y-131414232D01*
X174812500Y-131722334D02*
X173412500Y-133122334D01*
X173412500Y-133122334D02*
X173412500Y-149877666D01*
X184112500Y-198272334D02*
X184112500Y-158977666D01*
X179652000Y-200050000D02*
X180277000Y-200675000D01*
X180277000Y-200675000D02*
X181709834Y-200675000D01*
X181709834Y-200675000D02*
X184112500Y-198272334D01*
X184112500Y-158977666D02*
X178722334Y-153587500D01*
X178722334Y-153587500D02*
X173322334Y-153587500D01*
X171812500Y-152077666D02*
X171812500Y-125877666D01*
X171812500Y-125877666D02*
X167122334Y-121187500D01*
X173322334Y-153587500D02*
X171812500Y-152077666D01*
X167122334Y-121187500D02*
X164522334Y-121187500D01*
X164522334Y-121187500D02*
X163012500Y-119677666D01*
X163012500Y-119677666D02*
X163012500Y-116277666D01*
X163012500Y-116277666D02*
X152412500Y-105677666D01*
X152412500Y-98141100D02*
X152271400Y-98000000D01*
X152412500Y-105677666D02*
X152412500Y-98141100D01*
X175987500Y-141141100D02*
X176128600Y-141000000D01*
X187787500Y-156322334D02*
X175987500Y-144522334D01*
X187787500Y-203677666D02*
X187787500Y-156322334D01*
X182415166Y-209050000D02*
X187787500Y-203677666D01*
X175987500Y-144522334D02*
X175987500Y-141141100D01*
X177652000Y-209050000D02*
X182415166Y-209050000D01*
X182265166Y-205050000D02*
X186187500Y-201127666D01*
X177652000Y-205050000D02*
X182265166Y-205050000D01*
X186187500Y-201127666D02*
X186187500Y-158122334D01*
X186187500Y-158122334D02*
X179677666Y-151612500D01*
X179677666Y-151612500D02*
X175677666Y-151612500D01*
X175677666Y-151612500D02*
X173787500Y-149722334D01*
X174266101Y-130337501D02*
X175187500Y-131258900D01*
X174266101Y-130304871D02*
X174266101Y-130337501D01*
X174023729Y-130062499D02*
X174266101Y-130304871D01*
X175187500Y-131258900D02*
X175187500Y-131877666D01*
X173800000Y-129871400D02*
X173991099Y-130062499D01*
X173991099Y-130062499D02*
X174023729Y-130062499D01*
X173787500Y-133277666D02*
X173787500Y-149722334D01*
X175187500Y-131877666D02*
X173787500Y-133277666D01*
X172187500Y-125722334D02*
X167277666Y-120812500D01*
X178877666Y-153212500D02*
X173477666Y-153212500D01*
X184487500Y-158822334D02*
X178877666Y-153212500D01*
X184487500Y-198427666D02*
X184487500Y-158822334D01*
X172187500Y-151922334D02*
X172187500Y-125722334D01*
X173477666Y-153212500D02*
X172187500Y-151922334D01*
X181865166Y-201050000D02*
X184487500Y-198427666D01*
X177652000Y-201050000D02*
X181865166Y-201050000D01*
X167277666Y-120812500D02*
X164677666Y-120812500D01*
X164677666Y-120812500D02*
X163387500Y-119522334D01*
X163387500Y-119522334D02*
X163387500Y-116122334D01*
X163387500Y-116122334D02*
X152787500Y-105522334D01*
X152787500Y-98141100D02*
X152928600Y-98000000D01*
X152787500Y-105522334D02*
X152787500Y-98141100D01*
X181215166Y-195050000D02*
X177652000Y-195050000D01*
X182787500Y-193477666D02*
X181215166Y-195050000D01*
X182800000Y-160100000D02*
X182787500Y-193477666D01*
X182800000Y-159584834D02*
X182800000Y-160100000D01*
X161787500Y-120522334D02*
X163277666Y-122012500D01*
X161787500Y-116922334D02*
X161787500Y-120522334D01*
X152432356Y-107367644D02*
X152432356Y-107567190D01*
X163277666Y-122012500D02*
X166077666Y-122012500D01*
X166077666Y-122012500D02*
X170587500Y-126522334D01*
X178015166Y-154800000D02*
X182800000Y-159584834D01*
X170587500Y-126522334D02*
X170587500Y-154122334D01*
X170587500Y-154122334D02*
X171265166Y-154800000D01*
X152432356Y-107567190D02*
X161787500Y-116922334D01*
X171265166Y-154800000D02*
X178015166Y-154800000D01*
D28*
X166800000Y-125000000D02*
X166400000Y-124600000D01*
X166800000Y-155800000D02*
X166800000Y-125000000D01*
X169600000Y-158600000D02*
X166800000Y-155800000D01*
X176000000Y-158600000D02*
X169600000Y-158600000D01*
X178850000Y-161450000D02*
X176000000Y-158600000D01*
X174652000Y-187050000D02*
X175700000Y-186002000D01*
X178850000Y-177000000D02*
X178850000Y-161450000D01*
X175700000Y-177950000D02*
X177900000Y-177950000D01*
X175700000Y-186002000D02*
X175700000Y-177950000D01*
X177900000Y-177950000D02*
X178850000Y-177000000D01*
D30*
X169537500Y-160672334D02*
X165387500Y-156522334D01*
X172633499Y-197081499D02*
X169537500Y-193985500D01*
X169537500Y-193985500D02*
X169537500Y-160672334D01*
X172992881Y-197081499D02*
X172633499Y-197081499D01*
X173470501Y-197559119D02*
X172992881Y-197081499D01*
X173470501Y-197918501D02*
X173470501Y-197559119D01*
X174552000Y-199000000D02*
X173470501Y-197918501D01*
X165387500Y-156522334D02*
X165387500Y-127722334D01*
X165387500Y-127722334D02*
X160187500Y-122522334D01*
X160187500Y-122522334D02*
X160187500Y-117522334D01*
X149387500Y-97941100D02*
X149528600Y-97800000D01*
X149387500Y-106722334D02*
X149387500Y-97941100D01*
X160187500Y-117522334D02*
X149387500Y-106722334D01*
X158587500Y-118122334D02*
X148832356Y-108367190D01*
X167937500Y-161472334D02*
X163787500Y-157322334D01*
X148832356Y-108367190D02*
X148832356Y-108167644D01*
X172962881Y-201081499D02*
X172603499Y-201081499D01*
X173440501Y-201559119D02*
X172962881Y-201081499D01*
X172603499Y-201081499D02*
X172484500Y-200962500D01*
X174522000Y-203000000D02*
X173440501Y-201918501D01*
X173440501Y-201918501D02*
X173440501Y-201559119D01*
X172484500Y-200962500D02*
X171252666Y-200962500D01*
X167937500Y-197647334D02*
X167937500Y-161472334D01*
X171252666Y-200962500D02*
X167937500Y-197647334D01*
X163787500Y-157322334D02*
X163787500Y-128922334D01*
X163787500Y-128922334D02*
X158587500Y-123722334D01*
X158587500Y-123722334D02*
X158587500Y-118122334D01*
X171427666Y-205012500D02*
X166337500Y-199922334D01*
X172992881Y-205081499D02*
X172633499Y-205081499D01*
X166337500Y-162272334D02*
X162187500Y-158122334D01*
X166337500Y-199922334D02*
X166337500Y-162272334D01*
X172564500Y-205012500D02*
X171427666Y-205012500D01*
X174552000Y-207000000D02*
X173470501Y-205918501D01*
X172633499Y-205081499D02*
X172564500Y-205012500D01*
X173470501Y-205918501D02*
X173470501Y-205559119D01*
X173470501Y-205559119D02*
X172992881Y-205081499D01*
X162187500Y-158122334D02*
X162187500Y-130322334D01*
X162187500Y-130322334D02*
X159077666Y-127212500D01*
X159077666Y-127212500D02*
X157677666Y-127212500D01*
X156987500Y-126522334D02*
X156987500Y-118941100D01*
X157677666Y-127212500D02*
X156987500Y-126522334D01*
X156987500Y-118941100D02*
X157128600Y-118800000D01*
X172409169Y-205387500D02*
X171272334Y-205387500D01*
X172552000Y-206000000D02*
X172552000Y-205530331D01*
X172552000Y-205530331D02*
X172409169Y-205387500D01*
X171272334Y-205387500D02*
X165962500Y-200077666D01*
X165962500Y-200077666D02*
X165962500Y-162427666D01*
X165962500Y-162427666D02*
X161812500Y-158277666D01*
X161812500Y-158277666D02*
X161812500Y-130477666D01*
X161812500Y-130477666D02*
X158922334Y-127587500D01*
X158922334Y-127587500D02*
X157522334Y-127587500D01*
X157522334Y-127587500D02*
X156612500Y-126677666D01*
X156612500Y-126677666D02*
X156612500Y-118941100D01*
X156612500Y-118941100D02*
X156471400Y-118800000D01*
X167562500Y-161627666D02*
X163412500Y-157477666D01*
X167562500Y-197802666D02*
X167562500Y-161627666D01*
X158212500Y-123877666D02*
X158212500Y-118277666D01*
X163412500Y-129077666D02*
X158212500Y-123877666D01*
X172522000Y-201530331D02*
X172329169Y-201337500D01*
X163412500Y-157477666D02*
X163412500Y-129077666D01*
X172329169Y-201337500D02*
X171097334Y-201337500D01*
X158212500Y-118277666D02*
X148567190Y-108632356D01*
X148567190Y-108632356D02*
X148367644Y-108632356D01*
X171097334Y-201337500D02*
X167562500Y-197802666D01*
X172522000Y-202000000D02*
X172522000Y-201530331D01*
X172552000Y-198000000D02*
X172552000Y-197530331D01*
X169162500Y-160827666D02*
X165012500Y-156677666D01*
X169162500Y-194140831D02*
X169162500Y-160827666D01*
X172552000Y-197530331D02*
X169162500Y-194140831D01*
X165012500Y-156677666D02*
X165012500Y-127877666D01*
X165012500Y-127877666D02*
X159812500Y-122677666D01*
X159812500Y-122677666D02*
X159812500Y-117677666D01*
X159812500Y-117677666D02*
X149012500Y-106877666D01*
X149012500Y-106877666D02*
X149012500Y-97941100D01*
X149012500Y-97941100D02*
X148871400Y-97800000D01*
X208052000Y-198000000D02*
X208052000Y-197530331D01*
X204662500Y-194140831D02*
X204662500Y-151327666D01*
X204662500Y-151327666D02*
X177812500Y-124477666D01*
X177812500Y-124477666D02*
X177812500Y-123277666D01*
X177812500Y-123277666D02*
X176322334Y-121787500D01*
X176322334Y-121787500D02*
X173122334Y-121787500D01*
X173122334Y-121787500D02*
X154612500Y-103277666D01*
X154612500Y-103277666D02*
X154612500Y-98141100D01*
X154612500Y-98141100D02*
X154471400Y-98000000D01*
X208082000Y-197530331D02*
X207764169Y-197212500D01*
X208082000Y-198000000D02*
X208082000Y-197530331D01*
X207764169Y-197212500D02*
X207734169Y-197212500D01*
X207734169Y-197212500D02*
X204662500Y-194140831D01*
X157767190Y-108832356D02*
X157567644Y-108832356D01*
X207845161Y-201293492D02*
X207485793Y-201293492D01*
X208082000Y-202000000D02*
X208082000Y-201530331D01*
X172322334Y-123387500D02*
X157767190Y-108832356D01*
X208082000Y-201530331D02*
X207845161Y-201293492D01*
X207485793Y-201293492D02*
X203062500Y-196870199D01*
X203062500Y-196870199D02*
X203062500Y-152327666D01*
X203062500Y-152327666D02*
X175812500Y-125077666D01*
X175812500Y-123677666D02*
X175522334Y-123387500D01*
X175812500Y-125077666D02*
X175812500Y-123677666D01*
X175522334Y-123387500D02*
X172322334Y-123387500D01*
X201462500Y-200077666D02*
X201462500Y-153127666D01*
X173967190Y-125632356D02*
X173767644Y-125632356D01*
X201462500Y-153127666D02*
X173967190Y-125632356D01*
X208082000Y-205530331D02*
X207864169Y-205312500D01*
X208082000Y-206000000D02*
X208082000Y-205530331D01*
X207864169Y-205312500D02*
X206697334Y-205312500D01*
X206697334Y-205312500D02*
X201462500Y-200077666D01*
X201837500Y-199922334D02*
X201837500Y-152972334D01*
X174232356Y-125367190D02*
X174232356Y-125167644D01*
X201837500Y-152972334D02*
X174232356Y-125367190D01*
X208163499Y-205081499D02*
X208019500Y-204937500D01*
X209000501Y-205559119D02*
X208522881Y-205081499D01*
X208522881Y-205081499D02*
X208163499Y-205081499D01*
X210082000Y-207000000D02*
X209000501Y-205918501D01*
X209000501Y-205918501D02*
X209000501Y-205559119D01*
X208019500Y-204937500D02*
X206852666Y-204937500D01*
X206852666Y-204937500D02*
X201837500Y-199922334D01*
X158032356Y-108567190D02*
X158032356Y-108367644D01*
X207641119Y-200918501D02*
X203437500Y-196714882D01*
X172477666Y-123012500D02*
X158032356Y-108567190D01*
X208359883Y-200918501D02*
X207641119Y-200918501D01*
X203437500Y-152172334D02*
X176187500Y-124922334D01*
X210082000Y-203000000D02*
X209000501Y-201918501D01*
X209000501Y-201559119D02*
X208359883Y-200918501D01*
X175677666Y-123012500D02*
X172477666Y-123012500D01*
X176187500Y-123522334D02*
X175677666Y-123012500D01*
X209000501Y-201918501D02*
X209000501Y-201559119D01*
X176187500Y-124922334D02*
X176187500Y-123522334D01*
X203437500Y-196714882D02*
X203437500Y-152172334D01*
X205037500Y-151172334D02*
X178187500Y-124322334D01*
X205037500Y-193985500D02*
X205037500Y-151172334D01*
X178187500Y-124322334D02*
X178187500Y-123122334D01*
X178187500Y-123122334D02*
X176477666Y-121412500D01*
X176477666Y-121412500D02*
X173277666Y-121412500D01*
X154987500Y-98141100D02*
X155128600Y-98000000D01*
X154987500Y-103122334D02*
X154987500Y-98141100D01*
X173277666Y-121412500D02*
X154987500Y-103122334D01*
X208163499Y-197081499D02*
X207919500Y-196837500D01*
X208522881Y-197081499D02*
X208163499Y-197081499D01*
X210082000Y-199000000D02*
X209000501Y-197918501D01*
X209000501Y-197918501D02*
X209000501Y-197559119D01*
X209000501Y-197559119D02*
X208522881Y-197081499D01*
X207919500Y-196837500D02*
X207889500Y-196837500D01*
X207889500Y-196837500D02*
X205037500Y-193985500D01*
D28*
X214350000Y-161450000D02*
X211500000Y-158600000D01*
X214350000Y-177000000D02*
X214350000Y-161450000D01*
X211200000Y-177950000D02*
X213400000Y-177950000D01*
X211200000Y-186002000D02*
X211200000Y-177950000D01*
X210152000Y-187050000D02*
X211200000Y-186002000D01*
X213400000Y-177950000D02*
X214350000Y-177000000D01*
X168000000Y-125800000D02*
X168000000Y-130800000D01*
X190600000Y-134800000D02*
X190600000Y-134400000D01*
X211500000Y-158600000D02*
X211500000Y-155700000D01*
X211500000Y-155700000D02*
X190600000Y-134800000D01*
D30*
X157387500Y-102541100D02*
X157528600Y-102200000D01*
X177477666Y-119812500D02*
X174077666Y-119812500D01*
X218353281Y-193561885D02*
X218353281Y-159688115D01*
X193477666Y-132012500D02*
X189677666Y-132012500D01*
X213082000Y-195000000D02*
X216915166Y-195000000D01*
X218353281Y-159688115D02*
X215587500Y-156922334D01*
X216915166Y-195000000D02*
X218353281Y-193561885D01*
X215587500Y-154122334D02*
X193477666Y-132012500D01*
X189677666Y-132012500D02*
X177477666Y-119812500D01*
X215587500Y-156922334D02*
X215587500Y-154122334D01*
X174077666Y-119812500D02*
X157387500Y-103122334D01*
X157387500Y-103122334D02*
X157387500Y-102541100D01*
X157393896Y-98461150D02*
X157534996Y-98320050D01*
X157877666Y-100612500D02*
X157393896Y-100128730D01*
X158677666Y-100612500D02*
X157877666Y-100612500D01*
X159587500Y-101522334D02*
X158677666Y-100612500D01*
X159587500Y-102922334D02*
X159587500Y-101522334D01*
X178277666Y-118412500D02*
X175077666Y-118412500D01*
X190277666Y-130412500D02*
X178277666Y-118412500D01*
X194377666Y-130412500D02*
X190277666Y-130412500D01*
X175077666Y-118412500D02*
X159587500Y-102922334D01*
X157393896Y-100128730D02*
X157393896Y-98461150D01*
X217265166Y-201000000D02*
X219887500Y-198377666D01*
X213052000Y-201000000D02*
X217265166Y-201000000D01*
X219887500Y-198377666D02*
X219887500Y-158822334D01*
X219887500Y-158822334D02*
X217137500Y-156072334D01*
X217137500Y-153172334D02*
X194377666Y-130412500D01*
X217137500Y-156072334D02*
X217137500Y-153172334D01*
X206987500Y-140722334D02*
X206987500Y-132541100D01*
X206987500Y-132541100D02*
X207128600Y-132400000D01*
X218687500Y-155172334D02*
X218687500Y-152422334D01*
X213052000Y-205000000D02*
X217665166Y-205000000D01*
X217665166Y-205000000D02*
X221437500Y-201227666D01*
X221437500Y-201227666D02*
X221437500Y-157922334D01*
X221437500Y-157922334D02*
X218687500Y-155172334D01*
X218687500Y-152422334D02*
X206987500Y-140722334D01*
X212306505Y-142915464D02*
X212447605Y-142774364D01*
X212306505Y-143441339D02*
X212306505Y-142915464D01*
X223037500Y-203677666D02*
X223037500Y-154172334D01*
X217715166Y-209000000D02*
X223037500Y-203677666D01*
X213052000Y-209000000D02*
X217715166Y-209000000D01*
X223037500Y-154172334D02*
X212306505Y-143441339D01*
X217109834Y-200625000D02*
X219512500Y-198222334D01*
X215677000Y-200625000D02*
X217109834Y-200625000D01*
X219512500Y-198222334D02*
X219512500Y-158977666D01*
X219512500Y-158977666D02*
X216762500Y-156227666D01*
X174922334Y-118787500D02*
X159212500Y-103077666D01*
X215052000Y-200000000D02*
X215677000Y-200625000D01*
X159212500Y-101677666D02*
X158522334Y-100987500D01*
X157018896Y-100284062D02*
X157018896Y-98461150D01*
X178122334Y-118787500D02*
X174922334Y-118787500D01*
X194222334Y-130787500D02*
X190122334Y-130787500D01*
X190122334Y-130787500D02*
X178122334Y-118787500D01*
X157722334Y-100987500D02*
X157018896Y-100284062D01*
X159212500Y-103077666D02*
X159212500Y-101677666D01*
X157018896Y-98461150D02*
X156877796Y-98320050D01*
X158522334Y-100987500D02*
X157722334Y-100987500D01*
X216762500Y-153327666D02*
X194222334Y-130787500D01*
X216762500Y-156227666D02*
X216762500Y-153327666D01*
X206612500Y-140877666D02*
X206612500Y-132541100D01*
X206612500Y-132541100D02*
X206471400Y-132400000D01*
X218312500Y-155327666D02*
X218312500Y-152577666D01*
X221062500Y-201072334D02*
X221062500Y-158077666D01*
X215677000Y-204625000D02*
X217509834Y-204625000D01*
X217509834Y-204625000D02*
X221062500Y-201072334D01*
X215052000Y-204000000D02*
X215677000Y-204625000D01*
X221062500Y-158077666D02*
X218312500Y-155327666D01*
X218312500Y-152577666D02*
X206612500Y-140877666D01*
X211931505Y-142915464D02*
X211790405Y-142774364D01*
X215052000Y-208000000D02*
X215677000Y-208625000D01*
X215677000Y-208625000D02*
X217559834Y-208625000D01*
X217559834Y-208625000D02*
X222662500Y-203522334D01*
X222662500Y-203522334D02*
X222662500Y-154327666D01*
X222662500Y-154327666D02*
X211931505Y-143596671D01*
X211931505Y-143596671D02*
X211931505Y-142915464D01*
X215677000Y-194625000D02*
X215052000Y-194000000D01*
X217978281Y-193406553D02*
X216759834Y-194625000D01*
X173922334Y-120187500D02*
X177322334Y-120187500D01*
X217978281Y-159843447D02*
X217978281Y-193406553D01*
X216759834Y-194625000D02*
X215677000Y-194625000D01*
X157012500Y-102541100D02*
X157012500Y-103277666D01*
X157012500Y-103277666D02*
X173922334Y-120187500D01*
X156800000Y-102200000D02*
X157012500Y-102541100D01*
X177322334Y-120187500D02*
X189522334Y-132387500D01*
X189522334Y-132387500D02*
X193322334Y-132387500D01*
X215212500Y-157077666D02*
X217978281Y-159843447D01*
X215212500Y-154277666D02*
X215212500Y-157077666D01*
X193322334Y-132387500D02*
X215212500Y-154277666D01*
D24*
X228000000Y-114800000D02*
X225600000Y-111800000D01*
X226000000Y-103600000D02*
X226000000Y-93000000D01*
X228000000Y-138200000D02*
X228000000Y-114800000D01*
X225600000Y-111800000D02*
X225600000Y-106400000D01*
X225600000Y-106400000D02*
X226000000Y-106000000D01*
X226000000Y-106000000D02*
X226000000Y-103600000D01*
D28*
X67762000Y-192000000D02*
X68725079Y-192000000D01*
X68725079Y-192000000D02*
X69800000Y-192000000D01*
X69800000Y-192000000D02*
X70600000Y-191200000D01*
X70600000Y-191200000D02*
X70600000Y-176600000D01*
X70600000Y-176600000D02*
X70600000Y-123000000D01*
X70600000Y-123000000D02*
X97600000Y-96000000D01*
X97600000Y-96000000D02*
X111600000Y-96000000D01*
X111600000Y-96000000D02*
X119600000Y-88000000D01*
X119600000Y-88000000D02*
X140000000Y-67600000D01*
X140000000Y-67600000D02*
X140000000Y-62400000D01*
D30*
X98322334Y-97412500D02*
X112122334Y-97412500D01*
X67762000Y-194000000D02*
X68387000Y-194625000D01*
X72012500Y-191522334D02*
X72012500Y-123722334D01*
X68909834Y-194625000D02*
X72012500Y-191522334D01*
X72012500Y-123722334D02*
X98322334Y-97412500D01*
X68387000Y-194625000D02*
X68909834Y-194625000D01*
X112122334Y-97412500D02*
X141812500Y-67722334D01*
X141812500Y-67722334D02*
X141812500Y-62341100D01*
X141812500Y-62341100D02*
X141671400Y-62200000D01*
X81812500Y-139122333D02*
X81812500Y-161512298D01*
X81812500Y-161512298D02*
X81612500Y-161712298D01*
X68387000Y-220625000D02*
X67762000Y-220000000D01*
X156767644Y-63967644D02*
X156767644Y-64167190D01*
X156767644Y-64167190D02*
X81812500Y-139122333D01*
X75509834Y-220625000D02*
X68387000Y-220625000D01*
X81612500Y-161712298D02*
X81612500Y-214522334D01*
X81612500Y-214522334D02*
X75509834Y-220625000D01*
X68387000Y-216625000D02*
X74509834Y-216625000D01*
X154812500Y-62541100D02*
X154671400Y-62400000D01*
X154812500Y-63722334D02*
X154812500Y-62541100D01*
X67762000Y-216000000D02*
X68387000Y-216625000D01*
X74509834Y-216625000D02*
X80012500Y-211122334D01*
X80012500Y-211122334D02*
X80012500Y-138522334D01*
X80012500Y-138522334D02*
X154812500Y-63722334D01*
X78412500Y-137922334D02*
X152212500Y-64122334D01*
X75109834Y-212625000D02*
X78412500Y-209322334D01*
X152212500Y-62341100D02*
X152071400Y-62200000D01*
X152212500Y-64122334D02*
X152212500Y-62341100D01*
X67762000Y-212000000D02*
X68387000Y-212625000D01*
X68387000Y-212625000D02*
X75109834Y-212625000D01*
X78412500Y-209322334D02*
X78412500Y-137922334D01*
X149212500Y-62341100D02*
X149071400Y-62200000D01*
X68387000Y-208625000D02*
X73309834Y-208625000D01*
X76812500Y-137322334D02*
X149212500Y-64922334D01*
X149212500Y-64922334D02*
X149212500Y-62341100D01*
X73309834Y-208625000D02*
X76812500Y-205122334D01*
X67762000Y-208000000D02*
X68387000Y-208625000D01*
X76812500Y-205122334D02*
X76812500Y-137322334D01*
X68358207Y-200706508D02*
X68464199Y-200812500D01*
X67762000Y-200706508D02*
X68358207Y-200706508D01*
X68464199Y-200812500D02*
X70922334Y-200812500D01*
X67762000Y-200000000D02*
X67762000Y-200706508D01*
X73612500Y-198122334D02*
X73612500Y-124522334D01*
X73612500Y-124522334D02*
X99122334Y-99012500D01*
X70922334Y-200812500D02*
X73612500Y-198122334D01*
X99122334Y-99012500D02*
X112722334Y-99012500D01*
X112722334Y-99012500D02*
X144212500Y-67522334D01*
X144212500Y-67522334D02*
X144212500Y-62341100D01*
X144212500Y-62341100D02*
X144071400Y-62200000D01*
X75665166Y-221000000D02*
X65762000Y-221000000D01*
X81987500Y-161867614D02*
X81987500Y-214677666D01*
X82187500Y-161667614D02*
X81987500Y-161867614D01*
X81987500Y-214677666D02*
X75665166Y-221000000D01*
X157232356Y-64432356D02*
X157032810Y-64432356D01*
X157032810Y-64432356D02*
X82187500Y-139277665D01*
X82187500Y-139277665D02*
X82187500Y-161667614D01*
X155187500Y-63877666D02*
X155187500Y-62541100D01*
X80387500Y-138677666D02*
X155187500Y-63877666D01*
X80387500Y-211277666D02*
X80387500Y-138677666D01*
X65762000Y-217000000D02*
X74665166Y-217000000D01*
X155187500Y-62541100D02*
X155328600Y-62400000D01*
X74665166Y-217000000D02*
X80387500Y-211277666D01*
X152587500Y-62341100D02*
X152728600Y-62200000D01*
X152587500Y-64277666D02*
X152587500Y-62341100D01*
X78787500Y-209477666D02*
X78787500Y-138077666D01*
X65762000Y-213000000D02*
X75265166Y-213000000D01*
X78787500Y-138077666D02*
X152587500Y-64277666D01*
X75265166Y-213000000D02*
X78787500Y-209477666D01*
X149587500Y-65077666D02*
X149587500Y-62341100D01*
X77187500Y-205277666D02*
X77187500Y-137477666D01*
X73465166Y-209000000D02*
X77187500Y-205277666D01*
X149587500Y-62341100D02*
X149728600Y-62200000D01*
X65762000Y-209000000D02*
X73465166Y-209000000D01*
X77187500Y-137477666D02*
X149587500Y-65077666D01*
X73987500Y-124677666D02*
X99277666Y-99387500D01*
X73987500Y-198277666D02*
X73987500Y-124677666D01*
X71077666Y-201187500D02*
X73987500Y-198277666D01*
X68308882Y-201187500D02*
X71077666Y-201187500D01*
X67578333Y-201081499D02*
X68202881Y-201081499D01*
X65762000Y-201000000D02*
X67496834Y-201000000D01*
X67496834Y-201000000D02*
X67578333Y-201081499D01*
X68202881Y-201081499D02*
X68308882Y-201187500D01*
X99277666Y-99387500D02*
X112877666Y-99387500D01*
X144587500Y-67677666D02*
X144587500Y-62341100D01*
X112877666Y-99387500D02*
X144587500Y-67677666D01*
X144587500Y-62341100D02*
X144728600Y-62200000D01*
X98477666Y-97787500D02*
X112277666Y-97787500D01*
X72387500Y-123877666D02*
X98477666Y-97787500D01*
X72387500Y-191677666D02*
X72387500Y-123877666D01*
X65762000Y-195000000D02*
X69065166Y-195000000D01*
X69065166Y-195000000D02*
X72387500Y-191677666D01*
X112277666Y-97787500D02*
X142187500Y-67877666D01*
X142187500Y-62341100D02*
X142328600Y-62200000D01*
X142187500Y-67877666D02*
X142187500Y-62341100D01*
D28*
X65762000Y-191000000D02*
X69200000Y-191000000D01*
X69200000Y-191000000D02*
X69600000Y-190600000D01*
X69600000Y-190600000D02*
X69600000Y-176600000D01*
X69600000Y-176600000D02*
X69600000Y-122600000D01*
X69600000Y-122600000D02*
X97200000Y-95000000D01*
X97200000Y-95000000D02*
X111400000Y-95000000D01*
X111400000Y-95000000D02*
X111400000Y-94800000D01*
X111400000Y-94800000D02*
X139000000Y-67200000D01*
X139000000Y-67200000D02*
X139000000Y-62400000D01*
X64855999Y-186093999D02*
X64855999Y-176455999D01*
X65762000Y-187000000D02*
X64855999Y-186093999D01*
X64855999Y-176455999D02*
X64855999Y-172144001D01*
X64855999Y-172144001D02*
X68200000Y-168800000D01*
X68200000Y-168800000D02*
X68600000Y-168400000D01*
X68600000Y-168400000D02*
X68600000Y-122200000D01*
X68600000Y-122200000D02*
X90200000Y-100600000D01*
X90200000Y-100600000D02*
X96800000Y-94000000D01*
X96800000Y-94000000D02*
X110800000Y-94000000D01*
X110800000Y-94000000D02*
X126200000Y-78600000D01*
X126200000Y-78600000D02*
X133200000Y-71600000D01*
X133200000Y-71600000D02*
X137800000Y-67000000D01*
X137800000Y-67000000D02*
X137800000Y-62400000D01*
X62762000Y-187000000D02*
X63800000Y-185962000D01*
X63800000Y-185962000D02*
X63800000Y-176400000D01*
X63800000Y-176400000D02*
X63800000Y-171800000D01*
X63800000Y-171800000D02*
X63800000Y-171400000D01*
X63800000Y-171400000D02*
X67600000Y-167600000D01*
X67600000Y-167600000D02*
X67600000Y-146200000D01*
X67600000Y-146200000D02*
X67600000Y-121800000D01*
X67600000Y-121800000D02*
X92200000Y-97200000D01*
X92200000Y-97200000D02*
X96400000Y-93000000D01*
X96400000Y-93000000D02*
X110400000Y-93000000D01*
X110400000Y-93000000D02*
X132600000Y-70800000D01*
X132600000Y-70800000D02*
X136800000Y-66600000D01*
X136800000Y-66600000D02*
X136800000Y-62400000D01*
D30*
X59534834Y-199000000D02*
X62762000Y-199000000D01*
X56012500Y-195477666D02*
X59534834Y-199000000D01*
X126522334Y-51212500D02*
X56012500Y-121722334D01*
X146458900Y-51212500D02*
X126522334Y-51212500D01*
X146600000Y-51071400D02*
X146458900Y-51212500D01*
X56012500Y-121722334D02*
X56012500Y-195477666D01*
X126027666Y-49987500D02*
X143058900Y-49987500D01*
X54787500Y-121227666D02*
X126027666Y-49987500D01*
X60774500Y-201012500D02*
X59077666Y-201012500D01*
X60843499Y-201081499D02*
X60774500Y-201012500D01*
X61202881Y-201081499D02*
X60843499Y-201081499D01*
X54787500Y-196722334D02*
X54787500Y-121227666D01*
X62762000Y-203000000D02*
X61680501Y-201918501D01*
X143058900Y-49987500D02*
X143200000Y-50128600D01*
X61680501Y-201918501D02*
X61680501Y-201559119D01*
X59077666Y-201012500D02*
X54787500Y-196722334D01*
X61680501Y-201559119D02*
X61202881Y-201081499D01*
X61680501Y-221918501D02*
X62762000Y-223000000D01*
X61680501Y-221559119D02*
X61680501Y-221918501D01*
X61039883Y-220918501D02*
X61680501Y-221559119D01*
X48687500Y-118177666D02*
X48400000Y-118500000D01*
X60215118Y-220812500D02*
X60321119Y-220918501D01*
X48400000Y-118500000D02*
X48400000Y-119039630D01*
X48387500Y-215322334D02*
X53877666Y-220812500D01*
X123277666Y-43587500D02*
X48687500Y-118177666D01*
X133850000Y-43728600D02*
X133708900Y-43587500D01*
X48400000Y-119039630D02*
X48387500Y-119052130D01*
X60321119Y-220918501D02*
X61039883Y-220918501D01*
X133708900Y-43587500D02*
X123277666Y-43587500D01*
X48387500Y-119052130D02*
X48387500Y-215322334D01*
X53877666Y-220812500D02*
X60215118Y-220812500D01*
X61680501Y-205559119D02*
X61680501Y-205918501D01*
X61202881Y-205081499D02*
X61680501Y-205559119D01*
X60843499Y-205081499D02*
X61202881Y-205081499D01*
X60774500Y-205012500D02*
X60843499Y-205081499D01*
X53187500Y-199922334D02*
X58277666Y-205012500D01*
X53187500Y-120477666D02*
X53187500Y-199922334D01*
X142200000Y-48528600D02*
X142058900Y-48387500D01*
X61680501Y-205918501D02*
X62762000Y-207000000D01*
X125277666Y-48387500D02*
X53187500Y-120477666D01*
X58277666Y-205012500D02*
X60774500Y-205012500D01*
X142058900Y-48387500D02*
X125277666Y-48387500D01*
X61680501Y-209559119D02*
X61680501Y-209918501D01*
X61202881Y-209081499D02*
X61680501Y-209559119D01*
X60843499Y-209081499D02*
X61202881Y-209081499D01*
X60773650Y-209011650D02*
X60843499Y-209081499D01*
X55476816Y-209011650D02*
X60773650Y-209011650D01*
X51587500Y-205122334D02*
X55476816Y-209011650D01*
X51587500Y-119877666D02*
X51587500Y-205122334D01*
X140250000Y-46928600D02*
X140108900Y-46787500D01*
X61680501Y-209918501D02*
X62762000Y-211000000D01*
X140108900Y-46787500D02*
X124677666Y-46787500D01*
X124677666Y-46787500D02*
X51587500Y-119877666D01*
X61680501Y-217918501D02*
X62762000Y-219000000D01*
X61680501Y-217559119D02*
X61680501Y-217918501D01*
X60774500Y-217012500D02*
X60843499Y-217081499D01*
X60843499Y-217081499D02*
X61202881Y-217081499D01*
X54477666Y-217012500D02*
X60774500Y-217012500D01*
X61202881Y-217081499D02*
X61680501Y-217559119D01*
X138100000Y-45400000D02*
X137887500Y-45187500D01*
X137887500Y-45187500D02*
X124077666Y-45187500D01*
X49987500Y-212522334D02*
X54477666Y-217012500D01*
X49987500Y-119277666D02*
X49987500Y-212522334D01*
X124077666Y-45187500D02*
X49987500Y-119277666D01*
X125122334Y-48012500D02*
X52812500Y-120322334D01*
X60762000Y-205530331D02*
X60762000Y-206000000D01*
X142200000Y-47871400D02*
X142058900Y-48012500D01*
X142058900Y-48012500D02*
X125122334Y-48012500D01*
X52812500Y-120322334D02*
X52812500Y-200077666D01*
X52812500Y-200077666D02*
X58122334Y-205387500D01*
X58122334Y-205387500D02*
X60619169Y-205387500D01*
X60619169Y-205387500D02*
X60762000Y-205530331D01*
X137887500Y-44812500D02*
X123922334Y-44812500D01*
X123922334Y-44812500D02*
X49612500Y-119122334D01*
X49612500Y-119122334D02*
X49612500Y-212677666D01*
X49612500Y-212677666D02*
X54322334Y-217387500D01*
X54322334Y-217387500D02*
X60619169Y-217387500D01*
X138100000Y-44600000D02*
X137887500Y-44812500D01*
X60619169Y-217387500D02*
X60762000Y-217530331D01*
X60762000Y-217530331D02*
X60762000Y-218000000D01*
X60619169Y-201387500D02*
X58922334Y-201387500D01*
X60762000Y-202000000D02*
X60762000Y-201530331D01*
X125872334Y-49612500D02*
X143058900Y-49612500D01*
X60762000Y-201530331D02*
X60619169Y-201387500D01*
X58922334Y-201387500D02*
X54412500Y-196877666D01*
X54412500Y-196877666D02*
X54412500Y-121072334D01*
X54412500Y-121072334D02*
X125872334Y-49612500D01*
X143058900Y-49612500D02*
X143200000Y-49471400D01*
X60618319Y-209386650D02*
X60762000Y-209530331D01*
X51212500Y-205277666D02*
X55321484Y-209386650D01*
X124522334Y-46412500D02*
X51212500Y-119722334D01*
X140250000Y-46271400D02*
X140108900Y-46412500D01*
X51212500Y-119722334D02*
X51212500Y-205277666D01*
X140108900Y-46412500D02*
X124522334Y-46412500D01*
X60762000Y-209530331D02*
X60762000Y-210000000D01*
X55321484Y-209386650D02*
X60618319Y-209386650D01*
D28*
X60762000Y-192000000D02*
X59798921Y-192000000D01*
X59798921Y-192000000D02*
X57800000Y-190001079D01*
X57800000Y-190001079D02*
X57800000Y-177000000D01*
X57800000Y-177000000D02*
X57800000Y-174900000D01*
X57800000Y-174900000D02*
X57800000Y-162800000D01*
X57800000Y-162800000D02*
X65600000Y-155000000D01*
X65600000Y-155000000D02*
X65600000Y-122000000D01*
X65600000Y-122000000D02*
X65600000Y-121000000D01*
X65600000Y-121000000D02*
X71800000Y-114800000D01*
X71800000Y-114800000D02*
X86600000Y-100000000D01*
X86600000Y-100000000D02*
X92000000Y-94600000D01*
X92000000Y-94600000D02*
X95600000Y-91000000D01*
X95600000Y-91000000D02*
X109600000Y-91000000D01*
X109600000Y-91000000D02*
X119800000Y-80800000D01*
X119800000Y-80800000D02*
X134400000Y-66200000D01*
X134400000Y-66200000D02*
X134400000Y-62400000D01*
D30*
X60762000Y-221530331D02*
X60762000Y-222000000D01*
X48017417Y-118317417D02*
X48017417Y-118817417D01*
X133708900Y-43212500D02*
X123122334Y-43212500D01*
X48017417Y-118817417D02*
X48012500Y-118822334D01*
X48012500Y-215477666D02*
X53722334Y-221187500D01*
X60165793Y-221293492D02*
X60525161Y-221293492D01*
X123122334Y-43212500D02*
X48017417Y-118317417D01*
X60525161Y-221293492D02*
X60762000Y-221530331D01*
X133850000Y-43071400D02*
X133708900Y-43212500D01*
X53722334Y-221187500D02*
X60059801Y-221187500D01*
X48012500Y-118822334D02*
X48012500Y-215477666D01*
X60059801Y-221187500D02*
X60165793Y-221293492D01*
X146458900Y-51587500D02*
X126677666Y-51587500D01*
X126677666Y-51587500D02*
X56387500Y-121877666D01*
X56387500Y-121877666D02*
X56387500Y-195322334D01*
X56387500Y-195322334D02*
X59690166Y-198625000D01*
X59690166Y-198625000D02*
X60137000Y-198625000D01*
X146600000Y-51728600D02*
X146458900Y-51587500D01*
X60137000Y-198625000D02*
X60762000Y-198000000D01*
D25*
X150500000Y-73900000D02*
X150500000Y-93900000D01*
X151300000Y-73900000D02*
X151300000Y-93300000D01*
X150900000Y-73000000D02*
X150900000Y-77000000D01*
X150900000Y-77000000D02*
X150900000Y-92300000D01*
D26*
X202000000Y-51600000D02*
X202000000Y-66000000D01*
X202000000Y-40000000D02*
X202000000Y-51600000D01*
X51400000Y-67600000D02*
X57600000Y-67600000D01*
X59400000Y-45200000D02*
X64800000Y-39800000D01*
X57600000Y-67600000D02*
X59400000Y-65800000D01*
X59400000Y-65800000D02*
X59400000Y-45200000D01*
X64800000Y-39800000D02*
X202000000Y-40000000D01*
D25*
X210300001Y-91700001D02*
X210300001Y-76500001D01*
X210600000Y-92000000D02*
X210300001Y-91700001D01*
D30*
X75587500Y-200477666D02*
X75587500Y-136677666D01*
X75587500Y-136677666D02*
X97987500Y-114277666D01*
X71065166Y-205000000D02*
X75587500Y-200477666D01*
X65762000Y-205000000D02*
X71065166Y-205000000D01*
X97987500Y-113795525D02*
X97545384Y-113353409D01*
X97987500Y-114277666D02*
X97987500Y-113795525D01*
X97545384Y-113353409D02*
X97545384Y-113153863D01*
X207800000Y-113471400D02*
X207941100Y-113612500D01*
X207941100Y-113612500D02*
X212122334Y-113612500D01*
X212122334Y-113612500D02*
X214212500Y-111522334D01*
X220567644Y-96367190D02*
X220567644Y-96167644D01*
X214212500Y-102722334D02*
X220567644Y-96367190D01*
X214212500Y-111522334D02*
X214212500Y-102722334D01*
X67762000Y-204000000D02*
X68387000Y-204625000D01*
X75212500Y-136522334D02*
X97612500Y-114122334D01*
X75212500Y-200322334D02*
X75212500Y-136522334D01*
X68387000Y-204625000D02*
X70909834Y-204625000D01*
X70909834Y-204625000D02*
X75212500Y-200322334D01*
X97612500Y-113950857D02*
X97280218Y-113618575D01*
X97612500Y-114122334D02*
X97612500Y-113950857D01*
X97280218Y-113618575D02*
X97080672Y-113618575D01*
X207800000Y-114128600D02*
X207941100Y-113987500D01*
X207941100Y-113987500D02*
X212277666Y-113987500D01*
X212277666Y-113987500D02*
X214587500Y-111677666D01*
X214587500Y-111677666D02*
X214587500Y-102877666D01*
X214587500Y-102877666D02*
X220832810Y-96632356D01*
X220832810Y-96632356D02*
X221032356Y-96632356D01*
X214158900Y-98587500D02*
X214300000Y-98728600D01*
X197917157Y-79582843D02*
X198217677Y-79582843D01*
X198217677Y-79582843D02*
X198412500Y-79777666D01*
X198412500Y-83277666D02*
X205812500Y-90677666D01*
X198412500Y-79777666D02*
X198412500Y-83277666D01*
X207922334Y-98587500D02*
X214158900Y-98587500D01*
X205812500Y-90677666D02*
X205812500Y-96477666D01*
X205812500Y-96477666D02*
X207922334Y-98587500D01*
X208077666Y-98212500D02*
X214158900Y-98212500D01*
X206187500Y-96322334D02*
X208077666Y-98212500D01*
X206187500Y-90522334D02*
X206187500Y-96322334D01*
X198787500Y-83122334D02*
X206187500Y-90522334D01*
X198787500Y-79622334D02*
X198787500Y-83122334D01*
X198482843Y-79317677D02*
X198787500Y-79622334D01*
X198482843Y-79017157D02*
X198482843Y-79317677D01*
X214158900Y-98212500D02*
X214300000Y-98071400D01*
D28*
X62762000Y-191000000D02*
X59600000Y-191000000D01*
X59600000Y-191000000D02*
X58800000Y-190200000D01*
X58800000Y-190200000D02*
X58800000Y-177000000D01*
X58800000Y-177000000D02*
X58800000Y-176200000D01*
X58800000Y-176200000D02*
X58800000Y-175400000D01*
X58800000Y-175400000D02*
X58800000Y-163200000D01*
X58800000Y-163200000D02*
X66600000Y-155400000D01*
X66600000Y-155400000D02*
X66600000Y-121400000D01*
X66600000Y-121400000D02*
X91400000Y-96600000D01*
X91400000Y-96600000D02*
X96000000Y-92000000D01*
X96000000Y-92000000D02*
X110000000Y-92000000D01*
X110000000Y-92000000D02*
X113800000Y-88200000D01*
X113800000Y-88200000D02*
X135400000Y-66600000D01*
X135400000Y-66600000D02*
X135400000Y-62400000D01*
D25*
X108400000Y-273200000D02*
X108400000Y-264200000D01*
X108400000Y-264200000D02*
X108387500Y-264187500D01*
D28*
X203400000Y-232800000D02*
X203400000Y-242600000D01*
X210202000Y-231000000D02*
X205200000Y-231000000D01*
X205200000Y-231000000D02*
X203400000Y-232800000D01*
X167600000Y-232800000D02*
X167600000Y-242600000D01*
X174402000Y-231000000D02*
X169400000Y-231000000D01*
X169400000Y-231000000D02*
X167600000Y-232800000D01*
X132200000Y-232800000D02*
X132200000Y-242600000D01*
X139002000Y-231000000D02*
X134000000Y-231000000D01*
X134000000Y-231000000D02*
X132200000Y-232800000D01*
X103402000Y-231000000D02*
X98400000Y-231000000D01*
X98400000Y-231000000D02*
X96600000Y-232800000D01*
X96600000Y-232800000D02*
X96600000Y-242600000D01*
D31*
X88400000Y-266200000D02*
X86000000Y-263800000D01*
X86000000Y-263800000D02*
X86000000Y-242600000D01*
D28*
X191500000Y-242700000D02*
X191600000Y-242600000D01*
X191500000Y-251500000D02*
X191500000Y-242700000D01*
X219400000Y-231600000D02*
X219400000Y-244600000D01*
X218800000Y-231000000D02*
X219400000Y-231600000D01*
X183600000Y-231600000D02*
X183600000Y-244600000D01*
X183000000Y-231000000D02*
X183600000Y-231600000D01*
X148200000Y-231600000D02*
X148200000Y-244600000D01*
X147600000Y-231000000D02*
X148200000Y-231600000D01*
X112000000Y-231000000D02*
X112600000Y-231600000D01*
X112600000Y-231600000D02*
X112600000Y-244600000D01*
D31*
X88100001Y-268900001D02*
X87500001Y-268900001D01*
X88400000Y-269200000D02*
X88100001Y-268900001D01*
X87500001Y-268648999D02*
X84800000Y-265948998D01*
X87500001Y-268900001D02*
X87500001Y-268648999D01*
X84800000Y-265948998D02*
X84800000Y-244600000D01*
D28*
X207500000Y-244700000D02*
X207600000Y-244600000D01*
X207500000Y-251500000D02*
X207500000Y-244700000D01*
X205800000Y-232000000D02*
X204400000Y-233400000D01*
X204400000Y-233400000D02*
X204400000Y-243600000D01*
X208202000Y-232000000D02*
X207238921Y-232000000D01*
X207238921Y-232000000D02*
X205800000Y-232000000D01*
X170000000Y-232000000D02*
X168600000Y-233400000D01*
X168600000Y-233400000D02*
X168600000Y-243600000D01*
X172402000Y-232000000D02*
X171438921Y-232000000D01*
X171438921Y-232000000D02*
X170000000Y-232000000D01*
X134600000Y-232000000D02*
X133200000Y-233400000D01*
X133200000Y-233400000D02*
X133200000Y-243600000D01*
X137002000Y-232000000D02*
X136038921Y-232000000D01*
X136038921Y-232000000D02*
X134600000Y-232000000D01*
X101402000Y-232000000D02*
X100438921Y-232000000D01*
X100438921Y-232000000D02*
X99000000Y-232000000D01*
X99000000Y-232000000D02*
X97600000Y-233400000D01*
X97600000Y-233400000D02*
X97600000Y-243600000D01*
D31*
X112200000Y-246000000D02*
X112200000Y-266600000D01*
X111200000Y-243600000D02*
X112200000Y-246000000D01*
D28*
X198500001Y-250500001D02*
X198500001Y-249899999D01*
X199500000Y-251500000D02*
X198500001Y-250500001D01*
X198400000Y-249799998D02*
X198400000Y-243600000D01*
X198500001Y-249899999D02*
X198400000Y-249799998D01*
X220800000Y-232400000D02*
X220800000Y-245600000D01*
X185000000Y-232400000D02*
X185000000Y-245600000D01*
X149600000Y-232400000D02*
X149600000Y-245600000D01*
X114000000Y-232400000D02*
X114000000Y-245600000D01*
D31*
X114299999Y-245899999D02*
X114000000Y-245600000D01*
X114299999Y-268700001D02*
X114299999Y-245899999D01*
X114000000Y-269000000D02*
X114299999Y-268700001D01*
D24*
X117200000Y-143523289D02*
X117400000Y-143723289D01*
X117200000Y-143200000D02*
X117200000Y-143523289D01*
X117400000Y-143723289D02*
X117400000Y-146200000D01*
X117400000Y-146200000D02*
X116200000Y-147400000D01*
X116200000Y-147400000D02*
X111400000Y-152200000D01*
X111400000Y-152200000D02*
X110800000Y-152800000D01*
X110800000Y-152800000D02*
X100400000Y-152800000D01*
X100400000Y-152800000D02*
X99400000Y-152800000D01*
X99400000Y-152800000D02*
X92800000Y-159400000D01*
X92800000Y-159400000D02*
X92000000Y-160200000D01*
X92000000Y-160200000D02*
X91600000Y-160600000D01*
X91600000Y-160600000D02*
X91400000Y-160800000D01*
X91400000Y-160800000D02*
X91400000Y-184000000D01*
X91400000Y-184000000D02*
X91400000Y-197400000D01*
X91400000Y-197400000D02*
X91400000Y-244800000D01*
X91400000Y-244800000D02*
X88400000Y-247800000D01*
X88400000Y-247800000D02*
X88400000Y-251400000D01*
X99800000Y-251400000D02*
X99800000Y-263800000D01*
X119600000Y-141600000D02*
X119600000Y-147400000D01*
X119600000Y-147400000D02*
X117400000Y-149600000D01*
X117400000Y-149600000D02*
X112000000Y-155000000D01*
X112000000Y-155000000D02*
X101696744Y-155000000D01*
X101696744Y-155000000D02*
X100000000Y-155000000D01*
X100000000Y-155000000D02*
X93400000Y-161600000D01*
X93400000Y-161600000D02*
X93400000Y-174000000D01*
X93400000Y-174000000D02*
X93400000Y-184400000D01*
X93400000Y-184400000D02*
X93400000Y-247000000D01*
X93400000Y-247000000D02*
X91200000Y-249200000D01*
X110000000Y-249385787D02*
X109214213Y-248600000D01*
X110000000Y-250800000D02*
X110000000Y-249385787D01*
X109214213Y-248600000D02*
X95800000Y-248600000D01*
X95800000Y-248600000D02*
X94000000Y-250400000D01*
X94000000Y-250400000D02*
X91200000Y-250400000D01*
X91200000Y-249200000D02*
X91200000Y-250400000D01*
X91200000Y-250400000D02*
X91200000Y-265800000D01*
X92400000Y-161400000D02*
X92400000Y-167600000D01*
X92400000Y-167600000D02*
X92400000Y-185600000D01*
X92400000Y-194400000D02*
X92400000Y-194600000D01*
X92400000Y-185600000D02*
X92400000Y-194400000D01*
X100200000Y-153800000D02*
X99800000Y-153800000D01*
X100200000Y-153800000D02*
X100000000Y-153800000D01*
X99800000Y-153800000D02*
X92400000Y-161200000D01*
X92400000Y-161200000D02*
X92400000Y-161400000D01*
X111400000Y-153800000D02*
X100200000Y-153800000D01*
X118200000Y-142400000D02*
X118200000Y-142723289D01*
X111600000Y-153800000D02*
X111400000Y-153800000D01*
X118200000Y-142723289D02*
X118600000Y-143123289D01*
X118600000Y-143123289D02*
X118600000Y-146800000D01*
X118600000Y-146800000D02*
X111600000Y-153800000D01*
X92400000Y-194600000D02*
X92400000Y-245800000D01*
X92400000Y-245800000D02*
X89600000Y-248600000D01*
X89600000Y-248600000D02*
X89600000Y-252400000D01*
X102400000Y-252400000D02*
X102400000Y-265600000D01*
D25*
X157400001Y-97000001D02*
X157400001Y-74300001D01*
X157700000Y-97300000D02*
X157400001Y-97000001D01*
X157400001Y-74300001D02*
X156100000Y-73000000D01*
X156100000Y-73000000D02*
X156100000Y-67200000D01*
X157900000Y-74800000D02*
X157400001Y-74300001D01*
X172400000Y-74800000D02*
X157900000Y-74800000D01*
D28*
X133800000Y-97477002D02*
X133800000Y-90800000D01*
X133000000Y-98277002D02*
X133800000Y-97477002D01*
X131400000Y-102400000D02*
X133000000Y-100800000D01*
X133000000Y-100800000D02*
X133000000Y-98277002D01*
X143600000Y-82400000D02*
X143600000Y-82200000D01*
X143600000Y-82200000D02*
X143000000Y-81600000D01*
X133800000Y-90800000D02*
X143000000Y-81600000D01*
X143000000Y-81600000D02*
X149200000Y-75400000D01*
X102000000Y-121500000D02*
X99800000Y-123800000D01*
X129600000Y-93900000D02*
X102000000Y-121500000D01*
X133000000Y-97400000D02*
X132900000Y-97500000D01*
X133100000Y-97300000D02*
X133000000Y-97400000D01*
X133000000Y-94100000D02*
X133100000Y-97300000D01*
X109600000Y-190450000D02*
X108402000Y-192000000D01*
X109650000Y-169750000D02*
X109600000Y-190450000D01*
X113550000Y-165600000D02*
X109650000Y-169750000D01*
X113700000Y-165500000D02*
X113600000Y-165600000D01*
X139550000Y-139550000D02*
X113700000Y-165500000D01*
X113600000Y-165600000D02*
X113550000Y-165600000D01*
X139600000Y-136200000D02*
X139550000Y-139550000D01*
X145200000Y-190500000D02*
X144002000Y-192050000D01*
X145250000Y-157950000D02*
X145250000Y-169800000D01*
X154000000Y-149200000D02*
X145250000Y-157950000D01*
X145250000Y-169800000D02*
X145200000Y-190500000D01*
X153000000Y-135200000D02*
X153000000Y-143600000D01*
X153000000Y-143600000D02*
X153000000Y-145000000D01*
X153000000Y-145000000D02*
X154000000Y-146000000D01*
X154000000Y-146000000D02*
X154000000Y-149200000D01*
X170200000Y-156600000D02*
X168800000Y-155200000D01*
X180850000Y-190500000D02*
X180900000Y-169800000D01*
X180900000Y-160500000D02*
X177000000Y-156600000D01*
X179652000Y-192050000D02*
X180850000Y-190500000D01*
X180900000Y-169800000D02*
X180900000Y-160500000D01*
X168800000Y-155200000D02*
X168800000Y-135800000D01*
X177000000Y-156600000D02*
X170200000Y-156600000D01*
X194800000Y-136000000D02*
X194800000Y-135800000D01*
X216400000Y-160500000D02*
X216300000Y-160500000D01*
X216300000Y-160500000D02*
X213600000Y-157800000D01*
X216400000Y-169800000D02*
X216400000Y-160500000D01*
X216350000Y-190500000D02*
X216400000Y-169800000D01*
X215152000Y-192050000D02*
X216350000Y-190500000D01*
X213600000Y-157800000D02*
X213600000Y-154800000D01*
X213600000Y-154800000D02*
X194800000Y-136000000D01*
D24*
X229000000Y-114800000D02*
X229000000Y-127800000D01*
D28*
X99028599Y-124971401D02*
X99828599Y-124971401D01*
X98800000Y-125200000D02*
X99028599Y-124971401D01*
X99828599Y-124971401D02*
X100028599Y-124971401D01*
X100028599Y-124971401D02*
X116200000Y-108800000D01*
X116200000Y-108800000D02*
X116700000Y-108800000D01*
D25*
X177200000Y-267200000D02*
X177200000Y-263400000D01*
X177200000Y-263400000D02*
X175800000Y-263400000D01*
X175800000Y-263400000D02*
X174800000Y-262400000D01*
D28*
X185000000Y-267200000D02*
X182400000Y-269800000D01*
X182400000Y-269800000D02*
X182400000Y-273200000D01*
X182400000Y-273200000D02*
X181000000Y-274600000D01*
X128100000Y-102500000D02*
X128100000Y-97900000D01*
X128100000Y-97900000D02*
X128100000Y-97100000D01*
X128100000Y-97100000D02*
X130400000Y-94800000D01*
D24*
X231000000Y-104600000D02*
X231000000Y-107400000D01*
X231000000Y-107400000D02*
X230800000Y-107400000D01*
X230800000Y-107400000D02*
X229600000Y-108600000D01*
X229200000Y-104600000D02*
X229200000Y-107800000D01*
X229200000Y-107800000D02*
X229000000Y-108000000D01*
X229000000Y-108000000D02*
X228800000Y-108200000D01*
X228800000Y-108200000D02*
X228800000Y-109400000D01*
X123000000Y-133000000D02*
X123323289Y-133000000D01*
X123323289Y-133000000D02*
X127600000Y-133000000D01*
X127600000Y-133000000D02*
X129400000Y-131200000D01*
X129400000Y-131200000D02*
X129400000Y-111600000D01*
X129400000Y-111600000D02*
X132800000Y-108200000D01*
X135400000Y-106800000D02*
X135400000Y-98200000D01*
X135400000Y-98200000D02*
X135800000Y-97800000D01*
X131400000Y-135600000D02*
X122600000Y-144400000D01*
X131400000Y-135200000D02*
X131400000Y-135600000D01*
X131400000Y-111123289D02*
X131400000Y-135200000D01*
X135400000Y-106800000D02*
X135400000Y-107123289D01*
X135400000Y-107123289D02*
X131400000Y-111123289D01*
X125600000Y-134200000D02*
X129400000Y-134200000D01*
X129400000Y-134200000D02*
X130400000Y-133200000D01*
X130400000Y-133200000D02*
X130400000Y-112000000D01*
X133000000Y-111000000D02*
X136200000Y-107800000D01*
X136200000Y-107800000D02*
X136200000Y-98800000D01*
X136200000Y-98800000D02*
X137200000Y-97800000D01*
X227400000Y-104923289D02*
X228000000Y-105523289D01*
X227400000Y-104600000D02*
X227400000Y-104923289D01*
X228000000Y-105523289D02*
X228000000Y-109400000D01*
X228000000Y-109400000D02*
X227776223Y-109623777D01*
D28*
X132600000Y-63700000D02*
X131300000Y-62400000D01*
X64400000Y-139000000D02*
X64400000Y-138800000D01*
X64600000Y-120600000D02*
X95000000Y-90200000D01*
X64400000Y-138800000D02*
X64600000Y-138600000D01*
X64600000Y-138600000D02*
X64600000Y-120600000D01*
X95000000Y-90200000D02*
X109000000Y-90200000D01*
X109000000Y-90200000D02*
X132600000Y-66600000D01*
X132600000Y-66600000D02*
X132600000Y-63700000D01*
X130846399Y-53953601D02*
X131200000Y-53600000D01*
X130846399Y-63646399D02*
X130846399Y-53953601D01*
X131000000Y-63800000D02*
X130846399Y-63646399D01*
X63600000Y-120200000D02*
X94600000Y-89200000D01*
X131000000Y-66800000D02*
X131000000Y-63800000D01*
X63600000Y-138000000D02*
X63600000Y-120200000D01*
X94600000Y-89200000D02*
X108600000Y-89200000D01*
X108600000Y-89200000D02*
X131000000Y-66800000D01*
X90400000Y-92000000D02*
X62600000Y-119800000D01*
X62600000Y-131000000D02*
X62600000Y-139800000D01*
X62600000Y-119800000D02*
X62600000Y-131000000D01*
X134400000Y-106800000D02*
X134500000Y-92000000D01*
X61600000Y-140200000D02*
X61600000Y-119400000D01*
X81200000Y-99800000D02*
X87800000Y-93200000D01*
X63200000Y-141200000D02*
X62600000Y-141200000D01*
X61600000Y-119400000D02*
X81200000Y-99800000D01*
X62600000Y-141200000D02*
X61600000Y-140200000D01*
X135000000Y-97500000D02*
X135000000Y-93200000D01*
X135000000Y-93200000D02*
X135200000Y-93000000D01*
X106402000Y-187000000D02*
X105150000Y-185748000D01*
X105150000Y-185748000D02*
X105150000Y-172650000D01*
X105150000Y-172650000D02*
X132400000Y-145200000D01*
X142002000Y-187050000D02*
X140750000Y-185798000D01*
X140750000Y-178750000D02*
X142650000Y-178750000D01*
X140750000Y-185798000D02*
X140750000Y-178750000D01*
X142650000Y-178750000D02*
X144200000Y-177200000D01*
X144200000Y-177200000D02*
X144200000Y-170000000D01*
X144200000Y-170000000D02*
X144200000Y-169000000D01*
X144200000Y-169000000D02*
X144200000Y-157600000D01*
X144200000Y-157600000D02*
X153000000Y-148800000D01*
X153000000Y-148800000D02*
X153000000Y-146400000D01*
X167800000Y-155600000D02*
X167800000Y-146800000D01*
X169800000Y-157600000D02*
X167800000Y-155600000D01*
X176600000Y-157600000D02*
X169800000Y-157600000D01*
X179850000Y-160850000D02*
X176600000Y-157600000D01*
X176400000Y-185798000D02*
X176400000Y-178750000D01*
X178300000Y-178750000D02*
X179850000Y-177200000D01*
X177652000Y-187050000D02*
X176400000Y-185798000D01*
X176400000Y-178750000D02*
X178300000Y-178750000D01*
X179850000Y-177200000D02*
X179850000Y-160850000D01*
X213152000Y-187050000D02*
X211900000Y-185798000D01*
X213800000Y-178750000D02*
X215350000Y-177200000D01*
X211900000Y-178750000D02*
X213800000Y-178750000D01*
X211900000Y-185798000D02*
X211900000Y-178750000D01*
X215350000Y-160950000D02*
X215350000Y-160850000D01*
X215350000Y-177200000D02*
X215350000Y-160950000D01*
X215350000Y-160950000D02*
X212600000Y-158200000D01*
X212600000Y-158200000D02*
X212600000Y-155400000D01*
X212600000Y-155400000D02*
X201600000Y-144400000D01*
D32*
X199200000Y-274000000D02*
X199200000Y-263600000D01*
D30*
X160599999Y-53200001D02*
X160599999Y-53300001D01*
X189600000Y-43800000D02*
X189600000Y-48800000D01*
X189600000Y-48800000D02*
X185700000Y-52700000D01*
X190200001Y-42700000D02*
X189600000Y-43800000D01*
X161100000Y-52700000D02*
X160599999Y-53200001D01*
X160599999Y-53300001D02*
X160300000Y-53600000D01*
X185700000Y-52700000D02*
X161100000Y-52700000D01*
X192900000Y-41300000D02*
X190200001Y-42699999D01*
X185900000Y-53300000D02*
X161300000Y-53300000D01*
X190100000Y-49100000D02*
X185900000Y-53300000D01*
X190100000Y-45300000D02*
X190100000Y-49100000D01*
X192200000Y-45200000D02*
X190650000Y-45200000D01*
X190650000Y-45200000D02*
X190100000Y-45300000D01*
X160100000Y-58000000D02*
X167100000Y-58000000D01*
X167100000Y-58000000D02*
X169700000Y-55400000D01*
X169700000Y-55400000D02*
X185400000Y-55400000D01*
X185400000Y-55400000D02*
X191700000Y-49100000D01*
X191700000Y-49100000D02*
X192500000Y-47200000D01*
X157900000Y-53500000D02*
X157900000Y-52200000D01*
X157900000Y-52200000D02*
X159500000Y-50600000D01*
X182580000Y-50600000D02*
X187980000Y-45200000D01*
X159500000Y-50600000D02*
X182580000Y-50600000D01*
X157199999Y-53500001D02*
X157199999Y-52100001D01*
X156900000Y-53800000D02*
X157199999Y-53500001D01*
X157199999Y-52100001D02*
X159200000Y-50100000D01*
X180540000Y-50100000D02*
X185440000Y-45200000D01*
X159200000Y-50100000D02*
X180540000Y-50100000D01*
X159000000Y-49600000D02*
X178500000Y-49600000D01*
X155400000Y-53300000D02*
X155699999Y-53000001D01*
X178500000Y-49600000D02*
X182900000Y-45200000D01*
X155699999Y-52900001D02*
X159000000Y-49600000D01*
X155699999Y-53000001D02*
X155699999Y-52900001D01*
X176560000Y-49000000D02*
X180360000Y-45200000D01*
X154500000Y-53700000D02*
X154500000Y-53300000D01*
X158800000Y-49000000D02*
X176560000Y-49000000D01*
X154500000Y-53300000D02*
X158800000Y-49000000D01*
X174520000Y-48500000D02*
X177820000Y-45200000D01*
X153000000Y-53500000D02*
X153100000Y-53400000D01*
X153100000Y-53400000D02*
X153700000Y-53400000D01*
X153700000Y-53400000D02*
X158600000Y-48500000D01*
X153000000Y-53800000D02*
X153000000Y-53500000D01*
X158600000Y-48500000D02*
X174520000Y-48500000D01*
X158395502Y-48000000D02*
X172480000Y-48000000D01*
X153595502Y-52800000D02*
X158395502Y-48000000D01*
X172480000Y-48000000D02*
X175280000Y-45200000D01*
X152400000Y-53200000D02*
X152800000Y-52800000D01*
X152800000Y-52800000D02*
X153595502Y-52800000D01*
X149700000Y-53800000D02*
X149700000Y-51000000D01*
X149700000Y-51000000D02*
X153100000Y-47600000D01*
X153100000Y-47600000D02*
X171300000Y-47600000D01*
X171300000Y-47600000D02*
X171400000Y-47500000D01*
X171400000Y-46540000D02*
X172740000Y-45200000D01*
X171400000Y-47500000D02*
X171400000Y-46540000D01*
X149299999Y-53200001D02*
X149299999Y-50800001D01*
X149000000Y-53500000D02*
X149299999Y-53200001D01*
X149299999Y-50800001D02*
X152900000Y-47200000D01*
X152900000Y-47200000D02*
X165900000Y-47200000D01*
X167900000Y-45200000D02*
X170200000Y-45200000D01*
X165900000Y-47200000D02*
X167900000Y-45200000D01*
D32*
G36*
X112875000Y-135325611D02*
G01*
X112833459Y-135353368D01*
X112753368Y-135433459D01*
X112690442Y-135527635D01*
X112647097Y-135632279D01*
X112625000Y-135743367D01*
X112625000Y-135856633D01*
X112647097Y-135967721D01*
X112690442Y-136072365D01*
X112753368Y-136166541D01*
X112833459Y-136246632D01*
X112875000Y-136274389D01*
X112875000Y-136475915D01*
X112846632Y-136433459D01*
X112766541Y-136353368D01*
X112672365Y-136290442D01*
X112567721Y-136247097D01*
X112456633Y-136225000D01*
X112343367Y-136225000D01*
X112232279Y-136247097D01*
X112127635Y-136290442D01*
X112033459Y-136353368D01*
X111953368Y-136433459D01*
X111890442Y-136527635D01*
X111847097Y-136632279D01*
X111825000Y-136743367D01*
X111825000Y-136856633D01*
X111847097Y-136967721D01*
X111890442Y-137072365D01*
X111953368Y-137166541D01*
X112033459Y-137246632D01*
X112127635Y-137309558D01*
X112232279Y-137352903D01*
X112343367Y-137375000D01*
X112456633Y-137375000D01*
X112567721Y-137352903D01*
X112672365Y-137309558D01*
X112766541Y-137246632D01*
X112846632Y-137166541D01*
X112875000Y-137124085D01*
X112875000Y-147875000D01*
X106724085Y-147875000D01*
X106766541Y-147846632D01*
X106846632Y-147766541D01*
X106909558Y-147672365D01*
X106952903Y-147567721D01*
X106975000Y-147456633D01*
X106975000Y-147343367D01*
X106952903Y-147232279D01*
X106909558Y-147127635D01*
X106846632Y-147033459D01*
X106766541Y-146953368D01*
X106672365Y-146890442D01*
X106567721Y-146847097D01*
X106456633Y-146825000D01*
X106343367Y-146825000D01*
X106232279Y-146847097D01*
X106127635Y-146890442D01*
X106033459Y-146953368D01*
X105953368Y-147033459D01*
X105890442Y-147127635D01*
X105847097Y-147232279D01*
X105825000Y-147343367D01*
X105825000Y-147456633D01*
X105847097Y-147567721D01*
X105890442Y-147672365D01*
X105953368Y-147766541D01*
X106033459Y-147846632D01*
X106075915Y-147875000D01*
X93125000Y-147875000D01*
X93125000Y-146343367D01*
X104825000Y-146343367D01*
X104825000Y-146456633D01*
X104847097Y-146567721D01*
X104890442Y-146672365D01*
X104953368Y-146766541D01*
X105033459Y-146846632D01*
X105127635Y-146909558D01*
X105232279Y-146952903D01*
X105343367Y-146975000D01*
X105456633Y-146975000D01*
X105567721Y-146952903D01*
X105672365Y-146909558D01*
X105766541Y-146846632D01*
X105846632Y-146766541D01*
X105909558Y-146672365D01*
X105952903Y-146567721D01*
X105975000Y-146456633D01*
X105975000Y-146343367D01*
X105952903Y-146232279D01*
X105909558Y-146127635D01*
X105846632Y-146033459D01*
X105766541Y-145953368D01*
X105672365Y-145890442D01*
X105567721Y-145847097D01*
X105456633Y-145825000D01*
X105343367Y-145825000D01*
X105232279Y-145847097D01*
X105127635Y-145890442D01*
X105033459Y-145953368D01*
X104953368Y-146033459D01*
X104890442Y-146127635D01*
X104847097Y-146232279D01*
X104825000Y-146343367D01*
X93125000Y-146343367D01*
X93125000Y-143543367D01*
X101625000Y-143543367D01*
X101625000Y-143656633D01*
X101647097Y-143767721D01*
X101690442Y-143872365D01*
X101753368Y-143966541D01*
X101833459Y-144046632D01*
X101927635Y-144109558D01*
X102032279Y-144152903D01*
X102143367Y-144175000D01*
X102256633Y-144175000D01*
X102367721Y-144152903D01*
X102472365Y-144109558D01*
X102566541Y-144046632D01*
X102646632Y-143966541D01*
X102709558Y-143872365D01*
X102752903Y-143767721D01*
X102775000Y-143656633D01*
X102775000Y-143543367D01*
X102764060Y-143488367D01*
X104825000Y-143488367D01*
X104825000Y-143601633D01*
X104847097Y-143712721D01*
X104890442Y-143817365D01*
X104953368Y-143911541D01*
X105033459Y-143991632D01*
X105127635Y-144054558D01*
X105232279Y-144097903D01*
X105343367Y-144120000D01*
X105456633Y-144120000D01*
X105567721Y-144097903D01*
X105672365Y-144054558D01*
X105766541Y-143991632D01*
X105846632Y-143911541D01*
X105909558Y-143817365D01*
X105952903Y-143712721D01*
X105975000Y-143601633D01*
X105975000Y-143488367D01*
X105952903Y-143377279D01*
X105909558Y-143272635D01*
X105846632Y-143178459D01*
X105766541Y-143098368D01*
X105672365Y-143035442D01*
X105567721Y-142992097D01*
X105456633Y-142970000D01*
X105343367Y-142970000D01*
X105232279Y-142992097D01*
X105127635Y-143035442D01*
X105033459Y-143098368D01*
X104953368Y-143178459D01*
X104890442Y-143272635D01*
X104847097Y-143377279D01*
X104825000Y-143488367D01*
X102764060Y-143488367D01*
X102752903Y-143432279D01*
X102709558Y-143327635D01*
X102646632Y-143233459D01*
X102566541Y-143153368D01*
X102472365Y-143090442D01*
X102367721Y-143047097D01*
X102256633Y-143025000D01*
X102143367Y-143025000D01*
X102032279Y-143047097D01*
X101927635Y-143090442D01*
X101833459Y-143153368D01*
X101753368Y-143233459D01*
X101690442Y-143327635D01*
X101647097Y-143432279D01*
X101625000Y-143543367D01*
X93125000Y-143543367D01*
X93125000Y-138343367D01*
X108625000Y-138343367D01*
X108625000Y-138456633D01*
X108647097Y-138567721D01*
X108690442Y-138672365D01*
X108753368Y-138766541D01*
X108833459Y-138846632D01*
X108927635Y-138909558D01*
X109032279Y-138952903D01*
X109143367Y-138975000D01*
X109256633Y-138975000D01*
X109367721Y-138952903D01*
X109472365Y-138909558D01*
X109566541Y-138846632D01*
X109646632Y-138766541D01*
X109709558Y-138672365D01*
X109752903Y-138567721D01*
X109775000Y-138456633D01*
X109775000Y-138343367D01*
X109752903Y-138232279D01*
X109709558Y-138127635D01*
X109646632Y-138033459D01*
X109566541Y-137953368D01*
X109472365Y-137890442D01*
X109367721Y-137847097D01*
X109256633Y-137825000D01*
X109143367Y-137825000D01*
X109032279Y-137847097D01*
X108927635Y-137890442D01*
X108833459Y-137953368D01*
X108753368Y-138033459D01*
X108690442Y-138127635D01*
X108647097Y-138232279D01*
X108625000Y-138343367D01*
X93125000Y-138343367D01*
X93125000Y-136743367D01*
X103025000Y-136743367D01*
X103025000Y-136856633D01*
X103047097Y-136967721D01*
X103090442Y-137072365D01*
X103153368Y-137166541D01*
X103233459Y-137246632D01*
X103327635Y-137309558D01*
X103432279Y-137352903D01*
X103543367Y-137375000D01*
X103656633Y-137375000D01*
X103767721Y-137352903D01*
X103872365Y-137309558D01*
X103966541Y-137246632D01*
X104046632Y-137166541D01*
X104109558Y-137072365D01*
X104152903Y-136967721D01*
X104175000Y-136856633D01*
X104175000Y-136743367D01*
X104152903Y-136632279D01*
X104109558Y-136527635D01*
X104046632Y-136433459D01*
X103966541Y-136353368D01*
X103872365Y-136290442D01*
X103767721Y-136247097D01*
X103656633Y-136225000D01*
X103543367Y-136225000D01*
X103432279Y-136247097D01*
X103327635Y-136290442D01*
X103233459Y-136353368D01*
X103153368Y-136433459D01*
X103090442Y-136527635D01*
X103047097Y-136632279D01*
X103025000Y-136743367D01*
X93125000Y-136743367D01*
X93125000Y-133343367D01*
X98825000Y-133343367D01*
X98825000Y-133456633D01*
X98847097Y-133567721D01*
X98890442Y-133672365D01*
X98953368Y-133766541D01*
X99033459Y-133846632D01*
X99127635Y-133909558D01*
X99232279Y-133952903D01*
X99343367Y-133975000D01*
X99456633Y-133975000D01*
X99567721Y-133952903D01*
X99672365Y-133909558D01*
X99766541Y-133846632D01*
X99846632Y-133766541D01*
X99909558Y-133672365D01*
X99952903Y-133567721D01*
X99957747Y-133543367D01*
X102825000Y-133543367D01*
X102825000Y-133656633D01*
X102847097Y-133767721D01*
X102890442Y-133872365D01*
X102953368Y-133966541D01*
X103033459Y-134046632D01*
X103127635Y-134109558D01*
X103232279Y-134152903D01*
X103343367Y-134175000D01*
X103456633Y-134175000D01*
X103567721Y-134152903D01*
X103672365Y-134109558D01*
X103766541Y-134046632D01*
X103846632Y-133966541D01*
X103909558Y-133872365D01*
X103952903Y-133767721D01*
X103975000Y-133656633D01*
X103975000Y-133543367D01*
X103952903Y-133432279D01*
X103909558Y-133327635D01*
X103846632Y-133233459D01*
X103766541Y-133153368D01*
X103672365Y-133090442D01*
X103567721Y-133047097D01*
X103456633Y-133025000D01*
X103343367Y-133025000D01*
X103232279Y-133047097D01*
X103127635Y-133090442D01*
X103033459Y-133153368D01*
X102953368Y-133233459D01*
X102890442Y-133327635D01*
X102847097Y-133432279D01*
X102825000Y-133543367D01*
X99957747Y-133543367D01*
X99975000Y-133456633D01*
X99975000Y-133343367D01*
X99952903Y-133232279D01*
X99909558Y-133127635D01*
X99846632Y-133033459D01*
X99766541Y-132953368D01*
X99672365Y-132890442D01*
X99567721Y-132847097D01*
X99456633Y-132825000D01*
X99343367Y-132825000D01*
X99232279Y-132847097D01*
X99127635Y-132890442D01*
X99033459Y-132953368D01*
X98953368Y-133033459D01*
X98890442Y-133127635D01*
X98847097Y-133232279D01*
X98825000Y-133343367D01*
X93125000Y-133343367D01*
X93125000Y-131543367D01*
X102825000Y-131543367D01*
X102825000Y-131656633D01*
X102847097Y-131767721D01*
X102890442Y-131872365D01*
X102953368Y-131966541D01*
X103033459Y-132046632D01*
X103127635Y-132109558D01*
X103232279Y-132152903D01*
X103343367Y-132175000D01*
X103456633Y-132175000D01*
X103567721Y-132152903D01*
X103672365Y-132109558D01*
X103766541Y-132046632D01*
X103846632Y-131966541D01*
X103909558Y-131872365D01*
X103952903Y-131767721D01*
X103975000Y-131656633D01*
X103975000Y-131543367D01*
X103952903Y-131432279D01*
X103909558Y-131327635D01*
X103846632Y-131233459D01*
X103766541Y-131153368D01*
X103672365Y-131090442D01*
X103567721Y-131047097D01*
X103456633Y-131025000D01*
X103343367Y-131025000D01*
X103232279Y-131047097D01*
X103127635Y-131090442D01*
X103033459Y-131153368D01*
X102953368Y-131233459D01*
X102890442Y-131327635D01*
X102847097Y-131432279D01*
X102825000Y-131543367D01*
X93125000Y-131543367D01*
X93125000Y-131051776D01*
X93658409Y-130518367D01*
X104850000Y-130518367D01*
X104850000Y-130631633D01*
X104872097Y-130742721D01*
X104915442Y-130847365D01*
X104978368Y-130941541D01*
X105058459Y-131021632D01*
X105152635Y-131084558D01*
X105257279Y-131127903D01*
X105368367Y-131150000D01*
X105481633Y-131150000D01*
X105592721Y-131127903D01*
X105697365Y-131084558D01*
X105791541Y-131021632D01*
X105871632Y-130941541D01*
X105934558Y-130847365D01*
X105977903Y-130742721D01*
X106000000Y-130631633D01*
X106000000Y-130518367D01*
X105977903Y-130407279D01*
X105934558Y-130302635D01*
X105871632Y-130208459D01*
X105791541Y-130128368D01*
X105697365Y-130065442D01*
X105592721Y-130022097D01*
X105481633Y-130000000D01*
X105368367Y-130000000D01*
X105257279Y-130022097D01*
X105152635Y-130065442D01*
X105058459Y-130128368D01*
X104978368Y-130208459D01*
X104915442Y-130302635D01*
X104872097Y-130407279D01*
X104850000Y-130518367D01*
X93658409Y-130518367D01*
X94633409Y-129543367D01*
X98625000Y-129543367D01*
X98625000Y-129656633D01*
X98647097Y-129767721D01*
X98690442Y-129872365D01*
X98753368Y-129966541D01*
X98833459Y-130046632D01*
X98927635Y-130109558D01*
X99032279Y-130152903D01*
X99143367Y-130175000D01*
X99256633Y-130175000D01*
X99367721Y-130152903D01*
X99472365Y-130109558D01*
X99566541Y-130046632D01*
X99646632Y-129966541D01*
X99709558Y-129872365D01*
X99752903Y-129767721D01*
X99775000Y-129656633D01*
X99775000Y-129543367D01*
X99752903Y-129432279D01*
X99709558Y-129327635D01*
X99646632Y-129233459D01*
X99566541Y-129153368D01*
X99472365Y-129090442D01*
X99367721Y-129047097D01*
X99256633Y-129025000D01*
X99143367Y-129025000D01*
X99032279Y-129047097D01*
X98927635Y-129090442D01*
X98833459Y-129153368D01*
X98753368Y-129233459D01*
X98690442Y-129327635D01*
X98647097Y-129432279D01*
X98625000Y-129543367D01*
X94633409Y-129543367D01*
X95633409Y-128543367D01*
X99625000Y-128543367D01*
X99625000Y-128656633D01*
X99647097Y-128767721D01*
X99690442Y-128872365D01*
X99753368Y-128966541D01*
X99833459Y-129046632D01*
X99927635Y-129109558D01*
X100032279Y-129152903D01*
X100143367Y-129175000D01*
X100256633Y-129175000D01*
X100367721Y-129152903D01*
X100472365Y-129109558D01*
X100566541Y-129046632D01*
X100646632Y-128966541D01*
X100709558Y-128872365D01*
X100752903Y-128767721D01*
X100775000Y-128656633D01*
X100775000Y-128543367D01*
X100752903Y-128432279D01*
X100709558Y-128327635D01*
X100646632Y-128233459D01*
X100566541Y-128153368D01*
X100472365Y-128090442D01*
X100367721Y-128047097D01*
X100256633Y-128025000D01*
X100143367Y-128025000D01*
X100032279Y-128047097D01*
X99927635Y-128090442D01*
X99833459Y-128153368D01*
X99753368Y-128233459D01*
X99690442Y-128327635D01*
X99647097Y-128432279D01*
X99625000Y-128543367D01*
X95633409Y-128543367D01*
X96251776Y-127925000D01*
X96306633Y-127925000D01*
X96417721Y-127902903D01*
X96522365Y-127859558D01*
X96616541Y-127796632D01*
X96696632Y-127716541D01*
X96759558Y-127622365D01*
X96802903Y-127517721D01*
X96825000Y-127406633D01*
X96825000Y-127351776D01*
X97051776Y-127125000D01*
X101000000Y-127125000D01*
X101024386Y-127122598D01*
X101047835Y-127115485D01*
X101069446Y-127103934D01*
X101096028Y-127080023D01*
X102376574Y-125543367D01*
X108625000Y-125543367D01*
X108625000Y-125656633D01*
X108647097Y-125767721D01*
X108690442Y-125872365D01*
X108753368Y-125966541D01*
X108833459Y-126046632D01*
X108927635Y-126109558D01*
X109032279Y-126152903D01*
X109143367Y-126175000D01*
X109256633Y-126175000D01*
X109367721Y-126152903D01*
X109472365Y-126109558D01*
X109566541Y-126046632D01*
X109646632Y-125966541D01*
X109709558Y-125872365D01*
X109752903Y-125767721D01*
X109775000Y-125656633D01*
X109775000Y-125543367D01*
X109752903Y-125432279D01*
X109709558Y-125327635D01*
X109646632Y-125233459D01*
X109566541Y-125153368D01*
X109472365Y-125090442D01*
X109367721Y-125047097D01*
X109256633Y-125025000D01*
X109143367Y-125025000D01*
X109032279Y-125047097D01*
X108927635Y-125090442D01*
X108833459Y-125153368D01*
X108753368Y-125233459D01*
X108690442Y-125327635D01*
X108647097Y-125432279D01*
X108625000Y-125543367D01*
X102376574Y-125543367D01*
X103209907Y-124543367D01*
X104825000Y-124543367D01*
X104825000Y-124656633D01*
X104847097Y-124767721D01*
X104890442Y-124872365D01*
X104953368Y-124966541D01*
X105033459Y-125046632D01*
X105127635Y-125109558D01*
X105232279Y-125152903D01*
X105343367Y-125175000D01*
X105456633Y-125175000D01*
X105567721Y-125152903D01*
X105672365Y-125109558D01*
X105766541Y-125046632D01*
X105846632Y-124966541D01*
X105909558Y-124872365D01*
X105952903Y-124767721D01*
X105975000Y-124656633D01*
X105975000Y-124543367D01*
X105952903Y-124432279D01*
X105909558Y-124327635D01*
X105846632Y-124233459D01*
X105766541Y-124153368D01*
X105672365Y-124090442D01*
X105567721Y-124047097D01*
X105456633Y-124025000D01*
X105343367Y-124025000D01*
X105232279Y-124047097D01*
X105127635Y-124090442D01*
X105033459Y-124153368D01*
X104953368Y-124233459D01*
X104890442Y-124327635D01*
X104847097Y-124432279D01*
X104825000Y-124543367D01*
X103209907Y-124543367D01*
X104709907Y-122743367D01*
X107625000Y-122743367D01*
X107625000Y-122856633D01*
X107647097Y-122967721D01*
X107690442Y-123072365D01*
X107753368Y-123166541D01*
X107833459Y-123246632D01*
X107927635Y-123309558D01*
X108032279Y-123352903D01*
X108143367Y-123375000D01*
X108256633Y-123375000D01*
X108367721Y-123352903D01*
X108472365Y-123309558D01*
X108566541Y-123246632D01*
X108646632Y-123166541D01*
X108709558Y-123072365D01*
X108752903Y-122967721D01*
X108775000Y-122856633D01*
X108775000Y-122743367D01*
X108752903Y-122632279D01*
X108709558Y-122527635D01*
X108646632Y-122433459D01*
X108566541Y-122353368D01*
X108472365Y-122290442D01*
X108367721Y-122247097D01*
X108256633Y-122225000D01*
X108143367Y-122225000D01*
X108032279Y-122247097D01*
X107927635Y-122290442D01*
X107833459Y-122353368D01*
X107753368Y-122433459D01*
X107690442Y-122527635D01*
X107647097Y-122632279D01*
X107625000Y-122743367D01*
X104709907Y-122743367D01*
X105543240Y-121743367D01*
X108625000Y-121743367D01*
X108625000Y-121856633D01*
X108647097Y-121967721D01*
X108690442Y-122072365D01*
X108753368Y-122166541D01*
X108833459Y-122246632D01*
X108927635Y-122309558D01*
X109032279Y-122352903D01*
X109143367Y-122375000D01*
X109256633Y-122375000D01*
X109367721Y-122352903D01*
X109472365Y-122309558D01*
X109566541Y-122246632D01*
X109646632Y-122166541D01*
X109709558Y-122072365D01*
X109752903Y-121967721D01*
X109775000Y-121856633D01*
X109775000Y-121743367D01*
X109752903Y-121632279D01*
X109709558Y-121527635D01*
X109646632Y-121433459D01*
X109566541Y-121353368D01*
X109472365Y-121290442D01*
X109367721Y-121247097D01*
X109256633Y-121225000D01*
X109143367Y-121225000D01*
X109032279Y-121247097D01*
X108927635Y-121290442D01*
X108833459Y-121353368D01*
X108753368Y-121433459D01*
X108690442Y-121527635D01*
X108647097Y-121632279D01*
X108625000Y-121743367D01*
X105543240Y-121743367D01*
X106058547Y-121125000D01*
X112875000Y-121125000D01*
X112875000Y-135325611D01*
G37*
X112875000Y-135325611D02*
X112833459Y-135353368D01*
X112753368Y-135433459D01*
X112690442Y-135527635D01*
X112647097Y-135632279D01*
X112625000Y-135743367D01*
X112625000Y-135856633D01*
X112647097Y-135967721D01*
X112690442Y-136072365D01*
X112753368Y-136166541D01*
X112833459Y-136246632D01*
X112875000Y-136274389D01*
X112875000Y-136475915D01*
X112846632Y-136433459D01*
X112766541Y-136353368D01*
X112672365Y-136290442D01*
X112567721Y-136247097D01*
X112456633Y-136225000D01*
X112343367Y-136225000D01*
X112232279Y-136247097D01*
X112127635Y-136290442D01*
X112033459Y-136353368D01*
X111953368Y-136433459D01*
X111890442Y-136527635D01*
X111847097Y-136632279D01*
X111825000Y-136743367D01*
X111825000Y-136856633D01*
X111847097Y-136967721D01*
X111890442Y-137072365D01*
X111953368Y-137166541D01*
X112033459Y-137246632D01*
X112127635Y-137309558D01*
X112232279Y-137352903D01*
X112343367Y-137375000D01*
X112456633Y-137375000D01*
X112567721Y-137352903D01*
X112672365Y-137309558D01*
X112766541Y-137246632D01*
X112846632Y-137166541D01*
X112875000Y-137124085D01*
X112875000Y-147875000D01*
X106724085Y-147875000D01*
X106766541Y-147846632D01*
X106846632Y-147766541D01*
X106909558Y-147672365D01*
X106952903Y-147567721D01*
X106975000Y-147456633D01*
X106975000Y-147343367D01*
X106952903Y-147232279D01*
X106909558Y-147127635D01*
X106846632Y-147033459D01*
X106766541Y-146953368D01*
X106672365Y-146890442D01*
X106567721Y-146847097D01*
X106456633Y-146825000D01*
X106343367Y-146825000D01*
X106232279Y-146847097D01*
X106127635Y-146890442D01*
X106033459Y-146953368D01*
X105953368Y-147033459D01*
X105890442Y-147127635D01*
X105847097Y-147232279D01*
X105825000Y-147343367D01*
X105825000Y-147456633D01*
X105847097Y-147567721D01*
X105890442Y-147672365D01*
X105953368Y-147766541D01*
X106033459Y-147846632D01*
X106075915Y-147875000D01*
X93125000Y-147875000D01*
X93125000Y-146343367D01*
X104825000Y-146343367D01*
X104825000Y-146456633D01*
X104847097Y-146567721D01*
X104890442Y-146672365D01*
X104953368Y-146766541D01*
X105033459Y-146846632D01*
X105127635Y-146909558D01*
X105232279Y-146952903D01*
X105343367Y-146975000D01*
X105456633Y-146975000D01*
X105567721Y-146952903D01*
X105672365Y-146909558D01*
X105766541Y-146846632D01*
X105846632Y-146766541D01*
X105909558Y-146672365D01*
X105952903Y-146567721D01*
X105975000Y-146456633D01*
X105975000Y-146343367D01*
X105952903Y-146232279D01*
X105909558Y-146127635D01*
X105846632Y-146033459D01*
X105766541Y-145953368D01*
X105672365Y-145890442D01*
X105567721Y-145847097D01*
X105456633Y-145825000D01*
X105343367Y-145825000D01*
X105232279Y-145847097D01*
X105127635Y-145890442D01*
X105033459Y-145953368D01*
X104953368Y-146033459D01*
X104890442Y-146127635D01*
X104847097Y-146232279D01*
X104825000Y-146343367D01*
X93125000Y-146343367D01*
X93125000Y-143543367D01*
X101625000Y-143543367D01*
X101625000Y-143656633D01*
X101647097Y-143767721D01*
X101690442Y-143872365D01*
X101753368Y-143966541D01*
X101833459Y-144046632D01*
X101927635Y-144109558D01*
X102032279Y-144152903D01*
X102143367Y-144175000D01*
X102256633Y-144175000D01*
X102367721Y-144152903D01*
X102472365Y-144109558D01*
X102566541Y-144046632D01*
X102646632Y-143966541D01*
X102709558Y-143872365D01*
X102752903Y-143767721D01*
X102775000Y-143656633D01*
X102775000Y-143543367D01*
X102764060Y-143488367D01*
X104825000Y-143488367D01*
X104825000Y-143601633D01*
X104847097Y-143712721D01*
X104890442Y-143817365D01*
X104953368Y-143911541D01*
X105033459Y-143991632D01*
X105127635Y-144054558D01*
X105232279Y-144097903D01*
X105343367Y-144120000D01*
X105456633Y-144120000D01*
X105567721Y-144097903D01*
X105672365Y-144054558D01*
X105766541Y-143991632D01*
X105846632Y-143911541D01*
X105909558Y-143817365D01*
X105952903Y-143712721D01*
X105975000Y-143601633D01*
X105975000Y-143488367D01*
X105952903Y-143377279D01*
X105909558Y-143272635D01*
X105846632Y-143178459D01*
X105766541Y-143098368D01*
X105672365Y-143035442D01*
X105567721Y-142992097D01*
X105456633Y-142970000D01*
X105343367Y-142970000D01*
X105232279Y-142992097D01*
X105127635Y-143035442D01*
X105033459Y-143098368D01*
X104953368Y-143178459D01*
X104890442Y-143272635D01*
X104847097Y-143377279D01*
X104825000Y-143488367D01*
X102764060Y-143488367D01*
X102752903Y-143432279D01*
X102709558Y-143327635D01*
X102646632Y-143233459D01*
X102566541Y-143153368D01*
X102472365Y-143090442D01*
X102367721Y-143047097D01*
X102256633Y-143025000D01*
X102143367Y-143025000D01*
X102032279Y-143047097D01*
X101927635Y-143090442D01*
X101833459Y-143153368D01*
X101753368Y-143233459D01*
X101690442Y-143327635D01*
X101647097Y-143432279D01*
X101625000Y-143543367D01*
X93125000Y-143543367D01*
X93125000Y-138343367D01*
X108625000Y-138343367D01*
X108625000Y-138456633D01*
X108647097Y-138567721D01*
X108690442Y-138672365D01*
X108753368Y-138766541D01*
X108833459Y-138846632D01*
X108927635Y-138909558D01*
X109032279Y-138952903D01*
X109143367Y-138975000D01*
X109256633Y-138975000D01*
X109367721Y-138952903D01*
X109472365Y-138909558D01*
X109566541Y-138846632D01*
X109646632Y-138766541D01*
X109709558Y-138672365D01*
X109752903Y-138567721D01*
X109775000Y-138456633D01*
X109775000Y-138343367D01*
X109752903Y-138232279D01*
X109709558Y-138127635D01*
X109646632Y-138033459D01*
X109566541Y-137953368D01*
X109472365Y-137890442D01*
X109367721Y-137847097D01*
X109256633Y-137825000D01*
X109143367Y-137825000D01*
X109032279Y-137847097D01*
X108927635Y-137890442D01*
X108833459Y-137953368D01*
X108753368Y-138033459D01*
X108690442Y-138127635D01*
X108647097Y-138232279D01*
X108625000Y-138343367D01*
X93125000Y-138343367D01*
X93125000Y-136743367D01*
X103025000Y-136743367D01*
X103025000Y-136856633D01*
X103047097Y-136967721D01*
X103090442Y-137072365D01*
X103153368Y-137166541D01*
X103233459Y-137246632D01*
X103327635Y-137309558D01*
X103432279Y-137352903D01*
X103543367Y-137375000D01*
X103656633Y-137375000D01*
X103767721Y-137352903D01*
X103872365Y-137309558D01*
X103966541Y-137246632D01*
X104046632Y-137166541D01*
X104109558Y-137072365D01*
X104152903Y-136967721D01*
X104175000Y-136856633D01*
X104175000Y-136743367D01*
X104152903Y-136632279D01*
X104109558Y-136527635D01*
X104046632Y-136433459D01*
X103966541Y-136353368D01*
X103872365Y-136290442D01*
X103767721Y-136247097D01*
X103656633Y-136225000D01*
X103543367Y-136225000D01*
X103432279Y-136247097D01*
X103327635Y-136290442D01*
X103233459Y-136353368D01*
X103153368Y-136433459D01*
X103090442Y-136527635D01*
X103047097Y-136632279D01*
X103025000Y-136743367D01*
X93125000Y-136743367D01*
X93125000Y-133343367D01*
X98825000Y-133343367D01*
X98825000Y-133456633D01*
X98847097Y-133567721D01*
X98890442Y-133672365D01*
X98953368Y-133766541D01*
X99033459Y-133846632D01*
X99127635Y-133909558D01*
X99232279Y-133952903D01*
X99343367Y-133975000D01*
X99456633Y-133975000D01*
X99567721Y-133952903D01*
X99672365Y-133909558D01*
X99766541Y-133846632D01*
X99846632Y-133766541D01*
X99909558Y-133672365D01*
X99952903Y-133567721D01*
X99957747Y-133543367D01*
X102825000Y-133543367D01*
X102825000Y-133656633D01*
X102847097Y-133767721D01*
X102890442Y-133872365D01*
X102953368Y-133966541D01*
X103033459Y-134046632D01*
X103127635Y-134109558D01*
X103232279Y-134152903D01*
X103343367Y-134175000D01*
X103456633Y-134175000D01*
X103567721Y-134152903D01*
X103672365Y-134109558D01*
X103766541Y-134046632D01*
X103846632Y-133966541D01*
X103909558Y-133872365D01*
X103952903Y-133767721D01*
X103975000Y-133656633D01*
X103975000Y-133543367D01*
X103952903Y-133432279D01*
X103909558Y-133327635D01*
X103846632Y-133233459D01*
X103766541Y-133153368D01*
X103672365Y-133090442D01*
X103567721Y-133047097D01*
X103456633Y-133025000D01*
X103343367Y-133025000D01*
X103232279Y-133047097D01*
X103127635Y-133090442D01*
X103033459Y-133153368D01*
X102953368Y-133233459D01*
X102890442Y-133327635D01*
X102847097Y-133432279D01*
X102825000Y-133543367D01*
X99957747Y-133543367D01*
X99975000Y-133456633D01*
X99975000Y-133343367D01*
X99952903Y-133232279D01*
X99909558Y-133127635D01*
X99846632Y-133033459D01*
X99766541Y-132953368D01*
X99672365Y-132890442D01*
X99567721Y-132847097D01*
X99456633Y-132825000D01*
X99343367Y-132825000D01*
X99232279Y-132847097D01*
X99127635Y-132890442D01*
X99033459Y-132953368D01*
X98953368Y-133033459D01*
X98890442Y-133127635D01*
X98847097Y-133232279D01*
X98825000Y-133343367D01*
X93125000Y-133343367D01*
X93125000Y-131543367D01*
X102825000Y-131543367D01*
X102825000Y-131656633D01*
X102847097Y-131767721D01*
X102890442Y-131872365D01*
X102953368Y-131966541D01*
X103033459Y-132046632D01*
X103127635Y-132109558D01*
X103232279Y-132152903D01*
X103343367Y-132175000D01*
X103456633Y-132175000D01*
X103567721Y-132152903D01*
X103672365Y-132109558D01*
X103766541Y-132046632D01*
X103846632Y-131966541D01*
X103909558Y-131872365D01*
X103952903Y-131767721D01*
X103975000Y-131656633D01*
X103975000Y-131543367D01*
X103952903Y-131432279D01*
X103909558Y-131327635D01*
X103846632Y-131233459D01*
X103766541Y-131153368D01*
X103672365Y-131090442D01*
X103567721Y-131047097D01*
X103456633Y-131025000D01*
X103343367Y-131025000D01*
X103232279Y-131047097D01*
X103127635Y-131090442D01*
X103033459Y-131153368D01*
X102953368Y-131233459D01*
X102890442Y-131327635D01*
X102847097Y-131432279D01*
X102825000Y-131543367D01*
X93125000Y-131543367D01*
X93125000Y-131051776D01*
X93658409Y-130518367D01*
X104850000Y-130518367D01*
X104850000Y-130631633D01*
X104872097Y-130742721D01*
X104915442Y-130847365D01*
X104978368Y-130941541D01*
X105058459Y-131021632D01*
X105152635Y-131084558D01*
X105257279Y-131127903D01*
X105368367Y-131150000D01*
X105481633Y-131150000D01*
X105592721Y-131127903D01*
X105697365Y-131084558D01*
X105791541Y-131021632D01*
X105871632Y-130941541D01*
X105934558Y-130847365D01*
X105977903Y-130742721D01*
X106000000Y-130631633D01*
X106000000Y-130518367D01*
X105977903Y-130407279D01*
X105934558Y-130302635D01*
X105871632Y-130208459D01*
X105791541Y-130128368D01*
X105697365Y-130065442D01*
X105592721Y-130022097D01*
X105481633Y-130000000D01*
X105368367Y-130000000D01*
X105257279Y-130022097D01*
X105152635Y-130065442D01*
X105058459Y-130128368D01*
X104978368Y-130208459D01*
X104915442Y-130302635D01*
X104872097Y-130407279D01*
X104850000Y-130518367D01*
X93658409Y-130518367D01*
X94633409Y-129543367D01*
X98625000Y-129543367D01*
X98625000Y-129656633D01*
X98647097Y-129767721D01*
X98690442Y-129872365D01*
X98753368Y-129966541D01*
X98833459Y-130046632D01*
X98927635Y-130109558D01*
X99032279Y-130152903D01*
X99143367Y-130175000D01*
X99256633Y-130175000D01*
X99367721Y-130152903D01*
X99472365Y-130109558D01*
X99566541Y-130046632D01*
X99646632Y-129966541D01*
X99709558Y-129872365D01*
X99752903Y-129767721D01*
X99775000Y-129656633D01*
X99775000Y-129543367D01*
X99752903Y-129432279D01*
X99709558Y-129327635D01*
X99646632Y-129233459D01*
X99566541Y-129153368D01*
X99472365Y-129090442D01*
X99367721Y-129047097D01*
X99256633Y-129025000D01*
X99143367Y-129025000D01*
X99032279Y-129047097D01*
X98927635Y-129090442D01*
X98833459Y-129153368D01*
X98753368Y-129233459D01*
X98690442Y-129327635D01*
X98647097Y-129432279D01*
X98625000Y-129543367D01*
X94633409Y-129543367D01*
X95633409Y-128543367D01*
X99625000Y-128543367D01*
X99625000Y-128656633D01*
X99647097Y-128767721D01*
X99690442Y-128872365D01*
X99753368Y-128966541D01*
X99833459Y-129046632D01*
X99927635Y-129109558D01*
X100032279Y-129152903D01*
X100143367Y-129175000D01*
X100256633Y-129175000D01*
X100367721Y-129152903D01*
X100472365Y-129109558D01*
X100566541Y-129046632D01*
X100646632Y-128966541D01*
X100709558Y-128872365D01*
X100752903Y-128767721D01*
X100775000Y-128656633D01*
X100775000Y-128543367D01*
X100752903Y-128432279D01*
X100709558Y-128327635D01*
X100646632Y-128233459D01*
X100566541Y-128153368D01*
X100472365Y-128090442D01*
X100367721Y-128047097D01*
X100256633Y-128025000D01*
X100143367Y-128025000D01*
X100032279Y-128047097D01*
X99927635Y-128090442D01*
X99833459Y-128153368D01*
X99753368Y-128233459D01*
X99690442Y-128327635D01*
X99647097Y-128432279D01*
X99625000Y-128543367D01*
X95633409Y-128543367D01*
X96251776Y-127925000D01*
X96306633Y-127925000D01*
X96417721Y-127902903D01*
X96522365Y-127859558D01*
X96616541Y-127796632D01*
X96696632Y-127716541D01*
X96759558Y-127622365D01*
X96802903Y-127517721D01*
X96825000Y-127406633D01*
X96825000Y-127351776D01*
X97051776Y-127125000D01*
X101000000Y-127125000D01*
X101024386Y-127122598D01*
X101047835Y-127115485D01*
X101069446Y-127103934D01*
X101096028Y-127080023D01*
X102376574Y-125543367D01*
X108625000Y-125543367D01*
X108625000Y-125656633D01*
X108647097Y-125767721D01*
X108690442Y-125872365D01*
X108753368Y-125966541D01*
X108833459Y-126046632D01*
X108927635Y-126109558D01*
X109032279Y-126152903D01*
X109143367Y-126175000D01*
X109256633Y-126175000D01*
X109367721Y-126152903D01*
X109472365Y-126109558D01*
X109566541Y-126046632D01*
X109646632Y-125966541D01*
X109709558Y-125872365D01*
X109752903Y-125767721D01*
X109775000Y-125656633D01*
X109775000Y-125543367D01*
X109752903Y-125432279D01*
X109709558Y-125327635D01*
X109646632Y-125233459D01*
X109566541Y-125153368D01*
X109472365Y-125090442D01*
X109367721Y-125047097D01*
X109256633Y-125025000D01*
X109143367Y-125025000D01*
X109032279Y-125047097D01*
X108927635Y-125090442D01*
X108833459Y-125153368D01*
X108753368Y-125233459D01*
X108690442Y-125327635D01*
X108647097Y-125432279D01*
X108625000Y-125543367D01*
X102376574Y-125543367D01*
X103209907Y-124543367D01*
X104825000Y-124543367D01*
X104825000Y-124656633D01*
X104847097Y-124767721D01*
X104890442Y-124872365D01*
X104953368Y-124966541D01*
X105033459Y-125046632D01*
X105127635Y-125109558D01*
X105232279Y-125152903D01*
X105343367Y-125175000D01*
X105456633Y-125175000D01*
X105567721Y-125152903D01*
X105672365Y-125109558D01*
X105766541Y-125046632D01*
X105846632Y-124966541D01*
X105909558Y-124872365D01*
X105952903Y-124767721D01*
X105975000Y-124656633D01*
X105975000Y-124543367D01*
X105952903Y-124432279D01*
X105909558Y-124327635D01*
X105846632Y-124233459D01*
X105766541Y-124153368D01*
X105672365Y-124090442D01*
X105567721Y-124047097D01*
X105456633Y-124025000D01*
X105343367Y-124025000D01*
X105232279Y-124047097D01*
X105127635Y-124090442D01*
X105033459Y-124153368D01*
X104953368Y-124233459D01*
X104890442Y-124327635D01*
X104847097Y-124432279D01*
X104825000Y-124543367D01*
X103209907Y-124543367D01*
X104709907Y-122743367D01*
X107625000Y-122743367D01*
X107625000Y-122856633D01*
X107647097Y-122967721D01*
X107690442Y-123072365D01*
X107753368Y-123166541D01*
X107833459Y-123246632D01*
X107927635Y-123309558D01*
X108032279Y-123352903D01*
X108143367Y-123375000D01*
X108256633Y-123375000D01*
X108367721Y-123352903D01*
X108472365Y-123309558D01*
X108566541Y-123246632D01*
X108646632Y-123166541D01*
X108709558Y-123072365D01*
X108752903Y-122967721D01*
X108775000Y-122856633D01*
X108775000Y-122743367D01*
X108752903Y-122632279D01*
X108709558Y-122527635D01*
X108646632Y-122433459D01*
X108566541Y-122353368D01*
X108472365Y-122290442D01*
X108367721Y-122247097D01*
X108256633Y-122225000D01*
X108143367Y-122225000D01*
X108032279Y-122247097D01*
X107927635Y-122290442D01*
X107833459Y-122353368D01*
X107753368Y-122433459D01*
X107690442Y-122527635D01*
X107647097Y-122632279D01*
X107625000Y-122743367D01*
X104709907Y-122743367D01*
X105543240Y-121743367D01*
X108625000Y-121743367D01*
X108625000Y-121856633D01*
X108647097Y-121967721D01*
X108690442Y-122072365D01*
X108753368Y-122166541D01*
X108833459Y-122246632D01*
X108927635Y-122309558D01*
X109032279Y-122352903D01*
X109143367Y-122375000D01*
X109256633Y-122375000D01*
X109367721Y-122352903D01*
X109472365Y-122309558D01*
X109566541Y-122246632D01*
X109646632Y-122166541D01*
X109709558Y-122072365D01*
X109752903Y-121967721D01*
X109775000Y-121856633D01*
X109775000Y-121743367D01*
X109752903Y-121632279D01*
X109709558Y-121527635D01*
X109646632Y-121433459D01*
X109566541Y-121353368D01*
X109472365Y-121290442D01*
X109367721Y-121247097D01*
X109256633Y-121225000D01*
X109143367Y-121225000D01*
X109032279Y-121247097D01*
X108927635Y-121290442D01*
X108833459Y-121353368D01*
X108753368Y-121433459D01*
X108690442Y-121527635D01*
X108647097Y-121632279D01*
X108625000Y-121743367D01*
X105543240Y-121743367D01*
X106058547Y-121125000D01*
X112875000Y-121125000D01*
X112875000Y-135325611D01*
G36*
X221639493Y-102240795D02*
G01*
X221712612Y-102501590D01*
X221835204Y-102743110D01*
X221867708Y-102791757D01*
X222071809Y-102892835D01*
X222839645Y-102125000D01*
X222910355Y-102125000D01*
X222107165Y-102928191D01*
X222208243Y-103132292D01*
X222444356Y-103264999D01*
X222701822Y-103349093D01*
X222970746Y-103381342D01*
X223240795Y-103360507D01*
X223501590Y-103287388D01*
X223743110Y-103164796D01*
X223791757Y-103132292D01*
X223892835Y-102928191D01*
X223089645Y-102125000D01*
X223160355Y-102125000D01*
X223928191Y-102892835D01*
X224132292Y-102791757D01*
X224264999Y-102555644D01*
X224349093Y-102298178D01*
X224369860Y-102125000D01*
X224875000Y-102125000D01*
X224875000Y-113000000D01*
X224877402Y-113024386D01*
X224884515Y-113047835D01*
X224896066Y-113069446D01*
X224911612Y-113088388D01*
X226875000Y-115051776D01*
X226875000Y-117475915D01*
X226846632Y-117433459D01*
X226766541Y-117353368D01*
X226672365Y-117290442D01*
X226567721Y-117247097D01*
X226456633Y-117225000D01*
X226343367Y-117225000D01*
X226232279Y-117247097D01*
X226127635Y-117290442D01*
X226033459Y-117353368D01*
X225953368Y-117433459D01*
X225890442Y-117527635D01*
X225847097Y-117632279D01*
X225825000Y-117743367D01*
X225825000Y-117856633D01*
X225847097Y-117967721D01*
X225890442Y-118072365D01*
X225953368Y-118166541D01*
X226033459Y-118246632D01*
X226127635Y-118309558D01*
X226232279Y-118352903D01*
X226343367Y-118375000D01*
X226456633Y-118375000D01*
X226567721Y-118352903D01*
X226672365Y-118309558D01*
X226766541Y-118246632D01*
X226846632Y-118166541D01*
X226875000Y-118124085D01*
X226875000Y-119075915D01*
X226846632Y-119033459D01*
X226766541Y-118953368D01*
X226672365Y-118890442D01*
X226567721Y-118847097D01*
X226456633Y-118825000D01*
X226343367Y-118825000D01*
X226232279Y-118847097D01*
X226127635Y-118890442D01*
X226033459Y-118953368D01*
X225953368Y-119033459D01*
X225890442Y-119127635D01*
X225847097Y-119232279D01*
X225825000Y-119343367D01*
X225825000Y-119456633D01*
X225847097Y-119567721D01*
X225890442Y-119672365D01*
X225953368Y-119766541D01*
X226033459Y-119846632D01*
X226127635Y-119909558D01*
X226232279Y-119952903D01*
X226343367Y-119975000D01*
X226456633Y-119975000D01*
X226567721Y-119952903D01*
X226672365Y-119909558D01*
X226766541Y-119846632D01*
X226846632Y-119766541D01*
X226875000Y-119724085D01*
X226875000Y-128275915D01*
X226846632Y-128233459D01*
X226766541Y-128153368D01*
X226672365Y-128090442D01*
X226567721Y-128047097D01*
X226456633Y-128025000D01*
X226343367Y-128025000D01*
X226232279Y-128047097D01*
X226127635Y-128090442D01*
X226033459Y-128153368D01*
X225953368Y-128233459D01*
X225890442Y-128327635D01*
X225847097Y-128432279D01*
X225825000Y-128543367D01*
X225825000Y-128656633D01*
X225847097Y-128767721D01*
X225890442Y-128872365D01*
X225953368Y-128966541D01*
X226033459Y-129046632D01*
X226127635Y-129109558D01*
X226232279Y-129152903D01*
X226343367Y-129175000D01*
X226456633Y-129175000D01*
X226567721Y-129152903D01*
X226672365Y-129109558D01*
X226766541Y-129046632D01*
X226846632Y-128966541D01*
X226875000Y-128924085D01*
X226875000Y-129875915D01*
X226846632Y-129833459D01*
X226766541Y-129753368D01*
X226672365Y-129690442D01*
X226567721Y-129647097D01*
X226456633Y-129625000D01*
X226343367Y-129625000D01*
X226232279Y-129647097D01*
X226127635Y-129690442D01*
X226033459Y-129753368D01*
X225953368Y-129833459D01*
X225890442Y-129927635D01*
X225847097Y-130032279D01*
X225825000Y-130143367D01*
X225825000Y-130256633D01*
X225847097Y-130367721D01*
X225890442Y-130472365D01*
X225953368Y-130566541D01*
X226033459Y-130646632D01*
X226127635Y-130709558D01*
X226232279Y-130752903D01*
X226343367Y-130775000D01*
X226456633Y-130775000D01*
X226567721Y-130752903D01*
X226672365Y-130709558D01*
X226766541Y-130646632D01*
X226846632Y-130566541D01*
X226875000Y-130524085D01*
X226875000Y-138875915D01*
X226846632Y-138833459D01*
X226766541Y-138753368D01*
X226672365Y-138690442D01*
X226567721Y-138647097D01*
X226456633Y-138625000D01*
X226343367Y-138625000D01*
X226232279Y-138647097D01*
X226127635Y-138690442D01*
X226033459Y-138753368D01*
X225953368Y-138833459D01*
X225890442Y-138927635D01*
X225847097Y-139032279D01*
X225825000Y-139143367D01*
X225825000Y-139256633D01*
X225847097Y-139367721D01*
X225890442Y-139472365D01*
X225953368Y-139566541D01*
X226033459Y-139646632D01*
X226127635Y-139709558D01*
X226232279Y-139752903D01*
X226343367Y-139775000D01*
X226456633Y-139775000D01*
X226567721Y-139752903D01*
X226672365Y-139709558D01*
X226766541Y-139646632D01*
X226846632Y-139566541D01*
X226875000Y-139524085D01*
X226875000Y-140475915D01*
X226846632Y-140433459D01*
X226766541Y-140353368D01*
X226672365Y-140290442D01*
X226567721Y-140247097D01*
X226456633Y-140225000D01*
X226343367Y-140225000D01*
X226232279Y-140247097D01*
X226127635Y-140290442D01*
X226033459Y-140353368D01*
X225953368Y-140433459D01*
X225890442Y-140527635D01*
X225847097Y-140632279D01*
X225825000Y-140743367D01*
X225825000Y-140856633D01*
X225847097Y-140967721D01*
X225890442Y-141072365D01*
X225953368Y-141166541D01*
X226033459Y-141246632D01*
X226127635Y-141309558D01*
X226232279Y-141352903D01*
X226343367Y-141375000D01*
X226456633Y-141375000D01*
X226567721Y-141352903D01*
X226672365Y-141309558D01*
X226766541Y-141246632D01*
X226846632Y-141166541D01*
X226875000Y-141124085D01*
X226875000Y-145875000D01*
X218125000Y-145875000D01*
X218125000Y-139543367D01*
X221025000Y-139543367D01*
X221025000Y-139656633D01*
X221047097Y-139767721D01*
X221090442Y-139872365D01*
X221153368Y-139966541D01*
X221233459Y-140046632D01*
X221327635Y-140109558D01*
X221432279Y-140152903D01*
X221543367Y-140175000D01*
X221656633Y-140175000D01*
X221767721Y-140152903D01*
X221872365Y-140109558D01*
X221966541Y-140046632D01*
X222046632Y-139966541D01*
X222109558Y-139872365D01*
X222152903Y-139767721D01*
X222175000Y-139656633D01*
X222175000Y-139543367D01*
X222152903Y-139432279D01*
X222109558Y-139327635D01*
X222046632Y-139233459D01*
X221966541Y-139153368D01*
X221872365Y-139090442D01*
X221767721Y-139047097D01*
X221656633Y-139025000D01*
X221543367Y-139025000D01*
X221432279Y-139047097D01*
X221327635Y-139090442D01*
X221233459Y-139153368D01*
X221153368Y-139233459D01*
X221090442Y-139327635D01*
X221047097Y-139432279D01*
X221025000Y-139543367D01*
X218125000Y-139543367D01*
X218125000Y-136943367D01*
X222425000Y-136943367D01*
X222425000Y-137056633D01*
X222447097Y-137167721D01*
X222490442Y-137272365D01*
X222553368Y-137366541D01*
X222633459Y-137446632D01*
X222727635Y-137509558D01*
X222832279Y-137552903D01*
X222943367Y-137575000D01*
X223056633Y-137575000D01*
X223167721Y-137552903D01*
X223272365Y-137509558D01*
X223366541Y-137446632D01*
X223446632Y-137366541D01*
X223509558Y-137272365D01*
X223552903Y-137167721D01*
X223575000Y-137056633D01*
X223575000Y-136943367D01*
X223552903Y-136832279D01*
X223509558Y-136727635D01*
X223446632Y-136633459D01*
X223366541Y-136553368D01*
X223272365Y-136490442D01*
X223167721Y-136447097D01*
X223056633Y-136425000D01*
X222943367Y-136425000D01*
X222832279Y-136447097D01*
X222727635Y-136490442D01*
X222633459Y-136553368D01*
X222553368Y-136633459D01*
X222490442Y-136727635D01*
X222447097Y-136832279D01*
X222425000Y-136943367D01*
X218125000Y-136943367D01*
X218125000Y-128943367D01*
X221025000Y-128943367D01*
X221025000Y-129056633D01*
X221047097Y-129167721D01*
X221090442Y-129272365D01*
X221153368Y-129366541D01*
X221233459Y-129446632D01*
X221327635Y-129509558D01*
X221432279Y-129552903D01*
X221543367Y-129575000D01*
X221656633Y-129575000D01*
X221767721Y-129552903D01*
X221872365Y-129509558D01*
X221966541Y-129446632D01*
X222046632Y-129366541D01*
X222109558Y-129272365D01*
X222152903Y-129167721D01*
X222175000Y-129056633D01*
X222175000Y-128943367D01*
X222152903Y-128832279D01*
X222109558Y-128727635D01*
X222046632Y-128633459D01*
X221966541Y-128553368D01*
X221872365Y-128490442D01*
X221767721Y-128447097D01*
X221656633Y-128425000D01*
X221543367Y-128425000D01*
X221432279Y-128447097D01*
X221327635Y-128490442D01*
X221233459Y-128553368D01*
X221153368Y-128633459D01*
X221090442Y-128727635D01*
X221047097Y-128832279D01*
X221025000Y-128943367D01*
X218125000Y-128943367D01*
X218125000Y-126343367D01*
X222425000Y-126343367D01*
X222425000Y-126456633D01*
X222447097Y-126567721D01*
X222490442Y-126672365D01*
X222553368Y-126766541D01*
X222633459Y-126846632D01*
X222727635Y-126909558D01*
X222832279Y-126952903D01*
X222943367Y-126975000D01*
X223056633Y-126975000D01*
X223167721Y-126952903D01*
X223272365Y-126909558D01*
X223366541Y-126846632D01*
X223446632Y-126766541D01*
X223509558Y-126672365D01*
X223552903Y-126567721D01*
X223575000Y-126456633D01*
X223575000Y-126343367D01*
X223552903Y-126232279D01*
X223509558Y-126127635D01*
X223446632Y-126033459D01*
X223366541Y-125953368D01*
X223272365Y-125890442D01*
X223167721Y-125847097D01*
X223056633Y-125825000D01*
X222943367Y-125825000D01*
X222832279Y-125847097D01*
X222727635Y-125890442D01*
X222633459Y-125953368D01*
X222553368Y-126033459D01*
X222490442Y-126127635D01*
X222447097Y-126232279D01*
X222425000Y-126343367D01*
X218125000Y-126343367D01*
X218125000Y-118143367D01*
X221025000Y-118143367D01*
X221025000Y-118256633D01*
X221047097Y-118367721D01*
X221090442Y-118472365D01*
X221153368Y-118566541D01*
X221233459Y-118646632D01*
X221327635Y-118709558D01*
X221432279Y-118752903D01*
X221543367Y-118775000D01*
X221656633Y-118775000D01*
X221767721Y-118752903D01*
X221872365Y-118709558D01*
X221966541Y-118646632D01*
X222046632Y-118566541D01*
X222109558Y-118472365D01*
X222152903Y-118367721D01*
X222175000Y-118256633D01*
X222175000Y-118143367D01*
X222152903Y-118032279D01*
X222109558Y-117927635D01*
X222046632Y-117833459D01*
X221966541Y-117753368D01*
X221872365Y-117690442D01*
X221767721Y-117647097D01*
X221656633Y-117625000D01*
X221543367Y-117625000D01*
X221432279Y-117647097D01*
X221327635Y-117690442D01*
X221233459Y-117753368D01*
X221153368Y-117833459D01*
X221090442Y-117927635D01*
X221047097Y-118032279D01*
X221025000Y-118143367D01*
X218125000Y-118143367D01*
X218125000Y-115543367D01*
X222425000Y-115543367D01*
X222425000Y-115656633D01*
X222447097Y-115767721D01*
X222490442Y-115872365D01*
X222553368Y-115966541D01*
X222633459Y-116046632D01*
X222727635Y-116109558D01*
X222832279Y-116152903D01*
X222943367Y-116175000D01*
X223056633Y-116175000D01*
X223167721Y-116152903D01*
X223272365Y-116109558D01*
X223366541Y-116046632D01*
X223446632Y-115966541D01*
X223509558Y-115872365D01*
X223552903Y-115767721D01*
X223575000Y-115656633D01*
X223575000Y-115543367D01*
X223552903Y-115432279D01*
X223509558Y-115327635D01*
X223446632Y-115233459D01*
X223366541Y-115153368D01*
X223272365Y-115090442D01*
X223167721Y-115047097D01*
X223056633Y-115025000D01*
X222943367Y-115025000D01*
X222832279Y-115047097D01*
X222727635Y-115090442D01*
X222633459Y-115153368D01*
X222553368Y-115233459D01*
X222490442Y-115327635D01*
X222447097Y-115432279D01*
X222425000Y-115543367D01*
X218125000Y-115543367D01*
X218125000Y-110943367D01*
X222425000Y-110943367D01*
X222425000Y-111056633D01*
X222447097Y-111167721D01*
X222490442Y-111272365D01*
X222553368Y-111366541D01*
X222633459Y-111446632D01*
X222727635Y-111509558D01*
X222832279Y-111552903D01*
X222943367Y-111575000D01*
X223056633Y-111575000D01*
X223167721Y-111552903D01*
X223272365Y-111509558D01*
X223366541Y-111446632D01*
X223446632Y-111366541D01*
X223509558Y-111272365D01*
X223552903Y-111167721D01*
X223575000Y-111056633D01*
X223575000Y-110943367D01*
X223552903Y-110832279D01*
X223509558Y-110727635D01*
X223446632Y-110633459D01*
X223366541Y-110553368D01*
X223272365Y-110490442D01*
X223167721Y-110447097D01*
X223056633Y-110425000D01*
X222943367Y-110425000D01*
X222832279Y-110447097D01*
X222727635Y-110490442D01*
X222633459Y-110553368D01*
X222553368Y-110633459D01*
X222490442Y-110727635D01*
X222447097Y-110832279D01*
X222425000Y-110943367D01*
X218125000Y-110943367D01*
X218125000Y-108343367D01*
X221025000Y-108343367D01*
X221025000Y-108456633D01*
X221047097Y-108567721D01*
X221090442Y-108672365D01*
X221153368Y-108766541D01*
X221233459Y-108846632D01*
X221327635Y-108909558D01*
X221432279Y-108952903D01*
X221543367Y-108975000D01*
X221656633Y-108975000D01*
X221767721Y-108952903D01*
X221872365Y-108909558D01*
X221966541Y-108846632D01*
X222046632Y-108766541D01*
X222109558Y-108672365D01*
X222152903Y-108567721D01*
X222175000Y-108456633D01*
X222175000Y-108364512D01*
X223518959Y-108364512D01*
X223518959Y-108477778D01*
X223541056Y-108588866D01*
X223584401Y-108693510D01*
X223647327Y-108787686D01*
X223727418Y-108867777D01*
X223821594Y-108930703D01*
X223926238Y-108974048D01*
X224037326Y-108996145D01*
X224150592Y-108996145D01*
X224261680Y-108974048D01*
X224366324Y-108930703D01*
X224460500Y-108867777D01*
X224540591Y-108787686D01*
X224603517Y-108693510D01*
X224646862Y-108588866D01*
X224668959Y-108477778D01*
X224668959Y-108364512D01*
X224646862Y-108253424D01*
X224603517Y-108148780D01*
X224540591Y-108054604D01*
X224460500Y-107974513D01*
X224366324Y-107911587D01*
X224261680Y-107868242D01*
X224150592Y-107846145D01*
X224037326Y-107846145D01*
X223926238Y-107868242D01*
X223821594Y-107911587D01*
X223727418Y-107974513D01*
X223647327Y-108054604D01*
X223584401Y-108148780D01*
X223541056Y-108253424D01*
X223518959Y-108364512D01*
X222175000Y-108364512D01*
X222175000Y-108343367D01*
X222152903Y-108232279D01*
X222109558Y-108127635D01*
X222046632Y-108033459D01*
X221966541Y-107953368D01*
X221872365Y-107890442D01*
X221767721Y-107847097D01*
X221656633Y-107825000D01*
X221543367Y-107825000D01*
X221432279Y-107847097D01*
X221327635Y-107890442D01*
X221233459Y-107953368D01*
X221153368Y-108033459D01*
X221090442Y-108127635D01*
X221047097Y-108232279D01*
X221025000Y-108343367D01*
X218125000Y-108343367D01*
X218125000Y-102125000D01*
X221630559Y-102125000D01*
X221639493Y-102240795D01*
G37*
X221639493Y-102240795D02*
X221712612Y-102501590D01*
X221835204Y-102743110D01*
X221867708Y-102791757D01*
X222071809Y-102892835D01*
X222839645Y-102125000D01*
X222910355Y-102125000D01*
X222107165Y-102928191D01*
X222208243Y-103132292D01*
X222444356Y-103264999D01*
X222701822Y-103349093D01*
X222970746Y-103381342D01*
X223240795Y-103360507D01*
X223501590Y-103287388D01*
X223743110Y-103164796D01*
X223791757Y-103132292D01*
X223892835Y-102928191D01*
X223089645Y-102125000D01*
X223160355Y-102125000D01*
X223928191Y-102892835D01*
X224132292Y-102791757D01*
X224264999Y-102555644D01*
X224349093Y-102298178D01*
X224369860Y-102125000D01*
X224875000Y-102125000D01*
X224875000Y-113000000D01*
X224877402Y-113024386D01*
X224884515Y-113047835D01*
X224896066Y-113069446D01*
X224911612Y-113088388D01*
X226875000Y-115051776D01*
X226875000Y-117475915D01*
X226846632Y-117433459D01*
X226766541Y-117353368D01*
X226672365Y-117290442D01*
X226567721Y-117247097D01*
X226456633Y-117225000D01*
X226343367Y-117225000D01*
X226232279Y-117247097D01*
X226127635Y-117290442D01*
X226033459Y-117353368D01*
X225953368Y-117433459D01*
X225890442Y-117527635D01*
X225847097Y-117632279D01*
X225825000Y-117743367D01*
X225825000Y-117856633D01*
X225847097Y-117967721D01*
X225890442Y-118072365D01*
X225953368Y-118166541D01*
X226033459Y-118246632D01*
X226127635Y-118309558D01*
X226232279Y-118352903D01*
X226343367Y-118375000D01*
X226456633Y-118375000D01*
X226567721Y-118352903D01*
X226672365Y-118309558D01*
X226766541Y-118246632D01*
X226846632Y-118166541D01*
X226875000Y-118124085D01*
X226875000Y-119075915D01*
X226846632Y-119033459D01*
X226766541Y-118953368D01*
X226672365Y-118890442D01*
X226567721Y-118847097D01*
X226456633Y-118825000D01*
X226343367Y-118825000D01*
X226232279Y-118847097D01*
X226127635Y-118890442D01*
X226033459Y-118953368D01*
X225953368Y-119033459D01*
X225890442Y-119127635D01*
X225847097Y-119232279D01*
X225825000Y-119343367D01*
X225825000Y-119456633D01*
X225847097Y-119567721D01*
X225890442Y-119672365D01*
X225953368Y-119766541D01*
X226033459Y-119846632D01*
X226127635Y-119909558D01*
X226232279Y-119952903D01*
X226343367Y-119975000D01*
X226456633Y-119975000D01*
X226567721Y-119952903D01*
X226672365Y-119909558D01*
X226766541Y-119846632D01*
X226846632Y-119766541D01*
X226875000Y-119724085D01*
X226875000Y-128275915D01*
X226846632Y-128233459D01*
X226766541Y-128153368D01*
X226672365Y-128090442D01*
X226567721Y-128047097D01*
X226456633Y-128025000D01*
X226343367Y-128025000D01*
X226232279Y-128047097D01*
X226127635Y-128090442D01*
X226033459Y-128153368D01*
X225953368Y-128233459D01*
X225890442Y-128327635D01*
X225847097Y-128432279D01*
X225825000Y-128543367D01*
X225825000Y-128656633D01*
X225847097Y-128767721D01*
X225890442Y-128872365D01*
X225953368Y-128966541D01*
X226033459Y-129046632D01*
X226127635Y-129109558D01*
X226232279Y-129152903D01*
X226343367Y-129175000D01*
X226456633Y-129175000D01*
X226567721Y-129152903D01*
X226672365Y-129109558D01*
X226766541Y-129046632D01*
X226846632Y-128966541D01*
X226875000Y-128924085D01*
X226875000Y-129875915D01*
X226846632Y-129833459D01*
X226766541Y-129753368D01*
X226672365Y-129690442D01*
X226567721Y-129647097D01*
X226456633Y-129625000D01*
X226343367Y-129625000D01*
X226232279Y-129647097D01*
X226127635Y-129690442D01*
X226033459Y-129753368D01*
X225953368Y-129833459D01*
X225890442Y-129927635D01*
X225847097Y-130032279D01*
X225825000Y-130143367D01*
X225825000Y-130256633D01*
X225847097Y-130367721D01*
X225890442Y-130472365D01*
X225953368Y-130566541D01*
X226033459Y-130646632D01*
X226127635Y-130709558D01*
X226232279Y-130752903D01*
X226343367Y-130775000D01*
X226456633Y-130775000D01*
X226567721Y-130752903D01*
X226672365Y-130709558D01*
X226766541Y-130646632D01*
X226846632Y-130566541D01*
X226875000Y-130524085D01*
X226875000Y-138875915D01*
X226846632Y-138833459D01*
X226766541Y-138753368D01*
X226672365Y-138690442D01*
X226567721Y-138647097D01*
X226456633Y-138625000D01*
X226343367Y-138625000D01*
X226232279Y-138647097D01*
X226127635Y-138690442D01*
X226033459Y-138753368D01*
X225953368Y-138833459D01*
X225890442Y-138927635D01*
X225847097Y-139032279D01*
X225825000Y-139143367D01*
X225825000Y-139256633D01*
X225847097Y-139367721D01*
X225890442Y-139472365D01*
X225953368Y-139566541D01*
X226033459Y-139646632D01*
X226127635Y-139709558D01*
X226232279Y-139752903D01*
X226343367Y-139775000D01*
X226456633Y-139775000D01*
X226567721Y-139752903D01*
X226672365Y-139709558D01*
X226766541Y-139646632D01*
X226846632Y-139566541D01*
X226875000Y-139524085D01*
X226875000Y-140475915D01*
X226846632Y-140433459D01*
X226766541Y-140353368D01*
X226672365Y-140290442D01*
X226567721Y-140247097D01*
X226456633Y-140225000D01*
X226343367Y-140225000D01*
X226232279Y-140247097D01*
X226127635Y-140290442D01*
X226033459Y-140353368D01*
X225953368Y-140433459D01*
X225890442Y-140527635D01*
X225847097Y-140632279D01*
X225825000Y-140743367D01*
X225825000Y-140856633D01*
X225847097Y-140967721D01*
X225890442Y-141072365D01*
X225953368Y-141166541D01*
X226033459Y-141246632D01*
X226127635Y-141309558D01*
X226232279Y-141352903D01*
X226343367Y-141375000D01*
X226456633Y-141375000D01*
X226567721Y-141352903D01*
X226672365Y-141309558D01*
X226766541Y-141246632D01*
X226846632Y-141166541D01*
X226875000Y-141124085D01*
X226875000Y-145875000D01*
X218125000Y-145875000D01*
X218125000Y-139543367D01*
X221025000Y-139543367D01*
X221025000Y-139656633D01*
X221047097Y-139767721D01*
X221090442Y-139872365D01*
X221153368Y-139966541D01*
X221233459Y-140046632D01*
X221327635Y-140109558D01*
X221432279Y-140152903D01*
X221543367Y-140175000D01*
X221656633Y-140175000D01*
X221767721Y-140152903D01*
X221872365Y-140109558D01*
X221966541Y-140046632D01*
X222046632Y-139966541D01*
X222109558Y-139872365D01*
X222152903Y-139767721D01*
X222175000Y-139656633D01*
X222175000Y-139543367D01*
X222152903Y-139432279D01*
X222109558Y-139327635D01*
X222046632Y-139233459D01*
X221966541Y-139153368D01*
X221872365Y-139090442D01*
X221767721Y-139047097D01*
X221656633Y-139025000D01*
X221543367Y-139025000D01*
X221432279Y-139047097D01*
X221327635Y-139090442D01*
X221233459Y-139153368D01*
X221153368Y-139233459D01*
X221090442Y-139327635D01*
X221047097Y-139432279D01*
X221025000Y-139543367D01*
X218125000Y-139543367D01*
X218125000Y-136943367D01*
X222425000Y-136943367D01*
X222425000Y-137056633D01*
X222447097Y-137167721D01*
X222490442Y-137272365D01*
X222553368Y-137366541D01*
X222633459Y-137446632D01*
X222727635Y-137509558D01*
X222832279Y-137552903D01*
X222943367Y-137575000D01*
X223056633Y-137575000D01*
X223167721Y-137552903D01*
X223272365Y-137509558D01*
X223366541Y-137446632D01*
X223446632Y-137366541D01*
X223509558Y-137272365D01*
X223552903Y-137167721D01*
X223575000Y-137056633D01*
X223575000Y-136943367D01*
X223552903Y-136832279D01*
X223509558Y-136727635D01*
X223446632Y-136633459D01*
X223366541Y-136553368D01*
X223272365Y-136490442D01*
X223167721Y-136447097D01*
X223056633Y-136425000D01*
X222943367Y-136425000D01*
X222832279Y-136447097D01*
X222727635Y-136490442D01*
X222633459Y-136553368D01*
X222553368Y-136633459D01*
X222490442Y-136727635D01*
X222447097Y-136832279D01*
X222425000Y-136943367D01*
X218125000Y-136943367D01*
X218125000Y-128943367D01*
X221025000Y-128943367D01*
X221025000Y-129056633D01*
X221047097Y-129167721D01*
X221090442Y-129272365D01*
X221153368Y-129366541D01*
X221233459Y-129446632D01*
X221327635Y-129509558D01*
X221432279Y-129552903D01*
X221543367Y-129575000D01*
X221656633Y-129575000D01*
X221767721Y-129552903D01*
X221872365Y-129509558D01*
X221966541Y-129446632D01*
X222046632Y-129366541D01*
X222109558Y-129272365D01*
X222152903Y-129167721D01*
X222175000Y-129056633D01*
X222175000Y-128943367D01*
X222152903Y-128832279D01*
X222109558Y-128727635D01*
X222046632Y-128633459D01*
X221966541Y-128553368D01*
X221872365Y-128490442D01*
X221767721Y-128447097D01*
X221656633Y-128425000D01*
X221543367Y-128425000D01*
X221432279Y-128447097D01*
X221327635Y-128490442D01*
X221233459Y-128553368D01*
X221153368Y-128633459D01*
X221090442Y-128727635D01*
X221047097Y-128832279D01*
X221025000Y-128943367D01*
X218125000Y-128943367D01*
X218125000Y-126343367D01*
X222425000Y-126343367D01*
X222425000Y-126456633D01*
X222447097Y-126567721D01*
X222490442Y-126672365D01*
X222553368Y-126766541D01*
X222633459Y-126846632D01*
X222727635Y-126909558D01*
X222832279Y-126952903D01*
X222943367Y-126975000D01*
X223056633Y-126975000D01*
X223167721Y-126952903D01*
X223272365Y-126909558D01*
X223366541Y-126846632D01*
X223446632Y-126766541D01*
X223509558Y-126672365D01*
X223552903Y-126567721D01*
X223575000Y-126456633D01*
X223575000Y-126343367D01*
X223552903Y-126232279D01*
X223509558Y-126127635D01*
X223446632Y-126033459D01*
X223366541Y-125953368D01*
X223272365Y-125890442D01*
X223167721Y-125847097D01*
X223056633Y-125825000D01*
X222943367Y-125825000D01*
X222832279Y-125847097D01*
X222727635Y-125890442D01*
X222633459Y-125953368D01*
X222553368Y-126033459D01*
X222490442Y-126127635D01*
X222447097Y-126232279D01*
X222425000Y-126343367D01*
X218125000Y-126343367D01*
X218125000Y-118143367D01*
X221025000Y-118143367D01*
X221025000Y-118256633D01*
X221047097Y-118367721D01*
X221090442Y-118472365D01*
X221153368Y-118566541D01*
X221233459Y-118646632D01*
X221327635Y-118709558D01*
X221432279Y-118752903D01*
X221543367Y-118775000D01*
X221656633Y-118775000D01*
X221767721Y-118752903D01*
X221872365Y-118709558D01*
X221966541Y-118646632D01*
X222046632Y-118566541D01*
X222109558Y-118472365D01*
X222152903Y-118367721D01*
X222175000Y-118256633D01*
X222175000Y-118143367D01*
X222152903Y-118032279D01*
X222109558Y-117927635D01*
X222046632Y-117833459D01*
X221966541Y-117753368D01*
X221872365Y-117690442D01*
X221767721Y-117647097D01*
X221656633Y-117625000D01*
X221543367Y-117625000D01*
X221432279Y-117647097D01*
X221327635Y-117690442D01*
X221233459Y-117753368D01*
X221153368Y-117833459D01*
X221090442Y-117927635D01*
X221047097Y-118032279D01*
X221025000Y-118143367D01*
X218125000Y-118143367D01*
X218125000Y-115543367D01*
X222425000Y-115543367D01*
X222425000Y-115656633D01*
X222447097Y-115767721D01*
X222490442Y-115872365D01*
X222553368Y-115966541D01*
X222633459Y-116046632D01*
X222727635Y-116109558D01*
X222832279Y-116152903D01*
X222943367Y-116175000D01*
X223056633Y-116175000D01*
X223167721Y-116152903D01*
X223272365Y-116109558D01*
X223366541Y-116046632D01*
X223446632Y-115966541D01*
X223509558Y-115872365D01*
X223552903Y-115767721D01*
X223575000Y-115656633D01*
X223575000Y-115543367D01*
X223552903Y-115432279D01*
X223509558Y-115327635D01*
X223446632Y-115233459D01*
X223366541Y-115153368D01*
X223272365Y-115090442D01*
X223167721Y-115047097D01*
X223056633Y-115025000D01*
X222943367Y-115025000D01*
X222832279Y-115047097D01*
X222727635Y-115090442D01*
X222633459Y-115153368D01*
X222553368Y-115233459D01*
X222490442Y-115327635D01*
X222447097Y-115432279D01*
X222425000Y-115543367D01*
X218125000Y-115543367D01*
X218125000Y-110943367D01*
X222425000Y-110943367D01*
X222425000Y-111056633D01*
X222447097Y-111167721D01*
X222490442Y-111272365D01*
X222553368Y-111366541D01*
X222633459Y-111446632D01*
X222727635Y-111509558D01*
X222832279Y-111552903D01*
X222943367Y-111575000D01*
X223056633Y-111575000D01*
X223167721Y-111552903D01*
X223272365Y-111509558D01*
X223366541Y-111446632D01*
X223446632Y-111366541D01*
X223509558Y-111272365D01*
X223552903Y-111167721D01*
X223575000Y-111056633D01*
X223575000Y-110943367D01*
X223552903Y-110832279D01*
X223509558Y-110727635D01*
X223446632Y-110633459D01*
X223366541Y-110553368D01*
X223272365Y-110490442D01*
X223167721Y-110447097D01*
X223056633Y-110425000D01*
X222943367Y-110425000D01*
X222832279Y-110447097D01*
X222727635Y-110490442D01*
X222633459Y-110553368D01*
X222553368Y-110633459D01*
X222490442Y-110727635D01*
X222447097Y-110832279D01*
X222425000Y-110943367D01*
X218125000Y-110943367D01*
X218125000Y-108343367D01*
X221025000Y-108343367D01*
X221025000Y-108456633D01*
X221047097Y-108567721D01*
X221090442Y-108672365D01*
X221153368Y-108766541D01*
X221233459Y-108846632D01*
X221327635Y-108909558D01*
X221432279Y-108952903D01*
X221543367Y-108975000D01*
X221656633Y-108975000D01*
X221767721Y-108952903D01*
X221872365Y-108909558D01*
X221966541Y-108846632D01*
X222046632Y-108766541D01*
X222109558Y-108672365D01*
X222152903Y-108567721D01*
X222175000Y-108456633D01*
X222175000Y-108364512D01*
X223518959Y-108364512D01*
X223518959Y-108477778D01*
X223541056Y-108588866D01*
X223584401Y-108693510D01*
X223647327Y-108787686D01*
X223727418Y-108867777D01*
X223821594Y-108930703D01*
X223926238Y-108974048D01*
X224037326Y-108996145D01*
X224150592Y-108996145D01*
X224261680Y-108974048D01*
X224366324Y-108930703D01*
X224460500Y-108867777D01*
X224540591Y-108787686D01*
X224603517Y-108693510D01*
X224646862Y-108588866D01*
X224668959Y-108477778D01*
X224668959Y-108364512D01*
X224646862Y-108253424D01*
X224603517Y-108148780D01*
X224540591Y-108054604D01*
X224460500Y-107974513D01*
X224366324Y-107911587D01*
X224261680Y-107868242D01*
X224150592Y-107846145D01*
X224037326Y-107846145D01*
X223926238Y-107868242D01*
X223821594Y-107911587D01*
X223727418Y-107974513D01*
X223647327Y-108054604D01*
X223584401Y-108148780D01*
X223541056Y-108253424D01*
X223518959Y-108364512D01*
X222175000Y-108364512D01*
X222175000Y-108343367D01*
X222152903Y-108232279D01*
X222109558Y-108127635D01*
X222046632Y-108033459D01*
X221966541Y-107953368D01*
X221872365Y-107890442D01*
X221767721Y-107847097D01*
X221656633Y-107825000D01*
X221543367Y-107825000D01*
X221432279Y-107847097D01*
X221327635Y-107890442D01*
X221233459Y-107953368D01*
X221153368Y-108033459D01*
X221090442Y-108127635D01*
X221047097Y-108232279D01*
X221025000Y-108343367D01*
X218125000Y-108343367D01*
X218125000Y-102125000D01*
X221630559Y-102125000D01*
X221639493Y-102240795D01*
D33*
G36*
X205098000Y-90973621D02*
G01*
X205098001Y-96442566D01*
X205094544Y-96477666D01*
X205098001Y-96512766D01*
X205108339Y-96617732D01*
X205115683Y-96641941D01*
X205149195Y-96752416D01*
X205215541Y-96876542D01*
X205282453Y-96958074D01*
X205282458Y-96958079D01*
X205304829Y-96985338D01*
X205332088Y-97007709D01*
X205673000Y-97348621D01*
X205673000Y-98000000D01*
X205675440Y-98024776D01*
X205682667Y-98048601D01*
X205694403Y-98070557D01*
X205710197Y-98089803D01*
X205729443Y-98105597D01*
X205751399Y-98117333D01*
X205775224Y-98124560D01*
X205800000Y-98127000D01*
X206451378Y-98127000D01*
X207392291Y-99067913D01*
X207414662Y-99095172D01*
X207441921Y-99117543D01*
X207441925Y-99117547D01*
X207523457Y-99184459D01*
X207589804Y-99219922D01*
X207647584Y-99250806D01*
X207782268Y-99291662D01*
X207887234Y-99302000D01*
X207887244Y-99302000D01*
X207922334Y-99305456D01*
X207957424Y-99302000D01*
X213663399Y-99302000D01*
X213754587Y-99393188D01*
X213894721Y-99486823D01*
X214050431Y-99551320D01*
X214215731Y-99584200D01*
X214384269Y-99584200D01*
X214549569Y-99551320D01*
X214705279Y-99486823D01*
X214845413Y-99393188D01*
X214964588Y-99274013D01*
X215058223Y-99133879D01*
X215122720Y-98978169D01*
X215155600Y-98812869D01*
X215155600Y-98644331D01*
X215122720Y-98479031D01*
X215089984Y-98400000D01*
X215122720Y-98320969D01*
X215155600Y-98155669D01*
X215155600Y-98127000D01*
X217797378Y-98127000D01*
X216051378Y-99873000D01*
X204102000Y-99873000D01*
X204102000Y-91689422D01*
X204158223Y-91605279D01*
X204222720Y-91449569D01*
X204255600Y-91284269D01*
X204255600Y-91115731D01*
X204222720Y-90950431D01*
X204158223Y-90794721D01*
X204064588Y-90654587D01*
X203945413Y-90535412D01*
X203805279Y-90441777D01*
X203649569Y-90377280D01*
X203484269Y-90344400D01*
X203315731Y-90344400D01*
X203238795Y-90359703D01*
X203238795Y-89114416D01*
X205098000Y-90973621D01*
G37*
X205098000Y-90973621D02*
X205098001Y-96442566D01*
X205094544Y-96477666D01*
X205098001Y-96512766D01*
X205108339Y-96617732D01*
X205115683Y-96641941D01*
X205149195Y-96752416D01*
X205215541Y-96876542D01*
X205282453Y-96958074D01*
X205282458Y-96958079D01*
X205304829Y-96985338D01*
X205332088Y-97007709D01*
X205673000Y-97348621D01*
X205673000Y-98000000D01*
X205675440Y-98024776D01*
X205682667Y-98048601D01*
X205694403Y-98070557D01*
X205710197Y-98089803D01*
X205729443Y-98105597D01*
X205751399Y-98117333D01*
X205775224Y-98124560D01*
X205800000Y-98127000D01*
X206451378Y-98127000D01*
X207392291Y-99067913D01*
X207414662Y-99095172D01*
X207441921Y-99117543D01*
X207441925Y-99117547D01*
X207523457Y-99184459D01*
X207589804Y-99219922D01*
X207647584Y-99250806D01*
X207782268Y-99291662D01*
X207887234Y-99302000D01*
X207887244Y-99302000D01*
X207922334Y-99305456D01*
X207957424Y-99302000D01*
X213663399Y-99302000D01*
X213754587Y-99393188D01*
X213894721Y-99486823D01*
X214050431Y-99551320D01*
X214215731Y-99584200D01*
X214384269Y-99584200D01*
X214549569Y-99551320D01*
X214705279Y-99486823D01*
X214845413Y-99393188D01*
X214964588Y-99274013D01*
X215058223Y-99133879D01*
X215122720Y-98978169D01*
X215155600Y-98812869D01*
X215155600Y-98644331D01*
X215122720Y-98479031D01*
X215089984Y-98400000D01*
X215122720Y-98320969D01*
X215155600Y-98155669D01*
X215155600Y-98127000D01*
X217797378Y-98127000D01*
X216051378Y-99873000D01*
X204102000Y-99873000D01*
X204102000Y-91689422D01*
X204158223Y-91605279D01*
X204222720Y-91449569D01*
X204255600Y-91284269D01*
X204255600Y-91115731D01*
X204222720Y-90950431D01*
X204158223Y-90794721D01*
X204064588Y-90654587D01*
X203945413Y-90535412D01*
X203805279Y-90441777D01*
X203649569Y-90377280D01*
X203484269Y-90344400D01*
X203315731Y-90344400D01*
X203238795Y-90359703D01*
X203238795Y-89114416D01*
X205098000Y-90973621D01*
G36*
X226073000Y-92144400D02*
G01*
X225915731Y-92144400D01*
X225750431Y-92177280D01*
X225594721Y-92241777D01*
X225454587Y-92335412D01*
X225335412Y-92454587D01*
X225241777Y-92594721D01*
X225177280Y-92750431D01*
X225144400Y-92915731D01*
X225144400Y-93084269D01*
X225177280Y-93249569D01*
X225241777Y-93405279D01*
X225273001Y-93452009D01*
X225273000Y-99873000D01*
X218602622Y-99873000D01*
X220348622Y-98127000D01*
X223000000Y-98127000D01*
X223024776Y-98124560D01*
X223048601Y-98117333D01*
X223070557Y-98105597D01*
X223089803Y-98089803D01*
X223105597Y-98070557D01*
X223117333Y-98048601D01*
X223124560Y-98024776D01*
X223127000Y-98000000D01*
X223127000Y-88727000D01*
X226073000Y-88727000D01*
X226073000Y-92144400D01*
G37*
X226073000Y-92144400D02*
X225915731Y-92144400D01*
X225750431Y-92177280D01*
X225594721Y-92241777D01*
X225454587Y-92335412D01*
X225335412Y-92454587D01*
X225241777Y-92594721D01*
X225177280Y-92750431D01*
X225144400Y-92915731D01*
X225144400Y-93084269D01*
X225177280Y-93249569D01*
X225241777Y-93405279D01*
X225273001Y-93452009D01*
X225273000Y-99873000D01*
X218602622Y-99873000D01*
X220348622Y-98127000D01*
X223000000Y-98127000D01*
X223024776Y-98124560D01*
X223048601Y-98117333D01*
X223070557Y-98105597D01*
X223089803Y-98089803D01*
X223105597Y-98070557D01*
X223117333Y-98048601D01*
X223124560Y-98024776D01*
X223127000Y-98000000D01*
X223127000Y-88727000D01*
X226073000Y-88727000D01*
X226073000Y-92144400D01*
G36*
X226073000Y-87273000D02*
G01*
X223127000Y-87273000D01*
X223127000Y-67000000D01*
X223124560Y-66975224D01*
X223117333Y-66951399D01*
X223105597Y-66929443D01*
X223089803Y-66910197D01*
X223070557Y-66894403D01*
X223048601Y-66882667D01*
X223024776Y-66875440D01*
X223000000Y-66873000D01*
X205800000Y-66873000D01*
X205775224Y-66875440D01*
X205751399Y-66882667D01*
X205729443Y-66894403D01*
X205710197Y-66910197D01*
X205694403Y-66929443D01*
X205682667Y-66951399D01*
X205675440Y-66975224D01*
X205673000Y-67000000D01*
X205673000Y-88997379D01*
X203238795Y-86563174D01*
X203238795Y-63127000D01*
X226073000Y-63127000D01*
X226073000Y-87273000D01*
G37*
X226073000Y-87273000D02*
X223127000Y-87273000D01*
X223127000Y-67000000D01*
X223124560Y-66975224D01*
X223117333Y-66951399D01*
X223105597Y-66929443D01*
X223089803Y-66910197D01*
X223070557Y-66894403D01*
X223048601Y-66882667D01*
X223024776Y-66875440D01*
X223000000Y-66873000D01*
X205800000Y-66873000D01*
X205775224Y-66875440D01*
X205751399Y-66882667D01*
X205729443Y-66894403D01*
X205710197Y-66910197D01*
X205694403Y-66929443D01*
X205682667Y-66951399D01*
X205675440Y-66975224D01*
X205673000Y-67000000D01*
X205673000Y-88997379D01*
X203238795Y-86563174D01*
X203238795Y-63127000D01*
X226073000Y-63127000D01*
X226073000Y-87273000D01*
G36*
X39703000Y-30562545D02*
G01*
X39703000Y-31247455D01*
X39836619Y-31919204D01*
X40098722Y-32551977D01*
X40479238Y-33121458D01*
X40963542Y-33605762D01*
X41533023Y-33986278D01*
X42165796Y-34248381D01*
X42837545Y-34382000D01*
X43522455Y-34382000D01*
X44194204Y-34248381D01*
X44826977Y-33986278D01*
X45396458Y-33605762D01*
X45880762Y-33121458D01*
X46261278Y-32551977D01*
X46523381Y-31919204D01*
X46657000Y-31247455D01*
X46657000Y-30562545D01*
X46551468Y-30032000D01*
X100768532Y-30032000D01*
X100663000Y-30562545D01*
X100663000Y-31247455D01*
X100796619Y-31919204D01*
X101058722Y-32551977D01*
X101439238Y-33121458D01*
X101923542Y-33605762D01*
X102493023Y-33986278D01*
X103125796Y-34248381D01*
X103797545Y-34382000D01*
X104482455Y-34382000D01*
X105154204Y-34248381D01*
X105786977Y-33986278D01*
X106356458Y-33605762D01*
X106840762Y-33121458D01*
X107221278Y-32551977D01*
X107483381Y-31919204D01*
X107617000Y-31247455D01*
X107617000Y-30562545D01*
X107511468Y-30032000D01*
X161728532Y-30032000D01*
X161623000Y-30562545D01*
X161623000Y-31247455D01*
X161756619Y-31919204D01*
X162018722Y-32551977D01*
X162399238Y-33121458D01*
X162883542Y-33605762D01*
X163453023Y-33986278D01*
X164085796Y-34248381D01*
X164757545Y-34382000D01*
X165442455Y-34382000D01*
X166114204Y-34248381D01*
X166746977Y-33986278D01*
X167316458Y-33605762D01*
X167800762Y-33121458D01*
X168181278Y-32551977D01*
X168443381Y-31919204D01*
X168577000Y-31247455D01*
X168577000Y-30562545D01*
X168471468Y-30032000D01*
X222688532Y-30032000D01*
X222583000Y-30562545D01*
X222583000Y-31247455D01*
X222716619Y-31919204D01*
X222978722Y-32551977D01*
X223359238Y-33121458D01*
X223843542Y-33605762D01*
X224413023Y-33986278D01*
X225045796Y-34248381D01*
X225717545Y-34382000D01*
X226402455Y-34382000D01*
X227074204Y-34248381D01*
X227706977Y-33986278D01*
X228276458Y-33605762D01*
X228760762Y-33121458D01*
X229141278Y-32551977D01*
X229403381Y-31919204D01*
X229537000Y-31247455D01*
X229537000Y-30562545D01*
X229431468Y-30032000D01*
X234068001Y-30032000D01*
X234068001Y-35873000D01*
X30092000Y-35873000D01*
X30092000Y-30032000D01*
X39808532Y-30032000D01*
X39703000Y-30562545D01*
G37*
X39703000Y-30562545D02*
X39703000Y-31247455D01*
X39836619Y-31919204D01*
X40098722Y-32551977D01*
X40479238Y-33121458D01*
X40963542Y-33605762D01*
X41533023Y-33986278D01*
X42165796Y-34248381D01*
X42837545Y-34382000D01*
X43522455Y-34382000D01*
X44194204Y-34248381D01*
X44826977Y-33986278D01*
X45396458Y-33605762D01*
X45880762Y-33121458D01*
X46261278Y-32551977D01*
X46523381Y-31919204D01*
X46657000Y-31247455D01*
X46657000Y-30562545D01*
X46551468Y-30032000D01*
X100768532Y-30032000D01*
X100663000Y-30562545D01*
X100663000Y-31247455D01*
X100796619Y-31919204D01*
X101058722Y-32551977D01*
X101439238Y-33121458D01*
X101923542Y-33605762D01*
X102493023Y-33986278D01*
X103125796Y-34248381D01*
X103797545Y-34382000D01*
X104482455Y-34382000D01*
X105154204Y-34248381D01*
X105786977Y-33986278D01*
X106356458Y-33605762D01*
X106840762Y-33121458D01*
X107221278Y-32551977D01*
X107483381Y-31919204D01*
X107617000Y-31247455D01*
X107617000Y-30562545D01*
X107511468Y-30032000D01*
X161728532Y-30032000D01*
X161623000Y-30562545D01*
X161623000Y-31247455D01*
X161756619Y-31919204D01*
X162018722Y-32551977D01*
X162399238Y-33121458D01*
X162883542Y-33605762D01*
X163453023Y-33986278D01*
X164085796Y-34248381D01*
X164757545Y-34382000D01*
X165442455Y-34382000D01*
X166114204Y-34248381D01*
X166746977Y-33986278D01*
X167316458Y-33605762D01*
X167800762Y-33121458D01*
X168181278Y-32551977D01*
X168443381Y-31919204D01*
X168577000Y-31247455D01*
X168577000Y-30562545D01*
X168471468Y-30032000D01*
X222688532Y-30032000D01*
X222583000Y-30562545D01*
X222583000Y-31247455D01*
X222716619Y-31919204D01*
X222978722Y-32551977D01*
X223359238Y-33121458D01*
X223843542Y-33605762D01*
X224413023Y-33986278D01*
X225045796Y-34248381D01*
X225717545Y-34382000D01*
X226402455Y-34382000D01*
X227074204Y-34248381D01*
X227706977Y-33986278D01*
X228276458Y-33605762D01*
X228760762Y-33121458D01*
X229141278Y-32551977D01*
X229403381Y-31919204D01*
X229537000Y-31247455D01*
X229537000Y-30562545D01*
X229431468Y-30032000D01*
X234068001Y-30032000D01*
X234068001Y-35873000D01*
X30092000Y-35873000D01*
X30092000Y-30032000D01*
X39808532Y-30032000D01*
X39703000Y-30562545D01*
G36*
X233873000Y-287472875D02*
G01*
X229463184Y-287468556D01*
X229537000Y-287097455D01*
X229537000Y-286412545D01*
X229403381Y-285740796D01*
X229141278Y-285108023D01*
X228760762Y-284538542D01*
X228276458Y-284054238D01*
X227706977Y-283673722D01*
X227074204Y-283411619D01*
X226402455Y-283278000D01*
X225717545Y-283278000D01*
X225045796Y-283411619D01*
X224413023Y-283673722D01*
X223843542Y-284054238D01*
X223359238Y-284538542D01*
X222978722Y-285108023D01*
X222716619Y-285740796D01*
X222583000Y-286412545D01*
X222583000Y-287097455D01*
X222655490Y-287461888D01*
X198989121Y-287438709D01*
X199057000Y-287097455D01*
X199057000Y-286412545D01*
X198923381Y-285740796D01*
X198661278Y-285108023D01*
X198280762Y-284538542D01*
X197796458Y-284054238D01*
X197226977Y-283673722D01*
X196594204Y-283411619D01*
X195922455Y-283278000D01*
X195237545Y-283278000D01*
X194565796Y-283411619D01*
X193933023Y-283673722D01*
X193363542Y-284054238D01*
X192879238Y-284538542D01*
X192498722Y-285108023D01*
X192236619Y-285740796D01*
X192103000Y-286412545D01*
X192103000Y-287097455D01*
X192169551Y-287432029D01*
X168515057Y-287408861D01*
X168577000Y-287097455D01*
X168577000Y-286412545D01*
X168443381Y-285740796D01*
X168181278Y-285108023D01*
X167800762Y-284538542D01*
X167316458Y-284054238D01*
X166746977Y-283673722D01*
X166114204Y-283411619D01*
X165442455Y-283278000D01*
X164757545Y-283278000D01*
X164085796Y-283411619D01*
X163453023Y-283673722D01*
X162883542Y-284054238D01*
X162399238Y-284538542D01*
X162018722Y-285108023D01*
X161756619Y-285740796D01*
X161623000Y-286412545D01*
X161623000Y-287097455D01*
X161683612Y-287402170D01*
X138040994Y-287379014D01*
X138097000Y-287097455D01*
X138097000Y-286412545D01*
X137963381Y-285740796D01*
X137701278Y-285108023D01*
X137320762Y-284538542D01*
X136836458Y-284054238D01*
X136266977Y-283673722D01*
X135634204Y-283411619D01*
X134962455Y-283278000D01*
X134277545Y-283278000D01*
X133605796Y-283411619D01*
X132973023Y-283673722D01*
X132403542Y-284054238D01*
X131919238Y-284538542D01*
X131538722Y-285108023D01*
X131276619Y-285740796D01*
X131143000Y-286412545D01*
X131143000Y-287097455D01*
X131197672Y-287372312D01*
X107566931Y-287349167D01*
X107617000Y-287097455D01*
X107617000Y-286412545D01*
X107483381Y-285740796D01*
X107221278Y-285108023D01*
X106840762Y-284538542D01*
X106356458Y-284054238D01*
X105786977Y-283673722D01*
X105154204Y-283411619D01*
X104482455Y-283278000D01*
X103797545Y-283278000D01*
X103125796Y-283411619D01*
X102493023Y-283673722D01*
X101923542Y-284054238D01*
X101439238Y-284538542D01*
X101058722Y-285108023D01*
X100796619Y-285740796D01*
X100663000Y-286412545D01*
X100663000Y-287097455D01*
X100711733Y-287342453D01*
X77092868Y-287319320D01*
X77137000Y-287097455D01*
X77137000Y-286412545D01*
X77003381Y-285740796D01*
X76741278Y-285108023D01*
X76360762Y-284538542D01*
X75876458Y-284054238D01*
X75306977Y-283673722D01*
X74674204Y-283411619D01*
X74002455Y-283278000D01*
X73317545Y-283278000D01*
X72645796Y-283411619D01*
X72013023Y-283673722D01*
X71443542Y-284054238D01*
X70959238Y-284538542D01*
X70578722Y-285108023D01*
X70316619Y-285740796D01*
X70183000Y-286412545D01*
X70183000Y-287097455D01*
X70225794Y-287312594D01*
X46618805Y-287289472D01*
X46657000Y-287097455D01*
X46657000Y-286412545D01*
X46523381Y-285740796D01*
X46261278Y-285108023D01*
X45880762Y-284538542D01*
X45396458Y-284054238D01*
X44826977Y-283673722D01*
X44194204Y-283411619D01*
X43522455Y-283278000D01*
X42837545Y-283278000D01*
X42165796Y-283411619D01*
X41533023Y-283673722D01*
X40963542Y-284054238D01*
X40479238Y-284538542D01*
X40098722Y-285108023D01*
X39836619Y-285740796D01*
X39703000Y-286412545D01*
X39703000Y-287097455D01*
X39739854Y-287282735D01*
X30092000Y-287273286D01*
X30092000Y-281527000D01*
X233873000Y-281527000D01*
X233873000Y-287472875D01*
G37*
X233873000Y-287472875D02*
X229463184Y-287468556D01*
X229537000Y-287097455D01*
X229537000Y-286412545D01*
X229403381Y-285740796D01*
X229141278Y-285108023D01*
X228760762Y-284538542D01*
X228276458Y-284054238D01*
X227706977Y-283673722D01*
X227074204Y-283411619D01*
X226402455Y-283278000D01*
X225717545Y-283278000D01*
X225045796Y-283411619D01*
X224413023Y-283673722D01*
X223843542Y-284054238D01*
X223359238Y-284538542D01*
X222978722Y-285108023D01*
X222716619Y-285740796D01*
X222583000Y-286412545D01*
X222583000Y-287097455D01*
X222655490Y-287461888D01*
X198989121Y-287438709D01*
X199057000Y-287097455D01*
X199057000Y-286412545D01*
X198923381Y-285740796D01*
X198661278Y-285108023D01*
X198280762Y-284538542D01*
X197796458Y-284054238D01*
X197226977Y-283673722D01*
X196594204Y-283411619D01*
X195922455Y-283278000D01*
X195237545Y-283278000D01*
X194565796Y-283411619D01*
X193933023Y-283673722D01*
X193363542Y-284054238D01*
X192879238Y-284538542D01*
X192498722Y-285108023D01*
X192236619Y-285740796D01*
X192103000Y-286412545D01*
X192103000Y-287097455D01*
X192169551Y-287432029D01*
X168515057Y-287408861D01*
X168577000Y-287097455D01*
X168577000Y-286412545D01*
X168443381Y-285740796D01*
X168181278Y-285108023D01*
X167800762Y-284538542D01*
X167316458Y-284054238D01*
X166746977Y-283673722D01*
X166114204Y-283411619D01*
X165442455Y-283278000D01*
X164757545Y-283278000D01*
X164085796Y-283411619D01*
X163453023Y-283673722D01*
X162883542Y-284054238D01*
X162399238Y-284538542D01*
X162018722Y-285108023D01*
X161756619Y-285740796D01*
X161623000Y-286412545D01*
X161623000Y-287097455D01*
X161683612Y-287402170D01*
X138040994Y-287379014D01*
X138097000Y-287097455D01*
X138097000Y-286412545D01*
X137963381Y-285740796D01*
X137701278Y-285108023D01*
X137320762Y-284538542D01*
X136836458Y-284054238D01*
X136266977Y-283673722D01*
X135634204Y-283411619D01*
X134962455Y-283278000D01*
X134277545Y-283278000D01*
X133605796Y-283411619D01*
X132973023Y-283673722D01*
X132403542Y-284054238D01*
X131919238Y-284538542D01*
X131538722Y-285108023D01*
X131276619Y-285740796D01*
X131143000Y-286412545D01*
X131143000Y-287097455D01*
X131197672Y-287372312D01*
X107566931Y-287349167D01*
X107617000Y-287097455D01*
X107617000Y-286412545D01*
X107483381Y-285740796D01*
X107221278Y-285108023D01*
X106840762Y-284538542D01*
X106356458Y-284054238D01*
X105786977Y-283673722D01*
X105154204Y-283411619D01*
X104482455Y-283278000D01*
X103797545Y-283278000D01*
X103125796Y-283411619D01*
X102493023Y-283673722D01*
X101923542Y-284054238D01*
X101439238Y-284538542D01*
X101058722Y-285108023D01*
X100796619Y-285740796D01*
X100663000Y-286412545D01*
X100663000Y-287097455D01*
X100711733Y-287342453D01*
X77092868Y-287319320D01*
X77137000Y-287097455D01*
X77137000Y-286412545D01*
X77003381Y-285740796D01*
X76741278Y-285108023D01*
X76360762Y-284538542D01*
X75876458Y-284054238D01*
X75306977Y-283673722D01*
X74674204Y-283411619D01*
X74002455Y-283278000D01*
X73317545Y-283278000D01*
X72645796Y-283411619D01*
X72013023Y-283673722D01*
X71443542Y-284054238D01*
X70959238Y-284538542D01*
X70578722Y-285108023D01*
X70316619Y-285740796D01*
X70183000Y-286412545D01*
X70183000Y-287097455D01*
X70225794Y-287312594D01*
X46618805Y-287289472D01*
X46657000Y-287097455D01*
X46657000Y-286412545D01*
X46523381Y-285740796D01*
X46261278Y-285108023D01*
X45880762Y-284538542D01*
X45396458Y-284054238D01*
X44826977Y-283673722D01*
X44194204Y-283411619D01*
X43522455Y-283278000D01*
X42837545Y-283278000D01*
X42165796Y-283411619D01*
X41533023Y-283673722D01*
X40963542Y-284054238D01*
X40479238Y-284538542D01*
X40098722Y-285108023D01*
X39836619Y-285740796D01*
X39703000Y-286412545D01*
X39703000Y-287097455D01*
X39739854Y-287282735D01*
X30092000Y-287273286D01*
X30092000Y-281527000D01*
X233873000Y-281527000D01*
X233873000Y-287472875D01*
G36*
X31575337Y-230169156D02*
G01*
X34773000Y-233846470D01*
X34773000Y-234160245D01*
X34835525Y-234474578D01*
X34958172Y-234770673D01*
X35136227Y-235037152D01*
X35362848Y-235263773D01*
X35553325Y-235391045D01*
X35473197Y-286873000D01*
X29527297Y-286873000D01*
X29664141Y-228257960D01*
X31575337Y-230169156D01*
G37*
X31575337Y-230169156D02*
X34773000Y-233846470D01*
X34773000Y-234160245D01*
X34835525Y-234474578D01*
X34958172Y-234770673D01*
X35136227Y-235037152D01*
X35362848Y-235263773D01*
X35553325Y-235391045D01*
X35473197Y-286873000D01*
X29527297Y-286873000D01*
X29664141Y-228257960D01*
X31575337Y-230169156D01*
G36*
X35559667Y-231316097D02*
G01*
X33260989Y-228672618D01*
X33236058Y-228642239D01*
X33224671Y-228630852D01*
X33214111Y-228618708D01*
X33185563Y-228591744D01*
X31327000Y-226733182D01*
X31327000Y-94451818D01*
X35779616Y-89999203D01*
X35559667Y-231316097D01*
G37*
X35559667Y-231316097D02*
X33260989Y-228672618D01*
X33236058Y-228642239D01*
X33224671Y-228630852D01*
X33214111Y-228618708D01*
X33185563Y-228591744D01*
X31327000Y-226733182D01*
X31327000Y-94451818D01*
X35779616Y-89999203D01*
X35559667Y-231316097D01*
G36*
X35784585Y-86806597D02*
G01*
X29980828Y-92610353D01*
X30126704Y-30127000D01*
X35872802Y-30127000D01*
X35784585Y-86806597D01*
G37*
X35784585Y-86806597D02*
X29980828Y-92610353D01*
X30126704Y-30127000D01*
X35872802Y-30127000D01*
X35784585Y-86806597D01*
G36*
X235568000Y-187057467D02*
G01*
X235373226Y-287483192D01*
X232052295Y-287761872D01*
X232425599Y-112784402D01*
X232464588Y-112745413D01*
X232558223Y-112605279D01*
X232622720Y-112449569D01*
X232633684Y-112394448D01*
X234288812Y-110739321D01*
X234316554Y-110716554D01*
X234407403Y-110605853D01*
X234474910Y-110479557D01*
X234516480Y-110342517D01*
X234527000Y-110235708D01*
X234530517Y-110200001D01*
X234527000Y-110164293D01*
X234527000Y-93235716D01*
X234530518Y-93200000D01*
X234516480Y-93057482D01*
X234474910Y-92920443D01*
X234407403Y-92794147D01*
X234316553Y-92683446D01*
X234288816Y-92660683D01*
X232472407Y-90844274D01*
X232601752Y-30216672D01*
X235568001Y-29964225D01*
X235568000Y-187057467D01*
G37*
X235568000Y-187057467D02*
X235373226Y-287483192D01*
X232052295Y-287761872D01*
X232425599Y-112784402D01*
X232464588Y-112745413D01*
X232558223Y-112605279D01*
X232622720Y-112449569D01*
X232633684Y-112394448D01*
X234288812Y-110739321D01*
X234316554Y-110716554D01*
X234407403Y-110605853D01*
X234474910Y-110479557D01*
X234516480Y-110342517D01*
X234527000Y-110235708D01*
X234530517Y-110200001D01*
X234527000Y-110164293D01*
X234527000Y-93235716D01*
X234530518Y-93200000D01*
X234516480Y-93057482D01*
X234474910Y-92920443D01*
X234407403Y-92794147D01*
X234316553Y-92683446D01*
X234288816Y-92660683D01*
X232472407Y-90844274D01*
X232601752Y-30216672D01*
X235568001Y-29964225D01*
X235568000Y-187057467D01*
G36*
X233073000Y-93501133D02*
G01*
X233073001Y-109898866D01*
X232430384Y-110541484D01*
X232468029Y-92896162D01*
X233073000Y-93501133D01*
G37*
X233073000Y-93501133D02*
X233073001Y-109898866D01*
X232430384Y-110541484D01*
X232468029Y-92896162D01*
X233073000Y-93501133D01*
M02*
