M48
; DRILL file {KiCad (5.1.9)-1} date 02/17/21 12:42:43
; FORMAT={-:-/ absolute / metric / decimal}
; #@! TF.CreationDate,2021-02-17T12:42:43-05:00
; #@! TF.GenerationSoftware,Kicad,Pcbnew,(5.1.9)-1
FMAT,2
METRIC
T1C0.254
T2C0.300
T3C0.500
T4C0.600
T5C0.700
T6C0.840
T7C0.890
T8C1.000
T9C1.570
T10C2.410
T11C2.700
T12C3.250
%
G90
G05
T1
X33.78Y-74.6
X45.68Y-76.7
X156.343Y-59.675
X156.343Y-60.955
X156.343Y-62.235
X156.343Y-63.515
X156.343Y-64.795
X156.343Y-90.675
X156.343Y-91.955
X156.343Y-93.235
X156.343Y-94.515
X156.343Y-95.795
X156.343Y-125.675
X156.343Y-126.955
X156.343Y-128.235
X156.343Y-129.515
X156.343Y-130.795
X157.002Y-60.315
X157.002Y-61.595
X157.002Y-62.875
X157.002Y-64.155
X157.002Y-91.315
X157.002Y-92.595
X157.002Y-93.875
X157.002Y-95.155
X157.002Y-126.315
X157.002Y-127.595
X157.002Y-128.875
X157.002Y-130.155
X157.662Y-59.675
X157.662Y-60.955
X157.662Y-62.235
X157.662Y-63.515
X157.662Y-64.795
X157.662Y-90.675
X157.662Y-91.955
X157.662Y-93.235
X157.662Y-94.515
X157.662Y-95.795
X157.662Y-125.675
X157.662Y-126.955
X157.662Y-128.235
X157.662Y-129.515
X157.662Y-130.795
X159.88Y-91.4
X159.953Y-63.021
X159.953Y-94.021
X159.98Y-60.3
X159.98Y-63.7
X159.98Y-94.7
X159.98Y-129.7
X160.18Y-64.41
X160.18Y-65.75
X160.18Y-95.41
X160.18Y-96.75
X160.18Y-130.41
X160.18Y-131.75
X160.28Y-57.8
X160.28Y-59.2
X160.28Y-90.2
X160.78Y-91.8
X161.38Y-60.8
X161.38Y-126.8
X162.28Y-62.9
X162.28Y-93.9
X162.868Y-56.812
X162.868Y-87.812
X162.88Y-58.7
X162.88Y-60.5
X162.88Y-89.7
X162.88Y-91.5
X163.88Y-57.7
X163.88Y-59.6
X163.88Y-88.7
X163.88Y-90.6
X168.68Y-129.75
X170.43Y-131.5
X170.471Y-62.709
X174.93Y-137.0
X175.93Y-137.5
X177.18Y-71.4
X177.18Y-102.1
X177.93Y-72.0
X177.93Y-102.75
X178.93Y-97.5
X179.68Y-52.25
X180.18Y-129.204
X181.88Y-84.1
X184.08Y-79.9
X184.93Y-85.5
X186.18Y-85.8
X186.98Y-79.9
X187.43Y-77.5
X187.58Y-85.4
X188.68Y-77.75
X188.68Y-79.0
X189.43Y-67.75
X189.68Y-79.5
X190.43Y-72.75
X190.78Y-78.0
X191.68Y-76.75
X192.48Y-75.7
X192.93Y-72.25
X193.88Y-72.6
X193.93Y-67.2
X193.93Y-73.75
X195.08Y-73.8
X195.68Y-74.75
X234.0Y-59.8
X245.2Y-59.8
X246.98Y-75.8
X246.98Y-77.3
X257.68Y-78.4
X257.68Y-79.25
X257.68Y-80.5
X257.68Y-81.927
X257.68Y-84.6
X257.98Y-69.4
X259.98Y-82.8
X261.78Y-68.7
X271.647Y-70.033
X272.213Y-69.467
X274.68Y-67.9
X274.68Y-68.7
X274.78Y-82.075
X274.78Y-82.7
X275.48Y-82.075
X275.48Y-82.7
X275.5Y-63.8
X275.53Y-67.9
X275.53Y-68.7
X276.53Y-76.675
X276.53Y-77.325
X276.88Y-74.1
X276.88Y-74.9
X277.68Y-74.1
X277.68Y-74.9
T2
X17.0Y-130.8
X22.43Y-77.5
X22.43Y-81.5
X24.43Y-83.25
X25.0Y-105.1
X25.6Y-105.7
X26.68Y-78.2
X28.18Y-78.5
X28.68Y-79.5
X29.18Y-84.75
X29.48Y-74.8
X30.9Y-79.7
X30.93Y-74.75
X31.93Y-73.075
X32.68Y-85.384
X32.68Y-118.0
X33.08Y-76.7
X33.68Y-85.75
X34.18Y-118.25
X34.43Y-85.0
X35.18Y-84.25
X35.43Y-60.8
X35.43Y-72.25
X35.43Y-116.75
X35.68Y-80.0
X35.93Y-116.0
X36.93Y-56.3
X36.93Y-60.55
X36.93Y-71.6
X37.43Y-79.7
X37.43Y-110.7
X37.43Y-145.7
X38.43Y-71.6
X39.18Y-72.25
X39.93Y-90.25
X39.93Y-125.25
X40.18Y-60.55
X40.43Y-80.5
X40.68Y-142.0
X40.93Y-107.25
X41.68Y-86.5
X41.68Y-110.0
X41.68Y-115.25
X41.68Y-121.75
X43.43Y-81.5
X43.43Y-106.0
X43.43Y-139.75
X47.28Y-59.8
X47.28Y-74.2
X47.28Y-90.8
X47.28Y-105.2
X47.28Y-125.8
X47.28Y-140.2
X53.43Y-79.4
X53.43Y-110.4
X53.43Y-145.4
X54.68Y-59.8
X54.68Y-74.2
X54.68Y-81.0
X54.68Y-90.8
X54.68Y-105.2
X54.68Y-112.0
X54.68Y-125.8
X54.68Y-140.2
X55.88Y-74.2
X55.88Y-105.2
X55.88Y-140.2
X56.68Y-54.6
X56.68Y-85.6
X56.68Y-120.6
X56.88Y-57.0
X56.88Y-68.2
X56.88Y-79.4
X56.88Y-88.0
X56.88Y-99.2
X56.88Y-110.4
X56.88Y-123.0
X56.88Y-134.2
X56.88Y-145.4
X57.28Y-72.4
X57.28Y-103.4
X57.28Y-138.4
X57.88Y-65.8
X57.88Y-96.8
X57.88Y-131.8
X62.28Y-79.4
X62.28Y-110.4
X62.28Y-145.4
X62.48Y-54.6
X62.48Y-56.6
X62.48Y-77.4
X62.48Y-85.6
X62.48Y-87.6
X62.48Y-108.4
X62.48Y-120.6
X62.48Y-122.6
X62.48Y-143.4
X64.88Y-61.0
X64.88Y-73.0
X64.88Y-92.0
X64.88Y-104.0
X64.88Y-127.0
X64.88Y-139.0
X66.142Y-62.062
X66.142Y-93.062
X66.142Y-128.062
X66.28Y-72.0
X66.28Y-103.0
X66.28Y-138.0
X68.68Y-59.4
X68.68Y-90.4
X68.68Y-125.4
X70.0Y-135.1
X70.18Y-86.0
X70.28Y-58.0
X70.28Y-89.0
X70.28Y-124.0
X71.1Y-71.2
X71.142Y-102.093
X71.48Y-61.8
X71.48Y-92.8
X71.48Y-127.8
X72.343Y-72.237
X72.343Y-103.237
X72.343Y-138.237
X72.35Y-62.85
X72.4Y-93.85
X72.4Y-128.9
X75.28Y-76.1
X75.28Y-107.1
X75.28Y-142.1
X75.88Y-61.8
X75.88Y-92.8
X75.88Y-127.8
X76.48Y-75.1
X76.48Y-106.1
X76.48Y-141.1
X76.659Y-69.779
X76.659Y-100.779
X76.659Y-135.779
X76.68Y-68.4
X76.68Y-99.4
X76.68Y-134.4
X76.78Y-72.3
X76.78Y-103.3
X76.78Y-138.3
X79.28Y-64.2
X79.28Y-65.8
X79.28Y-95.2
X79.28Y-96.8
X79.28Y-130.2
X79.28Y-131.8
X84.68Y-103.5
X88.68Y-64.8
X88.68Y-69.2
X88.68Y-95.8
X88.68Y-100.2
X88.68Y-130.8
X88.68Y-135.2
X91.68Y-121.0
X91.88Y-59.0
X91.88Y-125.0
X92.18Y-55.0
X92.68Y-67.0
X92.68Y-98.0
X92.68Y-133.0
X93.18Y-86.0
X93.18Y-94.0
X94.88Y-57.0
X94.88Y-60.8
X94.88Y-73.25
X94.88Y-76.85
X94.88Y-88.0
X94.88Y-91.8
X94.88Y-104.25
X94.88Y-107.85
X94.88Y-123.0
X94.88Y-126.8
X94.88Y-139.25
X94.88Y-142.85
X95.68Y-87.0
X95.68Y-94.0
X95.68Y-122.5
X95.68Y-127.5
X97.68Y-56.0
X97.68Y-62.0
X97.68Y-72.0
X97.68Y-78.0
X99.18Y-104.0
X99.18Y-121.0
X99.68Y-55.0
X99.68Y-67.0
X99.68Y-98.0
X99.68Y-133.0
X100.18Y-86.0
X100.28Y-61.0
X100.28Y-92.0
X100.28Y-127.0
X100.43Y-104.0
X100.43Y-108.25
X100.68Y-138.5
X100.68Y-143.5
X100.93Y-73.25
X100.93Y-77.0
X101.08Y-57.2
X101.08Y-88.2
X101.08Y-123.2
X101.18Y-109.5
X101.68Y-103.0
X102.88Y-143.05
X103.08Y-138.85
X103.18Y-71.5
X103.18Y-78.0
X103.68Y-141.05
X107.18Y-55.0
X107.68Y-67.0
X107.68Y-86.0
X107.68Y-98.0
X107.68Y-133.0
X112.68Y-57.0
X112.68Y-76.0
X112.68Y-107.0
X112.68Y-142.0
X114.18Y-121.0
X114.68Y-55.0
X115.18Y-86.0
X116.08Y-78.2
X116.08Y-109.2
X116.08Y-144.2
X117.68Y-133.0
X118.48Y-76.0
X118.48Y-107.0
X118.48Y-142.0
X119.68Y-135.0
X121.68Y-76.0
X121.68Y-107.0
X121.68Y-121.0
X121.68Y-142.0
X122.18Y-55.0
X122.68Y-86.0
X123.188Y-105.938
X123.218Y-140.938
X123.28Y-75.0
X123.88Y-59.062
X123.88Y-61.0
X123.88Y-73.2
X123.88Y-90.662
X123.88Y-92.6
X123.88Y-104.2
X123.88Y-125.762
X123.88Y-127.7
X123.88Y-139.2
X124.28Y-78.2
X124.28Y-109.2
X124.28Y-144.2
X125.19Y-57.91
X125.19Y-89.51
X125.19Y-124.61
X125.25Y-134.0
X125.28Y-76.0
X125.28Y-107.0
X125.28Y-142.0
X126.45Y-98.85
X126.48Y-61.0
X126.48Y-67.9
X126.48Y-75.0
X126.48Y-92.6
X126.48Y-106.0
X126.48Y-127.7
X126.48Y-134.0
X126.48Y-141.0
X126.617Y-59.062
X126.617Y-90.662
X126.617Y-125.762
X126.68Y-73.2
X126.68Y-104.2
X126.68Y-139.2
X128.48Y-66.0
X128.48Y-68.0
X128.48Y-97.0
X128.48Y-99.0
X128.48Y-132.0
X128.48Y-134.0
X129.28Y-76.8
X129.28Y-107.8
X129.28Y-142.8
X129.48Y-57.2
X129.48Y-88.2
X129.48Y-123.2
X129.68Y-65.2
X129.68Y-69.0
X129.68Y-96.2
X129.68Y-100.0
X129.68Y-131.2
X129.68Y-135.0
X130.68Y-78.2
X130.68Y-109.2
X130.68Y-144.2
X130.88Y-66.0
X130.88Y-68.0
X130.88Y-97.0
X130.88Y-99.0
X130.88Y-132.0
X130.88Y-134.0
X132.68Y-55.8
X132.68Y-58.6
X132.68Y-78.4
X132.68Y-86.8
X132.68Y-89.6
X132.68Y-109.4
X132.68Y-121.8
X132.68Y-124.6
X132.68Y-144.4
X133.68Y-76.8
X133.68Y-107.8
X133.68Y-142.8
X133.88Y-57.2
X133.88Y-88.2
X133.88Y-123.2
X134.28Y-64.4
X134.28Y-95.4
X134.28Y-130.4
X134.48Y-74.4
X134.48Y-105.4
X134.48Y-140.4
X134.68Y-110.5
X135.18Y-79.0
X135.18Y-145.5
X135.68Y-76.8
X135.68Y-107.8
X135.68Y-142.8
X135.88Y-72.0
X135.88Y-103.0
X135.88Y-138.0
X136.08Y-64.4
X136.08Y-95.4
X136.08Y-130.4
X136.68Y-75.0
X136.68Y-106.0
X136.68Y-141.0
X137.68Y-76.8
X137.68Y-107.8
X137.68Y-142.8
X138.68Y-75.0
X138.68Y-79.0
X138.68Y-106.0
X138.68Y-110.5
X138.68Y-141.0
X138.68Y-145.5
X139.68Y-76.8
X139.68Y-107.8
X139.68Y-142.8
X140.68Y-75.0
X140.68Y-106.0
X140.68Y-141.0
X141.68Y-76.8
X141.68Y-79.0
X141.68Y-107.8
X141.68Y-142.8
X141.68Y-145.5
X142.18Y-110.5
X142.68Y-75.0
X142.68Y-106.0
X142.68Y-141.0
X144.18Y-70.5
X144.18Y-102.0
X144.18Y-137.0
X144.786Y-64.287
X144.786Y-95.287
X144.786Y-130.287
X144.88Y-58.9
X144.88Y-89.9
X144.88Y-124.9
X146.08Y-57.4
X146.08Y-65.7
X146.08Y-88.4
X146.08Y-96.7
X146.08Y-123.4
X146.08Y-131.7
X146.68Y-68.0
X146.68Y-99.5
X146.68Y-134.5
X147.28Y-64.8
X147.28Y-95.8
X147.28Y-130.8
X147.38Y-58.4
X147.38Y-89.4
X147.38Y-124.4
X148.68Y-87.0
X148.88Y-79.0
X148.88Y-110.0
X148.88Y-145.0
X149.08Y-65.1
X149.08Y-66.4
X149.08Y-96.1
X149.08Y-97.4
X149.08Y-131.1
X149.08Y-132.4
X149.18Y-56.5
X149.18Y-73.75
X149.18Y-76.0
X149.18Y-104.75
X149.18Y-107.0
X149.18Y-122.5
X149.18Y-139.75
X149.18Y-142.0
X150.28Y-67.7
X150.28Y-98.7
X150.28Y-133.7
X150.68Y-53.0
X150.88Y-58.4
X150.88Y-60.4
X150.88Y-63.4
X150.88Y-89.4
X150.88Y-91.4
X150.88Y-94.4
X150.88Y-124.4
X150.88Y-126.4
X150.88Y-129.4
X151.43Y-73.75
X151.43Y-76.0
X151.43Y-104.75
X151.43Y-107.0
X151.43Y-139.75
X151.43Y-142.0
X151.68Y-70.0
X151.68Y-71.0
X151.68Y-101.0
X151.68Y-102.0
X151.68Y-136.0
X151.68Y-137.0
X151.88Y-57.2
X151.88Y-59.4
X151.88Y-88.2
X151.88Y-90.4
X151.88Y-123.2
X151.88Y-125.4
X152.28Y-79.0
X152.28Y-110.0
X152.28Y-145.0
X152.43Y-68.0
X152.43Y-99.0
X152.43Y-134.0
X152.68Y-81.8
X152.93Y-69.25
X152.93Y-100.25
X152.93Y-135.25
X153.43Y-68.0
X153.43Y-99.0
X153.43Y-134.0
X153.48Y-56.8
X153.68Y-87.0
X153.68Y-88.0
X153.93Y-123.0
X154.18Y-70.0
X154.18Y-101.0
X154.18Y-136.0
X154.43Y-87.5
X154.43Y-88.5
X155.43Y-87.0
X155.43Y-88.75
X155.68Y-53.0
X155.68Y-56.0
X156.88Y-79.0
X156.88Y-110.0
X156.88Y-145.0
X157.18Y-87.5
X157.18Y-122.5
X157.68Y-67.0
X157.68Y-133.0
X158.18Y-98.0
X159.43Y-145.0
X159.88Y-126.3
X160.18Y-104.5
X160.18Y-139.5
X160.28Y-123.8
X160.28Y-125.2
X160.93Y-111.5
X161.18Y-116.75
X162.868Y-122.812
X162.88Y-124.7
X162.88Y-126.5
X163.88Y-123.7
X163.88Y-125.6
X165.43Y-117.5
X165.93Y-81.25
X165.93Y-100.5
X166.93Y-117.5
X168.18Y-117.25
X168.93Y-101.0
X168.93Y-104.0
X173.43Y-82.75
X173.93Y-120.75
X174.43Y-80.75
X175.93Y-80.75
X186.43Y-96.25
X188.68Y-124.5
X189.0Y-90.5
X189.0Y-92.0
X189.0Y-102.0
X189.0Y-114.5
X189.0Y-116.0
X190.45Y-99.05
X190.45Y-105.15
X190.55Y-108.75
X191.0Y-90.5
X191.0Y-102.0
X191.0Y-114.5
X191.4Y-120.0
X191.43Y-73.5
X193.0Y-90.5
X193.0Y-102.0
X193.0Y-114.5
X193.6Y-108.6
X193.68Y-120.0
X193.95Y-99.05
X193.95Y-105.15
X194.58Y-57.1
X195.0Y-90.5
X195.0Y-92.0
X195.0Y-102.0
X195.0Y-107.0
X195.0Y-116.0
X195.18Y-124.5
X196.0Y-125.2
X196.0Y-129.0
X196.0Y-130.5
X196.43Y-97.5
X196.5Y-112.5
X196.8Y-108.6
X196.93Y-104.0
X197.18Y-96.25
X197.8Y-131.2
X199.0Y-120.5
X199.0Y-125.2
X199.25Y-99.5
X199.5Y-112.5
X199.5Y-114.0
X199.5Y-115.5
X200.0Y-108.4
X200.4Y-125.2
X200.4Y-129.0
X200.4Y-130.4
X200.4Y-132.8
X200.68Y-102.75
X201.25Y-96.25
X201.25Y-98.25
X201.38Y-93.0
X201.43Y-85.5
X201.5Y-114.0
X203.5Y-99.5
X203.5Y-114.0
X204.0Y-98.0
X204.68Y-102.75
X205.0Y-130.6
X205.0Y-132.8
X205.2Y-91.8
X205.5Y-114.0
X205.5Y-115.5
X206.18Y-109.0
X206.2Y-91.8
X206.88Y-57.4
X206.88Y-59.3
X206.88Y-61.2
X206.88Y-63.1
X206.93Y-124.5
X207.0Y-54.85
X207.0Y-107.0
X207.2Y-91.8
X207.6Y-147.8
X207.9Y-97.5
X207.93Y-111.5
X208.2Y-91.8
X208.5Y-108.5
X208.5Y-113.5
X208.5Y-116.5
X208.5Y-120.0
X209.18Y-129.0
X209.2Y-91.8
X209.43Y-98.75
X210.2Y-91.8
X210.4Y-111.4
X212.0Y-130.6
X212.25Y-122.2
X212.5Y-112.5
X212.5Y-115.5
X212.5Y-118.0
X212.5Y-120.5
X213.0Y-90.8
X213.0Y-93.4
X213.18Y-100.2
X213.35Y-62.25
X215.4Y-93.4
X216.0Y-112.4
X219.075Y-57.475
X219.1Y-59.0
X219.4Y-147.8
X219.6Y-112.4
X221.68Y-120.75
X222.2Y-129.6
X222.498Y-110.682
X222.837Y-62.188
X223.18Y-117.75
X224.4Y-57.0
X225.0Y-112.4
X225.08Y-140.0
X225.08Y-144.2
X225.2Y-137.4
X225.4Y-58.0
X225.68Y-117.75
X226.18Y-99.5
X226.93Y-123.5
X227.18Y-129.2
X227.4Y-112.4
X227.68Y-110.75
X227.93Y-111.5
X228.0Y-98.5
X228.0Y-117.0
X228.28Y-108.0
X228.4Y-138.0
X228.65Y-59.0
X228.8Y-132.8
X228.93Y-112.5
X229.4Y-147.8
X229.48Y-109.4
X229.68Y-129.2
X230.48Y-106.0
X230.6Y-143.6
X230.88Y-123.0
X230.88Y-130.3
X230.93Y-110.0
X230.93Y-112.5
X231.0Y-98.5
X231.93Y-116.0
X232.28Y-129.2
X234.75Y-144.775
X235.58Y-105.0
X236.087Y-134.812
X236.25Y-143.5
X237.18Y-130.5
X238.4Y-133.8
X239.0Y-140.6
X239.0Y-143.5
X239.0Y-147.8
X239.3Y-141.7
X241.0Y-105.0
X241.0Y-106.5
X241.0Y-119.5
X241.0Y-121.0
X241.3Y-138.0
X242.0Y-141.4
X242.68Y-130.5
X243.0Y-105.0
X243.0Y-121.0
X243.0Y-133.8
X243.9Y-129.4
X244.18Y-115.0
X245.0Y-105.0
X245.0Y-121.0
X245.6Y-138.1
X246.18Y-110.5
X247.0Y-105.0
X247.0Y-106.5
X247.0Y-119.5
X247.0Y-121.0
X247.0Y-124.0
X247.0Y-131.0
X247.4Y-147.8
X247.537Y-136.713
X247.8Y-54.8
X247.8Y-56.6
X247.8Y-58.6
X247.8Y-60.2
X247.8Y-63.0
X248.0Y-112.0
X248.5Y-103.3
X248.5Y-135.5
X249.4Y-133.9
X249.58Y-84.9
X250.73Y-82.4
X251.0Y-102.0
X251.0Y-105.0
X251.0Y-106.5
X251.0Y-119.5
X251.0Y-125.0
X251.005Y-83.175
X251.08Y-75.4
X251.2Y-63.0
X251.68Y-115.5
X252.0Y-56.6
X252.0Y-58.6
X252.0Y-113.0
X252.18Y-74.3
X252.88Y-83.2
X253.0Y-105.0
X253.0Y-121.0
X253.0Y-131.0
X253.28Y-84.9
X253.4Y-56.6
X253.4Y-58.6
X253.88Y-74.3
X254.43Y-77.25
X254.68Y-83.15
X254.73Y-77.95
X254.78Y-75.4
X255.0Y-105.0
X255.0Y-121.0
X256.68Y-111.0
X257.0Y-105.0
X257.0Y-106.5
X257.0Y-119.5
X258.0Y-124.0
X258.08Y-70.2
X258.18Y-116.0
X258.88Y-100.8
X259.48Y-80.0
X260.43Y-126.0
X260.58Y-79.0
X260.68Y-97.5
X261.4Y-57.0
X261.58Y-80.8
X261.68Y-81.8
X262.68Y-78.3
X262.68Y-96.0
X263.08Y-73.3
X263.08Y-84.7
X263.575Y-60.425
X264.18Y-115.0
X264.43Y-93.6
X264.43Y-123.25
X264.63Y-97.4
X264.68Y-59.7
X264.68Y-127.2
X264.707Y-60.6
X264.73Y-101.8
X264.73Y-110.7
X264.78Y-68.1
X264.78Y-69.9
X264.78Y-70.9
X264.83Y-99.8
X264.93Y-119.25
X265.73Y-98.6
X265.755Y-96.175
X266.03Y-111.8
X266.13Y-100.6
X267.38Y-110.66
X267.43Y-101.8
X268.68Y-134.5
X269.18Y-119.15
X269.18Y-123.15
X269.18Y-127.15
X269.18Y-129.25
X269.18Y-131.25
X269.28Y-121.15
X272.93Y-97.5
X273.0Y-115.0
X273.0Y-119.0
X273.0Y-123.0
X273.0Y-127.0
X274.08Y-58.4
X275.88Y-72.0
X276.93Y-80.0
X277.08Y-78.1
X277.48Y-82.1
X277.48Y-91.6
X277.48Y-93.6
X277.48Y-95.4
X277.58Y-89.5
X277.68Y-104.75
X277.68Y-107.75
X277.75Y-64.0
X277.88Y-84.4
X278.03Y-98.0
X278.08Y-62.4
X278.08Y-67.6
X278.08Y-75.8
X278.08Y-86.6
X278.08Y-88.4
X278.08Y-90.6
X278.08Y-92.5
X278.08Y-94.4
X278.08Y-102.2
X278.48Y-100.4
T3
X16.355Y-55.55
X16.355Y-144.45
X16.948Y-54.118
X16.948Y-56.982
X16.948Y-143.018
X16.948Y-145.882
X18.38Y-53.525
X18.38Y-57.575
X18.38Y-142.425
X18.38Y-146.475
X19.812Y-54.118
X19.812Y-56.982
X19.812Y-143.018
X19.812Y-145.882
X20.405Y-55.55
X20.405Y-144.45
T4
X91.08Y-83.5
X91.08Y-110.2
X91.18Y-90.0
X97.68Y-109.0
X97.68Y-144.75
X103.18Y-83.5
X103.18Y-94.75
X103.18Y-114.25
X104.93Y-63.75
X104.93Y-129.5
X105.68Y-114.25
X105.68Y-121.0
X108.18Y-83.5
X110.43Y-114.25
X147.18Y-83.5
X152.68Y-114.25
X153.93Y-83.5
X156.93Y-83.5
X158.18Y-114.25
X164.18Y-83.5
X171.68Y-82.25
X171.93Y-106.75
X173.43Y-110.25
X174.43Y-114.25
X187.93Y-119.5
X189.93Y-117.0
X190.18Y-87.45
X190.18Y-93.6
X194.08Y-93.6
X194.18Y-87.4
X194.18Y-117.0
X197.43Y-101.0
X197.93Y-105.5
X198.0Y-107.6
X198.68Y-101.0
X200.48Y-110.95
X200.7Y-117.0
X200.93Y-120.25
X200.93Y-124.25
X204.18Y-120.0
X204.68Y-111.0
X204.68Y-117.0
X204.93Y-124.25
X206.43Y-87.25
X207.223Y-117.577
X207.223Y-121.2
X207.43Y-135.9
X207.43Y-137.25
X209.68Y-87.25
X210.4Y-133.0
X214.88Y-135.8
X214.88Y-137.2
X224.18Y-107.0
X237.38Y-56.2
X237.58Y-62.3
X239.38Y-53.5
X239.38Y-64.8
X241.13Y-62.25
X241.38Y-56.2
X241.58Y-107.8
X241.68Y-118.1
X243.78Y-110.8
X245.93Y-118.1
X245.98Y-107.8
X251.98Y-107.8
X252.18Y-118.1
X254.18Y-110.7
X254.18Y-115.25
X256.18Y-118.1
X256.38Y-107.8
X260.23Y-99.9
X262.53Y-97.7
X262.565Y-115.1
X264.38Y-113.108
X264.68Y-56.2
X264.68Y-57.4
T5
X26.0Y-64.2
X26.0Y-70.0
X65.68Y-87.8
X65.68Y-108.2
X65.68Y-122.8
X65.68Y-143.2
X66.08Y-56.8
X66.08Y-77.2
X109.18Y-55.8
X109.18Y-78.0
X109.18Y-86.8
X109.18Y-109.0
X109.18Y-121.8
X109.18Y-144.0
X147.98Y-71.0
X147.98Y-102.0
X147.98Y-137.0
X159.13Y-55.4
X159.13Y-68.85
X159.13Y-86.4
X159.13Y-99.85
X159.13Y-121.4
X159.13Y-134.85
X169.18Y-90.0
X170.43Y-59.75
X172.68Y-133.75
X241.18Y-74.0
T6
X136.91Y-55.23
X136.91Y-57.77
X136.91Y-66.73
X136.91Y-69.27
X136.91Y-86.23
X136.91Y-88.77
X136.91Y-97.73
X136.91Y-100.27
X136.91Y-121.23
X136.91Y-123.77
X136.91Y-132.73
X136.91Y-135.27
X138.18Y-56.5
X138.18Y-68.0
X138.18Y-87.5
X138.18Y-99.0
X138.18Y-122.5
X138.18Y-134.0
X139.45Y-55.23
X139.45Y-57.77
X139.45Y-66.73
X139.45Y-69.27
X139.45Y-86.23
X139.45Y-88.77
X139.45Y-97.73
X139.45Y-100.27
X139.45Y-121.23
X139.45Y-123.77
X139.45Y-132.73
X139.45Y-135.27
X226.21Y-87.23
X226.21Y-89.77
X227.48Y-88.5
X228.75Y-87.23
X228.75Y-89.77
X232.71Y-87.23
X232.71Y-89.77
X233.98Y-88.5
X235.25Y-87.23
X235.25Y-89.77
X239.21Y-87.23
X239.21Y-89.77
X240.48Y-88.5
X241.75Y-87.23
X241.75Y-89.77
X264.91Y-74.63
X264.91Y-77.17
X266.18Y-75.9
X267.45Y-74.63
X267.45Y-77.17
T7
X20.68Y-113.404
X20.68Y-115.436
X20.68Y-117.468
X20.68Y-119.5
X22.46Y-112.388
X22.46Y-114.42
X22.46Y-116.452
X22.46Y-118.484
T8
X138.93Y-62.25
X138.93Y-93.25
X138.93Y-128.25
X185.6Y-100.4
X185.68Y-91.5
X185.68Y-108.0
X185.68Y-115.1
X186.18Y-58.5
X254.5Y-140.6
X264.5Y-140.6
T9
X21.57Y-107.81
X21.57Y-124.07
T10
X186.0Y-140.0
X217.0Y-89.0
T11
X18.38Y-55.55
X18.38Y-144.45
T12
X18.14Y-109.59
X18.14Y-122.29
T0
M30
