G04 #@! TF.GenerationSoftware,KiCad,Pcbnew,(5.1.9)-1*
G04 #@! TF.CreationDate,2021-02-17T12:42:34-05:00*
G04 #@! TF.ProjectId,input_board,696e7075-745f-4626-9f61-72642e6b6963,rev?*
G04 #@! TF.SameCoordinates,Original*
G04 #@! TF.FileFunction,Soldermask,Bot*
G04 #@! TF.FilePolarity,Negative*
%FSLAX46Y46*%
G04 Gerber Fmt 4.6, Leading zero omitted, Abs format (unit mm)*
G04 Created by KiCad (PCBNEW (5.1.9)-1) date 2021-02-17 12:42:34*
%MOMM*%
%LPD*%
G01*
G04 APERTURE LIST*
%ADD10C,0.100000*%
%ADD11C,2.000000*%
%ADD12C,5.000000*%
%ADD13C,1.500000*%
%ADD14C,2.300000*%
%ADD15C,3.250000*%
%ADD16C,1.300000*%
%ADD17R,1.300000X1.300000*%
%ADD18R,4.300000X0.700000*%
%ADD19R,3.200000X0.700000*%
%ADD20C,5.400000*%
%ADD21C,0.800000*%
%ADD22C,0.457200*%
%ADD23C,1.240000*%
G04 APERTURE END LIST*
D10*
G36*
X284980000Y-110400000D02*
G01*
X278980000Y-110400000D01*
X278980000Y-58800000D01*
X284880000Y-58800000D01*
X284980000Y-110400000D01*
G37*
X284980000Y-110400000D02*
X278980000Y-110400000D01*
X278980000Y-58800000D01*
X284880000Y-58800000D01*
X284980000Y-110400000D01*
D11*
X138930000Y-128250000D03*
X138930000Y-93250000D03*
X138930000Y-62250000D03*
X185600000Y-100400000D03*
X185680000Y-115100000D03*
X185680000Y-108000000D03*
X185680000Y-91500000D03*
X186180000Y-58500000D03*
D12*
X217000000Y-89000000D03*
D13*
X26000000Y-70000000D03*
X26000000Y-64200000D03*
D14*
X21570000Y-124070000D03*
X21570000Y-107810000D03*
D15*
X18140000Y-109590000D03*
X18140000Y-122290000D03*
D16*
X22460000Y-112388000D03*
X22460000Y-114420000D03*
X22460000Y-116452000D03*
X22460000Y-118484000D03*
X20680000Y-113404000D03*
X20680000Y-115436000D03*
X20680000Y-117468000D03*
D17*
X20680000Y-119500000D03*
D18*
X281180000Y-73500000D03*
X281180000Y-72500000D03*
X281180000Y-78500000D03*
X281180000Y-77500000D03*
X281180000Y-76500000D03*
X281180000Y-75500000D03*
X281180000Y-74500000D03*
X281180000Y-69500000D03*
X281180000Y-68500000D03*
X281180000Y-67500000D03*
X281180000Y-66500000D03*
X281180000Y-65500000D03*
X281180000Y-64500000D03*
X281180000Y-63500000D03*
X281180000Y-62500000D03*
X281180000Y-61500000D03*
X281180000Y-60500000D03*
X281180000Y-59500000D03*
X281180000Y-79500000D03*
X281180000Y-80500000D03*
X281180000Y-81500000D03*
X281180000Y-82500000D03*
X281180000Y-83500000D03*
X281180000Y-84500000D03*
X281180000Y-85500000D03*
X281180000Y-86500000D03*
X281180000Y-87500000D03*
X281180000Y-88500000D03*
X281180000Y-89500000D03*
X281180000Y-90500000D03*
X281180000Y-91500000D03*
X281180000Y-92500000D03*
X281180000Y-93500000D03*
X281180000Y-94500000D03*
X281180000Y-95500000D03*
X281180000Y-96500000D03*
X281180000Y-97500000D03*
X281180000Y-98500000D03*
X281180000Y-99500000D03*
X281180000Y-100500000D03*
X281180000Y-101500000D03*
X281180000Y-102500000D03*
X281180000Y-103500000D03*
X281180000Y-104500000D03*
X281180000Y-105500000D03*
X281180000Y-106500000D03*
X281180000Y-107500000D03*
D19*
X280630000Y-108500000D03*
D18*
X281180000Y-109500000D03*
D11*
X264500000Y-140600000D03*
X254500000Y-140600000D03*
D20*
X18380000Y-144450000D03*
D21*
X20405000Y-144450000D03*
X19811891Y-145881891D03*
X18380000Y-146475000D03*
X16948109Y-145881891D03*
X16355000Y-144450000D03*
X16948109Y-143018109D03*
X18380000Y-142425000D03*
X19811891Y-143018109D03*
X19811891Y-54118109D03*
X18380000Y-53525000D03*
X16948109Y-54118109D03*
X16355000Y-55550000D03*
X16948109Y-56981891D03*
X18380000Y-57575000D03*
X19811891Y-56981891D03*
X20405000Y-55550000D03*
D20*
X18380000Y-55550000D03*
D22*
X157002500Y-130155000D03*
X157002500Y-128875000D03*
X157002500Y-127595000D03*
X157002500Y-126315000D03*
X157662500Y-130795000D03*
X156342500Y-130795000D03*
X157662500Y-129515000D03*
X156342500Y-129515000D03*
X157662500Y-128235000D03*
X156342500Y-128235000D03*
X157662500Y-126955000D03*
X156342500Y-126955000D03*
X157662500Y-125675000D03*
X156342500Y-125675000D03*
X157002500Y-95155000D03*
X157002500Y-93875000D03*
X157002500Y-92595000D03*
X157002500Y-91315000D03*
X157662500Y-95795000D03*
X156342500Y-95795000D03*
X157662500Y-94515000D03*
X156342500Y-94515000D03*
X157662500Y-93235000D03*
X156342500Y-93235000D03*
X157662500Y-91955000D03*
X156342500Y-91955000D03*
X157662500Y-90675000D03*
X156342500Y-90675000D03*
X157002500Y-64155000D03*
X157002500Y-62875000D03*
X157002500Y-61595000D03*
X157002500Y-60315000D03*
X157662500Y-64795000D03*
X156342500Y-64795000D03*
X157662500Y-63515000D03*
X156342500Y-63515000D03*
X157662500Y-62235000D03*
X156342500Y-62235000D03*
X157662500Y-60955000D03*
X156342500Y-60955000D03*
X157662500Y-59675000D03*
X156342500Y-59675000D03*
D13*
X172680000Y-133750000D03*
X147980000Y-137000000D03*
X159130000Y-121400000D03*
X159130000Y-134850000D03*
X65680000Y-122800000D03*
X65680000Y-143200000D03*
X109180000Y-144000000D03*
X109180000Y-121800000D03*
X169180000Y-90000000D03*
X147980000Y-102000000D03*
X159130000Y-86400000D03*
X159130000Y-99850000D03*
X65680000Y-87800000D03*
X65680000Y-108200000D03*
X109180000Y-109000000D03*
X109180000Y-86800000D03*
D23*
X136910000Y-135270000D03*
X139450000Y-132730000D03*
X139450000Y-135270000D03*
X136910000Y-132730000D03*
X138180000Y-134000000D03*
X136910000Y-123770000D03*
X139450000Y-121230000D03*
X139450000Y-123770000D03*
X136910000Y-121230000D03*
X138180000Y-122500000D03*
X136910000Y-100270000D03*
X139450000Y-97730000D03*
X139450000Y-100270000D03*
X136910000Y-97730000D03*
X138180000Y-99000000D03*
X136910000Y-88770000D03*
X139450000Y-86230000D03*
X139450000Y-88770000D03*
X136910000Y-86230000D03*
X138180000Y-87500000D03*
X136910000Y-69270000D03*
X139450000Y-66730000D03*
X139450000Y-69270000D03*
X136910000Y-66730000D03*
X138180000Y-68000000D03*
D13*
X147980000Y-71000000D03*
D12*
X186000000Y-140000000D03*
D13*
X241180000Y-74000000D03*
X66080000Y-56800000D03*
X66080000Y-77200000D03*
X109180000Y-78000000D03*
X109180000Y-55800000D03*
D23*
X136910000Y-57770000D03*
X139450000Y-55230000D03*
X139450000Y-57770000D03*
X136910000Y-55230000D03*
X138180000Y-56500000D03*
X264910000Y-77170000D03*
X267450000Y-74630000D03*
X267450000Y-77170000D03*
X264910000Y-74630000D03*
X266180000Y-75900000D03*
X232710000Y-89770000D03*
X235250000Y-87230000D03*
X235250000Y-89770000D03*
X232710000Y-87230000D03*
X233980000Y-88500000D03*
X239210000Y-89770000D03*
X241750000Y-87230000D03*
X241750000Y-89770000D03*
X239210000Y-87230000D03*
X240480000Y-88500000D03*
X226210000Y-89770000D03*
X228750000Y-87230000D03*
X228750000Y-89770000D03*
X226210000Y-87230000D03*
X227480000Y-88500000D03*
D13*
X170430000Y-59750000D03*
X159130000Y-55400000D03*
X159130000Y-68850000D03*
M02*
